<?xml version="1.0" standalone="no"?>
<!DOCTYPE svg PUBLIC "-//W3C//DTD SVG 1.1//EN" "http://www.w3.org/Graphics/SVG/1.1/DTD/svg11.dtd" >
<svg>
<metadata>
Created by FontForge 20120731 at Tue Feb  5 05:04:31 2019
 By www-data
Copyright (c) 2014 Monotype Imaging Inc. All rights reserved.
</metadata>
<defs>
<font id="FuturaLTPro-Heavy" horiz-adv-x="578" >
  <font-face 
    font-family="Futura LT Pro"
    font-weight="800"
    font-stretch="normal"
    units-per-em="1000"
    panose-1="2 11 7 2 2 2 4 2 2 3"
    ascent="825"
    descent="-175"
    x-height="491"
    cap-height="754"
    bbox="-148 -314 1178 1129"
    underline-thickness="50"
    underline-position="-50"
    stemh="77"
    stemv="86"
    unicode-range="U+000D-FB02"
  />
<missing-glyph horiz-adv-x="512" 
d="M0 718h512v-718h-512v718zM50 50h412v617h-412v-617zM383 478c0 -40 -15 -74 -46 -103s-49 -49 -56 -60s-10 -38 -10 -81h-46l-2 20c0 58 18 102 54 132c37 31 55 60 55 88c0 48 -35 85 -76 85s-74 -27 -82 -95l-50 8c9 96 64 137 135 137c72 0 124 -51 124 -131z
M222 117v67h56v-67h-56z" />
    <glyph glyph-name="napostrophe" unicode="&#x22;n" horiz-adv-x="540" 
d="M49 754l102 -36l-97 -177l-71 22zM490 304v-304h-140v284c0 98 -38 111 -76 111c-52 0 -84 -33 -84 -141v-254h-140v491h140v-45h2c29 44 77 61 128 61c115 0 170 -72 170 -203z" />
    <glyph glyph-name="IJ" unicode="IJ" horiz-adv-x="642" 
d="M54 754h147v-754h-147v754zM445 754h147v-517c0 -94 -22 -151 -61 -194c-39 -44 -100 -63 -152 -63c-56 0 -109 31 -148 71l94 108c7 -23 33 -49 57 -49c23 0 38 10 50 37c11 25 13 61 13 82v525z" />
    <glyph glyph-name="fi" unicode="fi" horiz-adv-x="544" 
d="M307 844v-125c-20 10 -36 17 -57 17c-43 0 -55 -40 -55 -84v-161h112v-118h-112v-373h-140v373h-47v118h47v146c0 132 61 223 185 223c24 0 47 -5 67 -16zM500 697c0 -47 -37 -83 -83 -83c-47 0 -83 36 -83 83c0 45 36 83 83 83s83 -38 83 -83zM347 491h140v-491h-140
v491z" />
    <glyph glyph-name="fl" unicode="fl" horiz-adv-x="543" 
d="M307 844v-125c-20 10 -36 17 -57 17c-43 0 -55 -40 -55 -84v-161h112v-118h-112v-373h-140v373h-47v118h47v146c0 132 61 223 185 223c24 0 47 -5 67 -16zM353 848h140v-848h-140v848z" />
    <glyph glyph-name="ij" unicode="ij" horiz-adv-x="487" 
d="M210 697c0 -47 -37 -83 -83 -83c-47 0 -83 36 -83 83c0 45 36 83 83 83s83 -38 83 -83zM57 491h140v-491h-140v491zM444 697c0 -47 -37 -83 -83 -83c-47 0 -83 36 -83 83c0 45 36 83 83 83s83 -38 83 -83zM291 491h140v-753h-140v753z" />
    <glyph glyph-name=".notdef" horiz-adv-x="512" 
d="M0 718h512v-718h-512v718zM50 50h412v617h-412v-617zM383 478c0 -40 -15 -74 -46 -103s-49 -49 -56 -60s-10 -38 -10 -81h-46l-2 20c0 58 18 102 54 132c37 31 55 60 55 88c0 48 -35 85 -76 85s-74 -27 -82 -95l-50 8c9 96 64 137 135 137c72 0 124 -51 124 -131z
M222 117v67h56v-67h-56z" />
    <glyph glyph-name=".null" horiz-adv-x="500" 
 />
    <glyph glyph-name=".null" horiz-adv-x="500" 
 />
    <glyph glyph-name="CR" unicode="&#xd;" horiz-adv-x="0" 
 />
    <glyph glyph-name="space" unicode=" " horiz-adv-x="289" 
 />
    <glyph glyph-name="exclam" unicode="!" horiz-adv-x="325" 
d="M91 754h142v-537h-142v537zM251 70c0 -49 -40 -90 -89 -90s-89 41 -89 90s40 88 89 88s89 -39 89 -88z" />
    <glyph glyph-name="quotedbl" unicode="&#x22;" horiz-adv-x="488" 
d="M88 754h120l-18 -328h-84zM280 754h120l-18 -328h-84z" />
    <glyph glyph-name="numbersign" unicode="#" 
d="M211 726h106l-39 -203h101l39 203h105l-39 -203h80v-113h-98l-24 -124h94v-113h-118l-33 -173h-106l33 173h-101l-33 -173h-106l33 173h-91v113h113l24 124h-96v113h117zM257 410l-24 -124h102l26 124h-104z" />
    <glyph glyph-name="dollar" unicode="$" 
d="M268 848h73v-94c68 -8 116 -33 159 -86l-67 -95c-28 36 -66 61 -111 61c-44 0 -85 -32 -85 -79c0 -42 34 -68 102 -98c40 -18 72 -33 98 -52c62 -44 86 -99 86 -170c0 -111 -64 -211 -182 -235v-100h-73v95c-99 11 -163 52 -214 148l89 86c32 -64 81 -107 140 -107
s97 45 97 101c0 51 -34 75 -95 104c-44 21 -80 36 -109 57c-53 38 -80 86 -80 158c0 112 64 193 172 213v93z" />
    <glyph glyph-name="percent" unicode="%" horiz-adv-x="772" 
d="M553 780l68 -34l-404 -777l-69 35zM363 595c0 -102 -76 -178 -179 -178c-104 0 -179 76 -179 178c0 105 78 179 179 179s179 -74 179 -179zM184 498c47 0 80 46 80 97s-33 98 -81 98c-46 0 -79 -48 -79 -98c0 -51 33 -97 80 -97zM766 158c0 -102 -75 -178 -179 -178
c-103 0 -179 76 -179 178c0 105 79 179 179 179s179 -74 179 -179zM587 61c47 0 80 46 80 97s-33 98 -81 98c-45 0 -79 -48 -79 -98c0 -51 33 -97 80 -97z" />
    <glyph glyph-name="ampersand" unicode="&#x26;" horiz-adv-x="702" 
d="M511 588c0 -65 -36 -125 -124 -182l105 -135l76 97l93 -87l-81 -109l130 -172h-179l-61 76c-63 -55 -131 -96 -216 -96c-127 0 -221 94 -221 220c0 44 11 87 39 128c23 33 42 50 115 99c-35 49 -61 99 -61 160c0 107 79 187 192 187c116 0 193 -80 193 -186zM319 492
c17 14 30 24 40 35c20 22 27 43 27 68c0 41 -23 74 -60 74c-39 0 -61 -34 -61 -70c0 -43 25 -63 54 -107zM271 112c45 0 83 36 112 65l-117 157c-37 -27 -85 -65 -85 -121c0 -49 42 -101 90 -101z" />
    <glyph glyph-name="quotesingle" unicode="'" horiz-adv-x="296" 
d="M88 754h120l-18 -328h-84z" />
    <glyph glyph-name="parenleft" unicode="(" horiz-adv-x="271" 
d="M175 832l86 -58c-60 -137 -82 -301 -82 -450c0 -163 29 -337 82 -449l-86 -59c-63 123 -101 307 -101 514c0 193 40 382 101 502z" />
    <glyph glyph-name="parenright" unicode=")" horiz-adv-x="271" 
d="M10 774l86 58c60 -120 101 -309 101 -502c0 -207 -38 -391 -101 -514l-86 59c58 128 82 294 82 449c0 149 -22 311 -82 450z" />
    <glyph glyph-name="asterisk" unicode="*" horiz-adv-x="417" 
d="M166 754h86l-2 -101l77 52l36 -67l-81 -50l81 -50l-36 -67l-77 52l2 -99h-86l3 99l-78 -52l-36 67l79 50l-80 50l35 67l80 -52z" />
    <glyph glyph-name="plus" unicode="+" 
d="M230 512h118v-197h197v-118h-197v-197h-118v197h-197v118h197v197z" />
    <glyph glyph-name="comma" unicode="," horiz-adv-x="289" 
d="M135 156l128 -14l-144 -301l-93 11z" />
    <glyph glyph-name="hyphen" unicode="-" horiz-adv-x="330" 
d="M43 378h244v-115h-244v115z" />
    <glyph glyph-name="period" unicode="." horiz-adv-x="289" 
d="M234 70c0 -49 -40 -90 -89 -90s-89 41 -89 90s40 88 89 88s89 -39 89 -88z" />
    <glyph glyph-name="slash" unicode="/" horiz-adv-x="539" 
d="M37 -127l368 975l97 -35l-368 -975z" />
    <glyph glyph-name="zero" unicode="0" 
d="M559 377c0 -184 -82 -397 -270 -397c-194 0 -270 224 -270 396c0 175 75 398 270 398c193 0 270 -219 270 -397zM289 108c101 0 126 185 126 263c0 128 -35 275 -127 275c-91 0 -125 -157 -125 -269s35 -269 126 -269z" />
    <glyph glyph-name="one" unicode="1" 
d="M145 754h246v-754h-147v626h-99v128z" />
    <glyph glyph-name="two" unicode="2" 
d="M531 531c0 -84 -32 -154 -110 -249c-7 -8 -16 -19 -132 -154h247v-128h-508l243 306c58 73 113 159 113 218c0 60 -39 122 -97 122c-56 0 -93 -55 -93 -123v-6h-156c13 165 109 257 248 257c140 0 245 -107 245 -243z" />
    <glyph glyph-name="three" unicode="3" 
d="M507 561c0 -59 -21 -122 -72 -157c61 -26 97 -104 97 -184c0 -145 -103 -240 -251 -240c-135 0 -241 99 -250 238h148c3 -60 43 -110 108 -110c60 0 101 54 101 121c0 47 -23 88 -53 107c-16 10 -30 13 -47 13c-8 0 -25 -1 -33 -2v105h14c72 0 98 48 98 104
c0 55 -35 96 -86 96c-44 0 -78 -37 -82 -95h-140c15 139 103 217 231 217c133 0 217 -87 217 -213z" />
    <glyph glyph-name="four" unicode="4" 
d="M339 768h134v-517h80v-118h-80v-133h-138v133h-332v66zM333 551l-159 -300h161v300h-2z" />
    <glyph glyph-name="five" unicode="5" 
d="M171 754h328v-128h-224l-26 -115c7 0 36 2 43 2c122 0 238 -102 238 -262c0 -161 -112 -271 -274 -271c-90 0 -165 33 -224 100l44 126c39 -56 101 -98 170 -98c80 0 135 69 135 149c0 81 -63 150 -147 150c-43 0 -90 -20 -121 -49h-23z" />
    <glyph glyph-name="six" unicode="6" 
d="M313 785l108 -78l-155 -219l2 -2c17 7 38 10 59 10c131 0 224 -111 224 -250c0 -151 -108 -266 -266 -266c-153 0 -264 109 -264 256c0 90 46 184 88 246zM284 100c69 0 119 67 119 140s-48 141 -120 141c-69 0 -119 -69 -119 -141c0 -70 48 -140 120 -140z" />
    <glyph glyph-name="seven" unicode="7" 
d="M43 754h539l-413 -774l-121 69l311 577h-316v128z" />
    <glyph glyph-name="eight" unicode="8" 
d="M510 559c0 -69 -36 -134 -99 -166c83 -31 122 -106 122 -192c0 -129 -109 -221 -244 -221s-244 92 -244 221c0 88 40 161 122 192c-63 31 -99 97 -99 166c0 127 96 215 221 215c128 0 221 -90 221 -215zM289 453c54 0 87 55 87 106c0 52 -34 105 -88 105
c-50 0 -86 -51 -86 -105c0 -53 35 -106 87 -106zM289 102c57 0 96 55 96 115c0 61 -38 116 -97 116c-55 0 -95 -55 -95 -116c0 -60 39 -115 96 -115z" />
    <glyph glyph-name="nine" unicode="9" 
d="M556 517c-1 -95 -46 -183 -88 -246l-204 -303l-108 79l155 219l-2 2c-17 -7 -38 -11 -59 -11c-132 0 -224 113 -224 250c0 155 110 267 266 267c155 0 264 -111 264 -257zM293 372c72 0 120 70 120 141c0 70 -46 141 -121 141c-67 0 -118 -66 -118 -141s51 -141 119 -141
z" />
    <glyph glyph-name="colon" unicode=":" horiz-adv-x="289" 
d="M234 430c0 -49 -40 -90 -89 -90s-89 41 -89 90s40 88 89 88s89 -39 89 -88zM234 70c0 -49 -40 -90 -89 -90s-89 41 -89 90s40 88 89 88s89 -39 89 -88z" />
    <glyph glyph-name="semicolon" unicode=";" horiz-adv-x="289" 
d="M274 430c0 -49 -40 -90 -89 -90s-89 41 -89 90s40 88 89 88s89 -39 89 -88zM125 156l128 -14l-144 -301l-93 11z" />
    <glyph glyph-name="less" unicode="&#x3c;" 
d="M545 498v-126l-325 -115v-2l325 -115v-126l-512 182v120z" />
    <glyph glyph-name="equal" unicode="=" 
d="M33 433h512v-118h-512v118zM33 197h512v-118h-512v118z" />
    <glyph glyph-name="greater" unicode="&#x3e;" 
d="M33 372v126l512 -182v-120l-512 -182v126l325 115v2z" />
    <glyph glyph-name="question" unicode="?" horiz-adv-x="487" 
d="M457 559c0 -98 -65 -184 -161 -206l-8 -96h-140v199c11 -3 23 -4 36 -4c71 0 128 44 128 112c0 44 -26 88 -69 88s-67 -38 -67 -86v-8h-146v12c0 114 94 204 212 204c125 0 215 -94 215 -215zM309 70c0 -49 -40 -90 -89 -90s-89 41 -89 90s40 88 89 88s89 -39 89 -88z
" />
    <glyph glyph-name="at" unicode="@" horiz-adv-x="975" 
d="M852 454c0 -200 -120 -302 -210 -302c-38 0 -53 25 -60 62c-35 -35 -76 -62 -136 -62c-93 0 -168 88 -168 187c0 129 85 240 204 240c51 0 93 -19 133 -72l14 63h71l-50 -259c-5 -28 -8 -39 -8 -57c0 -17 5 -30 22 -30c50 0 102 101 102 194c0 167 -110 270 -264 270
c-166 0 -293 -134 -293 -311c0 -178 138 -311 317 -311c83 0 142 16 179 43l75 -60c-92 -52 -166 -69 -268 -69c-224 0 -389 176 -389 397c0 226 169 397 382 397c104 0 179 -36 241 -93c66 -60 106 -138 106 -227zM456 238c95 0 135 73 135 159c0 64 -40 96 -104 96
c-72 0 -123 -63 -123 -147c0 -60 29 -108 92 -108z" />
    <glyph glyph-name="A" unicode="A" horiz-adv-x="676" 
d="M285 774h114l286 -774h-157l-58 159h-262l-62 -159h-155zM333 553l-83 -274h179l-94 274h-2z" />
    <glyph glyph-name="B" unicode="B" horiz-adv-x="553" 
d="M54 754h188c144 0 221 -65 221 -204c0 -56 -19 -116 -66 -147c80 -15 129 -94 129 -189c0 -139 -94 -214 -238 -214h-234v754zM201 636v-196h18c79 0 107 27 107 99c0 64 -28 97 -108 97h-17zM201 328v-210h41c59 0 94 12 113 32s24 47 24 76c0 51 -21 81 -67 94
c-21 6 -48 8 -80 8h-31z" />
    <glyph glyph-name="C" unicode="C" horiz-adv-x="601" 
d="M558 730v-176c-41 51 -105 80 -166 80c-135 0 -222 -121 -222 -260c0 -136 91 -254 221 -254c64 0 126 33 167 80v-175c-56 -26 -110 -45 -171 -45c-212 0 -369 182 -369 391c0 219 155 403 372 403c60 0 117 -16 168 -44z" />
    <glyph glyph-name="D" unicode="D" horiz-adv-x="646" 
d="M54 754h215c88 0 184 -32 254 -103c69 -70 105 -169 105 -275c0 -103 -35 -200 -105 -271s-164 -105 -255 -105h-214v754zM201 626v-498h21c171 0 254 85 254 249s-82 249 -254 249h-21z" />
    <glyph glyph-name="E" unicode="E" horiz-adv-x="488" 
d="M54 754h390v-128h-243v-166h234v-128h-234v-204h243v-128h-390v754z" />
    <glyph glyph-name="F" unicode="F" horiz-adv-x="463" 
d="M54 754h374v-128h-227v-166h213v-128h-213v-332h-147v754z" />
    <glyph glyph-name="G" unicode="G" horiz-adv-x="739" 
d="M684 594l-130 -70c-31 68 -93 120 -172 120c-132 0 -212 -130 -212 -270c0 -139 81 -264 213 -264c86 0 167 71 172 171h-160v120h325v-21c0 -233 -127 -400 -343 -400c-213 0 -359 177 -359 394c0 230 156 400 368 400c129 0 239 -64 298 -180z" />
    <glyph glyph-name="H" unicode="H" horiz-adv-x="674" 
d="M54 754h147v-297h272v297h147v-754h-147v337h-272v-337h-147v754z" />
    <glyph glyph-name="I" unicode="I" horiz-adv-x="254" 
d="M54 754h147v-754h-147v754z" />
    <glyph glyph-name="J" unicode="J" horiz-adv-x="389" 
d="M192 754h147v-517c0 -94 -22 -151 -61 -194c-39 -44 -100 -63 -152 -63c-56 0 -109 31 -148 71l94 108c7 -23 33 -49 57 -49c23 0 38 10 50 37c11 25 13 61 13 82v525z" />
    <glyph glyph-name="K" unicode="K" horiz-adv-x="620" 
d="M54 754h147v-318h2l233 318h181l-286 -348l302 -406h-189l-241 339h-2v-339h-147v754z" />
    <glyph glyph-name="L" unicode="L" horiz-adv-x="402" 
d="M54 754h147v-626h208v-128h-355v754z" />
    <glyph glyph-name="M" unicode="M" horiz-adv-x="836" 
d="M138 774h104l186 -497l178 497h106l113 -774h-148l-60 468h-2l-171 -478h-51l-165 478h-2l-67 -468h-148z" />
    <glyph glyph-name="N" unicode="N" horiz-adv-x="759" 
d="M54 774h106l397 -527h2v507h147v-769h-106l-397 527h-2v-512h-147v774z" />
    <glyph glyph-name="O" unicode="O" horiz-adv-x="782" 
d="M764 378c0 -228 -148 -398 -373 -398c-224 0 -373 170 -373 398c0 231 155 396 373 396c221 0 373 -168 373 -396zM391 125c147 0 221 120 221 259c0 130 -88 245 -222 245c-130 0 -220 -113 -220 -245c0 -139 75 -259 221 -259z" />
    <glyph glyph-name="P" unicode="P" horiz-adv-x="528" 
d="M54 754h205c168 0 256 -78 256 -234c0 -163 -92 -238 -236 -238h-78v-282h-147v754zM201 632v-228h32c106 0 132 38 132 117c0 65 -21 111 -130 111h-34z" />
    <glyph glyph-name="Q" unicode="Q" horiz-adv-x="782" 
d="M764 378c0 -103 -30 -197 -89 -273l103 -122l-148 -15l-52 63c-52 -35 -118 -51 -187 -51c-218 0 -373 181 -373 398c0 215 156 396 373 396c216 0 373 -180 373 -396zM390 122c28 0 60 12 80 25l-124 143l152 12l67 -76c33 41 47 104 47 156c0 128 -93 252 -222 252
c-131 0 -220 -122 -220 -265c0 -137 88 -247 220 -247z" />
    <glyph glyph-name="R" unicode="R" horiz-adv-x="558" 
d="M54 754h203c156 0 248 -78 248 -227c0 -103 -61 -195 -154 -209l213 -318h-178l-183 304h-2v-304h-147v754zM201 634v-227h16c101 0 141 36 141 116c0 78 -39 111 -139 111h-18z" />
    <glyph glyph-name="S" unicode="S" horiz-adv-x="526" 
d="M478 690l-69 -102c-28 39 -64 62 -113 62s-92 -37 -92 -85c0 -43 36 -70 105 -97c56 -22 97 -44 127 -70c49 -42 67 -96 67 -160c0 -153 -96 -258 -248 -258c-104 0 -180 59 -232 147l95 93c22 -64 79 -110 136 -110c55 0 97 45 97 109c0 55 -35 86 -103 112
c-132 50 -196 102 -196 217c0 124 92 226 220 226c73 0 164 -37 206 -84z" />
    <glyph glyph-name="T" unicode="T" horiz-adv-x="451" 
d="M0 754h451v-128h-152v-626h-147v626h-152v128z" />
    <glyph glyph-name="U" unicode="U" horiz-adv-x="660" 
d="M50 754h147v-429c0 -161 48 -217 133 -217c84 0 133 56 133 215v431h147v-455c0 -97 -23 -177 -70 -234c-47 -56 -118 -85 -210 -85s-163 29 -210 85c-47 57 -70 137 -70 234v455z" />
    <glyph glyph-name="V" unicode="V" horiz-adv-x="639" 
d="M-14 754h158l181 -508h2l168 508h158l-293 -774h-86z" />
    <glyph glyph-name="W" unicode="W" horiz-adv-x="977" 
d="M444 764h87l156 -524h2l148 514h154l-255 -769h-108l-150 493h-2l-142 -493h-108l-240 769h154l152 -514h2z" />
    <glyph glyph-name="X" unicode="X" horiz-adv-x="623" 
d="M30 754h174l120 -234l110 234h174l-209 -355l232 -399h-171l-152 276l-144 -276h-172l241 399z" />
    <glyph glyph-name="Y" unicode="Y" horiz-adv-x="587" 
d="M-16 754h171l132 -262l144 262h172l-238 -408v-346h-147v346z" />
    <glyph glyph-name="Z" unicode="Z" horiz-adv-x="575" 
d="M56 754h514l-331 -626h313v-128h-547l332 626h-281v128z" />
    <glyph glyph-name="bracketleft" unicode="[" horiz-adv-x="288" 
d="M45 845h198v-91h-92v-754h92v-91h-198v936z" />
    <glyph glyph-name="backslash" unicode="\" horiz-adv-x="539" 
d="M30 848h112l368 -848h-112z" />
    <glyph glyph-name="bracketright" unicode="]" horiz-adv-x="288" 
d="M45 845h198v-936h-198v91h92v754h-92v91z" />
    <glyph glyph-name="asciicircum" unicode="^" 
d="M226 754h124l195 -425h-129l-127 283l-127 -283h-129z" />
    <glyph glyph-name="underscore" unicode="_" horiz-adv-x="500" 
d="M0 -75h500v-50h-500v50z" />
    <glyph glyph-name="grave" unicode="`" horiz-adv-x="380" 
d="M79 712l102 62l120 -168l-71 -44z" />
    <glyph glyph-name="a" unicode="a" horiz-adv-x="565" 
d="M376 445v46h138v-491h-138v45h-2c-31 -39 -82 -61 -133 -61c-133 0 -226 117 -226 264c0 138 90 259 224 259c51 0 103 -22 137 -62zM273 108c67 0 117 65 117 138c0 71 -48 137 -118 137c-67 0 -115 -66 -115 -137c0 -72 49 -138 116 -138z" />
    <glyph glyph-name="b" unicode="b" horiz-adv-x="565" 
d="M50 848h140v-402c33 39 84 61 136 61c133 0 224 -122 224 -259c0 -145 -91 -264 -227 -264c-51 0 -103 22 -131 62h-2v-46h-140v848zM292 108c69 0 116 68 116 138s-46 137 -117 137c-67 0 -115 -66 -115 -137c0 -72 49 -138 116 -138z" />
    <glyph glyph-name="c" unicode="c" horiz-adv-x="421" 
d="M384 476v-135c-31 31 -60 48 -103 48c-77 0 -124 -71 -124 -146c0 -79 50 -141 129 -141c39 0 73 19 98 47v-135c-40 -22 -78 -30 -121 -30c-144 0 -248 117 -248 260c0 147 108 263 255 263c39 0 79 -10 114 -31z" />
    <glyph glyph-name="d" unicode="d" horiz-adv-x="565" 
d="M375 848h140v-848h-140v46h-2c-29 -40 -81 -62 -132 -62c-132 0 -226 116 -226 264c0 141 92 259 224 259c51 0 103 -22 134 -61h2v402zM273 108c69 0 116 68 116 138c0 71 -48 137 -117 137c-67 0 -115 -66 -115 -137c0 -72 49 -138 116 -138z" />
    <glyph glyph-name="e" unicode="e" horiz-adv-x="501" 
d="M486 223h-323c1 -84 37 -132 97 -132c47 0 75 28 94 67l129 -21c-35 -99 -119 -153 -223 -153c-150 0 -245 107 -245 257c0 156 85 266 238 266c146 0 233 -98 233 -272v-12zM167 310h187c-9 61 -47 99 -94 99c-44 0 -83 -32 -93 -99z" />
    <glyph glyph-name="f" unicode="f" horiz-adv-x="303" 
d="M307 844v-125c-20 10 -36 17 -57 17c-43 0 -55 -40 -55 -84v-161h112v-118h-112v-373h-140v373h-47v118h47v146c0 132 61 223 185 223c24 0 47 -5 67 -16z" />
    <glyph glyph-name="g" unicode="g" horiz-adv-x="562" 
d="M370 444h2v47h140v-466c0 -183 -76 -287 -238 -287c-124 0 -240 75 -248 204h148c7 -52 44 -86 97 -86c52 0 101 20 101 141v52h-2c-30 -40 -82 -65 -134 -65c-137 0 -221 116 -221 258c0 140 86 265 228 265c47 0 99 -24 127 -63zM273 108c68 0 116 67 116 137
c0 72 -48 138 -117 138c-65 0 -115 -64 -115 -138c0 -70 48 -137 116 -137z" />
    <glyph glyph-name="h" unicode="h" horiz-adv-x="540" 
d="M50 848h140v-398h2c29 40 77 57 128 57c115 0 170 -72 170 -203v-304h-140v287c0 101 -45 108 -77 108c-49 0 -83 -31 -83 -141v-254h-140v848z" />
    <glyph glyph-name="i" unicode="i" horiz-adv-x="253" 
d="M210 697c0 -47 -37 -83 -83 -83c-47 0 -83 36 -83 83c0 45 36 83 83 83s83 -38 83 -83zM57 491h140v-491h-140v491z" />
    <glyph glyph-name="j" unicode="j" horiz-adv-x="253" 
d="M210 697c0 -47 -37 -83 -83 -83c-47 0 -83 36 -83 83c0 45 36 83 83 83s83 -38 83 -83zM57 491h140v-753h-140v753z" />
    <glyph glyph-name="k" unicode="k" horiz-adv-x="526" 
d="M50 848h140v-537h2l147 180h182l-207 -216l223 -275h-184l-161 209h-2v-209h-140v848z" />
    <glyph glyph-name="l" unicode="l" horiz-adv-x="239" 
d="M50 848h140v-848h-140v848z" />
    <glyph glyph-name="m" unicode="m" horiz-adv-x="802" 
d="M453 430c30 48 86 77 143 77c106 0 156 -69 156 -196v-311h-140v275c0 102 -32 120 -66 120c-50 0 -75 -41 -75 -146v-249h-140v285c0 51 -11 110 -67 110c-42 0 -74 -30 -74 -125v-270h-140v491h140v-44h2c27 39 75 60 120 60c63 0 109 -25 141 -77z" />
    <glyph glyph-name="n" unicode="n" horiz-adv-x="540" 
d="M490 304v-304h-140v284c0 98 -38 111 -76 111c-52 0 -84 -33 -84 -141v-254h-140v491h140v-45h2c29 44 77 61 128 61c115 0 170 -72 170 -203z" />
    <glyph glyph-name="o" unicode="o" horiz-adv-x="548" 
d="M532 245c0 -153 -106 -261 -258 -261s-258 108 -258 261c0 154 106 262 258 262c154 0 258 -111 258 -262zM274 108c69 0 116 67 116 137c0 71 -46 138 -117 138c-66 0 -115 -65 -115 -138c0 -70 48 -137 116 -137z" />
    <glyph glyph-name="p" unicode="p" horiz-adv-x="565" 
d="M550 248c0 -144 -90 -264 -227 -264c-51 0 -103 22 -131 62h-2v-308h-140v753h140v-45c32 39 85 61 136 61c133 0 224 -122 224 -259zM292 108c69 0 116 68 116 138c0 71 -48 137 -117 137c-67 0 -115 -66 -115 -137c0 -72 49 -138 116 -138z" />
    <glyph glyph-name="q" unicode="q" horiz-adv-x="565" 
d="M373 446h2v45h140v-753h-140v308h-2c-29 -40 -81 -62 -132 -62c-132 0 -226 116 -226 264c0 143 93 259 224 259c51 0 103 -22 134 -61zM273 108c69 0 116 68 116 138c0 71 -47 137 -117 137c-66 0 -115 -66 -115 -137c0 -72 49 -138 116 -138z" />
    <glyph glyph-name="r" unicode="r" horiz-adv-x="367" 
d="M372 495l-17 -130c-17 12 -37 18 -58 18c-71 0 -107 -44 -107 -157v-226h-140v491h140v-51h2c28 43 70 67 122 67c20 0 38 -5 58 -12z" />
    <glyph glyph-name="s" unicode="s" horiz-adv-x="410" 
d="M362 456l-60 -81c-20 19 -46 34 -74 34c-23 0 -46 -18 -46 -42c0 -25 23 -37 68 -55c23 -9 44 -17 60 -26c51 -29 74 -68 74 -128c0 -104 -82 -174 -191 -174c-67 0 -130 30 -173 82l64 83c28 -31 63 -57 104 -57c31 0 56 21 56 53c0 30 -23 45 -70 63
c-39 15 -69 28 -89 47c-27 25 -37 56 -37 93c0 92 65 159 156 159c52 0 118 -16 158 -51z" />
    <glyph glyph-name="t" unicode="t" horiz-adv-x="274" 
d="M67 657h140v-166h86v-118h-86v-373h-140v373h-48v118h48v166z" />
    <glyph glyph-name="u" unicode="u" horiz-adv-x="535" 
d="M47 491h140v-270c0 -81 27 -119 80 -119s80 38 80 119v270h140v-293c0 -133 -70 -214 -220 -214c-149 0 -220 81 -220 214v293z" />
    <glyph glyph-name="v" unicode="v" horiz-adv-x="488" 
d="M-18 491h154l115 -277l101 277h153l-226 -501h-72z" />
    <glyph glyph-name="w" unicode="w" horiz-adv-x="783" 
d="M357 507h67l121 -303l104 287h152l-228 -501h-71l-105 299l-117 -299h-72l-226 501h153l102 -283z" />
    <glyph glyph-name="x" unicode="x" horiz-adv-x="549" 
d="M23 491h170l91 -127l78 127h172l-174 -224l207 -267h-172l-126 171l-113 -171h-174l210 267z" />
    <glyph glyph-name="y" unicode="y" horiz-adv-x="520" 
d="M-18 491h159l117 -279l126 279h156l-357 -753h-154l162 337z" />
    <glyph glyph-name="z" unicode="z" horiz-adv-x="481" 
d="M38 491h443l-249 -373h233v-118h-466l251 373h-212v118z" />
    <glyph glyph-name="braceleft" unicode="{" horiz-adv-x="389" 
d="M229 838h91v-91h-40c-30 0 -31 -29 -31 -58v-185c0 -71 -31 -136 -76 -168c47 -31 76 -96 76 -167v-189c0 -23 0 -54 31 -54h40v-91h-90c-17 0 -39 12 -58 39c-19 26 -29 59 -29 90v189c0 68 -23 124 -75 147v73c52 23 75 79 75 147v188c0 34 10 65 29 91
c20 26 40 39 57 39z" />
    <glyph glyph-name="bar" unicode="|" horiz-adv-x="538" 
d="M210 786h118v-1000h-118v1000z" />
    <glyph glyph-name="braceright" unicode="}" horiz-adv-x="389" 
d="M69 838h91c17 0 38 -13 57 -39s29 -58 29 -91v-187c0 -68 23 -125 75 -148v-73c-52 -23 -75 -80 -75 -148v-187c0 -29 -10 -65 -29 -91s-41 -39 -58 -39h-90v91h40c29 0 31 25 31 58v185c0 71 29 136 76 167c-47 33 -76 97 -76 168v189c0 23 0 54 -30 54h-41v91z" />
    <glyph glyph-name="asciitilde" unicode="~" 
d="M392 285c20 0 41 42 54 78l99 -90c-58 -107 -104 -143 -152 -143c-39 0 -72 21 -115 49c-49 32 -66 48 -90 48c-19 0 -40 -37 -56 -77l-99 88c8 9 23 34 52 75c31 44 66 70 101 70c29 0 68 -16 109 -49s74 -49 97 -49z" />
    <glyph glyph-name="uni00A0" unicode="&#xa0;" horiz-adv-x="289" 
 />
    <glyph glyph-name="Agrave" unicode="&#xc0;" horiz-adv-x="676" 
d="M285 774h114l286 -774h-157l-58 159h-262l-62 -159h-155zM333 553l-83 -274h179l-94 274h-2zM202 940l102 62l120 -168l-71 -44z" />
    <glyph glyph-name="Aacute" unicode="&#xc1;" horiz-adv-x="676" 
d="M285 774h114l286 -774h-157l-58 159h-262l-62 -159h-155zM333 553l-83 -274h179l-94 274h-2zM377 1002l102 -62l-151 -150l-71 44z" />
    <glyph glyph-name="Acircumflex" unicode="&#xc2;" horiz-adv-x="676" 
d="M285 774h114l286 -774h-157l-58 159h-262l-62 -159h-155zM333 553l-83 -274h179l-94 274h-2zM168 848l170 154l170 -154l-60 -66l-110 104l-110 -104z" />
    <glyph glyph-name="Atilde" unicode="&#xc3;" horiz-adv-x="676" 
d="M285 774h114l286 -774h-157l-58 159h-262l-62 -159h-155zM333 553l-83 -274h179l-94 274h-2zM399 928c28 0 35 18 47 42h83c-16 -88 -60 -141 -121 -141c-24 0 -51 14 -78 26c-21 10 -41 18 -57 18c-23 0 -36 -18 -43 -41h-82c9 81 52 139 109 139c24 0 46 -8 70 -18
c30 -12 56 -25 72 -25z" />
    <glyph glyph-name="Adieresis" unicode="&#xc4;" horiz-adv-x="676" 
d="M285 774h114l286 -774h-157l-58 159h-262l-62 -159h-155zM333 553l-83 -274h179l-94 274h-2zM313 910c0 -44 -36 -80 -80 -80s-80 36 -80 80s36 80 80 80s80 -36 80 -80zM524 910c0 -44 -36 -80 -80 -80s-80 36 -80 80s36 80 80 80s80 -36 80 -80z" />
    <glyph glyph-name="Amacron" unicode="&#x100;" horiz-adv-x="676" 
d="M285 774h114l286 -774h-157l-58 159h-262l-62 -159h-155zM333 553l-83 -274h179l-94 274h-2zM151 982h382v-88h-382v88z" />
    <glyph glyph-name="Abreve" unicode="&#x102;" horiz-adv-x="676" 
d="M285 774h114l286 -774h-157l-58 159h-262l-62 -159h-155zM333 553l-83 -274h179l-94 274h-2zM166 982h98c9 -40 31 -71 75 -71s66 31 75 71h98c-10 -98 -85 -156 -173 -156c-90 0 -164 62 -173 156z" />
    <glyph glyph-name="Aring" unicode="&#xc5;" horiz-adv-x="676" 
d="M285 774h114l286 -774h-157l-58 159h-262l-62 -159h-155zM333 553l-83 -274h179l-94 274h-2zM438 902c0 -55 -45 -101 -100 -101s-100 46 -100 101c0 57 45 100 100 100s100 -45 100 -100zM338 860c23 0 41 19 41 42s-18 41 -41 41s-41 -18 -41 -41s18 -42 41 -42z" />
    <glyph glyph-name="Aogonek" unicode="&#x104;" horiz-adv-x="676" 
d="M285 774h114l286 -774h-71c-44 -39 -58 -67 -58 -102c0 -25 17 -46 44 -46c17 0 33 5 48 16l-14 -75c-19 -13 -46 -18 -69 -18c-55 0 -99 41 -99 90c0 51 18 88 78 135h-16l-58 159h-262l-62 -159h-155zM333 553l-83 -274h179l-94 274h-2z" />
    <glyph glyph-name="AE" unicode="&#xc6;" horiz-adv-x="921" 
d="M284 754h372l46 -128h-250l61 -167h246l46 -128h-246l75 -203h250l45 -128h-403l-59 159h-261l-59 -159h-156zM332 535l-83 -256h178l-93 256h-2z" />
    <glyph glyph-name="Cacute" unicode="&#x106;" horiz-adv-x="601" 
d="M558 730v-176c-41 51 -105 80 -166 80c-135 0 -222 -121 -222 -260c0 -136 91 -254 221 -254c64 0 126 33 167 80v-175c-56 -26 -110 -45 -171 -45c-212 0 -369 182 -369 391c0 219 155 403 372 403c60 0 117 -16 168 -44zM407 1002l102 -62l-151 -150l-71 44z" />
    <glyph glyph-name="Ccircumflex" unicode="&#x108;" horiz-adv-x="601" 
d="M558 730v-176c-41 51 -105 80 -166 80c-135 0 -222 -121 -222 -260c0 -136 91 -254 221 -254c64 0 126 33 167 80v-175c-56 -26 -110 -45 -171 -45c-212 0 -369 182 -369 391c0 219 155 403 372 403c60 0 117 -16 168 -44zM211 848l170 154l170 -154l-60 -66l-110 104
l-110 -104z" />
    <glyph glyph-name="Ccaron" unicode="&#x10c;" horiz-adv-x="601" 
d="M558 730v-176c-41 51 -105 80 -166 80c-135 0 -222 -121 -222 -260c0 -136 91 -254 221 -254c64 0 126 33 167 80v-175c-56 -26 -110 -45 -171 -45c-212 0 -369 182 -369 391c0 219 155 403 372 403c60 0 117 -16 168 -44zM251 1002l118 -104l119 104l60 -65l-179 -155
l-178 155z" />
    <glyph glyph-name="Cdotaccent" unicode="&#x10a;" horiz-adv-x="601" 
d="M558 730v-176c-41 51 -105 80 -166 80c-135 0 -222 -121 -222 -260c0 -136 91 -254 221 -254c64 0 126 33 167 80v-175c-56 -26 -110 -45 -171 -45c-212 0 -369 182 -369 391c0 219 155 403 372 403c60 0 117 -16 168 -44zM459 910c0 -44 -36 -80 -80 -80s-80 36 -80 80
s36 80 80 80s80 -36 80 -80z" />
    <glyph glyph-name="Ccedilla" unicode="&#xc7;" horiz-adv-x="601" 
d="M304 -20l92 -47l-116 -139l-74 38zM558 730v-176c-41 51 -105 80 -166 80c-135 0 -222 -121 -222 -260c0 -136 91 -254 221 -254c64 0 126 33 167 80v-175c-56 -26 -110 -45 -171 -45c-212 0 -369 182 -369 391c0 219 155 403 372 403c60 0 117 -16 168 -44z" />
    <glyph glyph-name="Dcaron" unicode="&#x10e;" horiz-adv-x="646" 
d="M54 754h215c88 0 184 -32 254 -103c69 -70 105 -169 105 -275c0 -103 -35 -200 -105 -271s-164 -105 -255 -105h-214v754zM201 626v-498h21c171 0 254 85 254 249s-82 249 -254 249h-21zM146 1002l118 -104l119 104l60 -65l-179 -155l-178 155z" />
    <glyph glyph-name="Dcroat" unicode="&#x110;" horiz-adv-x="646" 
d="M54 754h212c207 0 362 -155 362 -378c0 -217 -156 -376 -361 -376h-213v337h-72v120h72v297zM201 457h113v-120h-113v-209h21c171 0 254 85 254 249c0 163 -81 249 -254 249h-21v-169z" />
    <glyph glyph-name="Eth" unicode="&#xd0;" horiz-adv-x="646" 
d="M54 754h212c207 0 362 -155 362 -378c0 -217 -156 -376 -361 -376h-213v337h-72v120h72v297zM201 457h113v-120h-113v-209h21c171 0 254 85 254 249c0 163 -81 249 -254 249h-21v-169z" />
    <glyph glyph-name="Egrave" unicode="&#xc8;" horiz-adv-x="488" 
d="M54 754h390v-128h-243v-166h234v-128h-234v-204h243v-128h-390v754zM108 940l102 62l120 -168l-71 -44z" />
    <glyph glyph-name="Eacute" unicode="&#xc9;" horiz-adv-x="488" 
d="M54 754h390v-128h-243v-166h234v-128h-234v-204h243v-128h-390v754zM283 1002l102 -62l-151 -150l-71 44z" />
    <glyph glyph-name="Ecircumflex" unicode="&#xca;" horiz-adv-x="488" 
d="M54 754h390v-128h-243v-166h234v-128h-234v-204h243v-128h-390v754zM74 848l170 154l170 -154l-60 -66l-110 104l-110 -104z" />
    <glyph glyph-name="Ecaron" unicode="&#x11a;" horiz-adv-x="488" 
d="M54 754h390v-128h-243v-166h234v-128h-234v-204h243v-128h-390v754zM133 1002l118 -104l119 104l60 -65l-179 -155l-178 155z" />
    <glyph glyph-name="Edieresis" unicode="&#xcb;" horiz-adv-x="488" 
d="M54 754h390v-128h-243v-166h234v-128h-234v-204h243v-128h-390v754zM219 910c0 -44 -36 -80 -80 -80s-80 36 -80 80s36 80 80 80s80 -36 80 -80zM430 910c0 -44 -36 -80 -80 -80s-80 36 -80 80s36 80 80 80s80 -36 80 -80z" />
    <glyph glyph-name="Emacron" unicode="&#x112;" horiz-adv-x="488" 
d="M54 754h390v-128h-243v-166h234v-128h-234v-204h243v-128h-390v754zM56 982h382v-88h-382v88z" />
    <glyph glyph-name="Ebreve" unicode="&#x114;" horiz-adv-x="488" 
d="M54 754h390v-128h-243v-166h234v-128h-234v-204h243v-128h-390v754zM77 982h98c9 -40 31 -71 75 -71s66 31 75 71h98c-10 -98 -85 -156 -173 -156c-90 0 -164 62 -173 156z" />
    <glyph glyph-name="Edotaccent" unicode="&#x116;" horiz-adv-x="488" 
d="M54 754h390v-128h-243v-166h234v-128h-234v-204h243v-128h-390v754zM343 910c0 -44 -36 -80 -80 -80s-80 36 -80 80s36 80 80 80s80 -36 80 -80z" />
    <glyph glyph-name="Eogonek" unicode="&#x118;" horiz-adv-x="488" 
d="M54 754h390v-128h-243v-166h234v-128h-234v-204h243v-128h-43c-44 -39 -58 -67 -58 -102c0 -25 17 -46 44 -46c17 0 33 5 48 16l-14 -75c-19 -13 -46 -18 -69 -18c-55 0 -99 41 -99 90c0 51 18 88 78 135h-277v754z" />
    <glyph glyph-name="Gcircumflex" unicode="&#x11c;" horiz-adv-x="739" 
d="M684 594l-130 -70c-31 68 -93 120 -172 120c-132 0 -212 -130 -212 -270c0 -139 81 -264 213 -264c86 0 167 71 172 171h-160v120h325v-21c0 -233 -127 -400 -343 -400c-213 0 -359 177 -359 394c0 230 156 400 368 400c129 0 239 -64 298 -180zM213 848l170 154
l170 -154l-60 -66l-110 104l-110 -104z" />
    <glyph glyph-name="Gbreve" unicode="&#x11e;" horiz-adv-x="739" 
d="M684 594l-130 -70c-31 68 -93 120 -172 120c-132 0 -212 -130 -212 -270c0 -139 81 -264 213 -264c86 0 167 71 172 171h-160v120h325v-21c0 -233 -127 -400 -343 -400c-213 0 -359 177 -359 394c0 230 156 400 368 400c129 0 239 -64 298 -180zM199 982h98
c9 -40 31 -71 75 -71s66 31 75 71h98c-10 -98 -85 -156 -173 -156c-90 0 -164 62 -173 156z" />
    <glyph glyph-name="Gdotaccent" unicode="&#x120;" horiz-adv-x="739" 
d="M684 594l-130 -70c-31 68 -93 120 -172 120c-132 0 -212 -130 -212 -270c0 -139 81 -264 213 -264c86 0 167 71 172 171h-160v120h325v-21c0 -233 -127 -400 -343 -400c-213 0 -359 177 -359 394c0 230 156 400 368 400c129 0 239 -64 298 -180zM453 910
c0 -44 -36 -80 -80 -80s-80 36 -80 80s36 80 80 80s80 -36 80 -80z" />
    <glyph glyph-name="Gcommaaccent" unicode="&#x122;" horiz-adv-x="739" 
d="M684 594l-130 -70c-31 68 -93 120 -172 120c-132 0 -212 -130 -212 -270c0 -139 81 -264 213 -264c86 0 167 71 172 171h-160v120h325v-21c0 -233 -127 -400 -343 -400c-213 0 -359 177 -359 394c0 230 156 400 368 400c129 0 239 -64 298 -180zM315 -57h122v-104
c0 -74 -56 -143 -142 -153v68c47 7 67 40 67 79h-47v110z" />
    <glyph glyph-name="Hcircumflex" unicode="&#x124;" horiz-adv-x="674" 
d="M54 754h147v-297h272v297h147v-754h-147v337h-272v-337h-147v754zM170 848l170 154l170 -154l-60 -66l-110 104l-110 -104z" />
    <glyph glyph-name="Hbar" unicode="&#x126;" horiz-adv-x="674" 
d="M54 754h147v-126h272v126h147v-754h-147v337h-272v-337h-147v754zM201 457h272v102h-272v-102z" />
    <glyph glyph-name="Igrave" unicode="&#xcc;" horiz-adv-x="254" 
d="M54 754h147v-754h-147v754zM2 940l102 62l120 -168l-71 -44z" />
    <glyph glyph-name="Iacute" unicode="&#xcd;" horiz-adv-x="254" 
d="M54 754h147v-754h-147v754zM152 1002l102 -62l-151 -150l-71 44z" />
    <glyph glyph-name="Icircumflex" unicode="&#xce;" horiz-adv-x="254" 
d="M54 754h147v-754h-147v754zM-42 848l170 154l170 -154l-60 -66l-110 104l-110 -104z" />
    <glyph glyph-name="Itilde" unicode="&#x128;" horiz-adv-x="254" 
d="M54 754h147v-754h-147v754zM189 928c28 0 35 18 47 42h83c-16 -88 -60 -141 -121 -141c-24 0 -51 14 -78 26c-21 10 -41 18 -57 18c-23 0 -36 -18 -43 -41h-82c9 81 52 139 109 139c24 0 46 -8 70 -18c30 -12 56 -25 72 -25z" />
    <glyph glyph-name="Idieresis" unicode="&#xcf;" horiz-adv-x="254" 
d="M54 754h147v-754h-147v754zM103 910c0 -44 -36 -80 -80 -80s-80 36 -80 80s36 80 80 80s80 -36 80 -80zM314 910c0 -44 -36 -80 -80 -80s-80 36 -80 80s36 80 80 80s80 -36 80 -80z" />
    <glyph glyph-name="Imacron" unicode="&#x12a;" horiz-adv-x="254" 
d="M54 754h147v-754h-147v754zM-63 982h382v-88h-382v88z" />
    <glyph glyph-name="Idotaccent" unicode="&#x130;" horiz-adv-x="254" 
d="M54 754h147v-754h-147v754zM211 910c0 -44 -36 -80 -80 -80s-80 36 -80 80s36 80 80 80s80 -36 80 -80z" />
    <glyph glyph-name="Iogonek" unicode="&#x12e;" horiz-adv-x="254" 
d="M54 754h147v-754h-43c-44 -39 -58 -67 -58 -102c0 -25 17 -46 44 -46c17 0 33 5 48 16l-14 -75c-19 -13 -46 -18 -69 -18c-55 0 -99 41 -99 90c0 51 18 88 78 135h-34v754z" />
    <glyph glyph-name="Jcircumflex" unicode="&#x134;" horiz-adv-x="389" 
d="M192 754h147v-517c0 -94 -22 -151 -61 -194c-39 -44 -100 -63 -152 -63c-56 0 -109 31 -148 71l94 108c7 -23 33 -49 57 -49c23 0 38 10 50 37c11 25 13 61 13 82v525zM95 848l170 154l170 -154l-60 -66l-110 104l-110 -104z" />
    <glyph glyph-name="Kcommaaccent" unicode="&#x136;" horiz-adv-x="620" 
d="M54 754h147v-318h2l233 318h181l-286 -348l302 -406h-189l-241 339h-2v-339h-147v754zM241 -57h122v-104c0 -74 -56 -143 -142 -153v68c47 7 67 40 67 79h-47v110z" />
    <glyph glyph-name="Lacute" unicode="&#x139;" horiz-adv-x="402" 
d="M54 754h147v-626h208v-128h-355v754zM224 1002l102 -62l-151 -150l-71 44z" />
    <glyph glyph-name="Lcaron" unicode="&#x13d;" horiz-adv-x="402" 
d="M54 754h147v-626h208v-128h-355v754zM323 754l102 -36l-97 -177l-71 22z" />
    <glyph glyph-name="Lcommaaccent" unicode="&#x13b;" horiz-adv-x="402" 
d="M54 754h147v-626h208v-128h-355v754zM159 -57h122v-104c0 -74 -56 -143 -142 -153v68c47 7 67 40 67 79h-47v110z" />
    <glyph glyph-name="Lslash" unicode="&#x141;" horiz-adv-x="434" 
d="M86 754h147v-230l106 73v-126l-106 -72v-271h208v-128h-355v303l-72 -49v124l72 50v326z" />
    <glyph glyph-name="Ldot" unicode="&#x13f;" horiz-adv-x="402" 
d="M54 754h147v-626h208v-128h-355v754zM410 465c0 -44 -36 -80 -80 -80s-80 36 -80 80s36 80 80 80s80 -36 80 -80z" />
    <glyph glyph-name="Nacute" unicode="&#x143;" horiz-adv-x="759" 
d="M54 774h106l397 -527h2v507h147v-769h-106l-397 527h-2v-512h-147v774zM449 1002l102 -62l-151 -150l-71 44z" />
    <glyph glyph-name="Ncaron" unicode="&#x147;" horiz-adv-x="759" 
d="M54 774h106l397 -527h2v507h147v-769h-106l-397 527h-2v-512h-147v774zM264 1002l118 -104l119 104l60 -65l-179 -155l-178 155z" />
    <glyph glyph-name="Ntilde" unicode="&#xd1;" horiz-adv-x="759" 
d="M54 774h106l397 -527h2v507h147v-769h-106l-397 527h-2v-512h-147v774zM441 928c28 0 35 18 47 42h83c-16 -88 -60 -141 -121 -141c-24 0 -51 14 -78 26c-21 10 -41 18 -57 18c-23 0 -36 -18 -43 -41h-82c9 81 52 139 109 139c24 0 46 -8 70 -18c30 -12 56 -25 72 -25z
" />
    <glyph glyph-name="Ncommaaccent" unicode="&#x145;" horiz-adv-x="759" 
d="M54 774h106l397 -527h2v507h147v-769h-106l-397 527h-2v-512h-147v774zM323 -57h122v-104c0 -74 -56 -143 -142 -153v68c47 7 67 40 67 79h-47v110z" />
    <glyph glyph-name="Ograve" unicode="&#xd2;" horiz-adv-x="782" 
d="M764 378c0 -228 -148 -398 -373 -398c-224 0 -373 170 -373 398c0 231 155 396 373 396c221 0 373 -168 373 -396zM391 125c147 0 221 120 221 259c0 130 -88 245 -222 245c-130 0 -220 -113 -220 -245c0 -139 75 -259 221 -259zM255 940l102 62l120 -168l-71 -44z" />
    <glyph glyph-name="Oacute" unicode="&#xd3;" horiz-adv-x="782" 
d="M764 378c0 -228 -148 -398 -373 -398c-224 0 -373 170 -373 398c0 231 155 396 373 396c221 0 373 -168 373 -396zM391 125c147 0 221 120 221 259c0 130 -88 245 -222 245c-130 0 -220 -113 -220 -245c0 -139 75 -259 221 -259zM430 1002l102 -62l-151 -150l-71 44z" />
    <glyph glyph-name="Ocircumflex" unicode="&#xd4;" horiz-adv-x="782" 
d="M764 378c0 -228 -148 -398 -373 -398c-224 0 -373 170 -373 398c0 231 155 396 373 396c221 0 373 -168 373 -396zM391 125c147 0 221 120 221 259c0 130 -88 245 -222 245c-130 0 -220 -113 -220 -245c0 -139 75 -259 221 -259zM221 848l170 154l170 -154l-60 -66
l-110 104l-110 -104z" />
    <glyph glyph-name="Otilde" unicode="&#xd5;" horiz-adv-x="782" 
d="M764 378c0 -228 -148 -398 -373 -398c-224 0 -373 170 -373 398c0 231 155 396 373 396c221 0 373 -168 373 -396zM391 125c147 0 221 120 221 259c0 130 -88 245 -222 245c-130 0 -220 -113 -220 -245c0 -139 75 -259 221 -259zM452 928c28 0 35 18 47 42h83
c-16 -88 -60 -141 -121 -141c-24 0 -51 14 -78 26c-21 10 -41 18 -57 18c-23 0 -36 -18 -43 -41h-82c9 81 52 139 109 139c24 0 46 -8 70 -18c30 -12 56 -25 72 -25z" />
    <glyph glyph-name="Odieresis" unicode="&#xd6;" horiz-adv-x="782" 
d="M764 378c0 -228 -148 -398 -373 -398c-224 0 -373 170 -373 398c0 231 155 396 373 396c221 0 373 -168 373 -396zM391 125c147 0 221 120 221 259c0 130 -88 245 -222 245c-130 0 -220 -113 -220 -245c0 -139 75 -259 221 -259zM366 910c0 -44 -36 -80 -80 -80
s-80 36 -80 80s36 80 80 80s80 -36 80 -80zM577 910c0 -44 -36 -80 -80 -80s-80 36 -80 80s36 80 80 80s80 -36 80 -80z" />
    <glyph glyph-name="Omacron" unicode="&#x14c;" horiz-adv-x="782" 
d="M764 378c0 -228 -148 -398 -373 -398c-224 0 -373 170 -373 398c0 231 155 396 373 396c221 0 373 -168 373 -396zM391 125c147 0 221 120 221 259c0 130 -88 245 -222 245c-130 0 -220 -113 -220 -245c0 -139 75 -259 221 -259zM201 982h382v-88h-382v88z" />
    <glyph glyph-name="Obreve" unicode="&#x14e;" horiz-adv-x="782" 
d="M764 378c0 -228 -148 -398 -373 -398c-224 0 -373 170 -373 398c0 231 155 396 373 396c221 0 373 -168 373 -396zM391 125c147 0 221 120 221 259c0 130 -88 245 -222 245c-130 0 -220 -113 -220 -245c0 -139 75 -259 221 -259zM217 982h98c9 -40 31 -71 75 -71
s66 31 75 71h98c-10 -98 -85 -156 -173 -156c-90 0 -164 62 -173 156z" />
    <glyph glyph-name="Ohungarumlaut" unicode="&#x150;" horiz-adv-x="782" 
d="M764 378c0 -228 -148 -398 -373 -398c-224 0 -373 170 -373 398c0 231 155 396 373 396c221 0 373 -168 373 -396zM391 125c147 0 221 120 221 259c0 130 -88 245 -222 245c-130 0 -220 -113 -220 -245c0 -139 75 -259 221 -259zM387 1002l102 -62l-151 -150l-71 44z
M576 1002l102 -62l-151 -150l-71 44z" />
    <glyph glyph-name="Oslash" unicode="&#xd8;" horiz-adv-x="782" 
d="M709 786l77 -68l-93 -98c47 -68 71 -150 71 -242c0 -228 -149 -398 -373 -398c-92 0 -171 29 -231 77l-90 -95l-74 71l94 99c-47 68 -72 153 -72 246c0 231 155 396 373 396c92 0 168 -27 232 -78zM199 247l320 339c-37 28 -77 43 -129 43c-130 0 -220 -114 -220 -245
c0 -45 9 -94 29 -137zM584 504l-321 -338c33 -26 75 -41 128 -41c149 0 221 124 221 259c0 43 -9 84 -28 120z" />
    <glyph glyph-name="OE" unicode="&#x152;" horiz-adv-x="1039" 
d="M609 669h2v85h384v-128h-238v-167h227v-128h-227v-203h238v-128h-384v85c-60 -69 -139 -105 -231 -105c-205 0 -362 193 -362 395c0 208 156 399 362 399c88 0 174 -37 229 -105zM377 125c129 0 221 120 221 250s-89 254 -222 254c-129 0 -218 -123 -218 -254
c0 -133 93 -250 219 -250z" />
    <glyph glyph-name="Racute" unicode="&#x154;" horiz-adv-x="558" 
d="M54 754h203c156 0 248 -78 248 -227c0 -103 -61 -195 -154 -209l213 -318h-178l-183 304h-2v-304h-147v754zM201 634v-227h16c101 0 141 36 141 116c0 78 -39 111 -139 111h-18zM301 1002l102 -62l-151 -150l-71 44z" />
    <glyph glyph-name="Rcaron" unicode="&#x158;" horiz-adv-x="558" 
d="M54 754h203c156 0 248 -78 248 -227c0 -103 -61 -195 -154 -209l213 -318h-178l-183 304h-2v-304h-147v754zM201 634v-227h16c101 0 141 36 141 116c0 78 -39 111 -139 111h-18zM139 1002l118 -104l119 104l60 -65l-179 -155l-178 155z" />
    <glyph glyph-name="Rcommaaccent" unicode="&#x156;" horiz-adv-x="558" 
d="M54 754h203c156 0 248 -78 248 -227c0 -103 -61 -195 -154 -209l213 -318h-178l-183 304h-2v-304h-147v754zM201 634v-227h16c101 0 141 36 141 116c0 78 -39 111 -139 111h-18zM217 -57h122v-104c0 -74 -56 -143 -142 -153v68c47 7 67 40 67 79h-47v110z" />
    <glyph glyph-name="Sacute" unicode="&#x15a;" horiz-adv-x="526" 
d="M478 690l-69 -102c-28 39 -64 62 -113 62s-92 -37 -92 -85c0 -43 36 -70 105 -97c56 -22 97 -44 127 -70c49 -42 67 -96 67 -160c0 -153 -96 -258 -248 -258c-104 0 -180 59 -232 147l95 93c22 -64 79 -110 136 -110c55 0 97 45 97 109c0 55 -35 86 -103 112
c-132 50 -196 102 -196 217c0 124 92 226 220 226c73 0 164 -37 206 -84zM331 1002l102 -62l-151 -150l-71 44z" />
    <glyph glyph-name="Scircumflex" unicode="&#x15c;" horiz-adv-x="526" 
d="M478 690l-69 -102c-28 39 -64 62 -113 62s-92 -37 -92 -85c0 -43 36 -70 105 -97c56 -22 97 -44 127 -70c49 -42 67 -96 67 -160c0 -153 -96 -258 -248 -258c-104 0 -180 59 -232 147l95 93c22 -64 79 -110 136 -110c55 0 97 45 97 109c0 55 -35 86 -103 112
c-132 50 -196 102 -196 217c0 124 92 226 220 226c73 0 164 -37 206 -84zM116 848l170 154l170 -154l-60 -66l-110 104l-110 -104z" />
    <glyph glyph-name="Scaron" unicode="&#x160;" horiz-adv-x="526" 
d="M478 690l-69 -102c-28 39 -64 62 -113 62s-92 -37 -92 -85c0 -43 36 -70 105 -97c56 -22 97 -44 127 -70c49 -42 67 -96 67 -160c0 -153 -96 -258 -248 -258c-104 0 -180 59 -232 147l95 93c22 -64 79 -110 136 -110c55 0 97 45 97 109c0 55 -35 86 -103 112
c-132 50 -196 102 -196 217c0 124 92 226 220 226c73 0 164 -37 206 -84zM159 1002l118 -104l119 104l60 -65l-179 -155l-178 155z" />
    <glyph glyph-name="Scedilla" unicode="&#x15e;" horiz-adv-x="526" 
d="M478 690l-69 -102c-28 39 -64 62 -113 62s-92 -37 -92 -85c0 -43 36 -70 105 -97c56 -22 97 -44 127 -70c49 -42 67 -96 67 -160c0 -153 -96 -258 -248 -258c-104 0 -180 59 -232 147l95 93c22 -64 79 -110 136 -110c55 0 97 45 97 109c0 55 -35 86 -103 112
c-132 50 -196 102 -196 217c0 124 92 226 220 226c73 0 164 -37 206 -84zM240 -26l92 -47l-116 -139l-74 38z" />
    <glyph glyph-name="Scommaaccent" unicode="&#x218;" horiz-adv-x="526" 
d="M478 690l-69 -102c-28 39 -64 62 -113 62s-92 -37 -92 -85c0 -43 36 -70 105 -97c56 -22 97 -44 127 -70c49 -42 67 -96 67 -160c0 -153 -96 -258 -248 -258c-104 0 -180 59 -232 147l95 93c22 -64 79 -110 136 -110c55 0 97 45 97 109c0 55 -35 86 -103 112
c-132 50 -196 102 -196 217c0 124 92 226 220 226c73 0 164 -37 206 -84zM209 -57h122v-104c0 -74 -56 -143 -142 -153v68c47 7 67 40 67 79h-47v110z" />
    <glyph glyph-name="Tcaron" unicode="&#x164;" horiz-adv-x="451" 
d="M0 754h451v-128h-152v-626h-147v626h-152v128zM107 1002l118 -104l119 104l60 -65l-179 -155l-178 155z" />
    <glyph glyph-name="Tcommaaccent" unicode="&#x162;" horiz-adv-x="451" 
d="M0 754h451v-128h-152v-626h-147v626h-152v128zM166 -57h122v-104c0 -74 -56 -143 -142 -153v68c47 7 67 40 67 79h-47v110z" />
    <glyph glyph-name="uni021A" unicode="&#x21a;" horiz-adv-x="451" 
d="M0 754h451v-128h-152v-626h-147v626h-152v128zM166 -57h122v-104c0 -74 -56 -143 -142 -153v68c47 7 67 40 67 79h-47v110z" />
    <glyph glyph-name="Tbar" unicode="&#x166;" horiz-adv-x="451" 
d="M0 754h451v-128h-152v-143h94v-69h-94v-414h-147v414h-97v69h97v143h-152v128z" />
    <glyph glyph-name="Thorn" unicode="&#xde;" horiz-adv-x="528" 
d="M54 754h147v-120h50c212 0 264 -110 264 -234c0 -165 -94 -238 -238 -238h-76v-162h-147v754zM201 512v-228h36c106 0 128 44 128 117c0 66 -21 111 -131 111h-33z" />
    <glyph glyph-name="Ugrave" unicode="&#xd9;" horiz-adv-x="660" 
d="M50 754h147v-429c0 -161 48 -217 133 -217c84 0 133 56 133 215v431h147v-455c0 -97 -23 -177 -70 -234c-47 -56 -118 -85 -210 -85s-163 29 -210 85c-47 57 -70 137 -70 234v455zM169 940l102 62l120 -168l-71 -44z" />
    <glyph glyph-name="Uacute" unicode="&#xda;" horiz-adv-x="660" 
d="M50 754h147v-429c0 -161 48 -217 133 -217c84 0 133 56 133 215v431h147v-455c0 -97 -23 -177 -70 -234c-47 -56 -118 -85 -210 -85s-163 29 -210 85c-47 57 -70 137 -70 234v455zM389 1002l102 -62l-151 -150l-71 44z" />
    <glyph glyph-name="Ucircumflex" unicode="&#xdb;" horiz-adv-x="660" 
d="M50 754h147v-429c0 -161 48 -217 133 -217c84 0 133 56 133 215v431h147v-455c0 -97 -23 -177 -70 -234c-47 -56 -118 -85 -210 -85s-163 29 -210 85c-47 57 -70 137 -70 234v455zM160 848l170 154l170 -154l-60 -66l-110 104l-110 -104z" />
    <glyph glyph-name="Utilde" unicode="&#x168;" horiz-adv-x="660" 
d="M50 754h147v-429c0 -161 48 -217 133 -217c84 0 133 56 133 215v431h147v-455c0 -97 -23 -177 -70 -234c-47 -56 -118 -85 -210 -85s-163 29 -210 85c-47 57 -70 137 -70 234v455zM416 928c28 0 35 18 47 42h83c-16 -88 -60 -141 -121 -141c-24 0 -51 14 -78 26
c-21 10 -41 18 -57 18c-23 0 -36 -18 -43 -41h-82c9 81 52 139 109 139c24 0 46 -8 70 -18c30 -12 56 -25 72 -25z" />
    <glyph glyph-name="Udieresis" unicode="&#xdc;" horiz-adv-x="660" 
d="M50 754h147v-429c0 -161 48 -217 133 -217c84 0 133 56 133 215v431h147v-455c0 -97 -23 -177 -70 -234c-47 -56 -118 -85 -210 -85s-163 29 -210 85c-47 57 -70 137 -70 234v455zM313 910c0 -44 -36 -80 -80 -80s-80 36 -80 80s36 80 80 80s80 -36 80 -80zM524 910
c0 -44 -36 -80 -80 -80s-80 36 -80 80s36 80 80 80s80 -36 80 -80z" />
    <glyph glyph-name="Umacron" unicode="&#x16a;" horiz-adv-x="660" 
d="M50 754h147v-429c0 -161 48 -217 133 -217c84 0 133 56 133 215v431h147v-455c0 -97 -23 -177 -70 -234c-47 -56 -118 -85 -210 -85s-163 29 -210 85c-47 57 -70 137 -70 234v455zM141 982h382v-88h-382v88z" />
    <glyph glyph-name="Ubreve" unicode="&#x16c;" horiz-adv-x="660" 
d="M50 754h147v-429c0 -161 48 -217 133 -217c84 0 133 56 133 215v431h147v-455c0 -97 -23 -177 -70 -234c-47 -56 -118 -85 -210 -85s-163 29 -210 85c-47 57 -70 137 -70 234v455zM154 982h98c9 -40 31 -71 75 -71s66 31 75 71h98c-10 -98 -85 -156 -173 -156
c-90 0 -164 62 -173 156z" />
    <glyph glyph-name="Uring" unicode="&#x16e;" horiz-adv-x="660" 
d="M50 754h147v-429c0 -161 48 -217 133 -217c84 0 133 56 133 215v431h147v-455c0 -97 -23 -177 -70 -234c-47 -56 -118 -85 -210 -85s-163 29 -210 85c-47 57 -70 137 -70 234v455zM436 902c0 -55 -45 -101 -100 -101s-100 46 -100 101c0 57 45 100 100 100
s100 -45 100 -100zM336 860c23 0 41 19 41 42s-18 41 -41 41s-41 -18 -41 -41s18 -42 41 -42z" />
    <glyph glyph-name="Uhungarumlaut" unicode="&#x170;" horiz-adv-x="660" 
d="M50 754h147v-429c0 -161 48 -217 133 -217c84 0 133 56 133 215v431h147v-455c0 -97 -23 -177 -70 -234c-47 -56 -118 -85 -210 -85s-163 29 -210 85c-47 57 -70 137 -70 234v455zM314 1002l102 -62l-151 -150l-71 44zM503 1002l102 -62l-151 -150l-71 44z" />
    <glyph glyph-name="Uogonek" unicode="&#x172;" horiz-adv-x="660" 
d="M50 754h147v-429c0 -161 48 -217 133 -217c86 0 133 57 133 216v430h147v-456c0 -177 -78 -295 -229 -314c-31 -31 -40 -57 -40 -86c0 -25 17 -46 44 -46c17 0 33 4 48 16l-14 -75c-19 -13 -46 -18 -69 -18c-55 0 -99 41 -99 90c0 43 14 77 55 116
c-167 9 -256 127 -256 318v455z" />
    <glyph glyph-name="Wcircumflex" unicode="&#x174;" horiz-adv-x="977" 
d="M444 764h87l156 -524h2l148 514h154l-255 -769h-108l-150 493h-2l-142 -493h-108l-240 769h154l152 -514h2zM315 848l170 154l170 -154l-60 -66l-110 104l-110 -104z" />
    <glyph glyph-name="Yacute" unicode="&#xdd;" horiz-adv-x="587" 
d="M-16 754h171l132 -262l144 262h172l-238 -408v-346h-147v346zM368 1002l102 -62l-151 -150l-71 44z" />
    <glyph glyph-name="Ycircumflex" unicode="&#x176;" horiz-adv-x="587" 
d="M-16 754h171l132 -262l144 262h172l-238 -408v-346h-147v346zM124 848l170 154l170 -154l-60 -66l-110 104l-110 -104z" />
    <glyph glyph-name="Ydieresis" unicode="&#x178;" horiz-adv-x="587" 
d="M-16 754h171l132 -262l144 262h172l-238 -408v-346h-147v346zM269 910c0 -44 -36 -80 -80 -80s-80 36 -80 80s36 80 80 80s80 -36 80 -80zM480 910c0 -44 -36 -80 -80 -80s-80 36 -80 80s36 80 80 80s80 -36 80 -80z" />
    <glyph glyph-name="Zacute" unicode="&#x179;" horiz-adv-x="575" 
d="M56 754h514l-331 -626h313v-128h-547l332 626h-281v128zM369 1002l102 -62l-151 -150l-71 44z" />
    <glyph glyph-name="Zcaron" unicode="&#x17d;" horiz-adv-x="575" 
d="M56 754h514l-331 -626h313v-128h-547l332 626h-281v128zM184 1002l118 -104l119 104l60 -65l-179 -155l-178 155z" />
    <glyph glyph-name="Zdotaccent" unicode="&#x17b;" horiz-adv-x="575" 
d="M56 754h514l-331 -626h313v-128h-547l332 626h-281v128zM398 910c0 -44 -36 -80 -80 -80s-80 36 -80 80s36 80 80 80s80 -36 80 -80z" />
    <glyph glyph-name="agrave" unicode="&#xe0;" horiz-adv-x="565" 
d="M376 445v46h138v-491h-138v45h-2c-31 -39 -82 -61 -133 -61c-133 0 -226 117 -226 264c0 138 90 259 224 259c51 0 103 -22 137 -62zM273 108c67 0 117 65 117 138c0 71 -48 137 -118 137c-67 0 -115 -66 -115 -137c0 -72 49 -138 116 -138zM132 712l102 62l120 -168
l-71 -44z" />
    <glyph glyph-name="aacute" unicode="&#xe1;" horiz-adv-x="565" 
d="M376 445v46h138v-491h-138v45h-2c-31 -39 -82 -61 -133 -61c-133 0 -226 117 -226 264c0 138 90 259 224 259c51 0 103 -22 137 -62zM273 108c67 0 117 65 117 138c0 71 -48 137 -118 137c-67 0 -115 -66 -115 -137c0 -72 49 -138 116 -138zM332 774l102 -62l-151 -150
l-71 44z" />
    <glyph glyph-name="acircumflex" unicode="&#xe2;" horiz-adv-x="565" 
d="M376 445v46h138v-491h-138v45h-2c-31 -39 -82 -61 -133 -61c-133 0 -226 117 -226 264c0 138 90 259 224 259c51 0 103 -22 137 -62zM273 108c67 0 117 65 117 138c0 71 -48 137 -118 137c-67 0 -115 -66 -115 -137c0 -72 49 -138 116 -138zM113 620l170 154l170 -154
l-60 -66l-110 104l-110 -104z" />
    <glyph glyph-name="atilde" unicode="&#xe3;" horiz-adv-x="565" 
d="M376 445v46h138v-491h-138v45h-2c-31 -39 -82 -61 -133 -61c-133 0 -226 117 -226 264c0 138 90 259 224 259c51 0 103 -22 137 -62zM273 108c67 0 117 65 117 138c0 71 -48 137 -118 137c-67 0 -115 -66 -115 -137c0 -72 49 -138 116 -138zM344 700c27 0 35 18 47 42h83
c-16 -88 -60 -141 -121 -141c-24 0 -51 14 -78 26c-21 10 -41 18 -57 18c-23 0 -37 -18 -43 -41h-82c8 77 50 139 109 139c21 0 47 -9 72 -19c30 -12 55 -24 70 -24z" />
    <glyph glyph-name="adieresis" unicode="&#xe4;" horiz-adv-x="565" 
d="M376 445v46h138v-491h-138v45h-2c-31 -39 -82 -61 -133 -61c-133 0 -226 117 -226 264c0 138 90 259 224 259c51 0 103 -22 137 -62zM273 108c67 0 117 65 117 138c0 71 -48 137 -118 137c-67 0 -115 -66 -115 -137c0 -72 49 -138 116 -138zM258 682
c0 -44 -36 -80 -80 -80s-80 36 -80 80s36 80 80 80s80 -36 80 -80zM469 682c0 -44 -36 -80 -80 -80s-80 36 -80 80s36 80 80 80s80 -36 80 -80z" />
    <glyph glyph-name="amacron" unicode="&#x101;" horiz-adv-x="565" 
d="M376 445v46h138v-491h-138v45h-2c-31 -39 -82 -61 -133 -61c-133 0 -226 117 -226 264c0 138 90 259 224 259c51 0 103 -22 137 -62zM273 108c67 0 117 65 117 138c0 71 -48 137 -118 137c-67 0 -115 -66 -115 -137c0 -72 49 -138 116 -138zM102 754h382v-88h-382v88z
" />
    <glyph glyph-name="abreve" unicode="&#x103;" horiz-adv-x="565" 
d="M376 445v46h138v-491h-138v45h-2c-31 -39 -82 -61 -133 -61c-133 0 -226 117 -226 264c0 138 90 259 224 259c51 0 103 -22 137 -62zM273 108c67 0 117 65 117 138c0 71 -48 137 -118 137c-67 0 -115 -66 -115 -137c0 -72 49 -138 116 -138zM118 754h98
c9 -40 31 -71 75 -71s66 31 75 71h98c-10 -98 -85 -156 -173 -156c-90 0 -164 62 -173 156z" />
    <glyph glyph-name="aring" unicode="&#xe5;" horiz-adv-x="565" 
d="M376 445v46h138v-491h-138v45h-2c-31 -39 -82 -61 -133 -61c-133 0 -226 117 -226 264c0 138 90 259 224 259c51 0 103 -22 137 -62zM273 108c67 0 117 65 117 138c0 71 -48 137 -118 137c-67 0 -115 -66 -115 -137c0 -72 49 -138 116 -138zM383 674
c0 -55 -45 -101 -100 -101s-100 46 -100 101c0 57 45 100 100 100s100 -45 100 -100zM283 632c23 0 41 19 41 42s-18 41 -41 41s-41 -18 -41 -41s18 -42 41 -42z" />
    <glyph glyph-name="aogonek" unicode="&#x105;" horiz-adv-x="565" 
d="M376 445v46h138v-491h-50c-44 -39 -58 -67 -58 -102c0 -25 17 -46 44 -46c17 0 33 5 48 16l-14 -75c-19 -13 -46 -18 -69 -18c-55 0 -99 41 -99 90c0 51 18 88 78 135h-18v45h-2c-31 -39 -82 -61 -133 -61c-133 0 -226 116 -226 264c0 138 89 259 224 259
c51 0 102 -22 137 -62zM273 108c67 0 117 65 117 138c0 71 -47 137 -118 137c-67 0 -115 -66 -115 -137c0 -72 49 -138 116 -138z" />
    <glyph glyph-name="ae" unicode="&#xe6;" horiz-adv-x="792" 
d="M377 432c40 51 103 75 167 75c144 0 233 -96 233 -272v-12h-323c0 -82 37 -132 97 -132c47 0 75 28 94 67l129 -21c-35 -99 -120 -153 -223 -153c-71 0 -138 24 -175 81c-41 -53 -108 -81 -175 -81c-115 0 -190 64 -190 161c0 101 83 161 187 161c39 0 79 -8 114 -27v13
c0 78 -47 108 -114 108c-40 0 -79 -7 -119 -22v109c47 12 92 20 136 20c75 0 135 -30 162 -75zM456 310h187c-9 61 -47 99 -94 99c-44 0 -83 -32 -93 -99zM228 83c42 0 83 29 83 68c0 41 -42 66 -90 66c-39 0 -76 -24 -76 -67s38 -67 83 -67z" />
    <glyph glyph-name="cacute" unicode="&#x107;" horiz-adv-x="421" 
d="M384 476v-135c-31 31 -60 48 -103 48c-77 0 -124 -71 -124 -146c0 -79 50 -141 129 -141c39 0 73 19 98 47v-135c-40 -22 -78 -30 -121 -30c-144 0 -248 117 -248 260c0 147 108 263 255 263c39 0 79 -10 114 -31zM294 774l102 -62l-151 -150l-71 44z" />
    <glyph glyph-name="ccircumflex" unicode="&#x109;" horiz-adv-x="421" 
d="M384 476v-135c-31 31 -60 48 -103 48c-77 0 -124 -71 -124 -146c0 -79 50 -141 129 -141c39 0 73 19 98 47v-135c-40 -22 -78 -30 -121 -30c-144 0 -248 117 -248 260c0 147 108 263 255 263c39 0 79 -10 114 -31zM71 620l170 154l170 -154l-60 -66l-110 104l-110 -104z
" />
    <glyph glyph-name="ccaron" unicode="&#x10d;" horiz-adv-x="421" 
d="M384 476v-135c-31 31 -60 48 -103 48c-77 0 -124 -71 -124 -146c0 -79 50 -141 129 -141c39 0 73 19 98 47v-135c-40 -22 -78 -30 -121 -30c-144 0 -248 117 -248 260c0 147 108 263 255 263c39 0 79 -10 114 -31zM137 774l118 -104l119 104l60 -65l-179 -155l-178 155z
" />
    <glyph glyph-name="cdotaccent" unicode="&#x10b;" horiz-adv-x="421" 
d="M384 476v-135c-31 31 -60 48 -103 48c-77 0 -124 -71 -124 -146c0 -79 50 -141 129 -141c39 0 73 19 98 47v-135c-40 -22 -78 -30 -121 -30c-144 0 -248 117 -248 260c0 147 108 263 255 263c39 0 79 -10 114 -31zM337 682c0 -44 -36 -80 -80 -80s-80 36 -80 80
s36 80 80 80s80 -36 80 -80z" />
    <glyph glyph-name="ccedilla" unicode="&#xe7;" horiz-adv-x="421" 
d="M214 -20l92 -47l-116 -139l-74 38zM384 476v-135c-31 31 -60 48 -103 48c-77 0 -124 -71 -124 -146c0 -79 50 -141 129 -141c39 0 73 19 98 47v-135c-40 -22 -78 -30 -121 -30c-144 0 -248 117 -248 260c0 147 108 263 255 263c39 0 79 -10 114 -31z" />
    <glyph glyph-name="dcaron" unicode="&#x10f;" horiz-adv-x="565" 
d="M375 848h140v-848h-140v46h-2c-29 -40 -81 -62 -132 -62c-132 0 -226 116 -226 264c0 141 92 259 224 259c51 0 103 -22 134 -61h2v402zM273 108c69 0 116 68 116 138c0 71 -48 137 -117 137c-67 0 -115 -66 -115 -137c0 -72 49 -138 116 -138zM603 754l102 -36l-97 -177
l-71 22z" />
    <glyph glyph-name="dcroat" unicode="&#x111;" horiz-adv-x="565" 
d="M375 848h140v-152h50v-69h-50v-627h-140v46h-2c-29 -40 -81 -62 -132 -62c-134 0 -226 118 -226 264c0 142 92 259 224 259c51 0 103 -22 134 -61h2v181h-148v69h148v152zM273 108c68 0 116 68 116 138c0 71 -46 137 -117 137c-68 0 -115 -66 -115 -137
c0 -72 49 -138 116 -138z" />
    <glyph glyph-name="eth" unicode="&#xf0;" horiz-adv-x="548" 
d="M73 786l99 75c32 -25 70 -57 106 -92l120 76l60 -60l-120 -77c126 -135 194 -271 194 -447c0 -75 -18 -135 -52 -180c-49 -65 -127 -97 -206 -97c-152 0 -258 109 -258 262s106 257 242 257c22 0 40 -1 80 -15c-34 69 -71 115 -106 152l-120 -77l-60 61l120 76
c-32 32 -59 54 -99 86zM274 108c68 0 116 67 116 137c0 71 -46 138 -117 138c-66 0 -115 -65 -115 -138c0 -70 48 -137 116 -137z" />
    <glyph glyph-name="egrave" unicode="&#xe8;" horiz-adv-x="501" 
d="M486 223h-323c1 -84 37 -132 97 -132c47 0 75 28 94 67l129 -21c-35 -99 -119 -153 -223 -153c-150 0 -245 107 -245 257c0 156 85 266 238 266c146 0 233 -98 233 -272v-12zM167 310h187c-9 61 -47 99 -94 99c-44 0 -83 -32 -93 -99zM100 712l102 62l120 -168l-71 -44z
" />
    <glyph glyph-name="eacute" unicode="&#xe9;" horiz-adv-x="501" 
d="M486 223h-323c1 -84 37 -132 97 -132c47 0 75 28 94 67l129 -21c-35 -99 -119 -153 -223 -153c-150 0 -245 107 -245 257c0 156 85 266 238 266c146 0 233 -98 233 -272v-12zM167 310h187c-9 61 -47 99 -94 99c-44 0 -83 -32 -93 -99zM300 774l102 -62l-151 -150l-71 44z
" />
    <glyph glyph-name="ecircumflex" unicode="&#xea;" horiz-adv-x="501" 
d="M486 223h-323c1 -84 37 -132 97 -132c47 0 75 28 94 67l129 -21c-35 -99 -119 -153 -223 -153c-150 0 -245 107 -245 257c0 156 85 266 238 266c146 0 233 -98 233 -272v-12zM167 310h187c-9 61 -47 99 -94 99c-44 0 -83 -32 -93 -99zM81 620l170 154l170 -154l-60 -66
l-110 104l-110 -104z" />
    <glyph glyph-name="ecaron" unicode="&#x11b;" horiz-adv-x="501" 
d="M486 223h-323c1 -84 37 -132 97 -132c47 0 75 28 94 67l129 -21c-35 -99 -119 -153 -223 -153c-150 0 -245 107 -245 257c0 156 85 266 238 266c146 0 233 -98 233 -272v-12zM167 310h187c-9 61 -47 99 -94 99c-44 0 -83 -32 -93 -99zM142 774l118 -104l119 104l60 -65
l-179 -155l-178 155z" />
    <glyph glyph-name="edieresis" unicode="&#xeb;" horiz-adv-x="501" 
d="M486 223h-323c1 -84 37 -132 97 -132c47 0 75 28 94 67l129 -21c-35 -99 -119 -153 -223 -153c-150 0 -245 107 -245 257c0 156 85 266 238 266c146 0 233 -98 233 -272v-12zM167 310h187c-9 61 -47 99 -94 99c-44 0 -83 -32 -93 -99zM226 682c0 -44 -36 -80 -80 -80
s-80 36 -80 80s36 80 80 80s80 -36 80 -80zM437 682c0 -44 -36 -80 -80 -80s-80 36 -80 80s36 80 80 80s80 -36 80 -80z" />
    <glyph glyph-name="emacron" unicode="&#x113;" horiz-adv-x="501" 
d="M486 223h-323c1 -84 37 -132 97 -132c47 0 75 28 94 67l129 -21c-35 -99 -119 -153 -223 -153c-150 0 -245 107 -245 257c0 156 85 266 238 266c146 0 233 -98 233 -272v-12zM167 310h187c-9 61 -47 99 -94 99c-44 0 -83 -32 -93 -99zM74 754h382v-88h-382v88z" />
    <glyph glyph-name="ebreve" unicode="&#x115;" horiz-adv-x="501" 
d="M486 223h-323c1 -84 37 -132 97 -132c47 0 75 28 94 67l129 -21c-35 -99 -119 -153 -223 -153c-150 0 -245 107 -245 257c0 156 85 266 238 266c146 0 233 -98 233 -272v-12zM167 310h187c-9 61 -47 99 -94 99c-44 0 -83 -32 -93 -99zM90 754h98c9 -40 31 -71 75 -71
s66 31 75 71h98c-10 -98 -85 -156 -173 -156c-90 0 -164 62 -173 156z" />
    <glyph glyph-name="edotaccent" unicode="&#x117;" horiz-adv-x="501" 
d="M486 223h-323c1 -84 37 -132 97 -132c47 0 75 28 94 67l129 -21c-35 -99 -119 -153 -223 -153c-150 0 -245 107 -245 257c0 156 85 266 238 266c146 0 233 -98 233 -272v-12zM167 310h187c-9 61 -47 99 -94 99c-44 0 -83 -32 -93 -99zM346 682c0 -44 -36 -80 -80 -80
s-80 36 -80 80s36 80 80 80s80 -36 80 -80z" />
    <glyph glyph-name="eogonek" unicode="&#x119;" horiz-adv-x="501" 
d="M486 223h-323c0 -81 37 -132 97 -132c47 0 75 28 94 67l129 -21c-27 -80 -88 -130 -164 -146c-36 -36 -47 -62 -47 -93c0 -25 17 -46 44 -46c17 0 33 5 48 16l-14 -75c-19 -13 -46 -18 -69 -18c-55 0 -99 41 -99 90c0 25 2 69 59 120c-138 7 -226 111 -226 256
c0 156 85 266 238 266c139 0 233 -94 233 -267v-17zM167 310h187c-10 57 -43 99 -94 99c-44 0 -82 -32 -93 -99z" />
    <glyph glyph-name="gcircumflex" unicode="&#x11d;" horiz-adv-x="562" 
d="M370 444h2v47h140v-466c0 -183 -76 -287 -238 -287c-124 0 -240 75 -248 204h148c7 -52 44 -86 97 -86c52 0 101 20 101 141v52h-2c-30 -40 -82 -65 -134 -65c-137 0 -221 116 -221 258c0 140 86 265 228 265c47 0 99 -24 127 -63zM273 108c68 0 116 67 116 137
c0 72 -48 138 -117 138c-65 0 -115 -64 -115 -138c0 -70 48 -137 116 -137zM112 620l170 154l170 -154l-60 -66l-110 104l-110 -104z" />
    <glyph glyph-name="gbreve" unicode="&#x11f;" horiz-adv-x="562" 
d="M370 444h2v47h140v-466c0 -183 -76 -287 -238 -287c-124 0 -240 75 -248 204h148c7 -52 44 -86 97 -86c52 0 101 20 101 141v52h-2c-30 -40 -82 -65 -134 -65c-137 0 -221 116 -221 258c0 140 86 265 228 265c47 0 99 -24 127 -63zM273 108c68 0 116 67 116 137
c0 72 -48 138 -117 138c-65 0 -115 -64 -115 -138c0 -70 48 -137 116 -137zM112 754h98c9 -40 31 -71 75 -71s66 31 75 71h98c-10 -98 -85 -156 -173 -156c-90 0 -164 62 -173 156z" />
    <glyph glyph-name="gdotaccent" unicode="&#x121;" horiz-adv-x="562" 
d="M370 444h2v47h140v-466c0 -183 -76 -287 -238 -287c-124 0 -240 75 -248 204h148c7 -52 44 -86 97 -86c52 0 101 20 101 141v52h-2c-30 -40 -82 -65 -134 -65c-137 0 -221 116 -221 258c0 140 86 265 228 265c47 0 99 -24 127 -63zM273 108c68 0 116 67 116 137
c0 72 -48 138 -117 138c-65 0 -115 -64 -115 -138c0 -70 48 -137 116 -137zM363 682c0 -44 -36 -80 -80 -80s-80 36 -80 80s36 80 80 80s80 -36 80 -80z" />
    <glyph glyph-name="gcommaaccent" unicode="&#x123;" horiz-adv-x="562" 
d="M370 444h2v47h140v-466c0 -183 -76 -287 -238 -287c-124 0 -240 75 -248 204h148c7 -52 44 -86 97 -86c52 0 101 20 101 141v52h-2c-30 -40 -82 -65 -134 -65c-137 0 -221 116 -221 258c0 140 86 265 228 265c47 0 99 -24 127 -63zM273 108c68 0 116 67 116 137
c0 72 -48 138 -117 138c-65 0 -115 -64 -115 -138c0 -70 48 -137 116 -137zM354 855v-68c-47 -7 -67 -40 -67 -79h47v-110h-122v104c0 74 56 143 142 153z" />
    <glyph glyph-name="hcircumflex" unicode="&#x125;" horiz-adv-x="540" 
d="M50 848h140v-398h2c29 40 77 57 128 57c115 0 170 -72 170 -203v-304h-140v287c0 101 -45 108 -77 108c-49 0 -83 -31 -83 -141v-254h-140v848zM4 975l170 154l170 -154l-60 -66l-110 104l-110 -104z" />
    <glyph glyph-name="hbar" unicode="&#x127;" horiz-adv-x="540" 
d="M50 848h140v-152h151v-69h-151v-177h2c29 40 77 57 128 57c116 0 170 -73 170 -204v-303h-140v283c0 93 -33 112 -76 112c-52 0 -84 -33 -84 -141v-254h-140v627h-47v69h47v152z" />
    <glyph glyph-name="dotlessi" unicode="&#x131;" horiz-adv-x="253" 
d="M57 491h140v-491h-140v491z" />
    <glyph glyph-name="igrave" unicode="&#xec;" horiz-adv-x="253" 
d="M57 491h140v-491h-140v491zM-8 712l102 62l120 -168l-71 -44z" />
    <glyph glyph-name="iacute" unicode="&#xed;" horiz-adv-x="253" 
d="M57 491h140v-491h-140v491zM162 774l102 -62l-151 -150l-71 44z" />
    <glyph glyph-name="icircumflex" unicode="&#xee;" horiz-adv-x="253" 
d="M57 491h140v-491h-140v491zM-42 620l170 154l170 -154l-60 -66l-110 104l-110 -104z" />
    <glyph glyph-name="itilde" unicode="&#x129;" horiz-adv-x="253" 
d="M57 491h140v-491h-140v491zM190 700c27 0 35 18 47 42h83c-16 -88 -60 -141 -121 -141c-24 0 -51 14 -78 26c-21 10 -41 18 -57 18c-23 0 -37 -18 -43 -41h-82c8 77 50 139 109 139c21 0 47 -9 72 -19c30 -12 55 -24 70 -24z" />
    <glyph glyph-name="idieresis" unicode="&#xef;" horiz-adv-x="253" 
d="M57 491h140v-491h-140v491zM103 682c0 -44 -36 -80 -80 -80s-80 36 -80 80s36 80 80 80s80 -36 80 -80zM314 682c0 -44 -36 -80 -80 -80s-80 36 -80 80s36 80 80 80s80 -36 80 -80z" />
    <glyph glyph-name="imacron" unicode="&#x12b;" horiz-adv-x="253" 
d="M-12 754h282v-88h-282v88zM57 491h140v-491h-140v491z" />
    <glyph glyph-name="iogonek" unicode="&#x12f;" horiz-adv-x="253" 
d="M210 697c0 -47 -36 -83 -83 -83s-83 36 -83 83c0 44 35 83 83 83s83 -39 83 -83zM57 491h140v-491h-37c-44 -39 -58 -67 -58 -102c0 -25 17 -46 44 -46c19 0 33 5 48 16l-14 -75c-19 -13 -46 -18 -69 -18c-55 0 -99 41 -99 90c0 51 18 88 78 135h-33v491z" />
    <glyph glyph-name="dotlessj" unicode="&#x237;" horiz-adv-x="253" 
d="M57 491h140v-753h-140v753z" />
    <glyph glyph-name="jcircumflex" unicode="&#x135;" horiz-adv-x="253" 
d="M57 491h140v-753h-140v753zM-43 625l170 154l170 -154l-60 -66l-110 104l-110 -104z" />
    <glyph glyph-name="kcommaaccent" unicode="&#x137;" horiz-adv-x="526" 
d="M50 848h140v-537h2l147 180h182l-207 -216l223 -275h-184l-161 209h-2v-209h-140v848zM200 -57h122v-104c0 -74 -56 -143 -142 -153v68c47 7 67 40 67 79h-47v110z" />
    <glyph glyph-name="lacute" unicode="&#x13a;" horiz-adv-x="239" 
d="M50 848h140v-848h-140v848zM171 1083l102 -62l-151 -150l-71 44z" />
    <glyph glyph-name="lcaron" unicode="&#x13e;" horiz-adv-x="239" 
d="M50 848h140v-848h-140v848zM279 754l102 -36l-97 -177l-71 22z" />
    <glyph glyph-name="lcommaaccent" unicode="&#x13c;" horiz-adv-x="239" 
d="M50 848h140v-848h-140v848zM65 -57h122v-104c0 -74 -56 -143 -142 -153v68c47 7 67 40 67 79h-47v110z" />
    <glyph glyph-name="lslash" unicode="&#x142;" horiz-adv-x="283" 
d="M72 848h140v-279l73 49v-106l-73 -49v-463h-140v374l-74 -50v106l74 50v368z" />
    <glyph glyph-name="ldot" unicode="&#x140;" horiz-adv-x="380" 
d="M50 848h140v-848h-140v848zM393 463c0 -44 -36 -80 -80 -80s-80 36 -80 80s36 80 80 80s80 -36 80 -80z" />
    <glyph glyph-name="nacute" unicode="&#x144;" horiz-adv-x="540" 
d="M490 304v-304h-140v284c0 98 -38 111 -76 111c-52 0 -84 -33 -84 -141v-254h-140v491h140v-45h2c29 44 77 61 128 61c115 0 170 -72 170 -203zM346 774l102 -62l-151 -150l-71 44z" />
    <glyph glyph-name="ncaron" unicode="&#x148;" horiz-adv-x="540" 
d="M490 304v-304h-140v284c0 98 -38 111 -76 111c-52 0 -84 -33 -84 -141v-254h-140v491h140v-45h2c29 44 77 61 128 61c115 0 170 -72 170 -203zM156 774l118 -104l119 104l60 -65l-179 -155l-178 155z" />
    <glyph glyph-name="ntilde" unicode="&#xf1;" horiz-adv-x="540" 
d="M490 304v-304h-140v284c0 98 -38 111 -76 111c-52 0 -84 -33 -84 -141v-254h-140v491h140v-45h2c29 44 77 61 128 61c115 0 170 -72 170 -203zM331 700c27 0 35 18 47 42h83c-16 -88 -60 -141 -121 -141c-24 0 -51 14 -78 26c-21 10 -41 18 -57 18c-23 0 -37 -18 -43 -41
h-82c8 77 50 139 109 139c21 0 47 -9 72 -19c30 -12 55 -24 70 -24z" />
    <glyph glyph-name="ncommaaccent" unicode="&#x146;" horiz-adv-x="540" 
d="M490 304v-304h-140v284c0 98 -38 111 -76 111c-52 0 -84 -33 -84 -141v-254h-140v491h140v-45h2c29 44 77 61 128 61c115 0 170 -72 170 -203zM203 -57h122v-104c0 -74 -56 -143 -142 -153v68c47 7 67 40 67 79h-47v110z" />
    <glyph glyph-name="ograve" unicode="&#xf2;" horiz-adv-x="548" 
d="M532 245c0 -153 -106 -261 -258 -261s-258 108 -258 261c0 154 106 262 258 262c154 0 258 -111 258 -262zM274 108c69 0 116 67 116 137c0 71 -46 138 -117 138c-66 0 -115 -65 -115 -138c0 -70 48 -137 116 -137zM123 712l102 62l120 -168l-71 -44z" />
    <glyph glyph-name="oacute" unicode="&#xf3;" horiz-adv-x="548" 
d="M532 245c0 -153 -106 -261 -258 -261s-258 108 -258 261c0 154 106 262 258 262c154 0 258 -111 258 -262zM274 108c69 0 116 67 116 137c0 71 -46 138 -117 138c-66 0 -115 -65 -115 -138c0 -70 48 -137 116 -137zM323 774l102 -62l-151 -150l-71 44z" />
    <glyph glyph-name="ocircumflex" unicode="&#xf4;" horiz-adv-x="548" 
d="M532 245c0 -153 -106 -261 -258 -261s-258 108 -258 261c0 154 106 262 258 262c154 0 258 -111 258 -262zM274 108c69 0 116 67 116 137c0 71 -46 138 -117 138c-66 0 -115 -65 -115 -138c0 -70 48 -137 116 -137zM104 620l170 154l170 -154l-60 -66l-110 104l-110 -104
z" />
    <glyph glyph-name="otilde" unicode="&#xf5;" horiz-adv-x="548" 
d="M532 245c0 -153 -106 -261 -258 -261s-258 108 -258 261c0 154 106 262 258 262c154 0 258 -111 258 -262zM274 108c69 0 116 67 116 137c0 71 -46 138 -117 138c-66 0 -115 -65 -115 -138c0 -70 48 -137 116 -137zM335 700c27 0 35 18 47 42h83
c-16 -88 -60 -141 -121 -141c-24 0 -51 14 -78 26c-21 10 -41 18 -57 18c-23 0 -37 -18 -43 -41h-82c8 77 50 139 109 139c21 0 47 -9 72 -19c30 -12 55 -24 70 -24z" />
    <glyph glyph-name="odieresis" unicode="&#xf6;" horiz-adv-x="548" 
d="M532 245c0 -153 -106 -261 -258 -261s-258 108 -258 261c0 154 106 262 258 262c154 0 258 -111 258 -262zM274 108c69 0 116 67 116 137c0 71 -46 138 -117 138c-66 0 -115 -65 -115 -138c0 -70 48 -137 116 -137zM249 682c0 -44 -36 -80 -80 -80s-80 36 -80 80
s36 80 80 80s80 -36 80 -80zM460 682c0 -44 -36 -80 -80 -80s-80 36 -80 80s36 80 80 80s80 -36 80 -80z" />
    <glyph glyph-name="omacron" unicode="&#x14d;" horiz-adv-x="548" 
d="M532 245c0 -153 -106 -261 -258 -261s-258 108 -258 261c0 154 106 262 258 262c154 0 258 -111 258 -262zM274 108c69 0 116 67 116 137c0 71 -46 138 -117 138c-66 0 -115 -65 -115 -138c0 -70 48 -137 116 -137zM85 754h382v-88h-382v88z" />
    <glyph glyph-name="obreve" unicode="&#x14f;" horiz-adv-x="548" 
d="M532 245c0 -153 -106 -261 -258 -261s-258 108 -258 261c0 154 106 262 258 262c154 0 258 -111 258 -262zM274 108c69 0 116 67 116 137c0 71 -46 138 -117 138c-66 0 -115 -65 -115 -138c0 -70 48 -137 116 -137zM103 754h98c9 -40 31 -71 75 -71s66 31 75 71h98
c-10 -98 -85 -156 -173 -156c-90 0 -164 62 -173 156z" />
    <glyph glyph-name="ohungarumlaut" unicode="&#x151;" horiz-adv-x="548" 
d="M532 245c0 -153 -106 -261 -258 -261s-258 108 -258 261c0 154 106 262 258 262c154 0 258 -111 258 -262zM274 108c69 0 116 67 116 137c0 71 -46 138 -117 138c-66 0 -115 -65 -115 -138c0 -70 48 -137 116 -137zM229 774l102 -62l-151 -150l-71 44zM418 774l102 -62
l-151 -150l-71 44z" />
    <glyph glyph-name="oslash" unicode="&#xf8;" horiz-adv-x="564" 
d="M515 526l55 -50l-80 -80c28 -44 42 -94 42 -151c0 -155 -107 -261 -258 -261c-60 0 -113 17 -153 46l-72 -71l-55 51l73 72c-35 46 -51 104 -51 163c0 154 105 262 258 262c67 0 123 -20 166 -55zM172 181l175 172c-20 20 -45 30 -74 30c-66 0 -115 -65 -115 -138
c0 -21 5 -43 14 -64zM382 295l-169 -167c16 -12 37 -20 61 -20c69 0 116 67 116 137c0 17 -3 35 -8 50z" />
    <glyph glyph-name="oe" unicode="&#x153;" horiz-adv-x="873" 
d="M451 425c41 57 106 82 175 82c141 0 229 -91 233 -262v-22h-323c0 -84 37 -132 97 -132c47 0 75 28 94 67l129 -21c-35 -99 -120 -153 -223 -153c-76 0 -141 25 -182 85c-44 -59 -111 -85 -179 -85c-152 0 -258 108 -258 261c0 154 106 262 258 262c64 0 131 -26 179 -82
zM535 310h187c-9 61 -47 99 -94 99c-43 0 -83 -32 -93 -99zM272 108c69 0 116 67 116 137c0 71 -45 138 -117 138c-67 0 -115 -65 -115 -138c0 -70 48 -137 116 -137z" />
    <glyph glyph-name="racute" unicode="&#x155;" horiz-adv-x="367" 
d="M372 495l-17 -130c-17 12 -37 18 -58 18c-71 0 -107 -44 -107 -157v-226h-140v491h140v-51h2c28 43 70 67 122 67c20 0 38 -5 58 -12zM223 774l102 -62l-151 -150l-71 44z" />
    <glyph glyph-name="rcommaaccent" unicode="&#x157;" horiz-adv-x="367" 
d="M372 495l-17 -130c-17 12 -37 18 -58 18c-71 0 -107 -44 -107 -157v-226h-140v491h140v-51h2c28 43 70 67 122 67c20 0 38 -5 58 -12zM70 -57h122v-104c0 -74 -56 -143 -142 -153v68c47 7 67 40 67 79h-47v110z" />
    <glyph glyph-name="rcaron" unicode="&#x159;" horiz-adv-x="367" 
d="M372 495l-17 -130c-17 12 -37 18 -58 18c-71 0 -107 -44 -107 -157v-226h-140v491h140v-51h2c28 43 70 67 122 67c20 0 38 -5 58 -12zM46 774l118 -104l119 104l60 -65l-179 -155l-178 155z" />
    <glyph glyph-name="sacute" unicode="&#x15b;" horiz-adv-x="410" 
d="M362 456l-60 -81c-20 19 -46 34 -74 34c-23 0 -46 -18 -46 -42c0 -25 23 -37 68 -55c23 -9 44 -17 60 -26c51 -29 74 -68 74 -128c0 -104 -82 -174 -191 -174c-67 0 -130 30 -173 82l64 83c28 -31 63 -57 104 -57c31 0 56 21 56 53c0 30 -23 45 -70 63
c-39 15 -69 28 -89 47c-27 25 -37 56 -37 93c0 92 65 159 156 159c52 0 118 -16 158 -51zM275 774l102 -62l-151 -150l-71 44z" />
    <glyph glyph-name="scircumflex" unicode="&#x15d;" horiz-adv-x="410" 
d="M362 456l-60 -81c-20 19 -46 34 -74 34c-23 0 -46 -18 -46 -42c0 -25 23 -37 68 -55c23 -9 44 -17 60 -26c51 -29 74 -68 74 -128c0 -104 -82 -174 -191 -174c-67 0 -130 30 -173 82l64 83c28 -31 63 -57 104 -57c31 0 56 21 56 53c0 30 -23 45 -70 63
c-39 15 -69 28 -89 47c-27 25 -37 56 -37 93c0 92 65 159 156 159c52 0 118 -16 158 -51zM43 620l170 154l170 -154l-60 -66l-110 104l-110 -104z" />
    <glyph glyph-name="scaron" unicode="&#x161;" horiz-adv-x="410" 
d="M362 456l-60 -81c-20 19 -46 34 -74 34c-23 0 -46 -18 -46 -42c0 -25 23 -37 68 -55c23 -9 44 -17 60 -26c51 -29 74 -68 74 -128c0 -104 -82 -174 -191 -174c-67 0 -130 30 -173 82l64 83c28 -31 63 -57 104 -57c31 0 56 21 56 53c0 30 -23 45 -70 63
c-39 15 -69 28 -89 47c-27 25 -37 56 -37 93c0 92 65 159 156 159c52 0 118 -16 158 -51zM86 774l118 -104l119 104l60 -65l-179 -155l-178 155z" />
    <glyph glyph-name="scedilla" unicode="&#x15f;" horiz-adv-x="410" 
d="M362 456l-60 -81c-20 19 -46 34 -74 34c-23 0 -46 -18 -46 -42c0 -25 23 -37 68 -55c23 -9 44 -17 60 -26c51 -29 74 -68 74 -128c0 -104 -82 -174 -191 -174c-67 0 -130 30 -173 82l64 83c28 -31 63 -57 104 -57c31 0 56 21 56 53c0 30 -23 45 -70 63
c-39 15 -69 28 -89 47c-27 25 -37 56 -37 93c0 92 65 159 156 159c52 0 118 -16 158 -51zM190 -24l92 -47l-116 -139l-74 38z" />
    <glyph glyph-name="scommaaccent" unicode="&#x219;" horiz-adv-x="410" 
d="M362 456l-60 -81c-20 19 -46 34 -74 34c-23 0 -46 -18 -46 -42c0 -25 23 -37 68 -55c23 -9 44 -17 60 -26c51 -29 74 -68 74 -128c0 -104 -82 -174 -191 -174c-67 0 -130 30 -173 82l64 83c28 -31 63 -57 104 -57c31 0 56 21 56 53c0 30 -23 45 -70 63
c-39 15 -69 28 -89 47c-27 25 -37 56 -37 93c0 92 65 159 156 159c52 0 118 -16 158 -51zM145 -57h122v-104c0 -74 -56 -143 -142 -153v68c47 7 67 40 67 79h-47v110z" />
    <glyph glyph-name="germandbls" unicode="&#xdf;" horiz-adv-x="561" 
d="M492 642c0 -68 -23 -119 -76 -162c84 -36 130 -122 130 -226c0 -153 -97 -270 -278 -270h-16v122h4c84 0 143 67 143 154s-58 150 -147 151v118h2c67 0 104 47 104 111c0 52 -31 98 -87 98c-60 0 -81 -56 -81 -131v-607h-140v609c0 159 74 251 222 251
c130 0 220 -88 220 -218z" />
    <glyph glyph-name="tcaron" unicode="&#x165;" horiz-adv-x="274" 
d="M67 657h140v-166h86v-118h-86v-373h-140v373h-48v118h48v166zM309 754l102 -36l-97 -177l-71 22z" />
    <glyph glyph-name="tcommaaccent" unicode="&#x163;" horiz-adv-x="274" 
d="M67 657h140v-166h86v-118h-86v-373h-140v373h-48v118h48v166zM82 -57h122v-104c0 -74 -56 -143 -142 -153v68c47 7 67 40 67 79h-47v110z" />
    <glyph glyph-name="uni021B" unicode="&#x21b;" horiz-adv-x="274" 
d="M67 657h140v-166h86v-118h-86v-373h-140v373h-48v118h48v166zM82 -57h122v-104c0 -74 -56 -143 -142 -153v68c47 7 67 40 67 79h-47v110z" />
    <glyph glyph-name="tbar" unicode="&#x167;" horiz-adv-x="274" 
d="M67 657h140v-166h86v-118h-86v-90h78v-69h-78v-214h-140v214h-45v69h45v90h-48v118h48v166z" />
    <glyph glyph-name="thorn" unicode="&#xfe;" horiz-adv-x="565" 
d="M50 848h140v-402c32 39 86 61 136 61c133 0 224 -122 224 -259c0 -144 -90 -264 -227 -264c-51 0 -103 22 -131 62h-2v-308h-140v1110zM292 108c69 0 116 68 116 138c0 71 -47 137 -117 137c-67 0 -115 -66 -115 -137c0 -72 49 -138 116 -138z" />
    <glyph glyph-name="ugrave" unicode="&#xf9;" horiz-adv-x="535" 
d="M47 491h140v-270c0 -81 27 -119 80 -119s80 38 80 119v270h140v-293c0 -133 -70 -214 -220 -214c-149 0 -220 81 -220 214v293zM117 712l102 62l120 -168l-71 -44z" />
    <glyph glyph-name="uacute" unicode="&#xfa;" horiz-adv-x="535" 
d="M47 491h140v-270c0 -81 27 -119 80 -119s80 38 80 119v270h140v-293c0 -133 -70 -214 -220 -214c-149 0 -220 81 -220 214v293zM317 774l102 -62l-151 -150l-71 44z" />
    <glyph glyph-name="ucircumflex" unicode="&#xfb;" horiz-adv-x="535" 
d="M47 491h140v-270c0 -81 27 -119 80 -119s80 38 80 119v270h140v-293c0 -133 -70 -214 -220 -214c-149 0 -220 81 -220 214v293zM98 620l170 154l170 -154l-60 -66l-110 104l-110 -104z" />
    <glyph glyph-name="utilde" unicode="&#x169;" horiz-adv-x="535" 
d="M47 491h140v-270c0 -81 27 -119 80 -119s80 38 80 119v270h140v-293c0 -133 -70 -214 -220 -214c-149 0 -220 81 -220 214v293zM345 700c27 0 35 18 47 42h83c-16 -88 -60 -141 -121 -141c-24 0 -51 14 -78 26c-21 10 -41 18 -57 18c-23 0 -37 -18 -43 -41h-82
c8 77 50 139 109 139c21 0 47 -9 72 -19c30 -12 55 -24 70 -24z" />
    <glyph glyph-name="udieresis" unicode="&#xfc;" horiz-adv-x="535" 
d="M47 491h140v-270c0 -81 27 -119 80 -119s80 38 80 119v270h140v-293c0 -133 -70 -214 -220 -214c-149 0 -220 81 -220 214v293zM243 682c0 -44 -36 -80 -80 -80s-80 36 -80 80s36 80 80 80s80 -36 80 -80zM454 682c0 -44 -36 -80 -80 -80s-80 36 -80 80s36 80 80 80
s80 -36 80 -80z" />
    <glyph glyph-name="umacron" unicode="&#x16b;" horiz-adv-x="535" 
d="M47 491h140v-270c0 -81 27 -119 80 -119s80 38 80 119v270h140v-293c0 -133 -70 -214 -220 -214c-149 0 -220 81 -220 214v293zM75 754h382v-88h-382v88z" />
    <glyph glyph-name="ubreve" unicode="&#x16d;" horiz-adv-x="535" 
d="M47 491h140v-270c0 -81 27 -119 80 -119s80 38 80 119v270h140v-293c0 -133 -70 -214 -220 -214c-149 0 -220 81 -220 214v293zM96 754h98c9 -40 31 -71 75 -71s66 31 75 71h98c-10 -98 -85 -156 -173 -156c-90 0 -164 62 -173 156z" />
    <glyph glyph-name="uring" unicode="&#x16f;" horiz-adv-x="535" 
d="M47 491h140v-270c0 -81 27 -119 80 -119s80 38 80 119v270h140v-293c0 -133 -70 -214 -220 -214c-149 0 -220 81 -220 214v293zM364 674c0 -55 -45 -101 -100 -101s-100 46 -100 101c0 57 45 100 100 100s100 -45 100 -100zM264 632c23 0 41 19 41 42s-18 41 -41 41
s-41 -18 -41 -41s18 -42 41 -42z" />
    <glyph glyph-name="uhungarumlaut" unicode="&#x171;" horiz-adv-x="535" 
d="M47 491h140v-270c0 -81 27 -119 80 -119s80 38 80 119v270h140v-293c0 -133 -70 -214 -220 -214c-149 0 -220 81 -220 214v293zM226 774l102 -62l-151 -150l-71 44zM415 774l102 -62l-151 -150l-71 44z" />
    <glyph glyph-name="uogonek" unicode="&#x173;" horiz-adv-x="535" 
d="M47 491h140v-270c0 -81 27 -119 80 -119s80 38 80 119v270h140v-294c0 -113 -51 -189 -162 -208c-35 -35 -45 -60 -45 -91c0 -25 17 -46 44 -46c17 0 33 5 48 16l-14 -75c-19 -13 -46 -18 -69 -18c-55 0 -99 41 -99 90c0 45 14 80 59 120c-137 7 -202 84 -202 212v294z
" />
    <glyph glyph-name="wcircumflex" unicode="&#x175;" horiz-adv-x="783" 
d="M357 507h67l121 -303l104 287h152l-228 -501h-71l-105 299l-117 -299h-72l-226 501h153l102 -283zM222 620l170 154l170 -154l-60 -66l-110 104l-110 -104z" />
    <glyph glyph-name="yacute" unicode="&#xfd;" horiz-adv-x="520" 
d="M-18 491h159l117 -279l126 279h156l-357 -753h-154l162 337zM324 774l102 -62l-151 -150l-71 44z" />
    <glyph glyph-name="ycircumflex" unicode="&#x177;" horiz-adv-x="520" 
d="M-18 491h159l117 -279l126 279h156l-357 -753h-154l162 337zM110 620l170 154l170 -154l-60 -66l-110 104l-110 -104z" />
    <glyph glyph-name="ydieresis" unicode="&#xff;" horiz-adv-x="520" 
d="M-18 491h159l117 -279l126 279h156l-357 -753h-154l162 337zM243 682c0 -44 -36 -80 -80 -80s-80 36 -80 80s36 80 80 80s80 -36 80 -80zM454 682c0 -44 -36 -80 -80 -80s-80 36 -80 80s36 80 80 80s80 -36 80 -80z" />
    <glyph glyph-name="zacute" unicode="&#x17a;" horiz-adv-x="481" 
d="M38 491h443l-249 -373h233v-118h-466l251 373h-212v118zM303 774l102 -62l-151 -150l-71 44z" />
    <glyph glyph-name="zcaron" unicode="&#x17e;" horiz-adv-x="481" 
d="M38 491h443l-249 -373h233v-118h-466l251 373h-212v118zM130 774l118 -104l119 104l60 -65l-179 -155l-178 155z" />
    <glyph glyph-name="zdotaccent" unicode="&#x17c;" horiz-adv-x="481" 
d="M38 491h443l-249 -373h233v-118h-466l251 373h-212v118zM344 682c0 -44 -36 -80 -80 -80s-80 36 -80 80s36 80 80 80s80 -36 80 -80z" />
    <glyph glyph-name="grave.cap" horiz-adv-x="380" 
d="M79 940l102 62l120 -168l-71 -44z" />
    <glyph glyph-name="acute" unicode="&#xb4;" horiz-adv-x="380" 
d="M199 774l102 -62l-151 -150l-71 44z" />
    <glyph glyph-name="acute.cap" horiz-adv-x="380" 
d="M199 1002l102 -62l-151 -150l-71 44z" />
    <glyph glyph-name="circumflex" unicode="&#x2c6;" horiz-adv-x="400" 
d="M30 620l170 154l170 -154l-60 -66l-110 104l-110 -104z" />
    <glyph glyph-name="circumflex.cap" horiz-adv-x="400" 
d="M30 848l170 154l170 -154l-60 -66l-110 104l-110 -104z" />
    <glyph glyph-name="caron" unicode="&#x2c7;" horiz-adv-x="400" 
d="M81 774l118 -104l119 104l60 -65l-179 -155l-178 155z" />
    <glyph glyph-name="caron.cap" horiz-adv-x="400" 
d="M81 1002l118 -104l119 104l60 -65l-179 -155l-178 155z" />
    <glyph glyph-name="caron.alt" horiz-adv-x="380" 
d="M164 754l102 -36l-97 -177l-71 22z" />
    <glyph glyph-name="tilde" unicode="&#x2dc;" horiz-adv-x="400" 
d="M261 700c27 0 35 18 47 42h83c-16 -88 -60 -141 -121 -141c-24 0 -51 14 -78 26c-21 10 -41 18 -57 18c-23 0 -37 -18 -43 -41h-82c8 77 50 139 109 139c21 0 47 -9 72 -19c30 -12 55 -24 70 -24z" />
    <glyph glyph-name="tilde.cap" horiz-adv-x="400" 
d="M261 928c28 0 35 18 47 42h83c-16 -88 -60 -141 -121 -141c-24 0 -51 14 -78 26c-21 10 -41 18 -57 18c-23 0 -36 -18 -43 -41h-82c9 81 52 139 109 139c24 0 46 -8 70 -18c30 -12 56 -25 72 -25z" />
    <glyph glyph-name="dieresis" unicode="&#xa8;" horiz-adv-x="400" 
d="M175 682c0 -44 -36 -80 -80 -80s-80 36 -80 80s36 80 80 80s80 -36 80 -80zM386 682c0 -44 -36 -80 -80 -80s-80 36 -80 80s36 80 80 80s80 -36 80 -80z" />
    <glyph glyph-name="dieresis.cap" horiz-adv-x="400" 
d="M175 910c0 -44 -36 -80 -80 -80s-80 36 -80 80s36 80 80 80s80 -36 80 -80zM386 910c0 -44 -36 -80 -80 -80s-80 36 -80 80s36 80 80 80s80 -36 80 -80z" />
    <glyph glyph-name="macron" unicode="&#xaf;" horiz-adv-x="400" 
d="M9 754h382v-88h-382v88z" />
    <glyph glyph-name="macron.cap" horiz-adv-x="400" 
d="M9 982h382v-88h-382v88z" />
    <glyph glyph-name="uni02C9" unicode="&#x2c9;" horiz-adv-x="400" 
d="M9 754h382v-88h-382v88z" />
    <glyph glyph-name="breve" unicode="&#x2d8;" horiz-adv-x="400" 
d="M27 754h98c9 -40 31 -71 75 -71s66 31 75 71h98c-10 -98 -85 -156 -173 -156c-90 0 -164 62 -173 156z" />
    <glyph glyph-name="breve.cap" horiz-adv-x="400" 
d="M27 982h98c9 -40 31 -71 75 -71s66 31 75 71h98c-10 -98 -85 -156 -173 -156c-90 0 -164 62 -173 156z" />
    <glyph glyph-name="ring" unicode="&#x2da;" horiz-adv-x="380" 
d="M290 674c0 -55 -45 -101 -100 -101s-100 46 -100 101c0 57 45 100 100 100s100 -45 100 -100zM190 632c23 0 41 19 41 42s-18 41 -41 41s-41 -18 -41 -41s18 -42 41 -42z" />
    <glyph glyph-name="ring.cap" horiz-adv-x="380" 
d="M290 902c0 -55 -45 -101 -100 -101s-100 46 -100 101c0 57 45 100 100 100s100 -45 100 -100zM190 860c23 0 41 19 41 42s-18 41 -41 41s-41 -18 -41 -41s18 -42 41 -42z" />
    <glyph glyph-name="hungarumlaut" unicode="&#x2dd;" horiz-adv-x="420" 
d="M125 774l102 -62l-151 -150l-71 44zM314 774l102 -62l-151 -150l-71 44z" />
    <glyph glyph-name="hungarumlaut.cap" horiz-adv-x="420" 
d="M125 1002l102 -62l-151 -150l-71 44zM314 1002l102 -62l-151 -150l-71 44z" />
    <glyph glyph-name="dotaccent" unicode="&#x2d9;" horiz-adv-x="380" 
d="M270 682c0 -44 -36 -80 -80 -80s-80 36 -80 80s36 80 80 80s80 -36 80 -80z" />
    <glyph glyph-name="dotaccent.cap" horiz-adv-x="380" 
d="M270 910c0 -44 -36 -80 -80 -80s-80 36 -80 80s36 80 80 80s80 -36 80 -80z" />
    <glyph glyph-name="cedilla" unicode="&#xb8;" horiz-adv-x="380" 
d="M193 -20l92 -47l-116 -139l-74 38z" />
    <glyph glyph-name="ogonek" unicode="&#x2db;" horiz-adv-x="380" 
d="M177 0h70c-45 -40 -58 -67 -58 -102c0 -25 17 -46 44 -46c17 0 33 5 48 16l-14 -75c-19 -13 -46 -18 -69 -18c-55 0 -99 41 -99 90c0 51 18 88 78 135z" />
    <glyph glyph-name="commaaccent" horiz-adv-x="380" 
d="M139 -57h122v-104c0 -74 -56 -143 -142 -153v68c47 7 67 40 67 79h-47v110z" />
    <glyph glyph-name="commaaccent.alt" horiz-adv-x="380" 
d="M261 855v-68c-47 -7 -67 -40 -67 -79h47v-110h-122v104c0 74 56 143 142 153z" />
    <glyph glyph-name="ellipsis" unicode="&#x2026;" horiz-adv-x="1000" 
d="M256 73c0 -49 -40 -90 -89 -90s-89 41 -89 90s40 88 89 88s89 -39 89 -88zM589 70c0 -49 -40 -90 -89 -90s-89 41 -89 90s40 88 89 88s89 -39 89 -88zM922 70c0 -49 -40 -90 -89 -90s-89 41 -89 90s40 88 89 88s89 -39 89 -88z" />
    <glyph glyph-name="uni00AD" unicode="&#xad;" horiz-adv-x="330" 
d="M43 378h244v-115h-244v115z" />
    <glyph glyph-name="exclamdown" unicode="&#xa1;" horiz-adv-x="325" 
d="M251 426c0 -49 -40 -90 -89 -90s-89 41 -89 90s40 88 89 88s89 -39 89 -88zM91 273h142v-537h-142v537z" />
    <glyph glyph-name="questiondown" unicode="&#xbf;" horiz-adv-x="487" 
d="M356 426c0 -49 -40 -90 -89 -90s-89 41 -89 90s40 88 89 88s89 -39 89 -88zM199 253h140v-199c-12 3 -23 4 -36 4c-71 0 -128 -44 -128 -112c0 -44 25 -88 69 -88c42 0 67 37 67 85v9h146v-10c0 -117 -95 -206 -212 -206c-125 0 -215 94 -215 215c0 100 68 185 161 206z
" />
    <glyph glyph-name="quoteleft" unicode="&#x2018;" horiz-adv-x="296" 
d="M174 774l93 -11l-108 -304l-129 14z" />
    <glyph glyph-name="quoteright" unicode="&#x2019;" horiz-adv-x="296" 
d="M30 470l109 304l128 -15l-144 -300z" />
    <glyph glyph-name="quotedblleft" unicode="&#x201c;" horiz-adv-x="488" 
d="M174 774l93 -11l-108 -304l-129 14zM365 774l93 -11l-108 -304l-129 14z" />
    <glyph glyph-name="quotedblright" unicode="&#x201d;" horiz-adv-x="488" 
d="M30 470l109 304l128 -15l-144 -300zM221 470l109 304l128 -15l-144 -300z" />
    <glyph glyph-name="quotesinglbase" unicode="&#x201a;" horiz-adv-x="296" 
d="M139 156l128 -14l-144 -301l-93 11z" />
    <glyph glyph-name="quotedblbase" unicode="&#x201e;" horiz-adv-x="488" 
d="M139 156l128 -14l-144 -301l-93 11zM330 156l128 -14l-144 -301l-93 11z" />
    <glyph glyph-name="guilsinglleft" unicode="&#x2039;" horiz-adv-x="314" 
d="M177 563l86 -56l-124 -187l125 -182l-87 -58l-159 240z" />
    <glyph glyph-name="guilsinglright" unicode="&#x203a;" horiz-adv-x="314" 
d="M51 507l86 56l159 -243l-159 -240l-87 58l125 182z" />
    <glyph glyph-name="guillemotleft" unicode="&#xab;" horiz-adv-x="514" 
d="M177 563l86 -56l-124 -187l125 -182l-87 -58l-159 240zM377 563l86 -56l-124 -187l125 -182l-87 -58l-159 240z" />
    <glyph glyph-name="guillemotright" unicode="&#xbb;" horiz-adv-x="514" 
d="M51 507l86 56l159 -243l-159 -240l-87 58l125 182zM251 507l86 56l159 -243l-159 -240l-87 58l125 182z" />
    <glyph glyph-name="endash" unicode="&#x2013;" horiz-adv-x="500" 
d="M0 378h500v-115h-500v115z" />
    <glyph glyph-name="emdash" unicode="&#x2014;" horiz-adv-x="1000" 
d="M130 378h740v-115h-740v115z" />
    <glyph glyph-name="bullet" unicode="&#x2022;" horiz-adv-x="577" 
d="M477 377c0 -105 -86 -188 -189 -188s-188 84 -188 188c0 105 83 189 188 189c107 0 189 -87 189 -189z" />
    <glyph glyph-name="periodcentered" unicode="&#xb7;" horiz-adv-x="289" 
d="M234 257c0 -49 -40 -90 -89 -90s-89 41 -89 90s40 88 89 88s89 -39 89 -88z" />
    <glyph glyph-name="uni2219" unicode="&#x2219;" horiz-adv-x="289" 
d="M234 257c0 -49 -40 -90 -89 -90s-89 41 -89 90s40 88 89 88s89 -39 89 -88z" />
    <glyph glyph-name="dagger" unicode="&#x2020;" horiz-adv-x="577" 
d="M223 848h131v-240h162v-116h-162v-589h-131v589h-162v116h162v240z" />
    <glyph glyph-name="daggerdbl" unicode="&#x2021;" horiz-adv-x="577" 
d="M223 848h131v-211h162v-116h-162v-133h162v-116h-162v-368h-131v368h-162v116h162v133h-162v116h162v211z" />
    <glyph glyph-name="section" unicode="&#xa7;" horiz-adv-x="577" 
d="M482 684h-125c-5 40 -32 73 -76 73c-39 0 -62 -38 -62 -74c0 -37 24 -62 59 -82s124 -68 170 -97c59 -37 89 -76 89 -146c0 -60 -27 -120 -70 -160c27 -32 40 -82 40 -123c0 -118 -88 -207 -222 -207c-131 0 -234 83 -234 215v16h138c1 -72 45 -118 98 -118
c47 0 81 40 81 89c0 45 -31 67 -79 93c-41 22 -97 53 -152 83c-64 35 -97 83 -97 153c0 62 27 118 74 163c-21 32 -33 73 -33 112c0 107 84 186 200 186c108 0 196 -64 201 -176zM208 359l167 -102c23 19 37 49 37 78c0 34 -19 54 -46 71l-161 99c-24 -19 -40 -47 -40 -76
c0 -32 14 -52 43 -70z" />
    <glyph glyph-name="paragraph" unicode="&#xb6;" horiz-adv-x="577" 
d="M233 754h325v-94h-61v-813h-104v813h-62v-813h-104v436c-154 1 -207 135 -207 232c0 115 92 239 213 239z" />
    <glyph glyph-name="brokenbar" unicode="&#xa6;" horiz-adv-x="538" 
d="M210 661h118v-250h-118v250zM210 161h118v-250h-118v250z" />
    <glyph glyph-name="copyright" unicode="&#xa9;" horiz-adv-x="800" 
d="M794 377c0 -222 -176 -397 -394 -397c-219 0 -394 176 -394 397c0 219 173 397 394 397c219 0 394 -174 394 -397zM400 66c173 0 308 138 308 311c0 172 -132 311 -309 311c-169 0 -307 -133 -307 -311c0 -173 134 -311 308 -311zM602 459h-88c-11 48 -58 77 -114 77
c-78 0 -137 -74 -137 -156c0 -80 56 -156 137 -156c56 0 103 29 114 77h88c-20 -100 -97 -163 -202 -163c-124 0 -223 106 -223 242c0 134 97 242 223 242c100 0 182 -59 202 -163z" />
    <glyph glyph-name="registered" unicode="&#xae;" horiz-adv-x="800" 
d="M794 377c0 -222 -176 -397 -394 -397c-221 0 -394 176 -394 397c0 219 172 397 394 397c217 0 394 -174 394 -397zM400 66c174 0 308 138 308 311c0 172 -133 311 -309 311c-169 0 -307 -133 -307 -311c0 -173 133 -311 308 -311zM235 585h205c116 0 155 -37 155 -126
c0 -76 -39 -117 -112 -122l100 -164h-94l-96 164h-72v-164h-86v412zM321 411h118c40 0 72 8 72 55c0 29 -19 45 -88 45h-102v-100z" />
    <glyph glyph-name="trademark" unicode="&#x2122;" horiz-adv-x="1000" 
d="M42 754h340v-75h-127v-346h-86v346h-127v75zM459 754h149l98 -275h2l102 275h148v-421h-86v335h-2l-122 -335h-83l-118 335h-2v-335h-86v421z" />
    <glyph glyph-name="currency" unicode="&#xa4;" 
d="M86 563l62 -57c31 25 77 44 141 44c65 0 112 -20 141 -44l62 57l74 -74l-60 -55c23 -35 38 -77 38 -134s-16 -101 -38 -134l60 -55l-74 -74l-62 57c-31 -25 -77 -44 -141 -44c-65 0 -112 20 -141 44l-62 -57l-74 74l60 55c-23 35 -38 77 -38 134s16 101 38 134l-60 55z
M289 146c92 0 159 71 159 154c0 89 -66 154 -160 154c-89 0 -158 -61 -158 -154c0 -85 69 -154 159 -154z" />
    <glyph glyph-name="Euro" unicode="&#x20ac;" 
d="M565 737l-39 -109c-31 19 -79 27 -123 27c-88 0 -166 -64 -186 -162h273l-21 -71h-265c-2 -7 -3 -15 -3 -45v-16c0 -9 0 -18 2 -27h242l-22 -72h-210c15 -99 90 -164 186 -164c49 0 94 11 130 35l36 -109c-39 -27 -102 -44 -174 -44c-161 0 -276 101 -308 282h-72l23 72
h43c-2 22 -2 48 -2 53c0 14 1 25 3 35h-71l23 71h52c37 173 164 278 326 278c60 0 121 -14 157 -34z" />
    <glyph glyph-name="cent" unicode="&#xa2;" 
d="M316 724h73v-87c29 -5 58 -11 83 -25v-141c-32 35 -57 50 -101 50c-75 0 -124 -66 -124 -145c0 -77 50 -139 125 -139c39 0 77 19 98 50h2v-141c-23 -12 -52 -22 -83 -25v-93h-73v91c-127 9 -211 130 -211 260c0 136 80 244 211 261v84z" />
    <glyph glyph-name="sterling" unicode="&#xa3;" 
d="M557 516l-147 -17c1 20 2 33 2 38c0 59 -43 114 -97 114c-63 0 -104 -56 -104 -128c0 -51 19 -94 47 -149h136v-66h-112c3 -20 4 -37 4 -62c0 -32 -3 -60 -4 -92c63 -25 101 -43 130 -43c33 0 47 31 55 59l104 -22c-28 -111 -79 -156 -154 -156c-44 0 -90 18 -133 34
c-34 13 -68 24 -98 24c-33 0 -57 -19 -67 -50l-109 19c35 108 95 145 146 146c7 21 11 39 11 59c0 29 -8 58 -22 84h-131v66h93c-23 45 -41 104 -41 153c0 145 108 247 253 247s229 -81 238 -258z" />
    <glyph glyph-name="florin" unicode="&#x192;" 
d="M550 810l-20 -121c-20 11 -36 17 -59 17c-39 0 -61 -33 -72 -96l-18 -106h107l-10 -72h-108l-46 -285c-16 -100 -34 -160 -54 -197c-40 -73 -102 -116 -216 -116l-58 4l20 126c14 -1 29 -2 36 -2c38 0 76 9 98 55c14 30 24 76 35 145l43 270h-60l10 72h62
c9 57 15 95 24 140c22 108 73 187 198 187c31 0 63 -7 88 -21z" />
    <glyph glyph-name="yen" unicode="&#xa5;" 
d="M-21 754h171l138 -262l139 262h171l-174 -305h134v-66h-175l-21 -37v-36h196v-66h-196v-244h-147v244h-196v66h196v36l-24 37h-172v66h134z" />
    <glyph glyph-name="ordfeminine" unicode="&#xaa;" horiz-adv-x="339" 
d="M243 737v27h89v-294h-89v27h-2c-19 -24 -53 -37 -86 -37c-86 0 -147 70 -147 158c0 82 57 156 146 156c33 0 65 -12 89 -37zM176 534c45 0 76 42 76 83c0 43 -31 83 -77 83c-43 0 -75 -40 -75 -83c0 -41 31 -83 76 -83z" />
    <glyph glyph-name="ordmasculine" unicode="&#xba;" horiz-adv-x="339" 
d="M338 617c0 -93 -70 -157 -168 -157s-168 62 -168 157c0 90 68 157 168 157c99 0 168 -67 168 -157zM170 534c43 0 75 39 75 84c0 43 -31 82 -76 82c-42 0 -74 -38 -74 -82c0 -45 32 -84 75 -84z" />
    <glyph glyph-name="onesuperior" unicode="&#xb9;" horiz-adv-x="346" 
d="M93 754h160v-452h-96v376h-64v76z" />
    <glyph glyph-name="twosuperior" unicode="&#xb2;" horiz-adv-x="346" 
d="M335 621c0 -49 -23 -97 -67 -145l-90 -97h160v-77h-330l170 198c19 23 61 78 61 116c0 43 -22 74 -63 74c-38 0 -60 -36 -60 -72v-6h-101c7 95 67 154 161 154c88 0 159 -62 159 -145z" />
    <glyph glyph-name="threesuperior" unicode="&#xb3;" horiz-adv-x="346" 
d="M320 647c0 -35 -14 -74 -47 -95c45 -18 63 -69 63 -110c0 -86 -66 -144 -163 -144c-86 0 -156 58 -162 143h96c3 -37 27 -66 70 -66c49 0 66 45 66 73c0 39 -29 72 -63 71l-24 -1v63h8c45 0 65 25 65 63c0 31 -20 57 -56 57c-35 0 -52 -29 -53 -57h-91
c8 79 62 130 150 130c85 0 141 -50 141 -127z" />
    <glyph glyph-name="fraction" unicode="&#x2044;" horiz-adv-x="179" 
d="M257 780l68 -34l-404 -777l-69 35z" />
    <glyph glyph-name="uni2215" unicode="&#x2215;" horiz-adv-x="179" 
d="M257 780l68 -34l-404 -777l-69 35z" />
    <glyph glyph-name="onequarter" unicode="&#xbc;" horiz-adv-x="867" 
d="M688 461h87v-310h52v-71h-52v-80h-90v80h-215v39zM683 331l-103 -180h105v180h-2zM40 754h160v-452h-96v376h-64v76zM583 780l68 -34l-404 -777l-69 35z" />
    <glyph glyph-name="onehalf" unicode="&#xbd;" horiz-adv-x="867" 
d="M40 754h160v-452h-96v376h-64v76zM537 780l68 -34l-404 -777l-69 35zM824 319c0 -49 -23 -97 -67 -145l-90 -97h160v-77h-330l170 198c19 23 61 78 61 116c0 43 -22 74 -63 74c-38 0 -60 -36 -60 -72v-6h-101c7 95 67 154 161 154c88 0 159 -62 159 -145z" />
    <glyph glyph-name="threequarters" unicode="&#xbe;" horiz-adv-x="867" 
d="M688 461h87v-310h52v-71h-52v-80h-90v80h-215v39zM683 331l-103 -180h105v180h-2zM349 647c0 -35 -14 -74 -47 -95c45 -18 63 -69 63 -110c0 -86 -66 -144 -163 -144c-86 0 -156 58 -162 143h96c3 -37 27 -66 70 -66c49 0 66 45 66 73c0 39 -29 72 -63 71l-24 -1v63h8
c45 0 65 25 65 63c0 31 -20 57 -56 57c-35 0 -52 -29 -53 -57h-91c8 79 62 130 150 130c85 0 141 -50 141 -127zM635 780l68 -34l-404 -777l-69 35z" />
    <glyph glyph-name="perthousand" unicode="&#x2030;" horiz-adv-x="1200" 
d="M570 780l68 -34l-404 -777l-69 35zM381 595c0 -102 -75 -178 -179 -178s-179 76 -179 178c0 105 78 179 179 179s179 -74 179 -179zM202 498c47 0 80 47 80 97c0 51 -33 98 -81 98c-46 0 -79 -48 -79 -98c0 -51 33 -97 80 -97zM783 158c0 -102 -75 -178 -179 -178
s-179 76 -179 178c0 105 78 179 179 179c100 0 179 -74 179 -179zM1178 158c0 -102 -75 -178 -179 -178s-179 76 -179 178c0 105 78 179 179 179s179 -74 179 -179zM604 61c47 0 80 46 80 97s-33 98 -81 98c-46 0 -79 -48 -79 -98c0 -51 33 -97 80 -97zM999 61
c47 0 80 46 80 97s-33 98 -81 98c-46 0 -79 -48 -79 -98c0 -51 33 -97 80 -97z" />
    <glyph glyph-name="minus" unicode="&#x2212;" 
d="M33 315h512v-118h-512v118z" />
    <glyph glyph-name="plusminus" unicode="&#xb1;" 
d="M230 630h118v-172h197v-118h-197v-172h-118v172h-197v118h197v172zM33 118h512v-118h-512v118z" />
    <glyph glyph-name="multiply" unicode="&#xd7;" 
d="M117 512l173 -173l171 173l84 -84l-172 -172l172 -172l-84 -84l-172 173l-172 -173l-84 84l173 172l-173 172z" />
    <glyph glyph-name="divide" unicode="&#xf7;" 
d="M372 449c0 -47 -36 -83 -83 -83c-46 0 -83 36 -83 83c0 45 36 83 83 83s83 -38 83 -83zM33 315h512v-118h-512v118zM372 63c0 -47 -38 -83 -83 -83c-47 0 -83 36 -83 83c0 45 36 83 83 83s83 -38 83 -83z" />
    <glyph glyph-name="notequal" unicode="&#x2260;" 
d="M546 109h-280l-75 -147l-95 47l53 100h-118v106h172l53 103h-225v106h280l76 147l94 -46l-53 -101h118v-106h-172l-53 -103h225v-106z" />
    <glyph glyph-name="approxequal" unicode="&#x2248;" 
d="M484 454h77c-8 -101 -58 -174 -149 -174c-80 0 -194 68 -255 68c-35 0 -54 -33 -61 -65h-78c8 83 51 170 149 170c43 0 87 -16 130 -32c44 -16 87 -33 127 -33c35 0 53 27 60 66zM483 243h78c-8 -82 -48 -169 -148 -169c-83 0 -193 68 -257 68c-35 0 -54 -32 -61 -68h-78
c8 84 51 173 147 173c85 0 181 -65 260 -65c35 0 52 28 59 61z" />
    <glyph glyph-name="lessequal" unicode="&#x2264;" 
d="M544 13h-510v104h510v-104zM544 142l-510 197v94l510 199v-113l-351 -134l351 -130v-113z" />
    <glyph glyph-name="greaterequal" unicode="&#x2265;" 
d="M34 13v104h510v-104h-510zM34 142v113l351 130l-351 134v113l510 -199v-94z" />
    <glyph glyph-name="logicalnot" unicode="&#xac;" 
d="M427 142v173h-394v118h512v-291h-118z" />
    <glyph glyph-name="Delta" unicode="&#x2206;" horiz-adv-x="736" 
d="M725 0h-714l288 753h125zM542 121l-183 470l-175 -470h358z" />
    <glyph glyph-name="uni0394" unicode="&#x394;" horiz-adv-x="736" 
d="M725 0h-714l288 753h125zM542 121l-183 470l-175 -470h358z" />
    <glyph glyph-name="Omega" unicode="&#x2126;" horiz-adv-x="808" 
d="M748 0h-293v214c104 21 160 108 160 215c0 126 -97 217 -213 217c-120 0 -215 -89 -215 -218c0 -108 58 -189 158 -214v-214h-294v117h190v39c-61 19 -108 54 -140 103c-32 48 -50 108 -50 172c0 196 157 333 349 333c191 0 348 -134 348 -330c0 -132 -64 -243 -188 -278
v-39h188v-117z" />
    <glyph glyph-name="uni03A9" unicode="&#x3a9;" horiz-adv-x="808" 
d="M748 0h-293v214c104 21 160 108 160 215c0 126 -97 217 -213 217c-120 0 -215 -89 -215 -218c0 -108 58 -189 158 -214v-214h-294v117h190v39c-61 19 -108 54 -140 103c-32 48 -50 108 -50 172c0 196 157 333 349 333c191 0 348 -134 348 -330c0 -132 -64 -243 -188 -278
v-39h188v-117z" />
    <glyph glyph-name="mu" unicode="&#xb5;" horiz-adv-x="535" 
d="M47 491h140v-266c0 -56 9 -123 80 -123s80 67 80 123v266h140v-289c0 -143 -74 -218 -220 -218c-39 0 -59 16 -80 30v-276h-140v753z" />
    <glyph glyph-name="uni03BC" unicode="&#x3bc;" horiz-adv-x="535" 
d="M47 491h140v-266c0 -56 9 -123 80 -123s80 67 80 123v266h140v-289c0 -143 -74 -218 -220 -218c-39 0 -59 16 -80 30v-276h-140v753z" />
    <glyph glyph-name="pi" unicode="&#x3c0;" horiz-adv-x="622" 
d="M586 103v-88c-29 -15 -61 -22 -96 -22c-92 0 -109 60 -109 132v252h-153v-377h-126v377h-69v109h551v-109h-78v-235c0 -25 4 -50 36 -50c13 0 28 4 44 11z" />
    <glyph glyph-name="degree" unicode="&#xb0;" horiz-adv-x="400" 
d="M350 624c0 -83 -68 -150 -150 -150c-83 0 -150 67 -150 150c-1 82 67 150 150 150c82 0 150 -68 150 -150zM199 706c-45 0 -82 -37 -81 -82c1 -46 37 -82 83 -82c45 0 81 36 81 82c0 45 -37 82 -83 82z" />
    <glyph glyph-name="afii61289" unicode="&#x2113;" horiz-adv-x="530" 
d="M429 121l45 -68c-55 -47 -109 -68 -173 -68c-104 0 -164 61 -164 152v70l-60 -54h-2l-46 70l107 91v258c0 117 75 202 179 202c91 0 149 -61 149 -153c0 -108 -65 -211 -198 -328v-136c0 -59 35 -76 68 -76c27 0 58 13 93 40h2zM357 612c0 43 -16 75 -43 75
s-48 -33 -48 -92v-191c64 69 91 141 91 208z" />
    <glyph glyph-name="estimated" unicode="&#x212e;" horiz-adv-x="903" 
d="M832 330h-617c-3 0 -5 -1 -5 -5v-176c0 -9 2 -22 7 -28c50 -63 132 -99 232 -99c109 0 183 46 249 108h67c-75 -90 -156 -133 -313 -133c-243 0 -382 156 -382 335c0 180 143 351 380 351c293 0 382 -190 382 -353zM692 355v180c0 9 -4 18 -10 25c-64 80 -168 99 -235 99
c-75 0 -161 -28 -228 -97c-6 -6 -9 -16 -9 -26v-181c0 -4 2 -5 5 -5h472c3 0 5 1 5 5z" />
    <glyph glyph-name="infinity" unicode="&#x221e;" horiz-adv-x="808" 
d="M773 265c0 -102 -63 -183 -172 -183c-80 0 -139 49 -187 105c-52 -55 -102 -104 -186 -104c-108 0 -175 78 -175 181c0 99 63 179 171 179c85 0 140 -54 190 -112c48 58 104 113 188 113c108 0 171 -80 171 -179zM677 262c0 44 -27 79 -74 79c-49 0 -96 -48 -128 -80
c35 -36 79 -76 131 -76c45 0 71 33 71 77zM352 261c-35 32 -84 79 -131 79c-44 0 -71 -37 -71 -78c0 -47 27 -77 74 -77s96 41 128 76z" />
    <glyph glyph-name="partialdiff" unicode="&#x2202;" horiz-adv-x="595" 
d="M535 359c0 -157 -41 -371 -256 -371c-137 0 -227 100 -227 233c0 125 82 222 221 222c53 0 98 -19 137 -50c0 19 -2 38 -6 56c-8 75 -47 167 -141 167c-45 0 -84 -13 -127 -56c-21 27 -41 56 -62 83c56 51 115 78 187 78c212 0 274 -195 274 -362zM405 281
c-31 39 -70 63 -117 63c-75 0 -112 -57 -112 -129c0 -68 38 -128 106 -128c80 0 112 82 120 160c3 11 3 23 3 34z" />
    <glyph glyph-name="integral" unicode="&#x222b;" horiz-adv-x="604" 
d="M480 709c0 -31 -23 -54 -55 -54c-50 0 -45 52 -68 57c-15 -7 -18 -38 -18 -65c0 -33 2 -64 2 -89v-475c0 -108 -4 -296 -150 -296c-42 0 -104 20 -104 76c0 29 26 52 55 52c48 0 44 -53 65 -56c18 8 19 54 19 70c0 27 -2 51 -2 71v567c0 103 21 218 151 218
c38 0 105 -20 105 -76z" />
    <glyph glyph-name="radical" unicode="&#x221a;" horiz-adv-x="542" 
d="M553 786l-213 -1000h-106l-151 314l-50 -24l-44 93l150 68l128 -270l168 819h118z" />
    <glyph glyph-name="summation" unicode="&#x2211;" horiz-adv-x="646" 
d="M623 -214h-597v92l303 414l-291 402v92h573v-108h-417l274 -386l-292 -398h447v-108z" />
    <glyph glyph-name="product" unicode="&#x220f;" horiz-adv-x="740" 
d="M678 -214h-122v892h-372v-892h-122v1000h616v-1000z" />
    <glyph glyph-name="lozenge" unicode="&#x25ca;" horiz-adv-x="600" 
d="M529 356l-179 -391h-102l-177 391l178 391h101zM414 356l-115 273l-114 -273l114 -273z" />
    <glyph glyph-name="uniF8FF" unicode="&#xf8ff;" horiz-adv-x="512" 
d="M0 718h512v-718h-512v718zM50 50h412v617h-412v-617zM383 478c0 -40 -15 -74 -46 -103c-65 -60 -66 -52 -66 -141h-46l-2 20c0 58 18 102 54 132c37 31 55 60 55 88c0 48 -35 85 -76 85s-74 -27 -82 -95l-50 8c9 96 64 137 135 137c72 0 124 -51 124 -131zM222 117v67h56
v-67h-56z" />
    <glyph glyph-name="uni20B9" unicode="&#x20b9;" 
d="M53 522v72h248c-17 60 -61 88 -128 88h-120v72h520v-72h-172c27 -26 39 -56 44 -88h128v-72h-123c-10 -141 -100 -191 -240 -191l277 -331h-177l-257 322v106h95c84 0 145 10 153 94h-248z" />
    <glyph glyph-name="uni20BA" unicode="&#x20ba;" 
d="M8 337l90 38v104l-90 -38v77l90 38v198h147v-137l170 73v-77l-170 -73v-103l170 73v-77l-170 -73v-240c12 -2 22 -2 30 -2c118 0 142 141 143 265h144c-13 -252 -80 -393 -327 -393c-54 0 -114 8 -137 10v298l-90 -38v77z" />
    <glyph glyph-name="uni1E9E" unicode="&#x1e9e;" horiz-adv-x="728" 
d="M618 757l-2 -119c-65 -1 -145 -37 -145 -101c0 -57 68 -78 137 -132c80 -62 107 -117 107 -202c0 -138 -99 -223 -237 -223c-106 0 -171 36 -228 127l95 94c24 -55 69 -91 124 -91c58 0 94 34 94 92c0 61 -44 83 -109 129c-78 55 -135 106 -135 188c0 61 46 111 105 129
c-11 2 -40 2 -50 2c-109 0 -172 -31 -172 -140v-510h-148v516c0 203 129 258 329 258c74 0 169 -8 235 -17z" />
    <glyph glyph-name="uni20BC" unicode="&#x20bc;" horiz-adv-x="824" 
d="M484 508v-438h-144v438c-138 -32 -168 -321 -168 -459v-49h-144v69c0 235 77 530 312 561v124h144v-124c235 -31 312 -326 312 -561v-69h-144v49c0 138 -30 427 -168 459z" />
    <glyph glyph-name="uni20BD" unicode="&#x20bd;" 
d="M264 169v-169h-147v168h-92v95h92v63h-92v96h92v332h204c141 0 245 -64 245 -214c0 -151 -93 -214 -244 -214h-58v-61h173v-96h-173zM264 631v-209h39c76 0 119 29 119 105c0 77 -44 104 -120 104h-38z" />
    </font>
</defs>
</svg>
