<?xml version="1.0" standalone="no"?>
<!DOCTYPE svg PUBLIC "-//W3C//DTD SVG 1.1//EN" "http://www.w3.org/Graphics/SVG/1.1/DTD/svg11.dtd" >
<svg>
<metadata>
Created by FontForge 20120731 at Tue Feb  5 05:05:38 2019
 By www-data
Copyright 1994-2010 Luc(as) de Groot, published by LucasFonts, www.lucasfonts.com  All rights reserved.
</metadata>
<defs>
<font id="TheSans-LP3Lig" horiz-adv-x="550" >
  <font-face 
    font-family="TheSans LP3 Light"
    font-weight="300"
    font-stretch="normal"
    units-per-em="1000"
    panose-1="2 11 3 2 5 3 2 2 2 3"
    ascent="740"
    descent="-260"
    x-height="497"
    cap-height="675"
    bbox="-150 -320 2818 980"
    underline-thickness="41"
    underline-position="-191"
    stemh="52"
    stemv="64"
    unicode-range="U+000D-FB04"
  />
<missing-glyph 
d="M300 150h-150v250h50v-200h100v-50zM500 50h-450v450h450v-450zM350 350h-100v50h150v-250h-50v100h-100v50h100v50zM100 100h350v350h-350v-350z" />
    <glyph glyph-name="f_b" unicode="fb" horiz-adv-x="890" 
d="M842 271c0 -180 -101 -277 -253 -277c-67 0 -111 6 -161 18v664c-34 6 -66 8 -98 8c-101 0 -147 -39 -147 -133v-54h152v-50h-152v-447h-63v447h-114v50h114v64c0 109 70 174 217 174c50 0 105 -6 153 -13v-253c0 -27 -3 -65 -8 -90l2 -1c28 80 94 127 174 127
c116 0 184 -79 184 -234zM775 265c0 118 -40 189 -127 189c-107 0 -158 -125 -158 -214v-181c32 -11 65 -15 105 -15c109 0 180 65 180 221z" />
    <glyph glyph-name="f_f" unicode="ff" horiz-adv-x="649" 
d="M690 726l-7 -54c-26 8 -54 11 -81 11c-81 0 -116 -48 -116 -150v-36h153v-50h-153v-447h-63v447h-240v-447h-63v447h-114v50h114v26c0 99 43 203 208 203c53 0 109 -9 158 -29c30 25 71 38 122 38c29 0 55 -3 82 -9zM449 650c-43 19 -85 25 -125 25
c-98 0 -141 -49 -141 -142v-36h240v34c0 50 9 88 26 119z" />
    <glyph glyph-name="f_f_i" unicode="ffi" horiz-adv-x="889" 
d="M793 0h-63v447h-244v-447h-63v447h-240v-447h-63v447h-114v50h114v26c0 99 43 203 208 203c64 0 116 -12 163 -34c33 25 80 43 154 43c45 0 92 -8 130 -18l-13 -54c-38 12 -86 20 -121 20c-109 0 -155 -56 -155 -150v-36h307v-497zM454 648c-47 21 -88 27 -130 27
c-98 0 -141 -49 -141 -142v-36h240v25c0 41 7 87 31 126z" />
    <glyph glyph-name="f_f_l" unicode="ffl" horiz-adv-x="889" 
d="M793 0h-63v676c-33 6 -66 8 -97 8c-102 0 -147 -39 -147 -133v-54h152v-50h-152v-447h-63v447h-240v-447h-63v447h-114v50h114v26c0 99 43 203 208 203c61 0 111 -11 156 -32c35 27 86 41 155 41c51 0 106 -6 154 -13v-722zM446 652c-44 19 -82 23 -122 23
c-98 0 -141 -49 -141 -142v-36h240v64c0 35 7 66 23 91z" />
    <glyph glyph-name="f_h" unicode="fh" horiz-adv-x="910" 
d="M814 0h-62v323c0 83 -23 132 -101 132c-95 0 -161 -92 -161 -217v-238h-62v676c-34 6 -66 8 -98 8c-101 0 -147 -39 -147 -133v-54h152v-50h-152v-447h-63v447h-114v50h114v64c0 109 70 174 217 174c50 0 105 -6 153 -13v-242c0 -34 -2 -74 -8 -99l2 -1
c29 77 93 126 181 126c114 0 149 -71 149 -160v-346z" />
    <glyph glyph-name="fi" unicode="fi" horiz-adv-x="586" 
d="M490 0h-62v447h-245v-447h-63v447h-114v50h114v25c0 135 71 213 222 213c45 0 92 -8 129 -19l-13 -53c-37 12 -85 20 -120 20c-109 0 -155 -56 -155 -150v-36h307v-497z" />
    <glyph glyph-name="f_j" unicode="fj" horiz-adv-x="586" 
d="M490 -68c0 -132 -36 -190 -156 -190c-21 0 -48 3 -67 9l7 57c19 -7 42 -12 66 -12c70 0 88 28 88 132v519h-245v-447h-63v447h-114v50h114v25c0 135 71 213 222 213c45 0 92 -8 129 -18l-13 -54c-37 12 -85 20 -120 20c-109 0 -155 -56 -155 -150v-36h307v-565z" />
    <glyph glyph-name="f_k" unicode="fk" horiz-adv-x="804" 
d="M428 676c-34 6 -66 8 -98 8c-101 0 -147 -39 -147 -133v-54h152v-50h-152v-447h-63v447h-114v50h114v64c0 109 70 174 217 174c50 0 105 -6 153 -13v-451l197 226h76l-203 -226l219 -271h-83l-206 264v-264h-62v676z" />
    <glyph glyph-name="fl" unicode="fl" horiz-adv-x="586" 
d="M490 0h-62v676c-34 5 -66 8 -98 8c-101 0 -147 -39 -147 -133v-54h152v-50h-152v-447h-63v447h-114v50h114v64c0 109 70 174 217 174c50 0 105 -6 153 -13v-722z" />
    <glyph glyph-name="ellipsis" unicode="&#x2e;&#x2e;&#x2e;" horiz-adv-x="623" 
d="M555 40c0 -26 -21 -48 -48 -48c-26 0 -48 22 -48 48c0 27 22 48 48 48c27 0 48 -21 48 -48zM353 40c0 -26 -21 -48 -48 -48c-26 0 -47 22 -47 48c0 27 21 48 47 48c27 0 48 -21 48 -48zM151 40c0 -26 -21 -48 -48 -48c-26 0 -47 22 -47 48c0 27 21 48 47 48
c27 0 48 -21 48 -48z" />
    <glyph glyph-name="exclamdbl" unicode="&#x21;&#x21;" horiz-adv-x="570" 
d="M207 699l-12 -545h-51l-13 545h76zM217 40c0 -27 -21 -48 -48 -48s-48 21 -48 48c0 26 21 47 48 47s48 -21 48 -47zM461 699l-12 -545h-51l-13 545h76zM471 40c0 -27 -21 -48 -48 -48s-48 21 -48 48c0 26 21 47 48 47s48 -21 48 -47z" />
    <glyph glyph-name=".notdef" 
d="M300 150h-150v250h50v-200h100v-50zM500 50h-450v450h450v-450zM350 350h-100v50h150v-250h-50v100h-100v50h100v50zM100 100h350v350h-350v-350z" />
    <glyph glyph-name=".null" horiz-adv-x="0" 
 />
    <glyph glyph-name=".null" horiz-adv-x="0" 
 />
    <glyph glyph-name="CR" unicode="&#xd;" horiz-adv-x="500" 
 />
    <glyph glyph-name="space" unicode=" " horiz-adv-x="218" 
 />
    <glyph glyph-name="uni00A0" unicode="&#xa0;" horiz-adv-x="218" 
 />
    <glyph glyph-name="LatinLowercase" unicode="&#xf00a;" horiz-adv-x="1169" 
d="M553 333h-49l-29 99h-146l-28 -99h-46l119 402h59zM1115 333h-61l-127 276c-11 23 -20 46 -30 75h-1c1 -49 3 -125 3 -229v-122h-43v402h63l125 -274c10 -19 22 -49 30 -72h1c-2 57 -3 166 -3 241v105h43v-402zM513 -164c-25 -12 -57 -21 -93 -21c-99 0 -146 73 -146 198
c0 121 45 213 156 213c28 0 55 -6 79 -15l-11 -38c-23 11 -46 16 -69 16c-78 0 -108 -76 -108 -170c0 -105 35 -166 109 -166c27 0 52 8 71 18zM781 698h-99v-365h-44v365h-99v37h242v-37zM221 -180h-166v402h45v-365h121v-37zM221 333h-166v402h45v-365h121v-37zM466 468
l-49 166c-6 21 -10 39 -15 60c-3 -19 -8 -38 -14 -58l-49 -168h127z" />
    <glyph glyph-name="a" unicode="a" horiz-adv-x="519" 
d="M424 0h-64c0 40 1 80 6 109l-2 1c-24 -65 -89 -118 -176 -118c-77 0 -135 49 -135 129c0 99 105 168 306 168v27c0 93 -28 138 -117 138c-48 0 -108 -17 -149 -37l-15 52c47 21 110 36 173 36c129 0 171 -68 171 -173v-178c0 -51 1 -109 2 -154zM359 229v12
c-188 0 -242 -54 -242 -110c0 -50 34 -87 87 -87c93 0 155 94 155 185z" />
    <glyph glyph-name="agrave" unicode="&#xe0;" horiz-adv-x="519" 
d="M424 0h-64c0 40 1 80 6 109l-2 1c-24 -65 -89 -118 -176 -118c-77 0 -135 49 -135 129c0 99 105 168 306 168v27c0 93 -28 138 -117 138c-48 0 -108 -17 -149 -37l-15 52c47 21 110 36 173 36c129 0 171 -68 171 -173v-178c0 -51 1 -109 2 -154zM359 229v12
c-188 0 -242 -54 -242 -110c0 -50 34 -87 87 -87c93 0 155 94 155 185zM297 611l-33 -33l-128 118l42 41z" />
    <glyph glyph-name="aacute" unicode="&#xe1;" horiz-adv-x="519" 
d="M424 0h-64c0 40 1 80 6 109l-2 1c-24 -65 -89 -118 -176 -118c-77 0 -135 49 -135 129c0 99 105 168 306 168v27c0 93 -28 138 -117 138c-48 0 -108 -17 -149 -37l-15 52c47 21 110 36 173 36c129 0 171 -68 171 -173v-178c0 -51 1 -109 2 -154zM359 229v12
c-188 0 -242 -54 -242 -110c0 -50 34 -87 87 -87c93 0 155 94 155 185zM376 696l-128 -118l-32 33l118 126z" />
    <glyph glyph-name="acircumflex" unicode="&#xe2;" horiz-adv-x="519" 
d="M424 0h-64c0 40 1 80 6 109l-2 1c-24 -65 -89 -118 -176 -118c-77 0 -135 49 -135 129c0 99 105 168 306 168v27c0 93 -28 138 -117 138c-48 0 -108 -17 -149 -37l-15 52c47 21 110 36 173 36c129 0 171 -68 171 -173v-178c0 -51 1 -109 2 -154zM359 229v12
c-188 0 -242 -54 -242 -110c0 -50 34 -87 87 -87c93 0 155 94 155 185zM382 610l-33 -32l-97 87l-97 -87l-30 30l129 129z" />
    <glyph glyph-name="atilde" unicode="&#xe3;" horiz-adv-x="519" 
d="M424 0h-64c0 40 1 80 6 109l-2 1c-24 -65 -89 -118 -176 -118c-77 0 -135 49 -135 129c0 99 105 168 306 168v27c0 93 -28 138 -117 138c-48 0 -108 -17 -149 -37l-15 52c47 21 110 36 173 36c129 0 171 -68 171 -173v-178c0 -51 1 -109 2 -154zM359 229v12
c-188 0 -242 -54 -242 -110c0 -50 34 -87 87 -87c93 0 155 94 155 185zM412 674c-24 -44 -59 -69 -101 -69c-64 0 -86 57 -130 57c-22 0 -44 -16 -62 -48l-34 27c24 44 59 69 101 69c64 0 85 -57 129 -57c23 0 45 16 63 48z" />
    <glyph glyph-name="adieresis" unicode="&#xe4;" horiz-adv-x="519" 
d="M424 0h-64c0 40 1 80 6 109l-2 1c-24 -65 -89 -118 -176 -118c-77 0 -135 49 -135 129c0 99 105 168 306 168v27c0 93 -28 138 -117 138c-48 0 -108 -17 -149 -37l-15 52c47 21 110 36 173 36c129 0 171 -68 171 -173v-178c0 -51 1 -109 2 -154zM359 229v12
c-188 0 -242 -54 -242 -110c0 -50 34 -87 87 -87c93 0 155 94 155 185zM386 658c0 -24 -19 -43 -43 -43s-43 19 -43 43c0 25 19 43 43 43s43 -18 43 -43zM202 658c0 -24 -19 -43 -43 -43c-25 0 -43 19 -43 43c0 25 18 43 43 43c24 0 43 -18 43 -43z" />
    <glyph glyph-name="amacron" unicode="&#x101;" horiz-adv-x="519" 
d="M424 0h-64c0 40 1 80 6 109l-2 1c-24 -65 -89 -118 -176 -118c-77 0 -135 49 -135 129c0 99 105 168 306 168v27c0 93 -28 138 -117 138c-48 0 -108 -17 -149 -37l-15 52c47 21 110 36 173 36c129 0 171 -68 171 -173v-178c0 -51 1 -109 2 -154zM359 229v12
c-188 0 -242 -54 -242 -110c0 -50 34 -87 87 -87c93 0 155 94 155 185zM373 629h-239v48h239v-48z" />
    <glyph glyph-name="abreve" unicode="&#x103;" horiz-adv-x="519" 
d="M424 0h-64c0 40 1 80 6 109l-2 1c-24 -65 -89 -118 -176 -118c-77 0 -135 49 -135 129c0 99 105 168 306 168v27c0 93 -28 138 -117 138c-48 0 -108 -17 -149 -37l-15 52c47 21 110 36 173 36c129 0 171 -68 171 -173v-178c0 -51 1 -109 2 -154zM359 229v12
c-188 0 -242 -54 -242 -110c0 -50 34 -87 87 -87c93 0 155 94 155 185zM372 716c0 -64 -36 -121 -118 -121c-81 0 -115 58 -115 121h46c0 -38 24 -72 70 -72c44 0 71 27 71 72h46z" />
    <glyph glyph-name="aring" unicode="&#xe5;" horiz-adv-x="519" 
d="M424 0h-64c0 40 1 80 6 109l-2 1c-24 -65 -89 -118 -176 -118c-77 0 -135 49 -135 129c0 99 105 168 306 168v27c0 93 -28 138 -117 138c-48 0 -108 -17 -149 -37l-15 52c47 21 110 36 173 36c129 0 171 -68 171 -173v-178c0 -51 1 -109 2 -154zM359 229v12
c-188 0 -242 -54 -242 -110c0 -50 34 -87 87 -87c93 0 155 94 155 185zM362 661c0 -54 -48 -103 -105 -103c-58 0 -104 41 -104 100c0 57 50 103 106 103c58 0 103 -43 103 -100zM315 659c0 33 -25 59 -57 59c-33 0 -58 -26 -58 -59c0 -32 25 -59 58 -59c32 0 57 27 57 59z
" />
    <glyph glyph-name="aringacute" unicode="&#x1fb;" horiz-adv-x="519" 
d="M424 0h-64c0 40 1 80 6 109l-2 1c-24 -65 -89 -118 -176 -118c-77 0 -135 49 -135 129c0 99 105 168 306 168v27c0 93 -28 138 -117 138c-48 0 -108 -17 -149 -37l-15 52c47 21 110 36 173 36c129 0 171 -68 171 -173v-178c0 -51 1 -109 2 -154zM359 229v12
c-188 0 -242 -54 -242 -110c0 -50 34 -87 87 -87c93 0 155 94 155 185zM357 648c0 -53 -47 -101 -103 -101c-57 0 -101 40 -101 97c0 56 48 101 103 101c58 0 101 -41 101 -97zM312 646c0 32 -25 58 -57 58s-56 -26 -56 -58s24 -58 56 -58s57 26 57 58zM386 839l-171 -57
l-15 37l163 72z" />
    <glyph glyph-name="aogonek" unicode="&#x105;" horiz-adv-x="519" 
d="M460 -141c-23 -40 -60 -63 -101 -63c-48 0 -78 24 -78 71c0 60 48 108 94 139c-5 32 -9 71 -7 101l-2 1c-27 -64 -91 -116 -178 -116c-77 0 -135 49 -135 129c0 99 105 169 306 169v38c0 81 -28 126 -117 126c-48 0 -108 -16 -149 -37l-15 52c47 21 110 36 173 36
c134 0 171 -68 171 -159v-161c0 -62 6 -131 17 -185c-63 -39 -92 -80 -92 -114c0 -23 13 -34 35 -34c15 0 31 11 45 33zM359 229v12c-188 0 -242 -54 -242 -110c0 -50 34 -87 86 -87c94 0 156 94 156 185z" />
    <glyph glyph-name="a.alt1" unicode="&#xf00b;" horiz-adv-x="558" 
d="M461 0h-64c0 32 3 83 9 114l-2 1c-28 -75 -93 -123 -173 -123c-116 0 -184 79 -184 234c0 180 100 277 256 277c52 0 109 -5 158 -13v-490zM398 257v184c-35 9 -70 13 -104 13c-109 0 -180 -66 -180 -222c0 -118 40 -189 127 -189c106 0 157 125 157 214z" />
    <glyph glyph-name="agrave.alt1" unicode="&#xf00c;" horiz-adv-x="558" 
d="M461 0h-64c0 32 3 83 9 114l-2 1c-28 -75 -93 -123 -173 -123c-116 0 -184 79 -184 234c0 180 100 277 256 277c52 0 109 -5 158 -13v-490zM398 257v184c-35 9 -70 13 -104 13c-109 0 -180 -66 -180 -222c0 -118 40 -189 127 -189c106 0 157 125 157 214zM330 611
l-33 -33l-128 118l42 41z" />
    <glyph glyph-name="aacute.alt1" unicode="&#xf00d;" horiz-adv-x="558" 
d="M461 0h-64c0 32 3 83 9 114l-2 1c-28 -75 -93 -123 -173 -123c-116 0 -184 79 -184 234c0 180 100 277 256 277c52 0 109 -5 158 -13v-490zM398 257v184c-35 9 -70 13 -104 13c-109 0 -180 -66 -180 -222c0 -118 40 -189 127 -189c106 0 157 125 157 214zM407 696
l-128 -118l-32 33l118 126z" />
    <glyph glyph-name="acircumflex.alt1" unicode="&#xf00e;" horiz-adv-x="558" 
d="M461 0h-64c0 32 3 83 9 114l-2 1c-28 -75 -93 -123 -173 -123c-116 0 -184 79 -184 234c0 180 100 277 256 277c52 0 109 -5 158 -13v-490zM398 257v184c-35 9 -70 13 -104 13c-109 0 -180 -66 -180 -222c0 -118 40 -189 127 -189c106 0 157 125 157 214zM407 610
l-33 -32l-97 87l-97 -87l-30 30l129 129z" />
    <glyph glyph-name="atilde.alt1" unicode="&#xf00f;" horiz-adv-x="558" 
d="M461 0h-64c0 32 3 83 9 114l-2 1c-28 -75 -93 -123 -173 -123c-116 0 -184 79 -184 234c0 180 100 277 256 277c52 0 109 -5 158 -13v-490zM398 257v184c-35 9 -70 13 -104 13c-109 0 -180 -66 -180 -222c0 -118 40 -189 127 -189c106 0 157 125 157 214zM442 674
c-24 -44 -59 -69 -101 -69c-64 0 -86 57 -130 57c-22 0 -44 -16 -62 -48l-34 27c24 44 59 69 101 69c64 0 85 -57 129 -57c23 0 45 16 63 48z" />
    <glyph glyph-name="adieresis.alt1" unicode="&#xf010;" horiz-adv-x="558" 
d="M461 0h-64c0 32 3 83 9 114l-2 1c-28 -75 -93 -123 -173 -123c-116 0 -184 79 -184 234c0 180 100 277 256 277c52 0 109 -5 158 -13v-490zM398 257v184c-35 9 -70 13 -104 13c-109 0 -180 -66 -180 -222c0 -118 40 -189 127 -189c106 0 157 125 157 214zM412 658
c0 -24 -19 -43 -43 -43s-43 19 -43 43c0 25 19 43 43 43s43 -18 43 -43zM228 658c0 -24 -19 -43 -43 -43c-25 0 -43 19 -43 43c0 25 18 43 43 43c24 0 43 -18 43 -43z" />
    <glyph glyph-name="amacron.alt1" unicode="&#xf014;" horiz-adv-x="558" 
d="M461 0h-64c0 32 3 83 9 114l-2 1c-28 -75 -93 -123 -173 -123c-116 0 -184 79 -184 234c0 180 100 277 256 277c52 0 109 -5 158 -13v-490zM398 257v184c-35 9 -70 13 -104 13c-109 0 -180 -66 -180 -222c0 -118 40 -189 127 -189c106 0 157 125 157 214zM396 629h-239
v48h239v-48z" />
    <glyph glyph-name="abreve.alt1" unicode="&#xf013;" horiz-adv-x="558" 
d="M461 0h-64c0 32 3 83 9 114l-2 1c-28 -75 -93 -123 -173 -123c-116 0 -184 79 -184 234c0 180 100 277 256 277c52 0 109 -5 158 -13v-490zM398 257v184c-35 9 -70 13 -104 13c-109 0 -180 -66 -180 -222c0 -118 40 -189 127 -189c106 0 157 125 157 214zM392 716
c0 -64 -36 -121 -118 -121c-81 0 -115 58 -115 121h46c0 -38 24 -72 70 -72c44 0 71 27 71 72h46z" />
    <glyph glyph-name="aring.alt1" unicode="&#xf011;" horiz-adv-x="558" 
d="M461 0h-64c0 32 3 83 9 114l-2 1c-28 -75 -93 -123 -173 -123c-116 0 -184 79 -184 234c0 180 100 277 256 277c52 0 109 -5 158 -13v-490zM398 257v184c-35 9 -70 13 -104 13c-109 0 -180 -66 -180 -222c0 -118 40 -189 127 -189c106 0 157 125 157 214zM385 653
c0 -54 -48 -103 -105 -103c-58 0 -104 41 -104 100c0 57 50 103 106 103c58 0 103 -43 103 -100zM338 651c0 33 -25 59 -57 59c-33 0 -58 -26 -58 -59c0 -32 25 -59 58 -59c32 0 57 27 57 59z" />
    <glyph glyph-name="aringacute.alt1" unicode="&#xf012;" horiz-adv-x="558" 
d="M461 0h-64c0 32 3 83 9 114l-2 1c-28 -75 -93 -123 -173 -123c-116 0 -184 79 -184 234c0 180 100 277 256 277c52 0 109 -5 158 -13v-490zM398 257v184c-35 9 -70 13 -104 13c-109 0 -180 -66 -180 -222c0 -118 40 -189 127 -189c106 0 157 125 157 214zM389 648
c0 -53 -47 -101 -103 -101c-57 0 -101 40 -101 97c0 56 48 101 103 101c58 0 101 -41 101 -97zM344 646c0 32 -25 58 -57 58s-56 -26 -56 -58s24 -58 56 -58s57 26 57 58zM418 839l-171 -57l-15 37l163 72z" />
    <glyph glyph-name="aogonek.alt1" unicode="&#xf015;" horiz-adv-x="558" 
d="M461 490v-490c-63 -39 -91 -80 -91 -114c0 -23 13 -34 35 -34c15 0 31 11 45 32l32 -25c-23 -40 -59 -63 -100 -63c-48 0 -78 24 -78 71c0 60 48 107 94 138c0 31 2 78 8 109l-2 1c-28 -75 -93 -123 -173 -123c-116 0 -184 79 -184 234c0 180 100 277 256 277
c52 0 109 -5 158 -13zM398 257v184c-35 9 -70 13 -104 13c-109 0 -180 -66 -180 -222c0 -118 40 -189 127 -189c106 0 157 125 157 214z" />
    <glyph glyph-name="ae" unicode="&#xe6;" horiz-adv-x="811" 
d="M760 305c0 -7 0 -20 -1 -37h-338c-6 -158 56 -222 171 -222c49 0 99 10 141 29l12 -53c-47 -19 -104 -30 -166 -30c-117 0 -177 55 -198 122h-1c-27 -61 -96 -122 -192 -122c-77 0 -135 49 -135 129c0 99 105 169 306 169v38c0 81 -29 126 -118 126
c-48 0 -107 -16 -147 -38l-16 53c47 21 110 36 173 36c77 0 131 -26 152 -88h1c30 49 89 88 165 88c136 0 191 -93 191 -200zM693 315c2 84 -47 141 -128 141c-73 0 -127 -54 -140 -141h268zM359 229v12c-188 0 -242 -54 -242 -110c0 -50 34 -87 86 -87c94 0 156 94 156 185
z" />
    <glyph glyph-name="aeacute" unicode="&#x1fd;" horiz-adv-x="811" 
d="M760 305c0 -7 0 -20 -1 -37h-338c-6 -158 56 -222 171 -222c49 0 99 10 141 29l12 -53c-47 -19 -104 -30 -166 -30c-117 0 -177 55 -198 122h-1c-27 -61 -96 -122 -192 -122c-77 0 -135 49 -135 129c0 99 105 169 306 169v38c0 81 -29 126 -118 126
c-48 0 -107 -16 -147 -38l-16 53c47 21 110 36 173 36c77 0 131 -26 152 -88h1c30 49 89 88 165 88c136 0 191 -93 191 -200zM693 315c2 84 -47 141 -128 141c-73 0 -127 -54 -140 -141h268zM359 229v12c-188 0 -242 -54 -242 -110c0 -50 34 -87 86 -87c94 0 156 94 156 185
zM542 696l-128 -118l-32 33l118 126z" />
    <glyph glyph-name="b" unicode="b" horiz-adv-x="558" 
d="M510 271c0 -180 -101 -277 -253 -277c-66 0 -111 6 -161 18v718h63v-261c0 -27 -3 -65 -9 -90l2 -1c28 80 95 127 174 127c117 0 184 -79 184 -234zM444 265c0 118 -40 189 -128 189c-107 0 -157 -125 -157 -214v-181c31 -11 64 -15 104 -15c109 0 181 65 181 221z" />
    <glyph glyph-name="c" unicode="c" horiz-adv-x="443" 
d="M414 23c-44 -19 -101 -29 -155 -29c-105 0 -213 45 -213 237c0 165 82 272 233 272c50 0 96 -8 132 -23l-14 -52c-34 13 -81 25 -128 25c-100 0 -156 -88 -156 -209c0 -107 31 -197 159 -197c47 0 91 10 129 27z" />
    <glyph glyph-name="cacute" unicode="&#x107;" horiz-adv-x="443" 
d="M414 23c-44 -19 -101 -29 -155 -29c-105 0 -213 45 -213 237c0 165 82 272 233 272c50 0 96 -8 132 -23l-14 -52c-34 13 -81 25 -128 25c-100 0 -156 -88 -156 -209c0 -107 31 -197 159 -197c47 0 91 10 129 27zM387 696l-128 -118l-32 33l118 126z" />
    <glyph glyph-name="ccircumflex" unicode="&#x109;" horiz-adv-x="443" 
d="M414 23c-44 -19 -101 -29 -155 -29c-105 0 -213 45 -213 237c0 165 82 272 233 272c50 0 96 -8 132 -23l-14 -52c-34 13 -81 25 -128 25c-100 0 -156 -88 -156 -209c0 -107 31 -197 159 -197c47 0 91 10 129 27zM393 610l-33 -32l-97 87l-97 -87l-30 30l129 129z" />
    <glyph glyph-name="ccaron" unicode="&#x10d;" horiz-adv-x="443" 
d="M414 23c-44 -19 -101 -29 -155 -29c-105 0 -213 45 -213 237c0 165 82 272 233 272c50 0 96 -8 132 -23l-14 -52c-34 13 -81 25 -128 25c-100 0 -156 -88 -156 -209c0 -107 31 -197 159 -197c47 0 91 10 129 27zM396 706l-129 -128l-128 126l32 33l97 -88l97 88z" />
    <glyph glyph-name="cdotaccent" unicode="&#x10b;" horiz-adv-x="443" 
d="M414 23c-44 -19 -101 -29 -155 -29c-105 0 -213 45 -213 237c0 165 82 272 233 272c50 0 96 -8 132 -23l-14 -52c-34 13 -81 25 -128 25c-100 0 -156 -88 -156 -209c0 -107 31 -197 159 -197c47 0 91 10 129 27zM307 658c0 -24 -20 -45 -45 -45s-45 20 -45 45
s20 45 45 45s45 -19 45 -45z" />
    <glyph glyph-name="ccedilla" unicode="&#xe7;" horiz-adv-x="443" 
d="M414 23c-44 -19 -101 -29 -155 -29c-105 0 -213 45 -213 237c0 165 82 272 233 272c50 0 96 -8 132 -23l-14 -52c-34 13 -81 25 -128 25c-100 0 -156 -88 -156 -209c0 -107 31 -197 159 -197c47 0 91 10 129 27zM272 -41c51 -64 35 -125 -22 -195h-56
c55 70 68 112 21 168z" />
    <glyph glyph-name="d" unicode="d" horiz-adv-x="556" 
d="M460 0h-64c0 32 3 83 9 114l-2 1c-27 -75 -93 -123 -173 -123c-124 0 -184 89 -184 234c0 180 101 277 253 277c31 0 62 -2 98 -6v233h63v-730zM397 257v183c-36 9 -71 13 -104 13c-109 0 -180 -65 -180 -221c0 -118 40 -189 127 -189c107 0 157 125 157 214z" />
    <glyph glyph-name="dcaron" unicode="&#x10f;" horiz-adv-x="572" 
d="M460 0h-64c0 32 3 83 9 114l-2 1c-27 -75 -93 -123 -173 -123c-124 0 -184 89 -184 234c0 180 101 277 253 277c31 0 62 -2 98 -6v233h63v-730zM397 257v183c-36 9 -71 13 -104 13c-109 0 -180 -65 -180 -221c0 -118 40 -189 127 -189c107 0 157 125 157 214zM633 733
l-71 -160l-43 15l58 164z" />
    <glyph glyph-name="dcroat" unicode="&#x111;" horiz-adv-x="556" 
d="M538 597h-78v-597h-64c0 32 3 83 9 114l-2 1c-27 -75 -93 -123 -173 -123c-124 0 -184 89 -184 234c0 180 101 277 253 277c31 0 62 -2 98 -6v100h-124v47h124v86h63v-86h78v-47zM397 257v183c-36 9 -71 13 -104 13c-109 0 -180 -65 -180 -221c0 -118 40 -189 127 -189
c107 0 157 125 157 214z" />
    <glyph glyph-name="eth" unicode="&#xf0;" horiz-adv-x="540" 
d="M493 269c0 -189 -100 -277 -230 -277c-131 0 -219 82 -219 255c0 140 84 258 232 258c49 0 100 -16 123 -56c-13 25 -28 48 -34 59c-18 33 -40 63 -72 98l-108 -49l-29 37l102 46c-23 22 -52 46 -85 72l65 28c28 -23 55 -47 80 -73l108 47l29 -37l-104 -46
c88 -105 142 -230 142 -362zM427 261c0 117 -53 193 -157 193c-82 0 -160 -63 -160 -202c0 -132 62 -208 164 -208c83 0 153 61 153 217z" />
    <glyph glyph-name="e" unicode="e" horiz-adv-x="503" 
d="M452 306c0 -7 0 -26 -2 -44h-337c-5 -150 55 -216 171 -216c48 0 98 10 140 29l12 -53c-47 -19 -104 -30 -166 -30c-145 0 -224 80 -224 255c0 148 80 258 215 258c136 0 191 -93 191 -199zM385 310c2 90 -47 145 -128 145c-74 0 -128 -52 -141 -145h269z" />
    <glyph glyph-name="egrave" unicode="&#xe8;" horiz-adv-x="503" 
d="M452 306c0 -7 0 -26 -2 -44h-337c-5 -150 55 -216 171 -216c48 0 98 10 140 29l12 -53c-47 -19 -104 -30 -166 -30c-145 0 -224 80 -224 255c0 148 80 258 215 258c136 0 191 -93 191 -199zM385 310c2 90 -47 145 -128 145c-74 0 -128 -52 -141 -145h269zM299 611
l-33 -33l-128 118l42 41z" />
    <glyph glyph-name="eacute" unicode="&#xe9;" horiz-adv-x="503" 
d="M452 306c0 -7 0 -26 -2 -44h-337c-5 -150 55 -216 171 -216c48 0 98 10 140 29l12 -53c-47 -19 -104 -30 -166 -30c-145 0 -224 80 -224 255c0 148 80 258 215 258c136 0 191 -93 191 -199zM385 310c2 90 -47 145 -128 145c-74 0 -128 -52 -141 -145h269zM377 696
l-128 -118l-32 33l118 126z" />
    <glyph glyph-name="ecircumflex" unicode="&#xea;" horiz-adv-x="503" 
d="M452 306c0 -7 0 -26 -2 -44h-337c-5 -150 55 -216 171 -216c48 0 98 10 140 29l12 -53c-47 -19 -104 -30 -166 -30c-145 0 -224 80 -224 255c0 148 80 258 215 258c136 0 191 -93 191 -199zM385 310c2 90 -47 145 -128 145c-74 0 -128 -52 -141 -145h269zM388 610
l-33 -32l-97 87l-97 -87l-30 30l129 129z" />
    <glyph glyph-name="ecaron" unicode="&#x11b;" horiz-adv-x="503" 
d="M452 306c0 -7 0 -26 -2 -44h-337c-5 -150 55 -216 171 -216c48 0 98 10 140 29l12 -53c-47 -19 -104 -30 -166 -30c-145 0 -224 80 -224 255c0 148 80 258 215 258c136 0 191 -93 191 -199zM385 310c2 90 -47 145 -128 145c-74 0 -128 -52 -141 -145h269zM386 706
l-129 -128l-128 126l32 33l97 -88l97 88z" />
    <glyph glyph-name="edieresis" unicode="&#xeb;" horiz-adv-x="503" 
d="M452 306c0 -7 0 -26 -2 -44h-337c-5 -150 55 -216 171 -216c48 0 98 10 140 29l12 -53c-47 -19 -104 -30 -166 -30c-145 0 -224 80 -224 255c0 148 80 258 215 258c136 0 191 -93 191 -199zM385 310c2 90 -47 145 -128 145c-74 0 -128 -52 -141 -145h269zM394 658
c0 -24 -19 -43 -43 -43s-43 19 -43 43c0 25 19 43 43 43s43 -18 43 -43zM210 658c0 -24 -19 -43 -43 -43c-25 0 -43 19 -43 43c0 25 18 43 43 43c24 0 43 -18 43 -43z" />
    <glyph glyph-name="emacron" unicode="&#x113;" horiz-adv-x="503" 
d="M452 306c0 -7 0 -26 -2 -44h-337c-5 -150 55 -216 171 -216c48 0 98 10 140 29l12 -53c-47 -19 -104 -30 -166 -30c-145 0 -224 80 -224 255c0 148 80 258 215 258c136 0 191 -93 191 -199zM385 310c2 90 -47 145 -128 145c-74 0 -128 -52 -141 -145h269zM373 629h-239
v48h239v-48z" />
    <glyph glyph-name="ebreve" unicode="&#x115;" horiz-adv-x="503" 
d="M452 306c0 -7 0 -26 -2 -44h-337c-5 -150 55 -216 171 -216c48 0 98 10 140 29l12 -53c-47 -19 -104 -30 -166 -30c-145 0 -224 80 -224 255c0 148 80 258 215 258c136 0 191 -93 191 -199zM385 310c2 90 -47 145 -128 145c-74 0 -128 -52 -141 -145h269zM372 716
c0 -64 -36 -121 -118 -121c-81 0 -115 58 -115 121h46c0 -38 24 -72 70 -72c44 0 71 27 71 72h46z" />
    <glyph glyph-name="edotaccent" unicode="&#x117;" horiz-adv-x="503" 
d="M452 306c0 -7 0 -26 -2 -44h-337c-5 -150 55 -216 171 -216c48 0 98 10 140 29l12 -53c-47 -19 -104 -30 -166 -30c-145 0 -224 80 -224 255c0 148 80 258 215 258c136 0 191 -93 191 -199zM385 310c2 90 -47 145 -128 145c-74 0 -128 -52 -141 -145h269zM303 658
c0 -24 -20 -45 -45 -45s-45 20 -45 45s20 45 45 45s45 -19 45 -45z" />
    <glyph glyph-name="eogonek" unicode="&#x119;" horiz-adv-x="503" 
d="M436 22c-100 -31 -145 -97 -145 -136c0 -24 13 -35 35 -35c17 0 41 11 56 31l29 -29c-25 -39 -65 -57 -107 -57c-50 0 -79 25 -79 71c0 37 24 87 76 126c-10 -1 -22 -1 -33 -1c-140 0 -222 78 -222 255c0 148 80 258 215 258c136 0 191 -93 191 -199c0 -7 0 -21 -2 -38
h-337c-6 -158 55 -222 171 -222c48 0 98 10 140 29zM385 315c2 84 -47 140 -128 140c-74 0 -127 -53 -140 -140h268z" />
    <glyph glyph-name="f" unicode="f" horiz-adv-x="346" 
d="M387 726l-6 -54c-26 8 -55 11 -81 11c-82 0 -117 -48 -117 -150v-36h153v-50h-153v-447h-63v447h-114v50h114v34c0 139 70 204 185 204c29 0 55 -3 82 -9z" />
    <glyph glyph-name="f_ij" horiz-adv-x="925" 
d="M442 152v295h-259v-447h-63v447h-114v50h114v34c0 139 70 204 176 204c29 0 50 -2 77 -8l-6 -54c-26 8 -50 10 -77 10c-72 0 -107 -48 -107 -150v-36h322v-322c0 -83 23 -132 101 -132c94 0 160 92 160 217v237h63v-533c0 -157 -99 -223 -229 -223c-57 0 -103 7 -142 17
l10 63c42 -15 92 -23 140 -23c107 0 158 51 158 171v48c0 32 2 68 8 99l-2 1c-28 -75 -92 -125 -180 -125c-115 0 -150 71 -150 160zM532 658c0 -24 -20 -45 -45 -45s-46 20 -46 45s21 45 46 45s45 -19 45 -45zM835 658c0 -24 -20 -45 -45 -45s-45 20 -45 45s20 45 45 45
s45 -19 45 -45z" />
    <glyph glyph-name="g" unicode="g" horiz-adv-x="537" 
d="M506 -76c0 -105 -106 -183 -256 -183c-124 0 -206 55 -206 149c0 63 41 111 89 139c-31 13 -50 41 -50 73c0 33 20 63 53 80c-46 28 -73 73 -73 139c0 98 74 184 205 184c24 0 39 -3 63 -8h169v-50h-94c32 -24 51 -64 51 -112c0 -100 -67 -182 -207 -182
c-24 0 -43 3 -63 9c-25 -11 -39 -30 -39 -49c0 -31 30 -42 92 -44l101 -4c107 -4 165 -57 165 -141zM441 -85c0 57 -38 91 -118 94l-104 4h-34c-46 -30 -76 -68 -76 -113c0 -68 66 -107 153 -107c115 0 179 52 179 122zM393 328c0 79 -47 128 -129 128
c-87 0 -137 -56 -137 -129c0 -80 48 -125 132 -125c82 0 134 46 134 126z" />
    <glyph glyph-name="gcircumflex" unicode="&#x11d;" horiz-adv-x="537" 
d="M506 -76c0 -105 -106 -183 -256 -183c-124 0 -206 55 -206 149c0 63 41 111 89 139c-31 13 -50 41 -50 73c0 33 20 63 53 80c-46 28 -73 73 -73 139c0 98 74 184 205 184c24 0 39 -3 63 -8h169v-50h-94c32 -24 51 -64 51 -112c0 -100 -67 -182 -207 -182
c-24 0 -43 3 -63 9c-25 -11 -39 -30 -39 -49c0 -31 30 -42 92 -44l101 -4c107 -4 165 -57 165 -141zM441 -85c0 57 -38 91 -118 94l-104 4h-34c-46 -30 -76 -68 -76 -113c0 -68 66 -107 153 -107c115 0 179 52 179 122zM393 328c0 79 -47 128 -129 128
c-87 0 -137 -56 -137 -129c0 -80 48 -125 132 -125c82 0 134 46 134 126zM386 610l-33 -32l-97 87l-97 -87l-30 30l129 129z" />
    <glyph glyph-name="gbreve" unicode="&#x11f;" horiz-adv-x="537" 
d="M506 -76c0 -105 -106 -183 -256 -183c-124 0 -206 55 -206 149c0 63 41 111 89 139c-31 13 -50 41 -50 73c0 33 20 63 53 80c-46 28 -73 73 -73 139c0 98 74 184 205 184c24 0 39 -3 63 -8h169v-50h-94c32 -24 51 -64 51 -112c0 -100 -67 -182 -207 -182
c-24 0 -43 3 -63 9c-25 -11 -39 -30 -39 -49c0 -31 30 -42 92 -44l101 -4c107 -4 165 -57 165 -141zM441 -85c0 57 -38 91 -118 94l-104 4h-34c-46 -30 -76 -68 -76 -113c0 -68 66 -107 153 -107c115 0 179 52 179 122zM393 328c0 79 -47 128 -129 128
c-87 0 -137 -56 -137 -129c0 -80 48 -125 132 -125c82 0 134 46 134 126zM379 716c0 -64 -36 -121 -118 -121c-81 0 -115 58 -115 121h46c0 -38 24 -72 70 -72c44 0 71 27 71 72h46z" />
    <glyph glyph-name="gdotaccent" unicode="&#x121;" horiz-adv-x="537" 
d="M506 -76c0 -105 -106 -183 -256 -183c-124 0 -206 55 -206 149c0 63 41 111 89 139c-31 13 -50 41 -50 73c0 33 20 63 53 80c-46 28 -73 73 -73 139c0 98 74 184 205 184c24 0 39 -3 63 -8h169v-50h-94c32 -24 51 -64 51 -112c0 -100 -67 -182 -207 -182
c-24 0 -43 3 -63 9c-25 -11 -39 -30 -39 -49c0 -31 30 -42 92 -44l101 -4c107 -4 165 -57 165 -141zM441 -85c0 57 -38 91 -118 94l-104 4h-34c-46 -30 -76 -68 -76 -113c0 -68 66 -107 153 -107c115 0 179 52 179 122zM393 328c0 79 -47 128 -129 128
c-87 0 -137 -56 -137 -129c0 -80 48 -125 132 -125c82 0 134 46 134 126zM302 658c0 -24 -20 -45 -45 -45s-45 20 -45 45s20 45 45 45s45 -19 45 -45z" />
    <glyph glyph-name="gcommaaccent" unicode="&#x123;" horiz-adv-x="537" 
d="M506 -76c0 -105 -106 -183 -256 -183c-124 0 -206 55 -206 149c0 63 41 111 89 139c-31 13 -50 41 -50 73c0 33 20 63 53 80c-46 28 -73 73 -73 139c0 98 74 184 205 184c24 0 39 -3 63 -8h169v-50h-94c32 -24 51 -64 51 -112c0 -100 -67 -182 -207 -182
c-24 0 -43 3 -63 9c-25 -11 -39 -30 -39 -49c0 -31 30 -42 92 -44l101 -4c107 -4 165 -57 165 -141zM441 -85c0 57 -38 91 -118 94l-104 4h-34c-46 -30 -76 -68 -76 -113c0 -68 66 -107 153 -107c115 0 179 52 179 122zM393 328c0 79 -47 128 -129 128
c-87 0 -137 -56 -137 -129c0 -80 48 -125 132 -125c82 0 134 46 134 126zM260 569c-23 0 -44 19 -44 52c0 34 21 81 88 136l24 -24c-33 -31 -44 -57 -44 -77c0 -24 15 -26 15 -49c0 -21 -17 -38 -39 -38z" />
    <glyph glyph-name="gcaron" unicode="&#x1e7;" horiz-adv-x="537" 
d="M506 -76c0 -105 -106 -183 -256 -183c-124 0 -206 55 -206 149c0 63 41 111 89 139c-31 13 -50 41 -50 73c0 33 20 63 53 80c-46 28 -73 73 -73 139c0 98 74 184 205 184c24 0 39 -3 63 -8h169v-50h-94c32 -24 51 -64 51 -112c0 -100 -67 -182 -207 -182
c-24 0 -43 3 -63 9c-25 -11 -39 -30 -39 -49c0 -31 30 -42 92 -44l101 -4c107 -4 165 -57 165 -141zM441 -85c0 57 -38 91 -118 94l-104 4h-34c-46 -30 -76 -68 -76 -113c0 -68 66 -107 153 -107c115 0 179 52 179 122zM393 328c0 79 -47 128 -129 128
c-87 0 -137 -56 -137 -129c0 -80 48 -125 132 -125c82 0 134 46 134 126zM397 706l-129 -128l-128 126l32 33l97 -88l97 88z" />
    <glyph glyph-name="g.mix" unicode="&#xf86c;" horiz-adv-x="556" 
d="M460 -54c0 -79 -36 -205 -246 -205c-55 0 -104 8 -142 18l11 64c40 -15 92 -25 139 -25c111 0 176 42 176 171v49c0 38 1 68 6 96l-2 1c-27 -75 -93 -123 -172 -123c-116 0 -184 78 -184 234c0 180 100 277 257 277c51 0 108 -5 157 -13v-544zM397 257v184
c-35 9 -70 12 -104 12c-109 0 -180 -65 -180 -221c0 -118 40 -189 127 -189c107 0 157 125 157 214z" />
    <glyph glyph-name="gcommaaccent.mix" unicode="&#xf870;" horiz-adv-x="556" 
d="M460 -54c0 -79 -36 -205 -246 -205c-55 0 -104 8 -142 18l11 64c40 -15 92 -25 139 -25c111 0 176 42 176 171v49c0 38 1 68 6 96l-2 1c-27 -75 -93 -123 -172 -123c-116 0 -184 78 -184 234c0 180 100 277 257 277c51 0 108 -5 157 -13v-544zM397 257v184
c-35 9 -70 12 -104 12c-109 0 -180 -65 -180 -221c0 -118 40 -189 127 -189c107 0 157 125 157 214zM276 569c-23 0 -44 19 -44 52c0 34 21 81 88 136l24 -24c-33 -31 -44 -57 -44 -77c0 -24 15 -26 15 -49c0 -21 -17 -38 -39 -38z" />
    <glyph glyph-name="gcircumflex.mix" unicode="&#xf86d;" horiz-adv-x="556" 
d="M460 -54c0 -79 -36 -205 -246 -205c-55 0 -104 8 -142 18l11 64c40 -15 92 -25 139 -25c111 0 176 42 176 171v49c0 38 1 68 6 96l-2 1c-27 -75 -93 -123 -172 -123c-116 0 -184 78 -184 234c0 180 100 277 257 277c51 0 108 -5 157 -13v-544zM397 257v184
c-35 9 -70 12 -104 12c-109 0 -180 -65 -180 -221c0 -118 40 -189 127 -189c107 0 157 125 157 214zM405 610l-33 -32l-97 87l-97 -87l-30 30l129 129z" />
    <glyph glyph-name="gbreve.mix" unicode="&#xf86f;" horiz-adv-x="556" 
d="M460 -54c0 -79 -36 -205 -246 -205c-55 0 -104 8 -142 18l11 64c40 -15 92 -25 139 -25c111 0 176 42 176 171v49c0 38 1 68 6 96l-2 1c-27 -75 -93 -123 -172 -123c-116 0 -184 78 -184 234c0 180 100 277 257 277c51 0 108 -5 157 -13v-544zM397 257v184
c-35 9 -70 12 -104 12c-109 0 -180 -65 -180 -221c0 -118 40 -189 127 -189c107 0 157 125 157 214zM391 716c0 -64 -36 -121 -118 -121c-81 0 -115 58 -115 121h46c0 -38 24 -72 70 -72c44 0 71 27 71 72h46z" />
    <glyph glyph-name="gdotaccent.mix" unicode="&#xf871;" horiz-adv-x="556" 
d="M460 -54c0 -79 -36 -205 -246 -205c-55 0 -104 8 -142 18l11 64c40 -15 92 -25 139 -25c111 0 176 42 176 171v49c0 38 1 68 6 96l-2 1c-27 -75 -93 -123 -172 -123c-116 0 -184 78 -184 234c0 180 100 277 257 277c51 0 108 -5 157 -13v-544zM397 257v184
c-35 9 -70 12 -104 12c-109 0 -180 -65 -180 -221c0 -118 40 -189 127 -189c107 0 157 125 157 214zM335 658c0 -24 -20 -45 -45 -45s-45 20 -45 45s20 45 45 45s45 -19 45 -45z" />
    <glyph glyph-name="gcaron.mix" unicode="&#xf86e;" horiz-adv-x="556" 
d="M460 -54c0 -79 -36 -205 -246 -205c-55 0 -104 8 -142 18l11 64c40 -15 92 -25 139 -25c111 0 176 42 176 171v49c0 38 1 68 6 96l-2 1c-27 -75 -93 -123 -172 -123c-116 0 -184 78 -184 234c0 180 100 277 257 277c51 0 108 -5 157 -13v-544zM397 257v184
c-35 9 -70 12 -104 12c-109 0 -180 -65 -180 -221c0 -118 40 -189 127 -189c107 0 157 125 157 214zM414 706l-129 -128l-128 126l32 33l97 -88l97 88z" />
    <glyph glyph-name="h" unicode="h" horiz-adv-x="579" 
d="M483 0h-63v322c0 83 -23 132 -101 132c-94 0 -160 -91 -160 -217v-237h-63v730h63v-251c0 -34 -2 -74 -8 -99l2 -1c29 77 93 126 180 126c115 0 150 -71 150 -159v-346z" />
    <glyph glyph-name="hcircumflex" unicode="&#x125;" horiz-adv-x="579" 
d="M483 0h-63v322c0 83 -23 132 -101 132c-94 0 -160 -91 -160 -217v-237h-63v730h63v-251c0 -34 -2 -74 -8 -99l2 -1c29 77 93 126 180 126c115 0 150 -71 150 -159v-346zM442 803l-24 -42l-134 64l-129 -64l-20 39l152 83z" />
    <glyph glyph-name="hbar" unicode="&#x127;" horiz-adv-x="580" 
d="M484 0h-63v322c0 83 -23 131 -101 131c-95 0 -160 -91 -160 -216v-237h-63v594h-97v50h97v86h63v-86h146v-50h-146v-117c0 -34 -3 -73 -8 -97l1 -1c29 77 93 126 181 126c114 0 150 -71 150 -160v-345z" />
    <glyph glyph-name="i" unicode="i" horiz-adv-x="255" 
d="M173 658c0 -24 -20 -45 -45 -45s-45 20 -45 45s20 45 45 45s45 -19 45 -45zM159 0h-63v497h63v-497z" />
    <glyph glyph-name="i.dotaccent" unicode="&#xf01d;" horiz-adv-x="255" 
d="M173 658c0 -24 -20 -45 -45 -45s-45 20 -45 45s20 45 45 45s45 -19 45 -45zM159 0h-63v497h63v-497z" />
    <glyph glyph-name="igrave" unicode="&#xec;" horiz-adv-x="255" 
d="M159 0h-63v497h63v-497zM181 611l-33 -33l-128 118l42 41z" />
    <glyph glyph-name="iacute" unicode="&#xed;" horiz-adv-x="255" 
d="M159 0h-63v497h63v-497zM230 696l-128 -118l-32 33l118 126z" />
    <glyph glyph-name="icircumflex" unicode="&#xee;" horiz-adv-x="255" 
d="M159 0h-63v497h63v-497zM257 610l-33 -32l-97 87l-97 -87l-30 30l129 129z" />
    <glyph glyph-name="itilde" unicode="&#x129;" horiz-adv-x="255" 
d="M159 0h-63v497h63v-497zM291 674c-24 -44 -59 -69 -101 -69c-64 0 -86 57 -130 57c-22 0 -44 -16 -62 -48l-34 27c24 44 59 69 101 69c64 0 85 -57 129 -57c23 0 45 16 63 48z" />
    <glyph glyph-name="idieresis" unicode="&#xef;" horiz-adv-x="255" 
d="M159 0h-63v497h63v-497zM262 658c0 -24 -19 -43 -43 -43s-43 19 -43 43c0 25 19 43 43 43s43 -18 43 -43zM78 658c0 -24 -19 -43 -43 -43c-25 0 -43 19 -43 43c0 25 18 43 43 43c24 0 43 -18 43 -43z" />
    <glyph glyph-name="imacron" unicode="&#x12b;" horiz-adv-x="255" 
d="M159 0h-63v497h63v-497zM247 629h-239v48h239v-48z" />
    <glyph glyph-name="ibreve" unicode="&#x12d;" horiz-adv-x="255" 
d="M159 0h-63v497h63v-497zM245 716c0 -64 -36 -121 -118 -121c-81 0 -115 58 -115 121h46c0 -38 24 -72 70 -72c44 0 71 27 71 72h46z" />
    <glyph glyph-name="iogonek" unicode="&#x12f;" horiz-adv-x="255" 
d="M173 658c0 -24 -20 -45 -45 -45s-45 20 -45 45s20 45 45 45s45 -19 45 -45zM180 -141c-23 -41 -60 -63 -101 -63c-48 0 -78 24 -78 71c0 51 39 104 95 139v491h63v-497c-63 -39 -92 -80 -92 -114c0 -23 14 -34 35 -34c16 0 31 11 45 32z" />
    <glyph glyph-name="dotlessi" unicode="&#x131;" horiz-adv-x="255" 
d="M159 0h-63v497h63v-497z" />
    <glyph glyph-name="ij" unicode="&#x133;" horiz-adv-x="518" 
d="M173 658c0 -24 -20 -45 -45 -45s-45 20 -45 45s20 45 45 45s45 -19 45 -45zM159 0h-63v497h63v-497zM436 658c0 -24 -20 -45 -45 -45s-45 20 -45 45s20 45 45 45s45 -19 45 -45zM422 -68c0 -132 -37 -190 -156 -190c-22 0 -48 3 -67 9l7 57c19 -7 42 -12 65 -12
c71 0 88 28 88 132v569h63v-565z" />
    <glyph glyph-name="ij.alt1" unicode="&#xf01e;" horiz-adv-x="579" 
d="M111 -242l11 63c42 -15 91 -23 140 -23c106 0 158 51 158 171v48c0 32 1 68 7 99l-1 1c-29 -75 -92 -125 -180 -125c-115 0 -150 71 -150 160v345h63v-322c0 -83 22 -132 101 -132c94 0 160 92 160 217v237h63v-533c0 -157 -99 -223 -229 -223c-57 0 -104 7 -143 17z
M173 658c0 -24 -20 -45 -45 -45s-46 20 -46 45s21 45 46 45s45 -19 45 -45zM497 658c0 -24 -20 -45 -45 -45s-46 20 -46 45s21 45 46 45s45 -19 45 -45z" />
    <glyph glyph-name="j" unicode="j" horiz-adv-x="263" 
d="M181 658c0 -24 -20 -45 -45 -45s-45 20 -45 45s20 45 45 45s45 -19 45 -45zM167 -68c0 -132 -37 -190 -156 -190c-22 0 -48 3 -67 9l7 57c19 -7 42 -12 65 -12c71 0 88 28 88 132v569h63v-565z" />
    <glyph glyph-name="dotlessj" unicode="&#x237;" horiz-adv-x="263" 
d="M167 -68c0 -132 -37 -190 -156 -190c-22 0 -48 3 -67 9l7 57c19 -7 42 -12 65 -12c71 0 88 28 88 132v569h63v-565z" />
    <glyph glyph-name="jcircumflex" unicode="&#x135;" horiz-adv-x="263" 
d="M167 -68c0 -132 -37 -190 -156 -190c-22 0 -48 3 -67 9l7 57c19 -7 42 -12 65 -12c71 0 88 28 88 132v569h63v-565zM265 610l-33 -32l-97 87l-97 -87l-30 30l129 129z" />
    <glyph glyph-name="k" unicode="k" horiz-adv-x="473" 
d="M448 0h-84l-205 264v-264h-63v730h63v-459l196 226h76l-202 -226z" />
    <glyph glyph-name="kcommaaccent" unicode="&#x137;" horiz-adv-x="473" 
d="M448 0h-84l-205 264v-264h-63v730h63v-459l196 226h76l-202 -226zM245 -50c27 0 45 -23 45 -52c0 -34 -20 -79 -88 -137l-25 25c34 31 44 58 44 76c0 25 -15 27 -15 48c0 20 15 40 39 40z" />
    <glyph glyph-name="kgreenlandic" unicode="&#x138;" horiz-adv-x="473" 
d="M448 0h-84l-205 264v-264h-63v497h63v-226l196 226h76l-202 -226z" />
    <glyph glyph-name="l" unicode="l" horiz-adv-x="255" 
d="M159 0h-63v730h63v-730z" />
    <glyph glyph-name="lacute" unicode="&#x13a;" horiz-adv-x="255" 
d="M159 0h-63v730h63v-730zM275 813l-172 -58l-15 38l164 74z" />
    <glyph glyph-name="lcaron" unicode="&#x13e;" horiz-adv-x="270" 
d="M159 0h-63v730h63v-730zM332 733l-71 -160l-43 15l58 164z" />
    <glyph glyph-name="lcommaaccent" unicode="&#x13c;" horiz-adv-x="255" 
d="M159 0h-63v730h63v-730zM128 -50c27 0 45 -23 45 -52c0 -34 -20 -79 -88 -137l-25 25c34 31 44 58 44 76c0 25 -15 27 -15 48c0 20 15 40 39 40z" />
    <glyph glyph-name="lslash" unicode="&#x142;" horiz-adv-x="285" 
d="M274 481l-97 -56v-425h-63v389l-70 -41l-20 44l90 52v286h63v-250l77 45z" />
    <glyph glyph-name="ldot" unicode="&#x140;" horiz-adv-x="446" 
d="M159 0h-63v730h63v-730zM392 297c0 -29 -23 -51 -51 -51c-29 0 -51 22 -51 51s22 51 51 51c28 0 51 -22 51 -51z" />
    <glyph glyph-name="m" unicode="m" horiz-adv-x="888" 
d="M792 0h-63v322c0 80 -19 132 -96 132c-82 0 -158 -82 -158 -219v-235h-63v323c0 71 -14 131 -96 131c-87 0 -157 -90 -157 -219v-235h-63v497h64c0 -35 -3 -84 -9 -116l2 -1c28 76 94 125 178 125c118 0 139 -87 139 -123c17 47 71 123 175 123c93 0 147 -48 147 -160
v-345z" />
    <glyph glyph-name="n" unicode="n" horiz-adv-x="579" 
d="M483 0h-63v322c0 83 -23 132 -101 132c-94 0 -160 -91 -160 -217v-237h-63v497h64c0 -35 -3 -85 -9 -116l2 -1c28 76 92 125 180 125c115 0 150 -71 150 -159v-346z" />
    <glyph glyph-name="nacute" unicode="&#x144;" horiz-adv-x="579" 
d="M483 0h-63v322c0 83 -23 132 -101 132c-94 0 -160 -91 -160 -217v-237h-63v497h64c0 -35 -3 -85 -9 -116l2 -1c28 76 92 125 180 125c115 0 150 -71 150 -159v-346zM419 696l-128 -118l-32 33l118 126z" />
    <glyph glyph-name="ncaron" unicode="&#x148;" horiz-adv-x="579" 
d="M483 0h-63v322c0 83 -23 132 -101 132c-94 0 -160 -91 -160 -217v-237h-63v497h64c0 -35 -3 -85 -9 -116l2 -1c28 76 92 125 180 125c115 0 150 -71 150 -159v-346zM424 706l-129 -128l-128 126l32 33l97 -88l97 88z" />
    <glyph glyph-name="ntilde" unicode="&#xf1;" horiz-adv-x="579" 
d="M483 0h-63v322c0 83 -23 132 -101 132c-94 0 -160 -91 -160 -217v-237h-63v497h64c0 -35 -3 -85 -9 -116l2 -1c28 76 92 125 180 125c115 0 150 -71 150 -159v-346zM456 674c-24 -44 -59 -69 -101 -69c-64 0 -86 57 -130 57c-22 0 -44 -16 -62 -48l-34 27
c24 44 59 69 101 69c64 0 85 -57 129 -57c23 0 45 16 63 48z" />
    <glyph glyph-name="ncommaaccent" unicode="&#x146;" horiz-adv-x="579" 
d="M483 0h-63v322c0 83 -23 132 -101 132c-94 0 -160 -91 -160 -217v-237h-63v497h64c0 -35 -3 -85 -9 -116l2 -1c28 76 92 125 180 125c115 0 150 -71 150 -159v-346zM294 -50c27 0 45 -23 45 -52c0 -34 -20 -79 -88 -137l-25 25c34 31 44 58 44 76c0 25 -15 27 -15 48
c0 20 15 40 39 40z" />
    <glyph glyph-name="napostrophe" unicode="&#x149;" horiz-adv-x="646" 
d="M97 740c58 0 83 -101 -47 -226l-29 25c61 65 62 113 44 135c-21 29 -1 66 32 66zM551 0h-63v322c0 83 -23 132 -101 132c-94 0 -160 -91 -160 -217v-237h-63v497h64c0 -35 -3 -85 -9 -116l2 -1c28 76 92 125 180 125c115 0 150 -71 150 -159v-346z" />
    <glyph glyph-name="eng" unicode="&#x14b;" horiz-adv-x="579" 
d="M488 207c0 -244 -21 -300 -68 -346c-26 -27 -63 -43 -117 -57l-13 48c41 11 67 24 85 42c35 35 50 76 50 285v20c0 203 -35 255 -115 255c-85 0 -151 -92 -151 -200v-254h-63v497h64c0 -52 -4 -91 -9 -115h1c27 73 92 123 172 123c117 0 164 -74 164 -283v-15z" />
    <glyph glyph-name="o" unicode="o" horiz-adv-x="540" 
d="M494 256c0 -145 -88 -264 -234 -264c-132 0 -216 81 -216 255c0 139 84 258 233 258c116 0 217 -64 217 -249zM429 253c0 125 -54 201 -159 201c-82 0 -160 -63 -160 -202c0 -132 58 -208 161 -208c82 0 158 63 158 209z" />
    <glyph glyph-name="ograve" unicode="&#xf2;" horiz-adv-x="540" 
d="M494 256c0 -145 -88 -264 -234 -264c-132 0 -216 81 -216 255c0 139 84 258 233 258c116 0 217 -64 217 -249zM429 253c0 125 -54 201 -159 201c-82 0 -160 -63 -160 -202c0 -132 58 -208 161 -208c82 0 158 63 158 209zM317 611l-33 -33l-128 118l42 41z" />
    <glyph glyph-name="oacute" unicode="&#xf3;" horiz-adv-x="540" 
d="M494 256c0 -145 -88 -264 -234 -264c-132 0 -216 81 -216 255c0 139 84 258 233 258c116 0 217 -64 217 -249zM429 253c0 125 -54 201 -159 201c-82 0 -160 -63 -160 -202c0 -132 58 -208 161 -208c82 0 158 63 158 209zM393 696l-128 -118l-32 33l118 126z" />
    <glyph glyph-name="ocircumflex" unicode="&#xf4;" horiz-adv-x="540" 
d="M494 256c0 -145 -88 -264 -234 -264c-132 0 -216 81 -216 255c0 139 84 258 233 258c116 0 217 -64 217 -249zM429 253c0 125 -54 201 -159 201c-82 0 -160 -63 -160 -202c0 -132 58 -208 161 -208c82 0 158 63 158 209zM399 610l-33 -32l-97 87l-97 -87l-30 30l129 129z
" />
    <glyph glyph-name="otilde" unicode="&#xf5;" horiz-adv-x="540" 
d="M494 256c0 -145 -88 -264 -234 -264c-132 0 -216 81 -216 255c0 139 84 258 233 258c116 0 217 -64 217 -249zM429 253c0 125 -54 201 -159 201c-82 0 -160 -63 -160 -202c0 -132 58 -208 161 -208c82 0 158 63 158 209zM437 674c-24 -44 -59 -69 -101 -69
c-64 0 -86 57 -130 57c-22 0 -44 -16 -62 -48l-34 27c24 44 59 69 101 69c64 0 85 -57 129 -57c23 0 45 16 63 48z" />
    <glyph glyph-name="odieresis" unicode="&#xf6;" horiz-adv-x="540" 
d="M494 256c0 -145 -88 -264 -234 -264c-132 0 -216 81 -216 255c0 139 84 258 233 258c116 0 217 -64 217 -249zM429 253c0 125 -54 201 -159 201c-82 0 -160 -63 -160 -202c0 -132 58 -208 161 -208c82 0 158 63 158 209zM404 658c0 -24 -19 -43 -43 -43s-43 19 -43 43
c0 25 19 43 43 43s43 -18 43 -43zM220 658c0 -24 -19 -43 -43 -43c-25 0 -43 19 -43 43c0 25 18 43 43 43c24 0 43 -18 43 -43z" />
    <glyph glyph-name="omacron" unicode="&#x14d;" horiz-adv-x="540" 
d="M494 256c0 -145 -88 -264 -234 -264c-132 0 -216 81 -216 255c0 139 84 258 233 258c116 0 217 -64 217 -249zM429 253c0 125 -54 201 -159 201c-82 0 -160 -63 -160 -202c0 -132 58 -208 161 -208c82 0 158 63 158 209zM392 629h-239v48h239v-48z" />
    <glyph glyph-name="obreve" unicode="&#x14f;" horiz-adv-x="540" 
d="M494 256c0 -145 -88 -264 -234 -264c-132 0 -216 81 -216 255c0 139 84 258 233 258c116 0 217 -64 217 -249zM429 253c0 125 -54 201 -159 201c-82 0 -160 -63 -160 -202c0 -132 58 -208 161 -208c82 0 158 63 158 209zM386 716c0 -64 -36 -121 -118 -121
c-81 0 -115 58 -115 121h46c0 -38 24 -72 70 -72c44 0 71 27 71 72h46z" />
    <glyph glyph-name="ohungarumlaut" unicode="&#x151;" horiz-adv-x="540" 
d="M494 256c0 -145 -88 -264 -234 -264c-132 0 -216 81 -216 255c0 139 84 258 233 258c116 0 217 -64 217 -249zM429 253c0 125 -54 201 -159 201c-82 0 -160 -63 -160 -202c0 -132 58 -208 161 -208c82 0 158 63 158 209zM492 695l-128 -117l-33 30l118 126zM323 701
l-120 -123l-34 30l110 130z" />
    <glyph glyph-name="oslash" unicode="&#xf8;" horiz-adv-x="540" 
d="M494 256c0 -145 -87 -264 -232 -264c-27 0 -53 4 -75 11l-41 -104l-47 17l43 107c-70 43 -98 129 -98 224c0 139 84 258 234 258c18 0 36 -2 54 -5l37 93l47 -17l-38 -92c66 -32 116 -101 116 -228zM431 253c0 87 -25 148 -76 178l-146 -377c18 -8 39 -11 63 -11
c83 0 159 63 159 210zM311 451c-13 3 -28 5 -42 5c-76 0 -162 -53 -162 -204c0 -75 21 -137 61 -170z" />
    <glyph glyph-name="oslashacute" unicode="&#x1ff;" horiz-adv-x="540" 
d="M494 256c0 -145 -87 -264 -232 -264c-27 0 -53 4 -75 11l-41 -104l-47 17l43 107c-70 43 -98 129 -98 224c0 139 84 258 234 258c18 0 36 -2 54 -5l37 93l47 -17l-38 -92c66 -32 116 -101 116 -228zM431 253c0 87 -25 148 -76 178l-146 -377c18 -8 39 -11 63 -11
c83 0 159 63 159 210zM311 451c-13 3 -28 5 -42 5c-76 0 -162 -53 -162 -204c0 -75 21 -137 61 -170zM373 696l-128 -118l-32 33l118 126z" />
    <glyph glyph-name="oe" unicode="&#x153;" horiz-adv-x="882" 
d="M831 305c0 -7 -1 -20 -2 -37h-337c-6 -158 55 -222 170 -222c49 0 99 10 141 29l12 -53c-47 -19 -104 -30 -166 -30c-105 0 -167 45 -196 115c-35 -66 -96 -115 -193 -115c-132 0 -216 81 -216 255c0 139 84 258 233 258c78 0 150 -33 186 -108c33 64 93 108 177 108
c135 0 191 -93 191 -200zM763 315c2 84 -46 141 -127 141c-74 0 -128 -54 -141 -141h268zM429 253c0 125 -54 201 -159 201c-82 0 -160 -63 -160 -202c0 -132 58 -208 161 -208c82 0 158 63 158 209z" />
    <glyph glyph-name="p" unicode="p" horiz-adv-x="558" 
d="M510 271c0 -180 -100 -276 -252 -276c-37 0 -63 1 -99 6v-252h-63v748h64c0 -32 -2 -84 -9 -114l2 -1c28 75 93 123 173 123c117 0 184 -79 184 -234zM444 265c0 118 -40 189 -128 189c-107 0 -157 -125 -157 -214v-181c31 -11 64 -15 104 -15c109 0 181 65 181 221z" />
    <glyph glyph-name="thorn" unicode="&#xfe;" horiz-adv-x="558" 
d="M510 271c0 -180 -100 -276 -252 -276c-37 0 -63 1 -99 6v-252h-63v981h63v-229c0 -39 -2 -92 -7 -117l2 -1c28 74 92 122 172 122c117 0 184 -79 184 -234zM444 265c0 118 -40 189 -128 189c-107 0 -157 -125 -157 -214v-181c31 -11 64 -15 104 -15c109 0 181 65 181 221
z" />
    <glyph glyph-name="q" unicode="q" horiz-adv-x="558" 
d="M462 -251h-63v282c0 19 1 54 7 83l-2 1c-27 -75 -93 -123 -172 -123c-116 0 -184 78 -184 234c0 180 100 277 256 277c52 0 108 -5 158 -13v-741zM399 257v184c-35 9 -70 13 -104 13c-109 0 -180 -66 -180 -222c0 -118 40 -189 127 -189c106 0 157 125 157 214z" />
    <glyph glyph-name="r" unicode="r" horiz-adv-x="354" 
d="M329 504l-3 -61c-113 18 -167 -72 -167 -245v-198h-63v497h64c0 -35 -4 -86 -13 -130l2 -1c19 74 71 152 180 138z" />
    <glyph glyph-name="racute" unicode="&#x155;" horiz-adv-x="354" 
d="M329 504l-3 -61c-113 18 -167 -72 -167 -245v-198h-63v497h64c0 -35 -4 -86 -13 -130l2 -1c19 74 71 152 180 138zM338 696l-128 -118l-32 33l118 126z" />
    <glyph glyph-name="rcaron" unicode="&#x159;" horiz-adv-x="354" 
d="M329 504l-3 -61c-113 18 -167 -72 -167 -245v-198h-63v497h64c0 -35 -4 -86 -13 -130l2 -1c19 74 71 152 180 138zM341 706l-129 -128l-128 126l32 33l97 -88l97 88z" />
    <glyph glyph-name="rcommaaccent" unicode="&#x157;" horiz-adv-x="354" 
d="M329 504l-3 -61c-113 18 -167 -72 -167 -245v-198h-63v497h64c0 -35 -4 -86 -13 -130l2 -1c19 74 71 152 180 138zM135 -50c27 0 45 -23 45 -52c0 -34 -20 -79 -88 -137l-25 25c34 31 44 58 44 76c0 25 -15 27 -15 48c0 20 15 40 39 40z" />
    <glyph glyph-name="s" unicode="s" horiz-adv-x="431" 
d="M374 146c0 -85 -76 -154 -204 -154c-38 0 -80 4 -111 13l9 60c32 -12 75 -19 113 -19c74 0 128 35 128 91c0 129 -252 47 -252 226c0 82 65 142 188 142c32 0 70 -4 100 -11l-8 -54c-31 9 -66 15 -101 15c-77 0 -115 -33 -115 -85c0 -129 253 -50 253 -224z" />
    <glyph glyph-name="sacute" unicode="&#x15b;" horiz-adv-x="431" 
d="M374 146c0 -85 -76 -154 -204 -154c-38 0 -80 4 -111 13l9 60c32 -12 75 -19 113 -19c74 0 128 35 128 91c0 129 -252 47 -252 226c0 82 65 142 188 142c32 0 70 -4 100 -11l-8 -54c-31 9 -66 15 -101 15c-77 0 -115 -33 -115 -85c0 -129 253 -50 253 -224zM338 696
l-128 -118l-32 33l118 126z" />
    <glyph glyph-name="scircumflex" unicode="&#x15d;" horiz-adv-x="431" 
d="M374 146c0 -85 -76 -154 -204 -154c-38 0 -80 4 -111 13l9 60c32 -12 75 -19 113 -19c74 0 128 35 128 91c0 129 -252 47 -252 226c0 82 65 142 188 142c32 0 70 -4 100 -11l-8 -54c-31 9 -66 15 -101 15c-77 0 -115 -33 -115 -85c0 -129 253 -50 253 -224zM344 610
l-33 -32l-97 87l-97 -87l-30 30l129 129z" />
    <glyph glyph-name="scaron" unicode="&#x161;" horiz-adv-x="431" 
d="M374 146c0 -85 -76 -154 -204 -154c-38 0 -80 4 -111 13l9 60c32 -12 75 -19 113 -19c74 0 128 35 128 91c0 129 -252 47 -252 226c0 82 65 142 188 142c32 0 70 -4 100 -11l-8 -54c-31 9 -66 15 -101 15c-77 0 -115 -33 -115 -85c0 -129 253 -50 253 -224zM345 706
l-129 -128l-128 126l32 33l97 -88l97 88z" />
    <glyph glyph-name="scedilla" unicode="&#x15f;" horiz-adv-x="431" 
d="M374 146c0 -85 -76 -154 -204 -154c-38 0 -80 4 -111 13l9 60c32 -12 75 -19 113 -19c74 0 128 35 128 91c0 129 -252 47 -252 226c0 82 65 142 188 142c32 0 70 -4 100 -11l-8 -54c-31 9 -66 15 -101 15c-77 0 -115 -33 -115 -85c0 -129 253 -50 253 -224zM225 -41
c51 -64 35 -125 -22 -195h-56c55 70 68 112 21 168z" />
    <glyph glyph-name="scedilla" unicode="&#xf6c2;" horiz-adv-x="431" 
d="M374 146c0 -85 -76 -154 -204 -154c-38 0 -80 4 -111 13l9 60c32 -12 75 -19 113 -19c74 0 128 35 128 91c0 129 -252 47 -252 226c0 82 65 142 188 142c32 0 70 -4 100 -11l-8 -54c-31 9 -66 15 -101 15c-77 0 -115 -33 -115 -85c0 -129 253 -50 253 -224zM225 -41
c51 -64 35 -125 -22 -195h-56c55 70 68 112 21 168z" />
    <glyph glyph-name="scommaaccent" unicode="&#x219;" horiz-adv-x="431" 
d="M374 146c0 -85 -76 -154 -204 -154c-38 0 -80 4 -111 13l9 60c32 -12 75 -19 113 -19c74 0 128 35 128 91c0 129 -252 47 -252 226c0 82 65 142 188 142c32 0 70 -4 100 -11l-8 -54c-31 9 -66 15 -101 15c-77 0 -115 -33 -115 -85c0 -129 253 -50 253 -224zM212 -50
c27 0 45 -23 45 -52c0 -34 -20 -79 -88 -137l-25 25c34 31 44 58 44 76c0 25 -15 27 -15 48c0 20 15 40 39 40z" />
    <glyph glyph-name="longs" unicode="&#x17f;" horiz-adv-x="254" 
d="M316 731l-6 -53c-16 4 -34 5 -49 5c-74 0 -102 -48 -102 -152v-531h-63v529c0 140 64 206 172 206c16 0 37 -2 48 -4z" />
    <glyph glyph-name="germandbls" unicode="&#xdf;" horiz-adv-x="582" 
d="M535 144c0 -86 -72 -152 -194 -152c-35 0 -69 3 -94 8l7 60c27 -9 60 -14 91 -14c88 0 126 41 126 88c0 121 -210 96 -210 256c0 121 150 112 150 211c0 56 -45 83 -109 83c-91 0 -143 -49 -143 -175v-509h-63v504c0 170 92 230 212 230c110 0 167 -56 167 -126
c0 -139 -150 -119 -150 -213c0 -115 210 -96 210 -251z" />
    <glyph glyph-name="germandbls.alt1" unicode="&#xf020;" horiz-adv-x="629" 
d="M573 147c0 -86 -72 -155 -190 -155c-35 0 -68 2 -95 9l1 61c31 -12 66 -16 98 -16c69 0 122 35 122 91c0 119 -229 62 -229 231c0 82 64 143 177 143c28 0 57 -4 81 -9v-55c-26 9 -58 14 -88 14c-66 0 -105 -34 -105 -85c0 -121 228 -67 228 -229zM498 730l-4 -53
c-25 4 -61 6 -80 6c-169 0 -255 -118 -255 -296v-387h-63v385c0 226 130 350 324 350c20 0 50 -2 78 -5z" />
    <glyph glyph-name="t" unicode="t" horiz-adv-x="369" 
d="M334 3c-27 -6 -64 -10 -95 -10c-97 0 -124 44 -124 144v310h-114v50h114v168l62 17v-185h153v-50h-153v-279c0 -95 17 -119 79 -119c26 0 50 3 69 8z" />
    <glyph glyph-name="tcaron" unicode="&#x165;" horiz-adv-x="371" 
d="M334 3c-27 -6 -64 -10 -95 -10c-97 0 -124 44 -124 144v310h-114v50h114v168l62 17v-185h153v-50h-153v-279c0 -95 17 -119 79 -119c26 0 50 3 69 8zM361 733l-71 -160l-43 15l58 164z" />
    <glyph glyph-name="tcommaaccent" unicode="&#x21b;" horiz-adv-x="369" 
d="M334 3c-27 -6 -64 -10 -95 -10c-97 0 -124 44 -124 144v310h-114v50h114v168l62 17v-185h153v-50h-153v-279c0 -95 17 -119 79 -119c26 0 50 3 69 8zM213 -50c27 0 45 -23 45 -52c0 -34 -20 -79 -88 -137l-25 25c34 31 44 58 44 76c0 25 -15 27 -15 48c0 20 15 40 39 40z
" />
    <glyph glyph-name="uni0163" unicode="&#x163;" horiz-adv-x="369" 
d="M334 3c-27 -6 -64 -10 -95 -10c-97 0 -124 44 -124 144v310h-114v50h114v168l62 17v-185h153v-50h-153v-279c0 -95 17 -119 79 -119c26 0 50 3 69 8zM239 -41c51 -64 35 -125 -22 -195h-56c55 70 68 112 21 168z" />
    <glyph glyph-name="tbar" unicode="&#x167;" horiz-adv-x="398" 
d="M187 307h152v-48h-152v-92c0 -94 17 -118 79 -118c25 0 50 3 69 8l8 -54c-26 -6 -63 -10 -94 -10c-97 0 -125 44 -125 144v122h-113v48h113v141h-113v49h113v168l63 17v-185h152v-49h-152v-141z" />
    <glyph glyph-name="u" unicode="u" horiz-adv-x="579" 
d="M483 0h-64c0 35 3 85 9 116l-2 1c-28 -76 -92 -125 -180 -125c-115 0 -150 71 -150 159v346h63v-322c0 -83 22 -132 101 -132c94 0 160 91 160 217v237h63v-497z" />
    <glyph glyph-name="ugrave" unicode="&#xf9;" horiz-adv-x="579" 
d="M483 0h-64c0 35 3 85 9 116l-2 1c-28 -76 -92 -125 -180 -125c-115 0 -150 71 -150 159v346h63v-322c0 -83 22 -132 101 -132c94 0 160 91 160 217v237h63v-497zM327 611l-33 -33l-128 118l42 41z" />
    <glyph glyph-name="uacute" unicode="&#xfa;" horiz-adv-x="579" 
d="M483 0h-64c0 35 3 85 9 116l-2 1c-28 -76 -92 -125 -180 -125c-115 0 -150 71 -150 159v346h63v-322c0 -83 22 -132 101 -132c94 0 160 91 160 217v237h63v-497zM415 696l-128 -118l-32 33l118 126z" />
    <glyph glyph-name="ucircumflex" unicode="&#xfb;" horiz-adv-x="579" 
d="M483 0h-64c0 35 3 85 9 116l-2 1c-28 -76 -92 -125 -180 -125c-115 0 -150 71 -150 159v346h63v-322c0 -83 22 -132 101 -132c94 0 160 91 160 217v237h63v-497zM418 610l-33 -32l-97 87l-97 -87l-30 30l129 129z" />
    <glyph glyph-name="utilde" unicode="&#x169;" horiz-adv-x="579" 
d="M483 0h-64c0 35 3 85 9 116l-2 1c-28 -76 -92 -125 -180 -125c-115 0 -150 71 -150 159v346h63v-322c0 -83 22 -132 101 -132c94 0 160 91 160 217v237h63v-497zM452 674c-24 -44 -59 -69 -101 -69c-64 0 -86 57 -130 57c-22 0 -44 -16 -62 -48l-34 27
c24 44 59 69 101 69c64 0 85 -57 129 -57c23 0 45 16 63 48z" />
    <glyph glyph-name="udieresis" unicode="&#xfc;" horiz-adv-x="579" 
d="M483 0h-64c0 35 3 85 9 116l-2 1c-28 -76 -92 -125 -180 -125c-115 0 -150 71 -150 159v346h63v-322c0 -83 22 -132 101 -132c94 0 160 91 160 217v237h63v-497zM424 658c0 -24 -19 -43 -43 -43s-43 19 -43 43c0 25 19 43 43 43s43 -18 43 -43zM240 658
c0 -24 -19 -43 -43 -43c-25 0 -43 19 -43 43c0 25 18 43 43 43c24 0 43 -18 43 -43z" />
    <glyph glyph-name="umacron" unicode="&#x16b;" horiz-adv-x="579" 
d="M483 0h-64c0 35 3 85 9 116l-2 1c-28 -76 -92 -125 -180 -125c-115 0 -150 71 -150 159v346h63v-322c0 -83 22 -132 101 -132c94 0 160 91 160 217v237h63v-497zM409 629h-239v48h239v-48z" />
    <glyph glyph-name="ubreve" unicode="&#x16d;" horiz-adv-x="579" 
d="M483 0h-64c0 35 3 85 9 116l-2 1c-28 -76 -92 -125 -180 -125c-115 0 -150 71 -150 159v346h63v-322c0 -83 22 -132 101 -132c94 0 160 91 160 217v237h63v-497zM406 716c0 -64 -36 -121 -118 -121c-81 0 -115 58 -115 121h46c0 -38 24 -72 70 -72c44 0 71 27 71 72h46z
" />
    <glyph glyph-name="uring" unicode="&#x16f;" horiz-adv-x="579" 
d="M483 0h-64c0 35 3 85 9 116l-2 1c-28 -76 -92 -125 -180 -125c-115 0 -150 71 -150 159v346h63v-322c0 -83 22 -132 101 -132c94 0 160 91 160 217v237h63v-497zM394 653c0 -54 -48 -103 -105 -103c-58 0 -104 41 -104 100c0 57 50 103 106 103c58 0 103 -43 103 -100z
M347 651c0 33 -25 59 -57 59c-33 0 -58 -26 -58 -59c0 -32 25 -59 58 -59c32 0 57 27 57 59z" />
    <glyph glyph-name="uhungarumlaut" unicode="&#x171;" horiz-adv-x="579" 
d="M483 0h-64c0 35 3 85 9 116l-2 1c-28 -76 -92 -125 -180 -125c-115 0 -150 71 -150 159v346h63v-322c0 -83 22 -132 101 -132c94 0 160 91 160 217v237h63v-497zM505 695l-128 -117l-33 30l118 126zM336 701l-120 -123l-34 30l110 130z" />
    <glyph glyph-name="uogonek" unicode="&#x173;" horiz-adv-x="579" 
d="M520 -141c-23 -40 -59 -63 -100 -63c-48 0 -78 24 -78 71c0 60 48 108 94 139c-5 32 -9 75 -7 105h-1c-32 -71 -94 -119 -182 -119c-115 0 -150 71 -150 159v346h63v-322c0 -83 22 -132 101 -132c94 0 160 91 160 217v237h63v-312c0 -62 6 -131 17 -185
c-63 -39 -92 -80 -92 -114c0 -23 13 -34 35 -34c15 0 31 11 45 33z" />
    <glyph glyph-name="v" unicode="v" horiz-adv-x="471" 
d="M459 497l-191 -497h-69l-187 497h72l124 -349c11 -32 19 -56 27 -85h1c8 27 17 54 27 82l127 352h69z" />
    <glyph glyph-name="w" unicode="w" horiz-adv-x="791" 
d="M770 497l-163 -497h-75l-118 344c-10 30 -19 60 -27 91h-1c-11 -42 -24 -83 -37 -125l-98 -310h-76l-155 497h72l92 -320c12 -44 25 -86 33 -116h1c9 37 21 78 33 116l103 320h76l104 -319c21 -64 28 -89 36 -118h1c9 36 19 66 34 116l97 321h68z" />
    <glyph glyph-name="wgrave" unicode="&#x1e81;" horiz-adv-x="791" 
d="M770 497l-163 -497h-75l-118 344c-10 30 -19 60 -27 91h-1c-11 -42 -24 -83 -37 -125l-98 -310h-76l-155 497h72l92 -320c12 -44 25 -86 33 -116h1c9 37 21 78 33 116l103 320h76l104 -319c21 -64 28 -89 36 -118h1c9 36 19 66 34 116l97 321h68zM441 611l-33 -33
l-128 118l42 41z" />
    <glyph glyph-name="wacute" unicode="&#x1e83;" horiz-adv-x="791" 
d="M770 497l-163 -497h-75l-118 344c-10 30 -19 60 -27 91h-1c-11 -42 -24 -83 -37 -125l-98 -310h-76l-155 497h72l92 -320c12 -44 25 -86 33 -116h1c9 37 21 78 33 116l103 320h76l104 -319c21 -64 28 -89 36 -118h1c9 36 19 66 34 116l97 321h68zM491 696l-128 -118
l-32 33l118 126z" />
    <glyph glyph-name="wcircumflex" unicode="&#x175;" horiz-adv-x="791" 
d="M770 497l-163 -497h-75l-118 344c-10 30 -19 60 -27 91h-1c-11 -42 -24 -83 -37 -125l-98 -310h-76l-155 497h72l92 -320c12 -44 25 -86 33 -116h1c9 37 21 78 33 116l103 320h76l104 -319c21 -64 28 -89 36 -118h1c9 36 19 66 34 116l97 321h68zM524 610l-33 -32l-97 87
l-97 -87l-30 30l129 129z" />
    <glyph glyph-name="wdieresis" unicode="&#x1e85;" horiz-adv-x="791" 
d="M770 497l-163 -497h-75l-118 344c-10 30 -19 60 -27 91h-1c-11 -42 -24 -83 -37 -125l-98 -310h-76l-155 497h72l92 -320c12 -44 25 -86 33 -116h1c9 37 21 78 33 116l103 320h76l104 -319c21 -64 28 -89 36 -118h1c9 36 19 66 34 116l97 321h68zM526 658
c0 -24 -19 -43 -43 -43s-43 19 -43 43c0 25 19 43 43 43s43 -18 43 -43zM342 658c0 -24 -19 -43 -43 -43c-25 0 -43 19 -43 43c0 25 18 43 43 43c24 0 43 -18 43 -43z" />
    <glyph glyph-name="x" unicode="x" horiz-adv-x="512" 
d="M484 0h-85l-146 208l-146 -208h-80l191 248l-181 249h80l141 -203l145 203h73l-183 -245z" />
    <glyph glyph-name="y" unicode="y" horiz-adv-x="464" 
d="M452 497l-207 -548c-57 -152 -114 -208 -224 -208c-16 0 -36 3 -50 6l7 58c15 -5 39 -8 57 -8c59 0 101 30 145 142l24 61l-192 497h74l112 -306c16 -47 27 -79 38 -115h1c8 30 29 91 50 151l96 270h69z" />
    <glyph glyph-name="ygrave" unicode="&#x1ef3;" horiz-adv-x="464" 
d="M452 497l-207 -548c-57 -152 -114 -208 -224 -208c-16 0 -36 3 -50 6l7 58c15 -5 39 -8 57 -8c59 0 101 30 145 142l24 61l-192 497h74l112 -306c16 -47 27 -79 38 -115h1c8 30 29 91 50 151l96 270h69zM252 611l-33 -33l-128 118l42 41z" />
    <glyph glyph-name="yacute" unicode="&#xfd;" horiz-adv-x="464" 
d="M452 497l-207 -548c-57 -152 -114 -208 -224 -208c-16 0 -36 3 -50 6l7 58c15 -5 39 -8 57 -8c59 0 101 30 145 142l24 61l-192 497h74l112 -306c16 -47 27 -79 38 -115h1c8 30 29 91 50 151l96 270h69zM360 696l-128 -118l-32 33l118 126z" />
    <glyph glyph-name="ycircumflex" unicode="&#x177;" horiz-adv-x="464" 
d="M452 497l-207 -548c-57 -152 -114 -208 -224 -208c-16 0 -36 3 -50 6l7 58c15 -5 39 -8 57 -8c59 0 101 30 145 142l24 61l-192 497h74l112 -306c16 -47 27 -79 38 -115h1c8 30 29 91 50 151l96 270h69zM360 610l-33 -32l-97 87l-97 -87l-30 30l129 129z" />
    <glyph glyph-name="ydieresis" unicode="&#xff;" horiz-adv-x="464" 
d="M452 497l-207 -548c-57 -152 -114 -208 -224 -208c-16 0 -36 3 -50 6l7 58c15 -5 39 -8 57 -8c59 0 101 30 145 142l24 61l-192 497h74l112 -306c16 -47 27 -79 38 -115h1c8 30 29 91 50 151l96 270h69zM369 658c0 -24 -19 -43 -43 -43s-43 19 -43 43c0 25 19 43 43 43
s43 -18 43 -43zM185 658c0 -24 -19 -43 -43 -43c-25 0 -43 19 -43 43c0 25 18 43 43 43c24 0 43 -18 43 -43z" />
    <glyph glyph-name="y.alt1" unicode="&#xf021;" horiz-adv-x="579" 
d="M111 -242l11 63c42 -15 91 -23 140 -23c106 0 158 51 158 171v48c0 32 1 68 7 99l-1 1c-29 -75 -92 -125 -180 -125c-115 0 -150 71 -150 160v345h63v-322c0 -83 22 -132 101 -132c94 0 160 92 160 217v237h63v-533c0 -157 -99 -223 -229 -223c-57 0 -104 7 -143 17z" />
    <glyph glyph-name="ygrave.alt1" unicode="&#xf023;" horiz-adv-x="579" 
d="M111 -242l11 63c42 -15 91 -23 140 -23c106 0 158 51 158 171v48c0 32 1 68 7 99l-1 1c-29 -75 -92 -125 -180 -125c-115 0 -150 71 -150 160v345h63v-322c0 -83 22 -132 101 -132c94 0 160 92 160 217v237h63v-533c0 -157 -99 -223 -229 -223c-57 0 -104 7 -143 17z
M327 611l-33 -33l-128 118l42 41z" />
    <glyph glyph-name="yacute.alt1" unicode="&#xf022;" horiz-adv-x="579" 
d="M111 -242l11 63c42 -15 91 -23 140 -23c106 0 158 51 158 171v48c0 32 1 68 7 99l-1 1c-29 -75 -92 -125 -180 -125c-115 0 -150 71 -150 160v345h63v-322c0 -83 22 -132 101 -132c94 0 160 92 160 217v237h63v-533c0 -157 -99 -223 -229 -223c-57 0 -104 7 -143 17z
M415 696l-128 -118l-32 33l118 126z" />
    <glyph glyph-name="ycircumflex.alt1" unicode="&#xf024;" horiz-adv-x="579" 
d="M111 -242l11 63c42 -15 91 -23 140 -23c106 0 158 51 158 171v48c0 32 1 68 7 99l-1 1c-29 -75 -92 -125 -180 -125c-115 0 -150 71 -150 160v345h63v-322c0 -83 22 -132 101 -132c94 0 160 92 160 217v237h63v-533c0 -157 -99 -223 -229 -223c-57 0 -104 7 -143 17z
M418 610l-33 -32l-97 87l-97 -87l-30 30l129 129z" />
    <glyph glyph-name="ydieresis.alt1" unicode="&#xf025;" horiz-adv-x="579" 
d="M111 -242l11 63c42 -15 91 -23 140 -23c106 0 158 51 158 171v48c0 32 1 68 7 99l-1 1c-29 -75 -92 -125 -180 -125c-115 0 -150 71 -150 160v345h63v-322c0 -83 22 -132 101 -132c94 0 160 92 160 217v237h63v-533c0 -157 -99 -223 -229 -223c-57 0 -104 7 -143 17z
M424 658c0 -24 -19 -43 -43 -43s-43 19 -43 43c0 25 19 43 43 43s43 -18 43 -43zM240 658c0 -24 -19 -43 -43 -43c-25 0 -43 19 -43 43c0 25 18 43 43 43c24 0 43 -18 43 -43z" />
    <glyph glyph-name="z" unicode="z" horiz-adv-x="445" 
d="M391 0h-342v44l266 399c-34 -1 -91 -2 -149 -2h-112v56h332v-43l-264 -398c32 1 102 2 152 2h117v-58z" />
    <glyph glyph-name="zacute" unicode="&#x17a;" horiz-adv-x="445" 
d="M391 0h-342v44l266 399c-34 -1 -91 -2 -149 -2h-112v56h332v-43l-264 -398c32 1 102 2 152 2h117v-58zM349 696l-128 -118l-32 33l118 126z" />
    <glyph glyph-name="zcaron" unicode="&#x17e;" horiz-adv-x="445" 
d="M391 0h-342v44l266 399c-34 -1 -91 -2 -149 -2h-112v56h332v-43l-264 -398c32 1 102 2 152 2h117v-58zM351 706l-129 -128l-128 126l32 33l97 -88l97 88z" />
    <glyph glyph-name="zdotaccent" unicode="&#x17c;" horiz-adv-x="445" 
d="M391 0h-342v44l266 399c-34 -1 -91 -2 -149 -2h-112v56h332v-43l-264 -398c32 1 102 2 152 2h117v-58zM263 658c0 -24 -20 -45 -45 -45s-45 20 -45 45s20 45 45 45s45 -19 45 -45z" />
    <glyph glyph-name="LatinSmallCaps" unicode="&#xf026;" horiz-adv-x="1169" 
d="M553 333h-49l-29 99h-146l-28 -99h-46l119 402h59zM1115 333h-61l-127 276c-11 23 -20 46 -30 75h-1c1 -49 3 -125 3 -229v-122h-43v402h63l125 -274c10 -19 22 -49 30 -72h1c-2 57 -3 166 -3 241v105h43v-402zM240 -76c0 -58 -43 -109 -125 -109c-27 0 -55 4 -78 13
l9 42c23 -10 48 -17 72 -17c51 0 75 28 75 69c0 96 -157 77 -157 198c0 57 41 106 120 106c21 0 43 -3 66 -9l-9 -39c-21 7 -42 12 -60 12c-48 0 -71 -29 -71 -67c0 -90 158 -74 158 -199zM552 -164c-25 -12 -57 -21 -93 -21c-99 0 -147 73 -147 198c0 121 46 213 157 213
c28 0 55 -6 79 -15l-12 -38c-22 11 -45 16 -68 16c-78 0 -108 -76 -108 -170c0 -105 34 -166 108 -166c28 0 53 8 71 18zM781 698h-99v-365h-44v365h-99v37h242v-37zM221 333h-166v402h45v-365h121v-37zM466 468l-49 166c-6 21 -10 39 -15 60c-3 -19 -8 -38 -14 -58
l-49 -168h127z" />
    <glyph glyph-name="A.sc" unicode="&#xf027;" horiz-adv-x="535" 
d="M510 0h-71l-47 121h-254l-47 -121h-65l207 520h72zM373 170l-75 199c-13 34 -24 63 -32 87h-1c-8 -26 -17 -54 -30 -87l-78 -199h216z" />
    <glyph glyph-name="Agrave.sc" unicode="&#xf028;" horiz-adv-x="535" 
d="M510 0h-71l-47 121h-254l-47 -121h-65l207 520h72zM373 170l-75 199c-13 34 -24 63 -32 87h-1c-8 -26 -17 -54 -30 -87l-78 -199h216zM312 617l-31 -34l-127 103l40 43z" />
    <glyph glyph-name="Aacute.sc" unicode="&#xf029;" horiz-adv-x="535" 
d="M510 0h-71l-47 121h-254l-47 -121h-65l207 520h72zM373 170l-75 199c-13 34 -24 63 -32 87h-1c-8 -26 -17 -54 -30 -87l-78 -199h216zM380 686l-127 -103l-31 34l118 112z" />
    <glyph glyph-name="Acircumflex.sc" unicode="&#xf02a;" horiz-adv-x="535" 
d="M510 0h-71l-47 121h-254l-47 -121h-65l207 520h72zM373 170l-75 199c-13 34 -24 63 -32 87h-1c-8 -26 -17 -54 -30 -87l-78 -199h216zM401 622l-35 -36l-100 73l-94 -73l-32 34l128 101z" />
    <glyph glyph-name="Atilde.sc" unicode="&#xf02b;" horiz-adv-x="535" 
d="M510 0h-71l-47 121h-254l-47 -121h-65l207 520h72zM373 170l-75 199c-13 34 -24 63 -32 87h-1c-8 -26 -17 -54 -30 -87l-78 -199h216zM434 674c-24 -44 -59 -69 -100 -69c-64 0 -86 57 -130 57c-22 0 -44 -16 -63 -48l-33 27c24 44 59 69 100 69c64 0 86 -57 130 -57
c22 0 44 16 63 48z" />
    <glyph glyph-name="Adieresis.sc" unicode="&#xf02c;" horiz-adv-x="535" 
d="M510 0h-71l-47 121h-254l-47 -121h-65l207 520h72zM373 170l-75 199c-13 34 -24 63 -32 87h-1c-8 -26 -17 -54 -30 -87l-78 -199h216zM404 658c0 -24 -19 -43 -43 -43s-43 19 -43 43c0 25 19 43 43 43s43 -18 43 -43zM220 658c0 -24 -19 -43 -43 -43c-25 0 -43 19 -43 43
c0 25 18 43 43 43c24 0 43 -18 43 -43z" />
    <glyph glyph-name="Amacron.sc" unicode="&#xf030;" horiz-adv-x="535" 
d="M510 0h-71l-47 121h-254l-47 -121h-65l207 520h72zM373 170l-75 199c-13 34 -24 63 -32 87h-1c-8 -26 -17 -54 -30 -87l-78 -199h216zM383 629h-231v48h231v-48z" />
    <glyph glyph-name="Abreve.sc" unicode="&#xf031;" horiz-adv-x="535" 
d="M510 0h-71l-47 121h-254l-47 -121h-65l207 520h72zM373 170l-75 199c-13 34 -24 63 -32 87h-1c-8 -26 -17 -54 -30 -87l-78 -199h216zM385 716c0 -64 -36 -121 -118 -121c-81 0 -115 58 -115 121h46c0 -38 24 -72 70 -72c44 0 71 27 71 72h46z" />
    <glyph glyph-name="Aring.sc" unicode="&#xf02d;" horiz-adv-x="535" 
d="M510 0h-71l-47 121h-254l-47 -121h-65l207 520h72zM373 170l-75 199c-13 34 -24 63 -32 87h-1c-8 -26 -17 -54 -30 -87l-78 -199h216zM371 654c0 -54 -46 -101 -103 -101c-58 0 -104 42 -104 101c0 57 48 101 104 101c59 0 103 -44 103 -101zM325 654c0 33 -25 59 -57 59
c-33 0 -58 -26 -58 -59c0 -32 25 -59 58 -59c32 0 57 27 57 59z" />
    <glyph glyph-name="Aring.alt.sc" unicode="&#xf02e;" horiz-adv-x="535" 
d="M509 0h-71l-47 121h-252l-48 -121h-65l203 507c-37 14 -62 48 -62 92c0 57 47 101 103 101c59 0 104 -44 104 -101c0 -41 -27 -78 -64 -92zM328 599c0 33 -25 59 -58 59c-32 0 -57 -26 -57 -59c0 -32 25 -59 57 -59c33 0 58 27 58 59zM372 170l-74 192
c-13 32 -24 67 -32 92h-1c-8 -27 -19 -60 -32 -93l-75 -191h214z" />
    <glyph glyph-name="Aringacute.sc" unicode="&#xf02f;" horiz-adv-x="535" 
d="M510 0h-71l-47 121h-254l-47 -121h-65l207 520h72zM373 170l-75 199c-13 34 -24 63 -32 87h-1c-8 -26 -17 -54 -30 -87l-78 -199h216zM368 648c0 -53 -47 -101 -103 -101c-57 0 -102 40 -102 98c0 56 49 102 104 102c57 0 101 -43 101 -99zM322 646c0 33 -24 58 -56 58
c-33 0 -57 -25 -57 -58c0 -31 24 -58 57 -58c32 0 56 27 56 58zM389 839l-171 -57l-15 37l163 73z" />
    <glyph glyph-name="Aogonek.sc" unicode="&#xf032;" horiz-adv-x="535" 
d="M372 170l-74 192c-13 32 -24 67 -32 92h-1c-8 -27 -19 -60 -32 -93l-75 -191h214zM419 -114c0 -24 13 -35 34 -35c16 0 31 11 46 33l32 -26c-23 -40 -59 -62 -100 -62c-50 0 -79 25 -79 71c0 40 27 93 86 133l-47 121h-252l-48 -121h-65l208 520h70l205 -520
c-62 -41 -90 -80 -90 -114z" />
    <glyph glyph-name="AE.sc" unicode="&#xf033;" horiz-adv-x="643" 
d="M570 0h-279v129h-186l-72 -129h-68l297 520h299v-50h-206v-179h198v-47h-198v-194h215v-50zM291 175v288h-2c-13 -27 -27 -54 -54 -102l-107 -186h163z" />
    <glyph glyph-name="AEacute.sc" unicode="&#xf034;" horiz-adv-x="643" 
d="M570 0h-279v129h-186l-72 -129h-68l297 520h299v-50h-206v-179h198v-47h-198v-194h215v-50zM291 175v288h-2c-13 -27 -27 -54 -54 -102l-107 -186h163zM502 686l-127 -103l-31 34l118 112z" />
    <glyph glyph-name="B.sc" unicode="&#xf035;" horiz-adv-x="514" 
d="M438 154c0 -56 -32 -156 -206 -156c-32 0 -82 1 -131 2v520c37 0 86 2 155 2c118 0 166 -52 166 -124c0 -57 -32 -99 -93 -122v-1c74 -15 109 -63 109 -121zM356 390c0 47 -26 83 -114 83c-27 0 -54 -1 -77 -1v-179c21 -1 42 -1 50 -1c91 0 141 33 141 98zM373 152
c0 73 -69 93 -157 93c-10 0 -37 0 -51 -1v-192c15 -3 38 -4 72 -4c94 0 136 43 136 104z" />
    <glyph glyph-name="C.sc" unicode="&#xf036;" horiz-adv-x="498" 
d="M451 23c-42 -17 -95 -28 -152 -28c-161 0 -248 94 -248 256c0 150 80 275 268 275c41 0 89 -6 126 -17l-11 -57c-39 12 -83 21 -125 21c-131 0 -190 -96 -190 -216c0 -133 67 -206 197 -206c43 0 87 9 123 27z" />
    <glyph glyph-name="Cacute.sc" unicode="&#xf038;" horiz-adv-x="498" 
d="M451 23c-42 -17 -95 -28 -152 -28c-161 0 -248 94 -248 256c0 150 80 275 268 275c41 0 89 -6 126 -17l-11 -57c-39 12 -83 21 -125 21c-131 0 -190 -96 -190 -216c0 -133 67 -206 197 -206c43 0 87 9 123 27zM411 686l-127 -103l-31 34l118 112z" />
    <glyph glyph-name="Ccircumflex.sc" unicode="&#xf039;" horiz-adv-x="498" 
d="M451 23c-42 -17 -95 -28 -152 -28c-161 0 -248 94 -248 256c0 150 80 275 268 275c41 0 89 -6 126 -17l-11 -57c-39 12 -83 21 -125 21c-131 0 -190 -96 -190 -216c0 -133 67 -206 197 -206c43 0 87 9 123 27zM415 622l-35 -36l-100 73l-94 -73l-32 34l128 101z" />
    <glyph glyph-name="Ccaron.sc" unicode="&#xf03a;" horiz-adv-x="498" 
d="M451 23c-42 -17 -95 -28 -152 -28c-161 0 -248 94 -248 256c0 150 80 275 268 275c41 0 89 -6 126 -17l-11 -57c-39 12 -83 21 -125 21c-131 0 -190 -96 -190 -216c0 -133 67 -206 197 -206c43 0 87 9 123 27zM424 689l-127 -102l-133 99l30 36l104 -72l98 72z" />
    <glyph glyph-name="Cdotaccent.sc" unicode="&#xf03b;" horiz-adv-x="498" 
d="M451 23c-42 -17 -95 -28 -152 -28c-161 0 -248 94 -248 256c0 150 80 275 268 275c41 0 89 -6 126 -17l-11 -57c-39 12 -83 21 -125 21c-131 0 -190 -96 -190 -216c0 -133 67 -206 197 -206c43 0 87 9 123 27zM330 657c0 -25 -20 -45 -45 -45s-45 19 -45 45
c0 24 20 45 45 45s45 -20 45 -45z" />
    <glyph glyph-name="Ccedilla.sc" unicode="&#xf037;" horiz-adv-x="498" 
d="M451 23c-42 -17 -95 -28 -152 -28c-161 0 -248 94 -248 256c0 150 80 275 268 275c41 0 89 -6 126 -17l-11 -57c-39 12 -83 21 -125 21c-131 0 -190 -96 -190 -216c0 -133 67 -206 197 -206c43 0 87 9 123 27zM310 -41c51 -64 35 -125 -22 -195h-56c55 70 68 112 21 168z
" />
    <glyph glyph-name="D.sc" unicode="&#xf03c;" horiz-adv-x="588" 
d="M539 265c0 -181 -128 -267 -305 -267c-55 0 -95 2 -133 2v520c42 0 104 2 159 2c173 0 279 -77 279 -257zM472 260c0 141 -75 212 -224 212c-25 0 -56 -1 -83 -3v-416c19 -2 55 -3 78 -3c135 0 229 65 229 210z" />
    <glyph glyph-name="Dcaron.sc" unicode="&#xf03d;" horiz-adv-x="588" 
d="M539 265c0 -181 -128 -267 -305 -267c-55 0 -95 2 -133 2v520c42 0 104 2 159 2c173 0 279 -77 279 -257zM472 260c0 141 -75 212 -224 212c-25 0 -56 -1 -83 -3v-416c19 -2 55 -3 78 -3c135 0 229 65 229 210zM400 689l-127 -102l-133 99l30 36l104 -72l98 72z" />
    <glyph glyph-name="Eth.sc" unicode="&#xf03e;" horiz-adv-x="596" 
d="M109 291v229c42 0 104 2 159 2c173 0 279 -77 279 -257c0 -181 -128 -267 -305 -267c-55 0 -95 2 -133 2v242h-74v49h74zM298 242h-125v-189c19 -2 55 -3 78 -3c136 0 229 65 229 210c0 141 -75 212 -224 212c-24 0 -56 -1 -83 -3v-178h125v-49z" />
    <glyph glyph-name="Dcroat.sc" unicode="&#xf03f;" horiz-adv-x="596" 
d="M109 291v229c42 0 104 2 159 2c173 0 279 -77 279 -257c0 -181 -128 -267 -305 -267c-55 0 -95 2 -133 2v242h-74v49h74zM298 242h-125v-189c19 -2 55 -3 78 -3c136 0 229 65 229 210c0 141 -75 212 -224 212c-24 0 -56 -1 -83 -3v-178h125v-49z" />
    <glyph glyph-name="E.sc" unicode="&#xf040;" horiz-adv-x="449" 
d="M376 0h-275v520h275v-50h-211v-177h201v-49h-201v-193h211v-51z" />
    <glyph glyph-name="Egrave.sc" unicode="&#xf041;" horiz-adv-x="449" 
d="M376 0h-275v520h275v-50h-211v-177h201v-49h-201v-193h211v-51zM270 617l-31 -34l-127 103l40 43z" />
    <glyph glyph-name="Eacute.sc" unicode="&#xf042;" horiz-adv-x="449" 
d="M376 0h-275v520h275v-50h-211v-177h201v-49h-201v-193h211v-51zM353 686l-127 -103l-31 34l118 112z" />
    <glyph glyph-name="Ecircumflex.sc" unicode="&#xf043;" horiz-adv-x="449" 
d="M376 0h-275v520h275v-50h-211v-177h201v-49h-201v-193h211v-51zM368 622l-35 -36l-100 73l-94 -73l-32 34l128 101z" />
    <glyph glyph-name="Ecaron.sc" unicode="&#xf046;" horiz-adv-x="449" 
d="M376 0h-275v520h275v-50h-211v-177h201v-49h-201v-193h211v-51zM368 689l-127 -102l-133 99l30 36l104 -72l98 72z" />
    <glyph glyph-name="Edieresis.sc" unicode="&#xf044;" horiz-adv-x="449" 
d="M376 0h-275v520h275v-50h-211v-177h201v-49h-201v-193h211v-51zM372 658c0 -24 -19 -43 -43 -43s-43 19 -43 43c0 25 19 43 43 43s43 -18 43 -43zM188 658c0 -24 -19 -43 -43 -43c-25 0 -43 19 -43 43c0 25 18 43 43 43c24 0 43 -18 43 -43z" />
    <glyph glyph-name="Emacron.sc" unicode="&#xf045;" horiz-adv-x="449" 
d="M376 0h-275v520h275v-50h-211v-177h201v-49h-201v-193h211v-51zM353 629h-231v48h231v-48z" />
    <glyph glyph-name="Ebreve.sc" unicode="&#xf047;" horiz-adv-x="449" 
d="M376 0h-275v520h275v-50h-211v-177h201v-49h-201v-193h211v-51zM350 716c0 -64 -36 -121 -118 -121c-81 0 -115 58 -115 121h46c0 -38 24 -72 70 -72c44 0 71 27 71 72h46z" />
    <glyph glyph-name="Edotaccent.sc" unicode="&#xf048;" horiz-adv-x="449" 
d="M376 0h-275v520h275v-50h-211v-177h201v-49h-201v-193h211v-51zM285 656c0 -25 -20 -45 -45 -45s-45 19 -45 45c0 24 20 45 45 45s45 -20 45 -45z" />
    <glyph glyph-name="Eogonek.sc" unicode="&#xf049;" horiz-adv-x="449" 
d="M286 -114c0 -24 13 -35 35 -35c15 0 31 11 45 33l32 -26c-23 -40 -58 -62 -99 -62c-50 0 -80 25 -80 71c0 40 27 93 86 133h-204v520h275v-50h-211v-177h201v-49h-201v-193h211v-51c-62 -41 -90 -80 -90 -114z" />
    <glyph glyph-name="F.sc" unicode="&#xf04a;" horiz-adv-x="431" 
d="M374 470h-209v-181h198v-50h-198v-239h-64v520h273v-50z" />
    <glyph glyph-name="G.sc" unicode="&#xf04b;" horiz-adv-x="584" 
d="M492 23c-54 -19 -111 -29 -177 -29c-157 0 -266 91 -266 257c0 156 106 275 283 275c51 0 101 -8 151 -23l-13 -55c-47 18 -93 27 -142 27c-111 0 -212 -70 -212 -216c0 -136 85 -211 210 -211c37 0 74 5 102 15v199h64v-239z" />
    <glyph glyph-name="Gcircumflex.sc" unicode="&#xf04c;" horiz-adv-x="584" 
d="M492 23c-54 -19 -111 -29 -177 -29c-157 0 -266 91 -266 257c0 156 106 275 283 275c51 0 101 -8 151 -23l-13 -55c-47 18 -93 27 -142 27c-111 0 -212 -70 -212 -216c0 -136 85 -211 210 -211c37 0 74 5 102 15v199h64v-239zM430 622l-35 -36l-100 73l-94 -73l-32 34
l128 101z" />
    <glyph glyph-name="Gbreve.sc" unicode="&#xf04e;" horiz-adv-x="584" 
d="M492 23c-54 -19 -111 -29 -177 -29c-157 0 -266 91 -266 257c0 156 106 275 283 275c51 0 101 -8 151 -23l-13 -55c-47 18 -93 27 -142 27c-111 0 -212 -70 -212 -216c0 -136 85 -211 210 -211c37 0 74 5 102 15v199h64v-239zM429 716c0 -64 -36 -121 -118 -121
c-81 0 -115 58 -115 121h46c0 -38 24 -72 70 -72c44 0 71 27 71 72h46z" />
    <glyph glyph-name="Gcaron.sc" unicode="&#xf04d;" horiz-adv-x="584" 
d="M492 23c-54 -19 -111 -29 -177 -29c-157 0 -266 91 -266 257c0 156 106 275 283 275c51 0 101 -8 151 -23l-13 -55c-47 18 -93 27 -142 27c-111 0 -212 -70 -212 -216c0 -136 85 -211 210 -211c37 0 74 5 102 15v199h64v-239zM442 689l-127 -102l-133 99l30 36l104 -72
l98 72z" />
    <glyph glyph-name="Gdotaccent.sc" unicode="&#xf050;" horiz-adv-x="584" 
d="M492 23c-54 -19 -111 -29 -177 -29c-157 0 -266 91 -266 257c0 156 106 275 283 275c51 0 101 -8 151 -23l-13 -55c-47 18 -93 27 -142 27c-111 0 -212 -70 -212 -216c0 -136 85 -211 210 -211c37 0 74 5 102 15v199h64v-239zM344 657c0 -25 -20 -45 -45 -45
s-45 19 -45 45c0 24 20 45 45 45s45 -20 45 -45z" />
    <glyph glyph-name="Gcommaaccent.sc" unicode="&#xf04f;" horiz-adv-x="584" 
d="M492 23c-54 -19 -111 -29 -177 -29c-157 0 -266 91 -266 257c0 156 106 275 283 275c51 0 101 -8 151 -23l-13 -55c-47 18 -93 27 -142 27c-111 0 -212 -70 -212 -216c0 -136 85 -211 210 -211c37 0 74 5 102 15v199h64v-239zM305 -50c47 0 86 -80 -43 -189l-25 25
c49 47 51 82 37 102c-19 28 1 62 31 62z" />
    <glyph glyph-name="G.sc.alt1" unicode="&#xf051;" horiz-adv-x="584" 
d="M428 215h-133v50l197 -1v-241c-54 -19 -111 -29 -177 -29c-157 0 -266 91 -266 257c0 156 106 275 283 275c51 0 101 -8 151 -23l-13 -55c-47 18 -93 27 -142 27c-111 0 -212 -70 -212 -216c0 -136 85 -211 210 -211c37 0 74 5 102 15v152z" />
    <glyph glyph-name="Gcircumflex.sc.alt1" unicode="&#xf052;" horiz-adv-x="584" 
d="M428 215h-133v50l197 -1v-241c-54 -19 -111 -29 -177 -29c-157 0 -266 91 -266 257c0 156 106 275 283 275c51 0 101 -8 151 -23l-13 -55c-47 18 -93 27 -142 27c-111 0 -212 -70 -212 -216c0 -136 85 -211 210 -211c37 0 74 5 102 15v152zM430 622l-35 -36l-100 73
l-94 -73l-32 34l128 101z" />
    <glyph glyph-name="Gbreve.sc.alt1" unicode="&#xf054;" horiz-adv-x="584" 
d="M428 215h-133v50l197 -1v-241c-54 -19 -111 -29 -177 -29c-157 0 -266 91 -266 257c0 156 106 275 283 275c51 0 101 -8 151 -23l-13 -55c-47 18 -93 27 -142 27c-111 0 -212 -70 -212 -216c0 -136 85 -211 210 -211c37 0 74 5 102 15v152zM429 716
c0 -64 -36 -121 -118 -121c-81 0 -115 58 -115 121h46c0 -38 24 -72 70 -72c44 0 71 27 71 72h46z" />
    <glyph glyph-name="Gcaron.sc.alt1" unicode="&#xf053;" horiz-adv-x="584" 
d="M428 215h-133v50l197 -1v-241c-54 -19 -111 -29 -177 -29c-157 0 -266 91 -266 257c0 156 106 275 283 275c51 0 101 -8 151 -23l-13 -55c-47 18 -93 27 -142 27c-111 0 -212 -70 -212 -216c0 -136 85 -211 210 -211c37 0 74 5 102 15v152zM442 689l-127 -102l-133 99
l30 36l104 -72l98 72z" />
    <glyph glyph-name="Gdotaccent.sc.alt1" unicode="&#xf056;" horiz-adv-x="584" 
d="M428 215h-133v50l197 -1v-241c-54 -19 -111 -29 -177 -29c-157 0 -266 91 -266 257c0 156 106 275 283 275c51 0 101 -8 151 -23l-13 -55c-47 18 -93 27 -142 27c-111 0 -212 -70 -212 -216c0 -136 85 -211 210 -211c37 0 74 5 102 15v152zM344 657
c0 -25 -20 -45 -45 -45s-45 19 -45 45c0 24 20 45 45 45s45 -20 45 -45z" />
    <glyph glyph-name="Gcommaaccent.sc.alt1" unicode="&#xf055;" horiz-adv-x="584" 
d="M428 215h-133v50l197 -1v-241c-54 -19 -111 -29 -177 -29c-157 0 -266 91 -266 257c0 156 106 275 283 275c51 0 101 -8 151 -23l-13 -55c-47 18 -93 27 -142 27c-111 0 -212 -70 -212 -216c0 -136 85 -211 210 -211c37 0 74 5 102 15v152zM305 -50c47 0 86 -80 -43 -189
l-25 25c49 47 51 82 37 102c-19 28 1 62 31 62z" />
    <glyph glyph-name="H.sc" unicode="&#xf057;" horiz-adv-x="624" 
d="M523 0h-64v242h-294v-242h-64v520h64v-224h294v224h64v-520z" />
    <glyph glyph-name="Hcircumflex.sc" unicode="&#xf058;" horiz-adv-x="624" 
d="M523 0h-64v242h-294v-242h-64v520h64v-224h294v224h64v-520zM442 622l-35 -36l-100 73l-94 -73l-32 34l128 101z" />
    <glyph glyph-name="Hbar.sc" unicode="&#xf059;" horiz-adv-x="637" 
d="M530 430h70v-48h-70v-382h-64v241h-294v-241h-64v382h-71v48h71v90h64v-90h294v90h64v-90zM466 382h-294v-89h294v89z" />
    <glyph glyph-name="I.sc" unicode="&#xf05a;" horiz-adv-x="266" 
d="M165 0h-64v520h64v-520z" />
    <glyph glyph-name="dotlessi.sc" horiz-adv-x="266" 
d="M165 0h-64v520h64v-520z" />
    <glyph glyph-name="Igrave.sc" unicode="&#xf05c;" horiz-adv-x="266" 
d="M165 0h-64v520h64v-520zM174 617l-31 -34l-127 103l40 43z" />
    <glyph glyph-name="Iacute.sc" unicode="&#xf05d;" horiz-adv-x="266" 
d="M165 0h-64v520h64v-520zM236 686l-127 -103l-31 34l118 112z" />
    <glyph glyph-name="Icircumflex.sc" unicode="&#xf05e;" horiz-adv-x="266" 
d="M165 0h-64v520h64v-520zM262 622l-35 -36l-100 73l-94 -73l-32 34l128 101z" />
    <glyph glyph-name="Itilde.sc" unicode="&#xf05f;" horiz-adv-x="266" 
d="M165 0h-64v520h64v-520zM296 674c-24 -44 -59 -69 -100 -69c-64 0 -86 57 -130 57c-22 0 -44 -16 -63 -48l-33 27c24 44 59 69 100 69c64 0 86 -57 130 -57c22 0 44 16 63 48z" />
    <glyph glyph-name="Idieresis.sc" unicode="&#xf060;" horiz-adv-x="266" 
d="M165 0h-64v520h64v-520zM268 658c0 -24 -19 -43 -43 -43s-43 19 -43 43c0 25 19 43 43 43s43 -18 43 -43zM84 658c0 -24 -19 -43 -43 -43c-25 0 -43 19 -43 43c0 25 18 43 43 43c24 0 43 -18 43 -43z" />
    <glyph glyph-name="Imacron.sc" unicode="&#xf061;" horiz-adv-x="266" 
d="M165 0h-64v520h64v-520zM247 629h-231v48h231v-48z" />
    <glyph glyph-name="Ibreve.sc" unicode="&#xf062;" horiz-adv-x="266" 
d="M165 0h-64v520h64v-520zM250 716c0 -64 -36 -121 -118 -121c-81 0 -115 58 -115 121h46c0 -38 24 -72 70 -72c44 0 71 27 71 72h46z" />
    <glyph glyph-name="Idotaccent.sc" unicode="&#xf063;" horiz-adv-x="266" 
d="M165 0h-64v520h64v-520zM179 658c0 -25 -20 -45 -45 -45s-45 19 -45 45c0 24 20 45 45 45s45 -20 45 -45z" />
    <glyph glyph-name="Iogonek.sc" unicode="&#xf064;" horiz-adv-x="266" 
d="M189 -142c-23 -40 -59 -62 -100 -62c-50 0 -80 25 -80 71c0 57 48 108 92 137v516h64v-520c-61 -41 -89 -80 -89 -114c0 -24 13 -35 35 -35c15 0 31 11 45 33z" />
    <glyph glyph-name="IJ.sc" unicode="&#xf065;" horiz-adv-x="587" 
d="M165 0h-64v520h64v-520zM486 149c0 -103 -36 -155 -135 -155c-22 0 -39 3 -56 8v58c16 -5 35 -10 58 -10c49 0 69 25 69 102v368h64v-371z" />
    <glyph glyph-name="IJ.sc.alt1" unicode="&#xe010;" horiz-adv-x="539" 
d="M165 0h-64v520h64v-520zM327 -156l-26 42c54 27 73 63 73 134v500h64v-492c0 -83 -18 -143 -111 -184z" />
    <glyph glyph-name="J.sc" unicode="&#xf066;" horiz-adv-x="321" 
d="M220 149c0 -103 -36 -155 -135 -155c-22 0 -39 3 -56 8v58c16 -5 35 -10 58 -10c49 0 69 25 69 102v368h64v-371z" />
    <glyph glyph-name="J.sc.alt1" unicode="&#xe011;" horiz-adv-x="266" 
d="M54 -156l-26 42c54 27 73 63 73 134v500h64v-492c0 -83 -18 -143 -111 -184z" />
    <glyph glyph-name="Jcircumflex.sc" unicode="&#xf067;" horiz-adv-x="321" 
d="M220 149c0 -103 -36 -155 -135 -155c-22 0 -39 3 -56 8v58c16 -5 35 -10 58 -10c49 0 69 25 69 102v368h64v-371zM314 622l-35 -36l-100 73l-94 -73l-32 34l128 101z" />
    <glyph glyph-name="Jcircumflex.sc.alt1" unicode="&#xe012;" horiz-adv-x="266" 
d="M54 -156l-26 42c54 27 73 63 73 134v500h64v-492c0 -83 -18 -143 -111 -184zM264 622l-35 -36l-100 73l-94 -73l-32 34l128 101z" />
    <glyph glyph-name="K.sc" unicode="&#xf068;" horiz-adv-x="519" 
d="M490 0h-88l-237 262v-262h-64v520h64v-250l234 250h82l-243 -251z" />
    <glyph glyph-name="Kcommaaccent.sc" unicode="&#xf069;" horiz-adv-x="519" 
d="M490 0h-88l-237 262v-262h-64v520h64v-250l234 250h82l-243 -251zM279 -50c47 0 86 -80 -43 -189l-25 25c49 47 51 82 37 102c-19 28 1 62 31 62z" />
    <glyph glyph-name="L.sc" unicode="&#xf06a;" horiz-adv-x="387" 
d="M363 0h-262v520h64v-468h198v-52z" />
    <glyph glyph-name="Lacute.sc" unicode="&#xf06b;" horiz-adv-x="387" 
d="M363 0h-262v520h64v-468h198v-52zM298 686l-127 -103l-31 34l118 112z" />
    <glyph glyph-name="Lcaron.sc" unicode="&#xf06c;" horiz-adv-x="387" 
d="M363 0h-262v520h64v-468h198v-52zM369 584l-116 -132l-37 27l104 138z" />
    <glyph glyph-name="Lcommaaccent.sc" unicode="&#xf06d;" horiz-adv-x="387" 
d="M363 0h-262v520h64v-468h198v-52zM236 -50c47 0 86 -80 -43 -189l-25 25c49 47 51 82 37 102c-19 28 1 62 31 62z" />
    <glyph glyph-name="Lslash.sc" unicode="&#xf06e;" horiz-adv-x="395" 
d="M372 0h-263v279l-66 -30l-16 44l82 38v189h64v-160l91 41l16 -44l-107 -48v-257h199v-52z" />
    <glyph glyph-name="Ldot.sc" unicode="&#xf06f;" horiz-adv-x="387" 
d="M363 0h-262v520h64v-468h198v-52zM424 299c0 -29 -23 -51 -51 -51c-29 0 -51 22 -51 51s22 51 51 51c28 0 51 -22 51 -51z" />
    <glyph glyph-name="M.sc" unicode="&#xf070;" horiz-adv-x="778" 
d="M701 0h-67l-44 317c-9 63 -13 105 -16 132h-1c-5 -22 -14 -52 -26 -86l-128 -363h-70l-119 340c-12 38 -23 72 -33 109h-1c-2 -40 -7 -82 -14 -134l-41 -315h-64l77 520h79l122 -351c11 -30 21 -62 30 -99h1c9 30 17 57 28 87l127 363h85z" />
    <glyph glyph-name="N.sc" unicode="&#xf071;" horiz-adv-x="632" 
d="M531 0h-84l-225 341c-23 36 -46 73 -63 107h-1c2 -37 5 -80 5 -146v-302h-62v520h83l222 -337c22 -35 46 -72 66 -108h1c-3 37 -5 102 -5 195l-1 250h64v-520z" />
    <glyph glyph-name="Nacute.sc" unicode="&#xf072;" horiz-adv-x="632" 
d="M531 0h-84l-225 341c-23 36 -46 73 -63 107h-1c2 -37 5 -80 5 -146v-302h-62v520h83l222 -337c22 -35 46 -72 66 -108h1c-3 37 -5 102 -5 195l-1 250h64v-520zM448 686l-127 -103l-31 34l118 112z" />
    <glyph glyph-name="Ncaron.sc" unicode="&#xf073;" horiz-adv-x="632" 
d="M531 0h-84l-225 341c-23 36 -46 73 -63 107h-1c2 -37 5 -80 5 -146v-302h-62v520h83l222 -337c22 -35 46 -72 66 -108h1c-3 37 -5 102 -5 195l-1 250h64v-520zM447 689l-127 -102l-133 99l30 36l104 -72l98 72z" />
    <glyph glyph-name="Ntilde.sc" unicode="&#xf074;" horiz-adv-x="632" 
d="M531 0h-84l-225 341c-23 36 -46 73 -63 107h-1c2 -37 5 -80 5 -146v-302h-62v520h83l222 -337c22 -35 46 -72 66 -108h1c-3 37 -5 102 -5 195l-1 250h64v-520zM484 674c-24 -44 -59 -69 -100 -69c-64 0 -86 57 -130 57c-22 0 -44 -16 -63 -48l-33 27c24 44 59 69 100 69
c64 0 86 -57 130 -57c22 0 44 16 63 48z" />
    <glyph glyph-name="Ncommaaccent.sc" unicode="&#xf075;" horiz-adv-x="632" 
d="M531 0h-84l-225 341c-23 36 -46 73 -63 107h-1c2 -37 5 -80 5 -146v-302h-62v520h83l222 -337c22 -35 46 -72 66 -108h1c-3 37 -5 102 -5 195l-1 250h64v-520zM313 -50c47 0 86 -80 -43 -189l-25 25c49 47 51 82 37 102c-19 28 1 62 31 62z" />
    <glyph glyph-name="Napostrophe.sc" unicode="&#xf077;" horiz-adv-x="660" 
d="M559 0h-84l-225 341c-23 36 -46 73 -63 107h-1c2 -37 5 -80 5 -146v-302h-62v520h83l222 -337c22 -35 46 -72 66 -108h1c-3 37 -5 102 -5 195l-1 250h64v-520zM77 742c58 0 84 -103 -48 -229l-29 25c61 66 62 114 44 137c-21 29 -1 67 33 67z" />
    <glyph glyph-name="Eng.sc" unicode="&#xf076;" horiz-adv-x="630" 
d="M529 520v-512c0 -125 -51 -185 -164 -211l-15 49c78 18 115 58 115 152l-246 352c-24 34 -44 65 -61 97c4 -61 6 -204 6 -301v-146h-63v520h80l236 -341c19 -27 36 -51 55 -85c-3 72 -6 192 -6 293v133h63z" />
    <glyph glyph-name="O.sc" unicode="&#xf078;" horiz-adv-x="601" 
d="M549 268c0 -177 -117 -275 -256 -275c-157 0 -241 98 -241 259c0 177 117 275 256 275c157 0 241 -98 241 -259zM481 260c0 138 -67 215 -178 215c-101 0 -183 -74 -183 -215c0 -138 67 -214 178 -214c101 0 183 73 183 214z" />
    <glyph glyph-name="Ograve.sc" unicode="&#xf079;" horiz-adv-x="601" 
d="M549 268c0 -177 -117 -275 -256 -275c-157 0 -241 98 -241 259c0 177 117 275 256 275c157 0 241 -98 241 -259zM481 260c0 138 -67 215 -178 215c-101 0 -183 -74 -183 -215c0 -138 67 -214 178 -214c101 0 183 73 183 214zM331 617l-31 -34l-127 103l40 43z" />
    <glyph glyph-name="Oacute.sc" unicode="&#xf07a;" horiz-adv-x="601" 
d="M549 268c0 -177 -117 -275 -256 -275c-157 0 -241 98 -241 259c0 177 117 275 256 275c157 0 241 -98 241 -259zM481 260c0 138 -67 215 -178 215c-101 0 -183 -74 -183 -215c0 -138 67 -214 178 -214c101 0 183 73 183 214zM423 686l-127 -103l-31 34l118 112z" />
    <glyph glyph-name="Ocircumflex.sc" unicode="&#xf07b;" horiz-adv-x="601" 
d="M549 268c0 -177 -117 -275 -256 -275c-157 0 -241 98 -241 259c0 177 117 275 256 275c157 0 241 -98 241 -259zM481 260c0 138 -67 215 -178 215c-101 0 -183 -74 -183 -215c0 -138 67 -214 178 -214c101 0 183 73 183 214zM434 622l-35 -36l-100 73l-94 -73l-32 34
l128 101z" />
    <glyph glyph-name="Otilde.sc" unicode="&#xf07c;" horiz-adv-x="601" 
d="M549 268c0 -177 -117 -275 -256 -275c-157 0 -241 98 -241 259c0 177 117 275 256 275c157 0 241 -98 241 -259zM481 260c0 138 -67 215 -178 215c-101 0 -183 -74 -183 -215c0 -138 67 -214 178 -214c101 0 183 73 183 214zM466 674c-24 -44 -59 -69 -100 -69
c-64 0 -86 57 -130 57c-22 0 -44 -16 -63 -48l-33 27c24 44 59 69 100 69c64 0 86 -57 130 -57c22 0 44 16 63 48z" />
    <glyph glyph-name="Odieresis.sc" unicode="&#xf07d;" horiz-adv-x="601" 
d="M549 268c0 -177 -117 -275 -256 -275c-157 0 -241 98 -241 259c0 177 117 275 256 275c157 0 241 -98 241 -259zM481 260c0 138 -67 215 -178 215c-101 0 -183 -74 -183 -215c0 -138 67 -214 178 -214c101 0 183 73 183 214zM434 658c0 -24 -19 -43 -43 -43
s-43 19 -43 43c0 25 19 43 43 43s43 -18 43 -43zM250 658c0 -24 -19 -43 -43 -43c-25 0 -43 19 -43 43c0 25 18 43 43 43c24 0 43 -18 43 -43z" />
    <glyph glyph-name="Omacron.sc" unicode="&#xf07e;" horiz-adv-x="601" 
d="M549 268c0 -177 -117 -275 -256 -275c-157 0 -241 98 -241 259c0 177 117 275 256 275c157 0 241 -98 241 -259zM481 260c0 138 -67 215 -178 215c-101 0 -183 -74 -183 -215c0 -138 67 -214 178 -214c101 0 183 73 183 214zM419 629h-231v48h231v-48z" />
    <glyph glyph-name="Obreve.sc" unicode="&#xf07f;" horiz-adv-x="601" 
d="M549 268c0 -177 -117 -275 -256 -275c-157 0 -241 98 -241 259c0 177 117 275 256 275c157 0 241 -98 241 -259zM481 260c0 138 -67 215 -178 215c-101 0 -183 -74 -183 -215c0 -138 67 -214 178 -214c101 0 183 73 183 214zM417 716c0 -64 -36 -121 -118 -121
c-81 0 -115 58 -115 121h46c0 -38 24 -72 70 -72c44 0 71 27 71 72h46z" />
    <glyph glyph-name="Ohungarumlaut.sc" unicode="&#xf080;" horiz-adv-x="601" 
d="M549 268c0 -177 -117 -275 -256 -275c-157 0 -241 98 -241 259c0 177 117 275 256 275c157 0 241 -98 241 -259zM481 260c0 138 -67 215 -178 215c-101 0 -183 -74 -183 -215c0 -138 67 -214 178 -214c101 0 183 73 183 214zM522 689l-130 -106l-33 32l122 115zM350 690
l-113 -107l-33 32l104 116z" />
    <glyph glyph-name="Oslash.sc" unicode="&#xf081;" horiz-adv-x="601" 
d="M549 268c0 -177 -117 -275 -256 -275c-27 0 -53 3 -69 8l-35 -92l-48 17l35 91c-86 40 -124 128 -124 235c0 174 115 275 256 275c20 0 42 -2 61 -5l32 82l48 -17l-31 -80c85 -36 131 -119 131 -239zM396 451l-152 -398c17 -4 35 -7 56 -7c99 0 182 72 182 214
c0 87 -27 157 -86 191zM198 74l151 396c-15 3 -32 5 -48 5c-99 0 -182 -74 -182 -215c0 -83 24 -151 79 -186z" />
    <glyph glyph-name="Oslashacute.sc" unicode="&#xf082;" horiz-adv-x="601" 
d="M549 268c0 -177 -117 -275 -256 -275c-27 0 -53 3 -69 8l-35 -92l-48 17l35 91c-86 40 -124 128 -124 235c0 174 115 275 256 275c20 0 42 -2 61 -5l32 82l48 -17l-31 -80c85 -36 131 -119 131 -239zM396 451l-152 -398c17 -4 35 -7 56 -7c99 0 182 72 182 214
c0 87 -27 157 -86 191zM198 74l151 396c-15 3 -32 5 -48 5c-99 0 -182 -74 -182 -215c0 -83 24 -151 79 -186zM408 706l-127 -103l-31 34l118 112z" />
    <glyph glyph-name="OE.sc" unicode="&#xf083;" horiz-adv-x="719" 
d="M645 0h-272c-25 -4 -51 -7 -82 -7c-167 0 -239 107 -239 261c0 172 115 273 254 273c28 0 49 -3 74 -7h265v-50h-211v-178h202v-48h-202v-193h211v-51zM371 55v411c-25 7 -50 9 -74 9c-91 0 -177 -78 -177 -210s57 -219 183 -219c19 0 44 2 68 9z" />
    <glyph glyph-name="P.sc" unicode="&#xf084;" horiz-adv-x="473" 
d="M431 368c0 -107 -84 -178 -215 -178c-17 0 -36 1 -51 3v-193h-64v520c38 1 84 2 141 2c118 0 189 -60 189 -154zM363 361c0 66 -45 109 -132 109c-30 0 -49 0 -66 -1v-222c15 -3 38 -5 56 -5c90 0 142 40 142 119z" />
    <glyph glyph-name="Thorn.sc" unicode="&#xf085;" horiz-adv-x="470" 
d="M442 280c0 -111 -102 -178 -223 -178c-19 0 -37 1 -54 3v-105h-64v520h64v-85c23 2 48 3 75 3c121 0 202 -54 202 -158zM373 279c0 62 -44 108 -151 108c-17 0 -38 -1 -57 -4v-226c17 -3 36 -4 55 -4c93 0 153 47 153 126z" />
    <glyph glyph-name="Q.sc" unicode="&#xf086;" horiz-adv-x="601" 
d="M408 26c84 2 116 -43 214 -34v-58c-147 -17 -169 59 -312 59h-17c-157 0 -241 98 -241 259c0 177 117 275 256 275c157 0 241 -98 241 -259c0 -68 -18 -126 -47 -167c-23 -31 -58 -60 -94 -75zM481 260c0 138 -67 215 -178 215c-101 0 -183 -74 -183 -215
c0 -138 67 -214 178 -214c101 0 183 73 183 214z" />
    <glyph glyph-name="Q.sc.alt0" unicode="&#xf087;" horiz-adv-x="601" 
d="M644 -170c-157 -20 -229 54 -363 38v58c152 15 213 -55 363 -38v-58zM549 268c0 -177 -117 -275 -256 -275c-157 0 -241 98 -241 259c0 177 117 275 256 275c157 0 241 -98 241 -259zM481 260c0 138 -67 215 -178 215c-101 0 -183 -74 -183 -215c0 -138 67 -214 178 -214
c101 0 183 73 183 214z" />
    <glyph glyph-name="Q.sc.alt1" unicode="&#xf088;" horiz-adv-x="601" 
d="M481 69l110 -117l-44 -39l-110 120c-41 -27 -91 -40 -146 -40c-168 0 -239 112 -239 263c0 173 116 271 254 271c158 0 243 -98 243 -264c0 -82 -25 -148 -68 -194zM439 116c26 34 41 80 41 139c0 143 -68 220 -180 220c-95 0 -180 -74 -180 -212
c0 -116 44 -217 176 -217c38 0 72 10 101 30l-77 84l43 38z" />
    <glyph glyph-name="Q.sc.alt2" unicode="&#xf089;" horiz-adv-x="601" 
d="M483 72l114 -119l-45 -39l-115 120c-40 -28 -91 -41 -146 -41c-168 0 -239 112 -239 263c0 173 116 271 254 271c158 0 243 -98 243 -264c0 -81 -25 -146 -66 -191zM480 255c0 143 -68 220 -180 220c-95 0 -180 -74 -180 -212c0 -116 44 -217 176 -217
c105 0 184 73 184 209z" />
    <glyph glyph-name="R.sc" unicode="&#xf08a;" horiz-adv-x="494" 
d="M445 0h-82l-188 238h-10v-238h-64v520c28 1 72 2 132 2c117 0 181 -47 181 -131c0 -95 -80 -148 -169 -150c17 -19 31 -34 48 -54zM347 383c0 61 -47 90 -122 90c-27 0 -44 -1 -60 -3v-184c17 -2 40 -3 63 -3c73 0 119 39 119 100z" />
    <glyph glyph-name="Racute.sc" unicode="&#xf08b;" horiz-adv-x="494" 
d="M445 0h-82l-188 238h-10v-238h-64v520c28 1 72 2 132 2c117 0 181 -47 181 -131c0 -95 -80 -148 -169 -150c17 -19 31 -34 48 -54zM347 383c0 61 -47 90 -122 90c-27 0 -44 -1 -60 -3v-184c17 -2 40 -3 63 -3c73 0 119 39 119 100zM365 686l-127 -103l-31 34l118 112z
" />
    <glyph glyph-name="Rcaron.sc" unicode="&#xf08c;" horiz-adv-x="494" 
d="M445 0h-82l-188 238h-10v-238h-64v520c28 1 72 2 132 2c117 0 181 -47 181 -131c0 -95 -80 -148 -169 -150c17 -19 31 -34 48 -54zM347 383c0 61 -47 90 -122 90c-27 0 -44 -1 -60 -3v-184c17 -2 40 -3 63 -3c73 0 119 39 119 100zM366 689l-127 -102l-133 99l30 36
l104 -72l98 72z" />
    <glyph glyph-name="Rcommaaccent.sc" unicode="&#xf08d;" horiz-adv-x="494" 
d="M445 0h-82l-188 238h-10v-238h-64v520c28 1 72 2 132 2c117 0 181 -47 181 -131c0 -95 -80 -148 -169 -150c17 -19 31 -34 48 -54zM347 383c0 61 -47 90 -122 90c-27 0 -44 -1 -60 -3v-184c17 -2 40 -3 63 -3c73 0 119 39 119 100zM261 -50c47 0 86 -80 -43 -189l-25 25
c49 47 51 82 37 102c-19 28 1 62 31 62z" />
    <glyph glyph-name="S.sc" unicode="&#xf08e;" horiz-adv-x="461" 
d="M399 154c0 -102 -99 -162 -208 -162c-42 0 -94 7 -127 16l11 61c39 -15 76 -22 124 -22c62 0 132 26 132 101c0 121 -270 65 -270 230c0 90 73 149 194 149c32 0 78 -4 109 -10l-9 -57c-28 9 -72 15 -104 15c-87 0 -124 -35 -124 -89c0 -120 272 -63 272 -232z" />
    <glyph glyph-name="Sacute.sc" unicode="&#xf08f;" horiz-adv-x="461" 
d="M399 154c0 -102 -99 -162 -208 -162c-42 0 -94 7 -127 16l11 61c39 -15 76 -22 124 -22c62 0 132 26 132 101c0 121 -270 65 -270 230c0 90 73 149 194 149c32 0 78 -4 109 -10l-9 -57c-28 9 -72 15 -104 15c-87 0 -124 -35 -124 -89c0 -120 272 -63 272 -232zM359 686
l-127 -103l-31 34l118 112z" />
    <glyph glyph-name="Scircumflex.sc" unicode="&#xf090;" horiz-adv-x="461" 
d="M399 154c0 -102 -99 -162 -208 -162c-42 0 -94 7 -127 16l11 61c39 -15 76 -22 124 -22c62 0 132 26 132 101c0 121 -270 65 -270 230c0 90 73 149 194 149c32 0 78 -4 109 -10l-9 -57c-28 9 -72 15 -104 15c-87 0 -124 -35 -124 -89c0 -120 272 -63 272 -232zM361 622
l-35 -36l-100 73l-94 -73l-32 34l128 101z" />
    <glyph glyph-name="Scaron.sc" unicode="&#xf091;" horiz-adv-x="461" 
d="M399 154c0 -102 -99 -162 -208 -162c-42 0 -94 7 -127 16l11 61c39 -15 76 -22 124 -22c62 0 132 26 132 101c0 121 -270 65 -270 230c0 90 73 149 194 149c32 0 78 -4 109 -10l-9 -57c-28 9 -72 15 -104 15c-87 0 -124 -35 -124 -89c0 -120 272 -63 272 -232zM359 689
l-127 -102l-133 99l30 36l104 -72l98 72z" />
    <glyph glyph-name="Scedilla.sc" unicode="&#xf092;" horiz-adv-x="461" 
d="M399 154c0 -102 -99 -162 -208 -162c-42 0 -94 7 -127 16l11 61c39 -15 76 -22 124 -22c62 0 132 26 132 101c0 121 -270 65 -270 230c0 90 73 149 194 149c32 0 78 -4 109 -10l-9 -57c-28 9 -72 15 -104 15c-87 0 -124 -35 -124 -89c0 -120 272 -63 272 -232zM244 -41
c51 -64 35 -125 -22 -195h-56c55 70 68 112 21 168z" />
    <glyph glyph-name="Scommaaccent.sc" unicode="&#xf093;" horiz-adv-x="461" 
d="M399 154c0 -102 -99 -162 -208 -162c-42 0 -94 7 -127 16l11 61c39 -15 76 -22 124 -22c62 0 132 26 132 101c0 121 -270 65 -270 230c0 90 73 149 194 149c32 0 78 -4 109 -10l-9 -57c-28 9 -72 15 -104 15c-87 0 -124 -35 -124 -89c0 -120 272 -63 272 -232zM228 -50
c47 0 86 -80 -43 -189l-25 25c49 47 51 82 37 102c-19 28 1 62 31 62z" />
    <glyph glyph-name="S_S.sc" unicode="&#xf094;" horiz-adv-x="922" 
d="M399 154c0 -102 -99 -162 -208 -162c-42 0 -94 7 -127 16l11 61c39 -15 76 -22 124 -22c62 0 132 26 132 101c0 121 -270 65 -270 230c0 90 73 149 194 149c32 0 78 -4 109 -10l-9 -57c-28 9 -72 15 -104 15c-87 0 -124 -35 -124 -89c0 -120 272 -63 272 -232zM860 154
c0 -102 -99 -162 -208 -162c-42 0 -94 7 -127 16l11 61c39 -15 76 -22 124 -22c62 0 132 26 132 101c0 121 -270 65 -270 230c0 90 73 149 194 149c32 0 78 -4 109 -10l-9 -57c-28 9 -72 15 -104 15c-87 0 -124 -35 -124 -89c0 -120 272 -63 272 -232z" />
    <glyph glyph-name="T.sc" unicode="&#xf095;" horiz-adv-x="425" 
d="M405 468h-161v-468h-64v468h-160v52h385v-52z" />
    <glyph glyph-name="Tcaron.sc" unicode="&#xf096;" horiz-adv-x="425" 
d="M405 468h-161v-468h-64v468h-160v52h385v-52zM340 689l-127 -102l-133 99l30 36l104 -72l98 72z" />
    <glyph glyph-name="Tcommaaccent.sc" unicode="&#xf097;" horiz-adv-x="425" 
d="M405 468h-161v-468h-64v468h-160v52h385v-52zM213 -50c47 0 86 -80 -43 -189l-25 25c49 47 51 82 37 102c-19 28 1 62 31 62z" />
    <glyph glyph-name="uni0162.sc" unicode="&#xf098;" horiz-adv-x="461" 
d="M405 468h-161v-468h-64v468h-160v52h385v-52zM233 -41c51 -64 35 -125 -22 -195h-56c55 70 68 112 21 168z" />
    <glyph glyph-name="Tbar.sc" unicode="&#xf099;" horiz-adv-x="425" 
d="M405 468h-161v-180h106v-48h-106v-240h-64v240h-106v48h106v180h-160v52h385v-52z" />
    <glyph glyph-name="U.sc" unicode="&#xf09a;" horiz-adv-x="633" 
d="M532 197c0 -109 -63 -204 -221 -204c-135 0 -210 63 -210 184v343h64v-336c0 -95 57 -139 152 -139c112 0 152 63 152 152v323h63v-323z" />
    <glyph glyph-name="Ugrave.sc" unicode="&#xf09b;" horiz-adv-x="633" 
d="M532 197c0 -109 -63 -204 -221 -204c-135 0 -210 63 -210 184v343h64v-336c0 -95 57 -139 152 -139c112 0 152 63 152 152v323h63v-323zM345 617l-31 -34l-127 103l40 43z" />
    <glyph glyph-name="Uacute.sc" unicode="&#xf09c;" horiz-adv-x="633" 
d="M532 197c0 -109 -63 -204 -221 -204c-135 0 -210 63 -210 184v343h64v-336c0 -95 57 -139 152 -139c112 0 152 63 152 152v323h63v-323zM445 686l-127 -103l-31 34l118 112z" />
    <glyph glyph-name="Ucircumflex.sc" unicode="&#xf09d;" horiz-adv-x="633" 
d="M532 197c0 -109 -63 -204 -221 -204c-135 0 -210 63 -210 184v343h64v-336c0 -95 57 -139 152 -139c112 0 152 63 152 152v323h63v-323zM449 622l-35 -36l-100 73l-94 -73l-32 34l128 101z" />
    <glyph glyph-name="Utilde.sc" unicode="&#xf09e;" horiz-adv-x="633" 
d="M532 197c0 -109 -63 -204 -221 -204c-135 0 -210 63 -210 184v343h64v-336c0 -95 57 -139 152 -139c112 0 152 63 152 152v323h63v-323zM480 674c-24 -44 -59 -69 -100 -69c-64 0 -86 57 -130 57c-22 0 -44 -16 -63 -48l-33 27c24 44 59 69 100 69c64 0 86 -57 130 -57
c22 0 44 16 63 48z" />
    <glyph glyph-name="Udieresis.sc" unicode="&#xf09f;" horiz-adv-x="633" 
d="M532 197c0 -109 -63 -204 -221 -204c-135 0 -210 63 -210 184v343h64v-336c0 -95 57 -139 152 -139c112 0 152 63 152 152v323h63v-323zM453 658c0 -24 -19 -43 -43 -43s-43 19 -43 43c0 25 19 43 43 43s43 -18 43 -43zM269 658c0 -24 -19 -43 -43 -43
c-25 0 -43 19 -43 43c0 25 18 43 43 43c24 0 43 -18 43 -43z" />
    <glyph glyph-name="Umacron.sc" unicode="&#xf0a0;" horiz-adv-x="633" 
d="M532 197c0 -109 -63 -204 -221 -204c-135 0 -210 63 -210 184v343h64v-336c0 -95 57 -139 152 -139c112 0 152 63 152 152v323h63v-323zM433 629h-231v48h231v-48z" />
    <glyph glyph-name="Ubreve.sc" unicode="&#xf0a1;" horiz-adv-x="633" 
d="M532 197c0 -109 -63 -204 -221 -204c-135 0 -210 63 -210 184v343h64v-336c0 -95 57 -139 152 -139c112 0 152 63 152 152v323h63v-323zM433 716c0 -64 -36 -121 -118 -121c-81 0 -115 58 -115 121h46c0 -38 24 -72 70 -72c44 0 71 27 71 72h46z" />
    <glyph glyph-name="Uring.sc" unicode="&#xf0a2;" horiz-adv-x="633" 
d="M532 197c0 -109 -63 -204 -221 -204c-135 0 -210 63 -210 184v343h64v-336c0 -95 57 -139 152 -139c112 0 152 63 152 152v323h63v-323zM421 654c0 -54 -46 -101 -103 -101c-58 0 -104 42 -104 101c0 57 48 101 104 101c59 0 103 -44 103 -101zM375 654
c0 33 -25 59 -57 59c-33 0 -58 -26 -58 -59c0 -32 25 -59 58 -59c32 0 57 27 57 59z" />
    <glyph glyph-name="Uhungarumlaut.sc" unicode="&#xf0a3;" horiz-adv-x="633" 
d="M532 197c0 -109 -63 -204 -221 -204c-135 0 -210 63 -210 184v343h64v-336c0 -95 57 -139 152 -139c112 0 152 63 152 152v323h63v-323zM524 689l-130 -106l-33 32l122 115zM352 690l-113 -107l-33 32l104 116z" />
    <glyph glyph-name="Uogonek.sc" unicode="&#xf0a4;" horiz-adv-x="633" 
d="M428 16c-59 -31 -113 -82 -113 -130c0 -24 13 -35 34 -35c16 0 31 11 46 33l32 -26c-23 -40 -58 -62 -100 -62c-50 0 -79 25 -79 71c0 50 38 98 76 126h-15c-134 1 -208 64 -208 184v343h64v-336c0 -95 57 -139 152 -139c112 0 152 63 152 152v323h63v-323
c0 -83 -34 -145 -104 -181z" />
    <glyph glyph-name="V.sc" unicode="&#xf0a5;" horiz-adv-x="520" 
d="M505 520l-212 -520h-71l-206 520h73l125 -329c17 -45 32 -88 45 -126h1c13 42 31 86 47 127l131 328h67z" />
    <glyph glyph-name="W.sc" unicode="&#xf0a6;" horiz-adv-x="875" 
d="M843 520l-172 -520h-81l-117 332c-14 37 -27 78 -40 119h-1c-11 -41 -24 -82 -39 -124l-112 -327h-80l-167 520h74l107 -343c13 -44 23 -80 30 -112h1c9 35 20 74 33 114l119 341h78l119 -340c12 -36 26 -80 35 -116h1c10 34 22 75 35 115l106 341h71z" />
    <glyph glyph-name="Wgrave.sc" unicode="&#xf0a7;" horiz-adv-x="875" 
d="M843 520l-172 -520h-81l-117 332c-14 37 -27 78 -40 119h-1c-11 -41 -24 -82 -39 -124l-112 -327h-80l-167 520h74l107 -343c13 -44 23 -80 30 -112h1c9 35 20 74 33 114l119 341h78l119 -340c12 -36 26 -80 35 -116h1c10 34 22 75 35 115l106 341h71zM467 617l-31 -34
l-127 103l40 43z" />
    <glyph glyph-name="Wacute.sc" unicode="&#xf0a8;" horiz-adv-x="875" 
d="M843 520l-172 -520h-81l-117 332c-14 37 -27 78 -40 119h-1c-11 -41 -24 -82 -39 -124l-112 -327h-80l-167 520h74l107 -343c13 -44 23 -80 30 -112h1c9 35 20 74 33 114l119 341h78l119 -340c12 -36 26 -80 35 -116h1c10 34 22 75 35 115l106 341h71zM558 686l-127 -103
l-31 34l118 112z" />
    <glyph glyph-name="Wcircumflex.sc" unicode="&#xf0a9;" horiz-adv-x="875" 
d="M843 520l-172 -520h-81l-117 332c-14 37 -27 78 -40 119h-1c-11 -41 -24 -82 -39 -124l-112 -327h-80l-167 520h74l107 -343c13 -44 23 -80 30 -112h1c9 35 20 74 33 114l119 341h78l119 -340c12 -36 26 -80 35 -116h1c10 34 22 75 35 115l106 341h71zM569 622l-35 -36
l-100 73l-94 -73l-32 34l128 101z" />
    <glyph glyph-name="Wdieresis.sc" unicode="&#xf0aa;" horiz-adv-x="875" 
d="M843 520l-172 -520h-81l-117 332c-14 37 -27 78 -40 119h-1c-11 -41 -24 -82 -39 -124l-112 -327h-80l-167 520h74l107 -343c13 -44 23 -80 30 -112h1c9 35 20 74 33 114l119 341h78l119 -340c12 -36 26 -80 35 -116h1c10 34 22 75 35 115l106 341h71zM573 658
c0 -24 -19 -43 -43 -43s-43 19 -43 43c0 25 19 43 43 43s43 -18 43 -43zM389 658c0 -24 -19 -43 -43 -43c-25 0 -43 19 -43 43c0 25 18 43 43 43c24 0 43 -18 43 -43z" />
    <glyph glyph-name="X.sc" unicode="&#xf0ab;" horiz-adv-x="565" 
d="M523 0h-88l-156 218l-158 -218h-81l204 260l-195 260h83l151 -213l155 213h76l-194 -257z" />
    <glyph glyph-name="Y.sc" unicode="&#xf0ac;" horiz-adv-x="454" 
d="M440 520l-182 -334v-186h-64v186l-180 334h71l97 -183c16 -32 31 -62 44 -95h1c15 35 33 70 50 102l96 176h67z" />
    <glyph glyph-name="Ygrave.sc" unicode="&#xf0ad;" horiz-adv-x="454" 
d="M440 520l-182 -334v-186h-64v186l-180 334h71l97 -183c16 -32 31 -62 44 -95h1c15 35 33 70 50 102l96 176h67zM254 617l-31 -34l-127 103l40 43z" />
    <glyph glyph-name="Yacute.sc" unicode="&#xf0ae;" horiz-adv-x="454" 
d="M440 520l-182 -334v-186h-64v186l-180 334h71l97 -183c16 -32 31 -62 44 -95h1c15 35 33 70 50 102l96 176h67zM336 686l-127 -103l-31 34l118 112z" />
    <glyph glyph-name="Ycircumflex.sc" unicode="&#xf0af;" horiz-adv-x="454" 
d="M440 520l-182 -334v-186h-64v186l-180 334h71l97 -183c16 -32 31 -62 44 -95h1c15 35 33 70 50 102l96 176h67zM357 622l-35 -36l-100 73l-94 -73l-32 34l128 101z" />
    <glyph glyph-name="Ydieresis.sc" unicode="&#xf0b0;" horiz-adv-x="454" 
d="M440 520l-182 -334v-186h-64v186l-180 334h71l97 -183c16 -32 31 -62 44 -95h1c15 35 33 70 50 102l96 176h67zM362 658c0 -24 -19 -43 -43 -43s-43 19 -43 43c0 25 19 43 43 43s43 -18 43 -43zM178 658c0 -24 -19 -43 -43 -43c-25 0 -43 19 -43 43c0 25 18 43 43 43
c24 0 43 -18 43 -43z" />
    <glyph glyph-name="Z.sc" unicode="&#xf0b1;" horiz-adv-x="491" 
d="M431 0h-372v45l249 353c17 25 31 45 48 68c-29 -1 -71 -2 -127 -2h-161v56h360v-47l-260 -369c-12 -18 -24 -35 -34 -48c17 2 73 2 135 2h162v-58z" />
    <glyph glyph-name="Zacute.sc" unicode="&#xf0b2;" horiz-adv-x="491" 
d="M431 0h-372v45l249 353c17 25 31 45 48 68c-29 -1 -71 -2 -127 -2h-161v56h360v-47l-260 -369c-12 -18 -24 -35 -34 -48c17 2 73 2 135 2h162v-58zM377 686l-127 -103l-31 34l118 112z" />
    <glyph glyph-name="Zcaron.sc" unicode="&#xf0b3;" horiz-adv-x="491" 
d="M431 0h-372v45l249 353c17 25 31 45 48 68c-29 -1 -71 -2 -127 -2h-161v56h360v-47l-260 -369c-12 -18 -24 -35 -34 -48c17 2 73 2 135 2h162v-58zM375 689l-127 -102l-133 99l30 36l104 -72l98 72z" />
    <glyph glyph-name="Zdotaccent.sc" unicode="&#xf0b4;" horiz-adv-x="491" 
d="M431 0h-372v45l249 353c17 25 31 45 48 68c-29 -1 -71 -2 -127 -2h-161v56h360v-47l-260 -369c-12 -18 -24 -35 -34 -48c17 2 73 2 135 2h162v-58zM291 656c0 -25 -20 -45 -45 -45s-45 19 -45 45c0 24 20 45 45 45s45 -20 45 -45z" />
    <glyph glyph-name="LatinCapitals" unicode="&#xf0b5;" horiz-adv-x="1169" 
d="M553 333h-49l-29 99h-146l-28 -99h-46l119 402h59zM603 -180h-49l-29 99h-146l-28 -99h-45l118 402h59zM1115 333h-61l-127 276c-11 23 -20 46 -30 75h-1c1 -49 3 -125 3 -229v-122h-43v402h63l125 -274c10 -19 22 -49 30 -72h1c-2 57 -3 166 -3 241v105h43v-402z
M880 106c0 -78 -49 -129 -132 -129c-9 0 -19 0 -27 1v-158h-45v402c25 1 54 1 80 1c85 0 124 -45 124 -117zM275 -164c-24 -12 -56 -21 -92 -21c-100 0 -147 73 -147 198c0 121 46 213 157 213c28 0 55 -6 79 -15l-11 -38c-23 11 -46 16 -69 16c-78 0 -108 -76 -108 -170
c0 -105 34 -166 108 -166c28 0 52 8 72 18zM781 698h-99v-365h-44v365h-99v37h242v-37zM221 333h-166v402h45v-365h121v-37zM833 101c0 55 -25 86 -82 86h-30v-173c8 -1 19 -2 30 -2c57 0 82 34 82 89zM516 -45l-49 166c-6 21 -10 39 -15 60c-3 -19 -8 -38 -14 -58l-49 -168
h127zM466 468l-49 166c-6 21 -10 39 -15 60c-3 -19 -8 -38 -14 -58l-49 -168h127z" />
    <glyph glyph-name="A" unicode="A" horiz-adv-x="608" 
d="M592 0h-74l-61 172h-311l-63 -172h-67l254 675h69zM438 224l-106 291c-12 33 -22 62 -30 90h-1c-9 -28 -19 -57 -30 -88l-107 -293h274z" />
    <glyph glyph-name="Agrave" unicode="&#xc0;" horiz-adv-x="608" 
d="M592 0h-74l-61 172h-311l-63 -172h-67l254 675h69zM438 224l-106 291c-12 33 -22 62 -30 90h-1c-9 -28 -19 -57 -30 -88l-107 -293h274zM355 770l-15 -38l-171 58l23 54z" />
    <glyph glyph-name="Aacute" unicode="&#xc1;" horiz-adv-x="608" 
d="M592 0h-74l-61 172h-311l-63 -172h-67l254 675h69zM438 224l-106 291c-12 33 -22 62 -30 90h-1c-9 -28 -19 -57 -30 -88l-107 -293h274zM430 790l-172 -58l-15 38l164 74z" />
    <glyph glyph-name="Acircumflex" unicode="&#xc2;" horiz-adv-x="608" 
d="M592 0h-74l-61 172h-311l-63 -172h-67l254 675h69zM438 224l-106 291c-12 33 -22 62 -30 90h-1c-9 -28 -19 -57 -30 -88l-107 -293h274zM457 772l-24 -42l-134 64l-129 -64l-20 39l152 83z" />
    <glyph glyph-name="Atilde" unicode="&#xc3;" horiz-adv-x="608" 
d="M592 0h-74l-61 172h-311l-63 -172h-67l254 675h69zM438 224l-106 291c-12 33 -22 62 -30 90h-1c-9 -28 -19 -57 -30 -88l-107 -293h274zM476 807c-25 -42 -60 -67 -103 -67c-67 0 -90 56 -136 56c-23 0 -47 -16 -65 -47l-35 26c24 43 60 67 103 67c67 0 89 -55 135 -55
c24 0 47 15 66 46z" />
    <glyph glyph-name="Adieresis" unicode="&#xc4;" horiz-adv-x="608" 
d="M592 0h-74l-61 172h-311l-63 -172h-67l254 675h69zM438 224l-106 291c-12 33 -22 62 -30 90h-1c-9 -28 -19 -57 -30 -88l-107 -293h274zM451 777c0 -24 -18 -42 -42 -42s-43 18 -43 42s19 43 43 43s42 -19 42 -43zM239 777c0 -24 -19 -42 -43 -42s-42 18 -42 42
s18 43 42 43s43 -19 43 -43z" />
    <glyph glyph-name="Amacron" unicode="&#x100;" horiz-adv-x="608" 
d="M592 0h-74l-61 172h-311l-63 -172h-67l254 675h69zM438 224l-106 291c-12 33 -22 62 -30 90h-1c-9 -28 -19 -57 -30 -88l-107 -293h274zM436 753h-264v48h264v-48z" />
    <glyph glyph-name="Abreve" unicode="&#x102;" horiz-adv-x="608" 
d="M592 0h-74l-61 172h-311l-63 -172h-67l254 675h69zM438 224l-106 291c-12 33 -22 62 -30 90h-1c-9 -28 -19 -57 -30 -88l-107 -293h274zM423 847c0 -65 -48 -112 -123 -112c-79 0 -119 50 -119 112h45c0 -36 31 -64 75 -64c47 0 76 28 76 64h46z" />
    <glyph glyph-name="Aring" unicode="&#xc5;" horiz-adv-x="608" 
d="M592 0h-74l-61 172h-311l-63 -172h-67l254 675h69zM438 224l-106 291c-12 33 -22 62 -30 90h-1c-9 -28 -19 -57 -30 -88l-107 -293h274zM407 811c0 -51 -47 -98 -100 -98c-55 0 -98 39 -98 94c0 54 47 97 100 97c55 0 98 -40 98 -93zM360 809c0 29 -23 54 -52 54
c-30 0 -53 -25 -53 -54c0 -30 23 -54 53 -54c29 0 52 24 52 54z" />
    <glyph glyph-name="Aring.alt" unicode="&#xf0b6;" horiz-adv-x="608" 
d="M592 0h-74l-61 172h-311l-63 -172h-67l244 650c-35 15 -58 48 -58 90c0 57 48 101 104 101c59 0 103 -44 103 -101c0 -40 -24 -75 -60 -91zM363 740c0 33 -25 59 -57 59c-33 0 -57 -26 -57 -59c0 -32 24 -59 57 -59c32 0 57 27 57 59zM438 224l-106 291
c-12 33 -22 62 -30 90h-1c-9 -28 -19 -57 -30 -88l-107 -293h274z" />
    <glyph glyph-name="Aringacute" unicode="&#x1fa;" horiz-adv-x="608" 
d="M592 0h-74l-61 172h-311l-63 -172h-67l254 675h69zM438 224l-106 291c-12 33 -22 62 -30 90h-1c-9 -28 -19 -57 -30 -88l-107 -293h274zM404 782c0 -47 -43 -88 -98 -88c-54 0 -96 35 -96 85c0 47 43 87 98 87c54 0 96 -34 96 -84zM359 780c0 28 -23 49 -52 49
s-51 -22 -51 -49s22 -48 51 -48s52 22 52 48zM439 933l-169 -51l-15 32l162 66z" />
    <glyph glyph-name="Aogonek" unicode="&#x104;" horiz-adv-x="608" 
d="M611 -142c-22 -40 -58 -62 -99 -62c-50 0 -80 25 -80 71c0 40 27 93 86 133l-61 172h-311l-63 -172h-67l254 675h69l253 -675c-64 -38 -93 -80 -93 -114c0 -24 13 -35 35 -35c15 0 31 11 45 33zM438 224l-106 291c-12 33 -22 62 -30 90h-1c-9 -28 -19 -57 -30 -88
l-107 -293h274z" />
    <glyph glyph-name="AE" unicode="&#xc6;" horiz-adv-x="777" 
d="M699 0h-338v173h-243l-95 -173h-69l376 675h357v-52h-262v-249h253v-51h-253v-270h274v-53zM361 225v396h-2c-16 -33 -33 -67 -69 -134l-146 -262h217z" />
    <glyph glyph-name="AEacute" unicode="&#x1fc;" horiz-adv-x="777" 
d="M699 0h-338v173h-243l-95 -173h-69l376 675h357v-52h-262v-249h253v-51h-253v-270h274v-53zM361 225v396h-2c-16 -33 -33 -67 -69 -134l-146 -262h217zM618 790l-172 -58l-15 38l164 74z" />
    <glyph glyph-name="B" unicode="B" horiz-adv-x="563" 
d="M504 198c0 -83 -53 -201 -255 -201c-50 0 -102 2 -153 3v675c43 0 98 2 178 2c144 0 209 -62 209 -158c0 -75 -47 -137 -127 -162v-1c90 -9 148 -70 148 -158zM417 508c0 67 -34 118 -154 118c-35 0 -72 -1 -103 -2v-249c22 -1 41 -1 68 -1c126 0 189 49 189 134z
M438 192c0 99 -85 133 -210 133c-13 0 -50 0 -68 -1v-269c20 -3 65 -6 97 -6c128 0 181 63 181 143z" />
    <glyph glyph-name="C" unicode="C" horiz-adv-x="595" 
d="M548 32c-53 -23 -121 -39 -194 -39c-202 0 -302 125 -302 331c0 201 94 358 325 358c53 0 111 -8 161 -23l-12 -59c-51 18 -108 28 -163 28c-173 0 -242 -135 -242 -293c0 -181 80 -286 252 -286c55 0 118 16 162 38z" />
    <glyph glyph-name="Cacute" unicode="&#x106;" horiz-adv-x="595" 
d="M548 32c-53 -23 -121 -39 -194 -39c-202 0 -302 125 -302 331c0 201 94 358 325 358c53 0 111 -8 161 -23l-12 -59c-51 18 -108 28 -163 28c-173 0 -242 -135 -242 -293c0 -181 80 -286 252 -286c55 0 118 16 162 38zM496 790l-172 -58l-15 38l164 74z" />
    <glyph glyph-name="Ccircumflex" unicode="&#x108;" horiz-adv-x="595" 
d="M548 32c-53 -23 -121 -39 -194 -39c-202 0 -302 125 -302 331c0 201 94 358 325 358c53 0 111 -8 161 -23l-12 -59c-51 18 -108 28 -163 28c-173 0 -242 -135 -242 -293c0 -181 80 -286 252 -286c55 0 118 16 162 38zM509 772l-24 -42l-134 64l-129 -64l-20 39l152 83z
" />
    <glyph glyph-name="Ccaron" unicode="&#x10c;" horiz-adv-x="595" 
d="M548 32c-53 -23 -121 -39 -194 -39c-202 0 -302 125 -302 331c0 201 94 358 325 358c53 0 111 -8 161 -23l-12 -59c-51 18 -108 28 -163 28c-173 0 -242 -135 -242 -293c0 -181 80 -286 252 -286c55 0 118 16 162 38zM506 813l-152 -83l-155 80l23 42l135 -65l129 65z
" />
    <glyph glyph-name="Cdotaccent" unicode="&#x10a;" horiz-adv-x="595" 
d="M548 32c-53 -23 -121 -39 -194 -39c-202 0 -302 125 -302 331c0 201 94 358 325 358c53 0 111 -8 161 -23l-12 -59c-51 18 -108 28 -163 28c-173 0 -242 -135 -242 -293c0 -181 80 -286 252 -286c55 0 118 16 162 38zM401 778c0 -24 -20 -44 -45 -44c-24 0 -44 19 -44 44
c0 24 20 44 44 44c25 0 45 -19 45 -44z" />
    <glyph glyph-name="Ccedilla" unicode="&#xc7;" horiz-adv-x="595" 
d="M548 32c-53 -23 -121 -39 -194 -39c-202 0 -302 125 -302 331c0 201 94 358 325 358c53 0 111 -8 161 -23l-12 -59c-51 18 -108 28 -163 28c-173 0 -242 -135 -242 -293c0 -181 80 -286 252 -286c55 0 118 16 162 38zM355 -41c51 -64 35 -125 -22 -195h-56
c55 70 68 112 21 168z" />
    <glyph glyph-name="D" unicode="D" horiz-adv-x="686" 
d="M634 343c0 -232 -159 -346 -380 -346c-67 0 -114 4 -158 3v675c52 0 123 3 189 3c222 0 349 -107 349 -335zM567 339c0 192 -100 287 -290 287c-39 0 -88 -2 -117 -3v-566c30 -4 74 -7 103 -7c180 0 304 89 304 289z" />
    <glyph glyph-name="Dcaron" unicode="&#x10e;" horiz-adv-x="686" 
d="M634 343c0 -232 -159 -346 -380 -346c-67 0 -114 4 -158 3v675c52 0 123 3 189 3c222 0 349 -107 349 -335zM567 339c0 192 -100 287 -290 287c-39 0 -88 -2 -117 -3v-566c30 -4 74 -7 103 -7c180 0 304 89 304 289zM457 813l-152 -83l-155 80l23 42l135 -65l129 65z" />
    <glyph glyph-name="Eth" unicode="&#xd0;" horiz-adv-x="694" 
d="M642 343c0 -231 -158 -346 -380 -346c-67 0 -114 4 -158 3v324h-102v50h102v301c52 0 123 3 190 3c222 0 348 -107 348 -335zM575 339c0 192 -100 287 -290 287c-39 0 -88 -2 -117 -3v-249h159v-50h-159v-267c30 -4 74 -7 103 -7c180 0 304 89 304 289z" />
    <glyph glyph-name="Dcroat" unicode="&#x110;" horiz-adv-x="694" 
d="M642 343c0 -231 -158 -346 -380 -346c-67 0 -114 4 -158 3v324h-102v50h102v301c52 0 123 3 190 3c222 0 348 -107 348 -335zM575 339c0 192 -100 287 -290 287c-39 0 -88 -2 -117 -3v-249h159v-50h-159v-267c30 -4 74 -7 103 -7c180 0 304 89 304 289z" />
    <glyph glyph-name="E" unicode="E" horiz-adv-x="508" 
d="M429 0h-333v675h333v-52h-269v-249h256v-51h-256v-270h269v-53z" />
    <glyph glyph-name="Egrave" unicode="&#xc8;" horiz-adv-x="508" 
d="M429 0h-333v675h333v-52h-269v-249h256v-51h-256v-270h269v-53zM316 770l-15 -38l-171 58l23 54z" />
    <glyph glyph-name="Eacute" unicode="&#xc9;" horiz-adv-x="508" 
d="M429 0h-333v675h333v-52h-269v-249h256v-51h-256v-270h269v-53zM389 790l-172 -58l-15 38l164 74z" />
    <glyph glyph-name="Ecircumflex" unicode="&#xca;" horiz-adv-x="508" 
d="M429 0h-333v675h333v-52h-269v-249h256v-51h-256v-270h269v-53zM416 772l-24 -42l-134 64l-129 -64l-20 39l152 83z" />
    <glyph glyph-name="Ecaron" unicode="&#x11a;" horiz-adv-x="508" 
d="M429 0h-333v675h333v-52h-269v-249h256v-51h-256v-270h269v-53zM411 813l-152 -83l-155 80l23 42l135 -65l129 65z" />
    <glyph glyph-name="Edieresis" unicode="&#xcb;" horiz-adv-x="508" 
d="M429 0h-333v675h333v-52h-269v-249h256v-51h-256v-270h269v-53zM404 777c0 -24 -18 -42 -42 -42s-43 18 -43 42s19 43 43 43s42 -19 42 -43zM192 777c0 -24 -19 -42 -43 -42s-42 18 -42 42s18 43 42 43s43 -19 43 -43z" />
    <glyph glyph-name="Emacron" unicode="&#x112;" horiz-adv-x="508" 
d="M429 0h-333v675h333v-52h-269v-249h256v-51h-256v-270h269v-53zM392 753h-264v48h264v-48z" />
    <glyph glyph-name="Ebreve" unicode="&#x114;" horiz-adv-x="508" 
d="M429 0h-333v675h333v-52h-269v-249h256v-51h-256v-270h269v-53zM386 847c0 -65 -48 -112 -123 -112c-79 0 -119 50 -119 112h45c0 -36 31 -64 75 -64c47 0 76 28 76 64h46z" />
    <glyph glyph-name="Edotaccent" unicode="&#x116;" horiz-adv-x="508" 
d="M429 0h-333v675h333v-52h-269v-249h256v-51h-256v-270h269v-53zM307 778c0 -24 -20 -44 -45 -44c-24 0 -44 19 -44 44c0 24 20 44 44 44c25 0 45 -19 45 -44z" />
    <glyph glyph-name="Eogonek" unicode="&#x118;" horiz-adv-x="508" 
d="M453 -142c-23 -40 -59 -62 -100 -62c-50 0 -83 25 -83 71c0 47 34 101 80 133h-254v675h331v-52h-267v-249h254v-51h-254v-270h273v-49c-52 -17 -93 -75 -93 -118c0 -24 13 -35 35 -35c16 0 31 11 45 33z" />
    <glyph glyph-name="F" unicode="F" horiz-adv-x="471" 
d="M428 623h-268v-250h254v-52h-254v-321h-64v675h332v-52z" />
    <glyph glyph-name="G" unicode="G" horiz-adv-x="687" 
d="M597 29c-68 -25 -149 -37 -217 -37c-205 0 -332 122 -332 333c0 204 118 358 354 358c63 0 123 -10 184 -29l-15 -58c-57 23 -119 34 -178 34c-198 0 -277 -143 -277 -294c0 -187 106 -290 274 -290c54 0 99 8 143 22v269h64v-308z" />
    <glyph glyph-name="Gcircumflex" unicode="&#x11c;" horiz-adv-x="687" 
d="M597 29c-68 -25 -149 -37 -217 -37c-205 0 -332 122 -332 333c0 204 118 358 354 358c63 0 123 -10 184 -29l-15 -58c-57 23 -119 34 -178 34c-198 0 -277 -143 -277 -294c0 -187 106 -290 274 -290c54 0 99 8 143 22v269h64v-308zM533 772l-24 -42l-134 64l-129 -64
l-20 39l152 83z" />
    <glyph glyph-name="Gbreve" unicode="&#x11e;" horiz-adv-x="687" 
d="M597 29c-68 -25 -149 -37 -217 -37c-205 0 -332 122 -332 333c0 204 118 358 354 358c63 0 123 -10 184 -29l-15 -58c-57 23 -119 34 -178 34c-198 0 -277 -143 -277 -294c0 -187 106 -290 274 -290c54 0 99 8 143 22v269h64v-308zM505 847c0 -65 -48 -112 -123 -112
c-79 0 -119 50 -119 112h45c0 -36 31 -64 75 -64c47 0 76 28 76 64h46z" />
    <glyph glyph-name="Gdotaccent" unicode="&#x120;" horiz-adv-x="687" 
d="M597 29c-68 -25 -149 -37 -217 -37c-205 0 -332 122 -332 333c0 204 118 358 354 358c63 0 123 -10 184 -29l-15 -58c-57 23 -119 34 -178 34c-198 0 -277 -143 -277 -294c0 -187 106 -290 274 -290c54 0 99 8 143 22v269h64v-308zM430 778c0 -24 -20 -44 -45 -44
c-24 0 -44 19 -44 44c0 24 20 44 44 44c25 0 45 -19 45 -44z" />
    <glyph glyph-name="Gcommaaccent" unicode="&#x122;" horiz-adv-x="687" 
d="M597 29c-68 -25 -149 -37 -217 -37c-205 0 -332 122 -332 333c0 204 118 358 354 358c63 0 123 -10 184 -29l-15 -58c-57 23 -119 34 -178 34c-198 0 -277 -143 -277 -294c0 -187 106 -290 274 -290c54 0 99 8 143 22v269h64v-308zM362 -50c27 0 45 -23 45 -52
c0 -34 -20 -79 -88 -137l-25 25c34 31 44 58 44 76c0 25 -15 27 -15 48c0 20 15 40 39 40z" />
    <glyph glyph-name="Gcaron" unicode="&#x1e6;" horiz-adv-x="687" 
d="M597 29c-68 -25 -149 -37 -217 -37c-205 0 -332 122 -332 333c0 204 118 358 354 358c63 0 123 -10 184 -29l-15 -58c-57 23 -119 34 -178 34c-198 0 -277 -143 -277 -294c0 -187 106 -290 274 -290c54 0 99 8 143 22v269h64v-308zM524 813l-152 -83l-155 80l23 42
l135 -65l129 65z" />
    <glyph glyph-name="G.alt1" unicode="&#xf0b7;" horiz-adv-x="687" 
d="M597 29c-68 -25 -149 -37 -218 -37c-204 0 -331 122 -331 333c0 204 118 358 354 358c63 0 120 -9 183 -28l-10 -61c-58 23 -121 36 -181 36c-199 0 -278 -143 -278 -294c0 -187 106 -290 274 -290c54 0 99 8 143 22v255h-191v52h255v-346z" />
    <glyph glyph-name="Gcircumflex.alt1" unicode="&#xf0b8;" horiz-adv-x="687" 
d="M597 29c-68 -25 -149 -37 -218 -37c-204 0 -331 122 -331 333c0 204 118 358 354 358c63 0 120 -9 183 -28l-10 -61c-58 23 -121 36 -181 36c-199 0 -278 -143 -278 -294c0 -187 106 -290 274 -290c54 0 99 8 143 22v255h-191v52h255v-346zM533 772l-24 -42l-134 64
l-129 -64l-20 39l152 83z" />
    <glyph glyph-name="Gbreve.alt1" unicode="&#xf0ba;" horiz-adv-x="687" 
d="M597 29c-68 -25 -149 -37 -218 -37c-204 0 -331 122 -331 333c0 204 118 358 354 358c63 0 120 -9 183 -28l-10 -61c-58 23 -121 36 -181 36c-199 0 -278 -143 -278 -294c0 -187 106 -290 274 -290c54 0 99 8 143 22v255h-191v52h255v-346zM505 847
c0 -65 -48 -112 -123 -112c-79 0 -119 50 -119 112h45c0 -36 31 -64 75 -64c47 0 76 28 76 64h46z" />
    <glyph glyph-name="Gdotaccent.alt1" unicode="&#xf0bc;" horiz-adv-x="687" 
d="M597 29c-68 -25 -149 -37 -218 -37c-204 0 -331 122 -331 333c0 204 118 358 354 358c63 0 120 -9 183 -28l-10 -61c-58 23 -121 36 -181 36c-199 0 -278 -143 -278 -294c0 -187 106 -290 274 -290c54 0 99 8 143 22v255h-191v52h255v-346zM430 778
c0 -24 -20 -44 -45 -44c-24 0 -44 19 -44 44c0 24 20 44 44 44c25 0 45 -19 45 -44z" />
    <glyph glyph-name="Gcommaaccent.alt1" unicode="&#xf0bb;" horiz-adv-x="687" 
d="M597 29c-68 -25 -149 -37 -218 -37c-204 0 -331 122 -331 333c0 204 118 358 354 358c63 0 120 -9 183 -28l-10 -61c-58 23 -121 36 -181 36c-199 0 -278 -143 -278 -294c0 -187 106 -290 274 -290c54 0 99 8 143 22v255h-191v52h255v-346zM362 -50c27 0 45 -23 45 -52
c0 -34 -20 -79 -88 -137l-25 25c34 31 44 58 44 76c0 25 -15 27 -15 48c0 20 15 40 39 40z" />
    <glyph glyph-name="Gcaron.alt1" unicode="&#xf0b9;" horiz-adv-x="687" 
d="M597 29c-68 -25 -149 -37 -218 -37c-204 0 -331 122 -331 333c0 204 118 358 354 358c63 0 120 -9 183 -28l-10 -61c-58 23 -121 36 -181 36c-199 0 -278 -143 -278 -294c0 -187 106 -290 274 -290c54 0 99 8 143 22v255h-191v52h255v-346zM524 813l-152 -83l-155 80
l23 42l135 -65l129 65z" />
    <glyph glyph-name="H" unicode="H" horiz-adv-x="706" 
d="M610 0h-64v324h-386v-324h-64v675h64v-298h386v298h64v-675z" />
    <glyph glyph-name="Hcircumflex" unicode="&#x124;" horiz-adv-x="706" 
d="M610 0h-64v324h-386v-324h-64v675h64v-298h386v298h64v-675zM507 772l-24 -42l-134 64l-129 -64l-20 39l152 83z" />
    <glyph glyph-name="Hbar" unicode="&#x126;" horiz-adv-x="726" 
d="M620 553h83v-51h-83v-502h-64v322h-386v-322h-64v502h-83v51h83v122h64v-122h386v122h64v-122zM556 502h-386v-129h386v129z" />
    <glyph glyph-name="I" unicode="I" horiz-adv-x="256" 
d="M160 0h-64v675h64v-675z" />
    <glyph glyph-name="Igrave" unicode="&#xcc;" horiz-adv-x="256" 
d="M160 0h-64v675h64v-675zM179 770l-15 -38l-171 58l23 54z" />
    <glyph glyph-name="Iacute" unicode="&#xcd;" horiz-adv-x="256" 
d="M160 0h-64v675h64v-675zM266 790l-172 -58l-15 38l164 74z" />
    <glyph glyph-name="Icircumflex" unicode="&#xce;" horiz-adv-x="256" 
d="M160 0h-64v675h64v-675zM283 772l-24 -42l-134 64l-129 -64l-20 39l152 83z" />
    <glyph glyph-name="Itilde" unicode="&#x128;" horiz-adv-x="256" 
d="M160 0h-64v675h64v-675zM298 807c-25 -42 -60 -67 -103 -67c-67 0 -90 56 -136 56c-23 0 -47 -16 -65 -47l-35 26c24 43 60 67 103 67c67 0 89 -55 135 -55c24 0 47 15 66 46z" />
    <glyph glyph-name="Idieresis" unicode="&#xcf;" horiz-adv-x="256" 
d="M160 0h-64v675h64v-675zM276 777c0 -24 -18 -42 -42 -42s-43 18 -43 42s19 43 43 43s42 -19 42 -43zM64 777c0 -24 -19 -42 -43 -42s-42 18 -42 42s18 43 42 43s43 -19 43 -43z" />
    <glyph glyph-name="Imacron" unicode="&#x12a;" horiz-adv-x="256" 
d="M160 0h-64v675h64v-675zM261 753h-264v48h264v-48z" />
    <glyph glyph-name="Ibreve" unicode="&#x12c;" horiz-adv-x="256" 
d="M160 0h-64v675h64v-675zM250 847c0 -65 -48 -112 -123 -112c-79 0 -119 50 -119 112h45c0 -36 31 -64 75 -64c47 0 76 28 76 64h46z" />
    <glyph glyph-name="Idotaccent" unicode="&#x130;" horiz-adv-x="256" 
d="M160 0h-64v675h64v-675zM173 778c0 -24 -20 -44 -45 -44c-24 0 -44 19 -44 44c0 24 20 44 44 44c25 0 45 -19 45 -44z" />
    <glyph glyph-name="Iogonek" unicode="&#x12e;" horiz-adv-x="256" 
d="M181 -141c-23 -41 -60 -63 -100 -63c-48 0 -79 24 -79 71c0 57 50 112 94 139v669h64v-675c-63 -39 -91 -80 -91 -114c0 -23 13 -34 34 -34c16 0 31 11 45 32z" />
    <glyph glyph-name="IJ" unicode="&#x132;" horiz-adv-x="582" 
d="M160 0h-64v675h64v-675zM486 167c0 -113 -46 -173 -160 -173c-24 0 -50 4 -69 8v59c20 -7 49 -13 74 -13c58 0 90 24 90 125v502h65v-508z" />
    <glyph glyph-name="IJ.alt1" unicode="&#xe016;" horiz-adv-x="532" 
d="M160 0h-64v675h64v-675zM308 -182l-28 43c74 41 92 73 92 162v652h64v-648c0 -108 -27 -158 -128 -209z" />
    <glyph glyph-name="J" unicode="J" horiz-adv-x="325" 
d="M230 167c0 -113 -46 -173 -160 -173c-24 0 -50 4 -69 8v59c20 -7 49 -13 74 -13c58 0 90 24 90 125v502h65v-508z" />
    <glyph glyph-name="J.alt1" unicode="&#xe017;" horiz-adv-x="256" 
d="M32 -182l-28 43c74 41 92 73 92 162v652h64v-648c0 -108 -27 -158 -128 -209z" />
    <glyph glyph-name="Jcircumflex" unicode="&#x134;" horiz-adv-x="325" 
d="M230 167c0 -113 -46 -173 -160 -173c-24 0 -50 4 -69 8v59c20 -7 49 -13 74 -13c58 0 90 24 90 125v502h65v-508zM347 772l-24 -42l-134 64l-129 -64l-20 39l152 83z" />
    <glyph glyph-name="Jcircumflex.alt1" unicode="&#xe018;" horiz-adv-x="256" 
d="M32 -182l-28 43c74 41 92 73 92 162v652h64v-648c0 -108 -27 -158 -128 -209zM282 772l-24 -42l-134 64l-129 -64l-20 39l152 83z" />
    <glyph glyph-name="K" unicode="K" horiz-adv-x="575" 
d="M555 0h-91l-304 342v-342h-64v675h64v-327l304 327h81l-312 -327z" />
    <glyph glyph-name="Kcommaaccent" unicode="&#x136;" horiz-adv-x="575" 
d="M555 0h-91l-304 342v-342h-64v675h64v-327l304 327h81l-312 -327zM296 -50c27 0 45 -23 45 -52c0 -34 -20 -79 -88 -137l-25 25c34 31 44 58 44 76c0 25 -15 27 -15 48c0 20 15 40 39 40z" />
    <glyph glyph-name="L" unicode="L" horiz-adv-x="425" 
d="M418 0h-322v675h64v-622h258v-53z" />
    <glyph glyph-name="Lacute" unicode="&#x139;" horiz-adv-x="425" 
d="M418 0h-322v675h64v-622h258v-53zM340 790l-172 -58l-15 38l164 74z" />
    <glyph glyph-name="Lcaron" unicode="&#x13d;" horiz-adv-x="425" 
d="M418 0h-322v675h64v-622h258v-53zM396 751l-116 -132l-37 27l104 138z" />
    <glyph glyph-name="Lcommaaccent" unicode="&#x13b;" horiz-adv-x="425" 
d="M418 0h-322v675h64v-622h258v-53zM259 -50c27 0 45 -23 45 -52c0 -34 -20 -79 -88 -137l-25 25c34 31 44 58 44 76c0 25 -15 27 -15 48c0 20 15 40 39 40z" />
    <glyph glyph-name="Lslash" unicode="&#x141;" horiz-adv-x="433" 
d="M426 0h-322v373l-87 -40l-16 48l103 47v247h64v-217l121 54l16 -47l-137 -62v-350h258v-53z" />
    <glyph glyph-name="Ldot" unicode="&#x13f;" horiz-adv-x="552" 
d="M418 0h-322v675h64v-622h258v-53zM499 297c0 -29 -23 -51 -51 -51c-29 0 -51 22 -51 51s22 51 51 51c28 0 51 -22 51 -51z" />
    <glyph glyph-name="M" unicode="M" horiz-adv-x="895" 
d="M834 0h-67l-63 438c-11 80 -18 137 -22 171h-2c-6 -24 -16 -61 -32 -107l-170 -502h-77l-161 471c-18 52 -31 98 -42 138h-1c-4 -52 -10 -108 -18 -178l-52 -431h-66l94 675h84l164 -481c11 -32 27 -83 39 -129h1c13 45 23 81 37 121l167 489h88z" />
    <glyph glyph-name="N" unicode="N" horiz-adv-x="714" 
d="M618 0h-87l-301 476c-30 48 -56 91 -78 135c4 -81 7 -292 7 -419v-192h-63v675h86l298 -470c28 -44 56 -91 81 -137c-3 95 -7 300 -7 433v174h64v-675z" />
    <glyph glyph-name="Nacute" unicode="&#x143;" horiz-adv-x="714" 
d="M618 0h-87l-301 476c-30 48 -56 91 -78 135c4 -81 7 -292 7 -419v-192h-63v675h86l298 -470c28 -44 56 -91 81 -137c-3 95 -7 300 -7 433v174h64v-675zM514 790l-172 -58l-15 38l164 74z" />
    <glyph glyph-name="Ncaron" unicode="&#x147;" horiz-adv-x="714" 
d="M618 0h-87l-301 476c-30 48 -56 91 -78 135c4 -81 7 -292 7 -419v-192h-63v675h86l298 -470c28 -44 56 -91 81 -137c-3 95 -7 300 -7 433v174h64v-675zM513 813l-152 -83l-155 80l23 42l135 -65l129 65z" />
    <glyph glyph-name="Ntilde" unicode="&#xd1;" horiz-adv-x="714" 
d="M618 0h-87l-301 476c-30 48 -56 91 -78 135c4 -81 7 -292 7 -419v-192h-63v675h86l298 -470c28 -44 56 -91 81 -137c-3 95 -7 300 -7 433v174h64v-675zM526 807c-25 -42 -60 -67 -103 -67c-67 0 -90 56 -136 56c-23 0 -47 -16 -65 -47l-35 26c24 43 60 67 103 67
c67 0 89 -55 135 -55c24 0 47 15 66 46z" />
    <glyph glyph-name="Ncommaaccent" unicode="&#x145;" horiz-adv-x="714" 
d="M618 0h-87l-301 476c-30 48 -56 91 -78 135c4 -81 7 -292 7 -419v-192h-63v675h86l298 -470c28 -44 56 -91 81 -137c-3 95 -7 300 -7 433v174h64v-675zM349 -50c27 0 45 -23 45 -52c0 -34 -20 -79 -88 -137l-25 25c34 31 44 58 44 76c0 25 -15 27 -15 48
c0 20 15 40 39 40z" />
    <glyph glyph-name="Eng" unicode="&#x14a;" horiz-adv-x="714" 
d="M618 675v-666c0 -193 -74 -243 -185 -268l-13 49c84 19 135 55 135 205l-322 482c-31 46 -57 89 -81 132c5 -81 7 -290 7 -417v-192h-63v675h82l311 -462c23 -36 47 -74 72 -119c-3 95 -7 274 -7 407v174h64z" />
    <glyph glyph-name="O" unicode="O" horiz-adv-x="706" 
d="M658 345c0 -228 -142 -353 -314 -353c-200 0 -296 136 -296 338c0 228 142 353 313 353c200 0 297 -136 297 -338zM589 332c0 174 -78 297 -236 297c-127 0 -236 -104 -236 -285c0 -175 77 -297 236 -297c127 0 236 103 236 285z" />
    <glyph glyph-name="Ograve" unicode="&#xd2;" horiz-adv-x="706" 
d="M658 345c0 -228 -142 -353 -314 -353c-200 0 -296 136 -296 338c0 228 142 353 313 353c200 0 297 -136 297 -338zM589 332c0 174 -78 297 -236 297c-127 0 -236 -104 -236 -285c0 -175 77 -297 236 -297c127 0 236 103 236 285zM396 770l-15 -38l-171 58l23 54z" />
    <glyph glyph-name="Oacute" unicode="&#xd3;" horiz-adv-x="706" 
d="M658 345c0 -228 -142 -353 -314 -353c-200 0 -296 136 -296 338c0 228 142 353 313 353c200 0 297 -136 297 -338zM589 332c0 174 -78 297 -236 297c-127 0 -236 -104 -236 -285c0 -175 77 -297 236 -297c127 0 236 103 236 285zM500 790l-172 -58l-15 38l164 74z" />
    <glyph glyph-name="Ocircumflex" unicode="&#xd4;" horiz-adv-x="706" 
d="M658 345c0 -228 -142 -353 -314 -353c-200 0 -296 136 -296 338c0 228 142 353 313 353c200 0 297 -136 297 -338zM589 332c0 174 -78 297 -236 297c-127 0 -236 -104 -236 -285c0 -175 77 -297 236 -297c127 0 236 103 236 285zM511 772l-24 -42l-134 64l-129 -64
l-20 39l152 83z" />
    <glyph glyph-name="Otilde" unicode="&#xd5;" horiz-adv-x="706" 
d="M658 345c0 -228 -142 -353 -314 -353c-200 0 -296 136 -296 338c0 228 142 353 313 353c200 0 297 -136 297 -338zM589 332c0 174 -78 297 -236 297c-127 0 -236 -104 -236 -285c0 -175 77 -297 236 -297c127 0 236 103 236 285zM521 807c-25 -42 -60 -67 -103 -67
c-67 0 -90 56 -136 56c-23 0 -47 -16 -65 -47l-35 26c24 43 60 67 103 67c67 0 89 -55 135 -55c24 0 47 15 66 46z" />
    <glyph glyph-name="Odieresis" unicode="&#xd6;" horiz-adv-x="706" 
d="M658 345c0 -228 -142 -353 -314 -353c-200 0 -296 136 -296 338c0 228 142 353 313 353c200 0 297 -136 297 -338zM589 332c0 174 -78 297 -236 297c-127 0 -236 -104 -236 -285c0 -175 77 -297 236 -297c127 0 236 103 236 285zM505 777c0 -24 -18 -42 -42 -42
s-43 18 -43 42s19 43 43 43s42 -19 42 -43zM293 777c0 -24 -19 -42 -43 -42s-42 18 -42 42s18 43 42 43s43 -19 43 -43z" />
    <glyph glyph-name="Omacron" unicode="&#x14c;" horiz-adv-x="706" 
d="M658 345c0 -228 -142 -353 -314 -353c-200 0 -296 136 -296 338c0 228 142 353 313 353c200 0 297 -136 297 -338zM589 332c0 174 -78 297 -236 297c-127 0 -236 -104 -236 -285c0 -175 77 -297 236 -297c127 0 236 103 236 285zM486 753h-264v48h264v-48z" />
    <glyph glyph-name="Obreve" unicode="&#x14e;" horiz-adv-x="706" 
d="M658 345c0 -228 -142 -353 -314 -353c-200 0 -296 136 -296 338c0 228 142 353 313 353c200 0 297 -136 297 -338zM589 332c0 174 -78 297 -236 297c-127 0 -236 -104 -236 -285c0 -175 77 -297 236 -297c127 0 236 103 236 285zM474 847c0 -65 -48 -112 -123 -112
c-79 0 -119 50 -119 112h45c0 -36 31 -64 75 -64c47 0 76 28 76 64h46z" />
    <glyph glyph-name="Ohungarumlaut" unicode="&#x150;" horiz-adv-x="706" 
d="M658 345c0 -228 -142 -353 -314 -353c-200 0 -296 136 -296 338c0 228 142 353 313 353c200 0 297 -136 297 -338zM589 332c0 174 -78 297 -236 297c-127 0 -236 -104 -236 -285c0 -175 77 -297 236 -297c127 0 236 103 236 285zM596 812l-149 -81l-25 34l141 93z
M407 820l-136 -89l-27 33l127 99z" />
    <glyph glyph-name="Oslash" unicode="&#xd8;" horiz-adv-x="706" 
d="M658 341c0 -227 -137 -349 -317 -349c-35 0 -66 3 -94 11l-40 -105l-50 19l41 105c-105 53 -150 169 -150 309c0 227 142 352 313 352c30 0 63 -3 90 -9l38 99l50 -19l-38 -98c102 -46 157 -156 157 -315zM590 331c0 122 -32 219 -113 268l-208 -541c25 -9 53 -11 78 -11
c139 0 243 100 243 284zM430 620c-18 6 -48 9 -77 9c-126 0 -237 -102 -237 -285c0 -126 34 -217 106 -263z" />
    <glyph glyph-name="Oslashacute" unicode="&#x1fe;" horiz-adv-x="706" 
d="M658 341c0 -227 -137 -349 -317 -349c-35 0 -66 3 -94 11l-40 -105l-50 19l41 105c-105 53 -150 169 -150 309c0 227 142 352 313 352c30 0 63 -3 90 -9l38 99l50 -19l-38 -98c102 -46 157 -156 157 -315zM590 331c0 122 -32 219 -113 268l-208 -541c25 -9 53 -11 78 -11
c139 0 243 100 243 284zM430 620c-18 6 -48 9 -77 9c-126 0 -237 -102 -237 -285c0 -126 34 -217 106 -263zM490 839l-172 -58l-15 38l164 74z" />
    <glyph glyph-name="OE" unicode="&#x152;" horiz-adv-x="865" 
d="M787 0h-332c-37 -5 -73 -8 -111 -8c-200 0 -296 136 -296 339c0 227 142 352 313 352c34 0 67 -3 98 -8h328v-52h-269v-249h256v-51h-256v-270h269v-53zM454 60v555c-33 9 -62 14 -99 14c-128 0 -238 -103 -238 -285c0 -175 77 -297 235 -297c32 0 70 4 102 13z" />
    <glyph glyph-name="P" unicode="P" horiz-adv-x="519" 
d="M480 489c0 -132 -114 -219 -258 -219c-21 0 -42 1 -62 3v-273h-64v675c46 2 98 3 154 3c149 0 230 -78 230 -189zM413 478c0 96 -57 147 -175 147c-31 0 -55 0 -78 -2v-295c20 -3 43 -5 67 -5c116 1 186 63 186 155z" />
    <glyph glyph-name="Thorn" unicode="&#xde;" horiz-adv-x="521" 
d="M499 368c0 -139 -115 -226 -271 -226c-26 0 -47 1 -68 4v-146h-64v675h64v-108c31 2 59 3 91 3c156 0 248 -70 248 -202zM433 362c0 94 -57 155 -197 155c-24 0 -51 -2 -76 -6v-311c22 -3 48 -5 77 -5c124 0 196 61 196 167z" />
    <glyph glyph-name="Q" unicode="Q" horiz-adv-x="705" 
d="M706 -67c-167 -19 -188 59 -338 59h-24c-200 0 -296 136 -296 338c0 228 142 353 313 353c200 0 297 -136 297 -338c0 -148 -61 -270 -181 -317c74 1 122 -48 229 -36v-59zM589 332c0 174 -78 297 -236 297c-127 0 -236 -104 -236 -285c0 -175 77 -297 236 -297
c126 0 236 104 236 285z" />
    <glyph glyph-name="Q.alt0" unicode="&#xf0bd;" horiz-adv-x="705" 
d="M704 -173c-164 -22 -238 55 -371 36v59c152 19 222 -55 371 -36v-59zM658 345c0 -228 -142 -353 -314 -353c-200 0 -296 136 -296 338c0 228 142 353 313 353c200 0 297 -136 297 -338zM589 332c0 174 -78 297 -236 297c-127 0 -236 -104 -236 -285
c0 -175 77 -297 236 -297c127 0 236 103 236 285z" />
    <glyph glyph-name="Q.alt1" unicode="&#xf0be;" horiz-adv-x="706" 
d="M690 -50l-47 -41l-125 134c-49 -33 -109 -51 -174 -51c-200 0 -296 136 -296 338c0 228 142 353 313 353c200 0 297 -136 297 -338c0 -110 -36 -203 -92 -262zM524 128c38 46 65 120 65 204c0 174 -78 297 -236 297c-127 0 -236 -104 -236 -285c0 -175 77 -297 235 -297
c46 0 89 14 126 41l-79 84l46 41z" />
    <glyph glyph-name="Q.alt2" unicode="&#xf0bf;" horiz-adv-x="705" 
d="M658 345c0 -112 -34 -200 -91 -260l130 -133l-47 -42l-129 135c-50 -36 -111 -53 -177 -53c-200 0 -296 136 -296 339c0 227 142 352 313 352c200 0 297 -136 297 -338zM589 332c0 174 -78 297 -236 297c-127 0 -236 -104 -236 -285c0 -175 77 -297 236 -297
c126 0 236 104 236 285z" />
    <glyph glyph-name="R" unicode="R" horiz-adv-x="544" 
d="M507 0h-85l-249 319h-13v-319h-64v675c41 2 80 3 151 3c122 0 218 -42 218 -166s-105 -189 -221 -191c20 -22 43 -48 61 -70zM398 501c0 94 -61 126 -169 126c-26 0 -47 -1 -69 -3v-254c12 -1 33 -2 65 -2c110 0 173 55 173 133z" />
    <glyph glyph-name="Racute" unicode="&#x154;" horiz-adv-x="544" 
d="M507 0h-85l-249 319h-13v-319h-64v675c41 2 80 3 151 3c122 0 218 -42 218 -166s-105 -189 -221 -191c20 -22 43 -48 61 -70zM398 501c0 94 -61 126 -169 126c-26 0 -47 -1 -69 -3v-254c12 -1 33 -2 65 -2c110 0 173 55 173 133zM396 790l-172 -58l-15 38l164 74z" />
    <glyph glyph-name="Rcaron" unicode="&#x158;" horiz-adv-x="544" 
d="M507 0h-85l-249 319h-13v-319h-64v675c41 2 80 3 151 3c122 0 218 -42 218 -166s-105 -189 -221 -191c20 -22 43 -48 61 -70zM398 501c0 94 -61 126 -169 126c-26 0 -47 -1 -69 -3v-254c12 -1 33 -2 65 -2c110 0 173 55 173 133zM410 813l-152 -83l-155 80l23 42l135 -65
l129 65z" />
    <glyph glyph-name="Rcommaaccent" unicode="&#x156;" horiz-adv-x="544" 
d="M507 0h-85l-249 319h-13v-319h-64v675c41 2 80 3 151 3c122 0 218 -42 218 -166s-105 -189 -221 -191c20 -22 43 -48 61 -70zM398 501c0 94 -61 126 -169 126c-26 0 -47 -1 -69 -3v-254c12 -1 33 -2 65 -2c110 0 173 55 173 133zM284 -50c27 0 45 -23 45 -52
c0 -34 -20 -79 -88 -137l-25 25c34 31 44 58 44 76c0 25 -15 27 -15 48c0 20 15 40 39 40z" />
    <glyph glyph-name="R.swash" unicode="&#xf0c1;" horiz-adv-x="548" 
d="M1248 -195c-43 -42 -114 -65 -215 -65c-258 0 -512 186 -870 579h-3v-319h-64v675c41 2 80 3 151 3c122 0 218 -42 218 -166s-103 -188 -225 -190c305 -331 567 -527 806 -527c81 0 131 18 170 54zM398 501c0 94 -61 126 -169 126c-26 0 -47 -1 -69 -3v-254
c12 -1 33 -2 65 -2c110 0 173 55 173 133z" />
    <glyph glyph-name="S" unicode="S" horiz-adv-x="504" 
d="M446 191c0 -117 -94 -199 -242 -199c-52 0 -103 7 -143 19l11 63c42 -16 90 -26 137 -26c91 0 170 37 170 135c0 167 -321 107 -321 317c0 105 79 183 223 183c41 0 85 -5 121 -13l-8 -58c-36 11 -78 18 -117 18c-104 0 -154 -49 -154 -123c0 -163 323 -104 323 -316z
" />
    <glyph glyph-name="Sacute" unicode="&#x15a;" horiz-adv-x="504" 
d="M446 191c0 -117 -94 -199 -242 -199c-52 0 -103 7 -143 19l11 63c42 -16 90 -26 137 -26c91 0 170 37 170 135c0 167 -321 107 -321 317c0 105 79 183 223 183c41 0 85 -5 121 -13l-8 -58c-36 11 -78 18 -117 18c-104 0 -154 -49 -154 -123c0 -163 323 -104 323 -316z
M403 790l-172 -58l-15 38l164 74z" />
    <glyph glyph-name="Scircumflex" unicode="&#x15c;" horiz-adv-x="504" 
d="M446 191c0 -117 -94 -199 -242 -199c-52 0 -103 7 -143 19l11 63c42 -16 90 -26 137 -26c91 0 170 37 170 135c0 167 -321 107 -321 317c0 105 79 183 223 183c41 0 85 -5 121 -13l-8 -58c-36 11 -78 18 -117 18c-104 0 -154 -49 -154 -123c0 -163 323 -104 323 -316z
M413 772l-24 -42l-134 64l-129 -64l-20 39l152 83z" />
    <glyph glyph-name="Scaron" unicode="&#x160;" horiz-adv-x="504" 
d="M446 191c0 -117 -94 -199 -242 -199c-52 0 -103 7 -143 19l11 63c42 -16 90 -26 137 -26c91 0 170 37 170 135c0 167 -321 107 -321 317c0 105 79 183 223 183c41 0 85 -5 121 -13l-8 -58c-36 11 -78 18 -117 18c-104 0 -154 -49 -154 -123c0 -163 323 -104 323 -316z
M405 813l-152 -83l-155 80l23 42l135 -65l129 65z" />
    <glyph glyph-name="Scedilla" unicode="&#x15e;" horiz-adv-x="504" 
d="M446 191c0 -117 -94 -199 -242 -199c-52 0 -103 7 -143 19l11 63c42 -16 90 -26 137 -26c91 0 170 37 170 135c0 167 -321 107 -321 317c0 105 79 183 223 183c41 0 85 -5 121 -13l-8 -58c-36 11 -78 18 -117 18c-104 0 -154 -49 -154 -123c0 -163 323 -104 323 -316z
M259 -41c51 -64 35 -125 -22 -195h-56c55 70 68 112 21 168z" />
    <glyph glyph-name="Scedilla" unicode="&#xf6c1;" horiz-adv-x="504" 
d="M446 191c0 -117 -94 -199 -242 -199c-52 0 -103 7 -143 19l11 63c42 -16 90 -26 137 -26c91 0 170 37 170 135c0 167 -321 107 -321 317c0 105 79 183 223 183c41 0 85 -5 121 -13l-8 -58c-36 11 -78 18 -117 18c-104 0 -154 -49 -154 -123c0 -163 323 -104 323 -316z
M259 -41c51 -64 35 -125 -22 -195h-56c55 70 68 112 21 168z" />
    <glyph glyph-name="Scommaaccent" unicode="&#x218;" horiz-adv-x="504" 
d="M446 191c0 -117 -94 -199 -242 -199c-52 0 -103 7 -143 19l11 63c42 -16 90 -26 137 -26c91 0 170 37 170 135c0 167 -321 107 -321 317c0 105 79 183 223 183c41 0 85 -5 121 -13l-8 -58c-36 11 -78 18 -117 18c-104 0 -154 -49 -154 -123c0 -163 323 -104 323 -316z
M243 -50c27 0 45 -23 45 -52c0 -34 -20 -79 -88 -137l-25 25c34 31 44 58 44 76c0 25 -15 27 -15 48c0 20 15 40 39 40z" />
    <glyph glyph-name="T" unicode="T" horiz-adv-x="520" 
d="M501 622h-209v-622h-64v622h-209v53h482v-53z" />
    <glyph glyph-name="Tcaron" unicode="&#x164;" horiz-adv-x="520" 
d="M501 622h-209v-622h-64v622h-209v53h482v-53zM411 813l-152 -83l-155 80l23 42l135 -65l129 65z" />
    <glyph glyph-name="Tcommaaccent" unicode="&#x21a;" horiz-adv-x="520" 
d="M501 622h-209v-622h-64v622h-209v53h482v-53zM262 -50c27 0 45 -23 45 -52c0 -34 -20 -79 -88 -137l-25 25c34 31 44 58 44 76c0 25 -15 27 -15 48c0 20 15 40 39 40z" />
    <glyph glyph-name="uni0162" unicode="&#x162;" horiz-adv-x="520" 
d="M501 622h-209v-622h-64v622h-209v53h482v-53zM284 -41c51 -64 35 -125 -22 -195h-56c55 70 68 112 21 168z" />
    <glyph glyph-name="Tbar" unicode="&#x166;" horiz-adv-x="520" 
d="M228 374v248h-209v53h482v-53h-209v-248h124v-51h-124v-323h-64v323h-124v51h124z" />
    <glyph glyph-name="U" unicode="U" horiz-adv-x="701" 
d="M605 255c0 -171 -88 -263 -263 -263c-208 0 -246 117 -246 230v453h64v-446c0 -100 34 -185 188 -185c129 0 194 54 194 205v426h63v-420z" />
    <glyph glyph-name="Ugrave" unicode="&#xd9;" horiz-adv-x="701" 
d="M605 255c0 -171 -88 -263 -263 -263c-208 0 -246 117 -246 230v453h64v-446c0 -100 34 -185 188 -185c129 0 194 54 194 205v426h63v-420zM389 770l-15 -38l-171 58l23 54z" />
    <glyph glyph-name="Uacute" unicode="&#xda;" horiz-adv-x="701" 
d="M605 255c0 -171 -88 -263 -263 -263c-208 0 -246 117 -246 230v453h64v-446c0 -100 34 -185 188 -185c129 0 194 54 194 205v426h63v-420zM510 790l-172 -58l-15 38l164 74z" />
    <glyph glyph-name="Ucircumflex" unicode="&#xdb;" horiz-adv-x="701" 
d="M605 255c0 -171 -88 -263 -263 -263c-208 0 -246 117 -246 230v453h64v-446c0 -100 34 -185 188 -185c129 0 194 54 194 205v426h63v-420zM507 772l-24 -42l-134 64l-129 -64l-20 39l152 83z" />
    <glyph glyph-name="Utilde" unicode="&#x168;" horiz-adv-x="701" 
d="M605 255c0 -171 -88 -263 -263 -263c-208 0 -246 117 -246 230v453h64v-446c0 -100 34 -185 188 -185c129 0 194 54 194 205v426h63v-420zM520 807c-25 -42 -60 -67 -103 -67c-67 0 -90 56 -136 56c-23 0 -47 -16 -65 -47l-35 26c24 43 60 67 103 67c67 0 89 -55 135 -55
c24 0 47 15 66 46z" />
    <glyph glyph-name="Udieresis" unicode="&#xdc;" horiz-adv-x="701" 
d="M605 255c0 -171 -88 -263 -263 -263c-208 0 -246 117 -246 230v453h64v-446c0 -100 34 -185 188 -185c129 0 194 54 194 205v426h63v-420zM498 777c0 -24 -18 -42 -42 -42s-43 18 -43 42s19 43 43 43s42 -19 42 -43zM286 777c0 -24 -19 -42 -43 -42s-42 18 -42 42
s18 43 42 43s43 -19 43 -43z" />
    <glyph glyph-name="Umacron" unicode="&#x16a;" horiz-adv-x="701" 
d="M605 255c0 -171 -88 -263 -263 -263c-208 0 -246 117 -246 230v453h64v-446c0 -100 34 -185 188 -185c129 0 194 54 194 205v426h63v-420zM483 753h-264v48h264v-48z" />
    <glyph glyph-name="Ubreve" unicode="&#x16c;" horiz-adv-x="701" 
d="M605 255c0 -171 -88 -263 -263 -263c-208 0 -246 117 -246 230v453h64v-446c0 -100 34 -185 188 -185c129 0 194 54 194 205v426h63v-420zM472 847c0 -65 -48 -112 -123 -112c-79 0 -119 50 -119 112h45c0 -36 31 -64 75 -64c47 0 76 28 76 64h46z" />
    <glyph glyph-name="Uring" unicode="&#x16e;" horiz-adv-x="701" 
d="M605 255c0 -171 -88 -263 -263 -263c-208 0 -246 117 -246 230v453h64v-446c0 -100 34 -185 188 -185c129 0 194 54 194 205v426h63v-420zM449 762c0 -51 -47 -98 -100 -98c-55 0 -98 39 -98 94c0 54 47 97 100 97c55 0 98 -40 98 -93zM402 760c0 29 -23 54 -52 54
c-30 0 -53 -25 -53 -54c0 -30 23 -54 53 -54c29 0 52 24 52 54z" />
    <glyph glyph-name="Uhungarumlaut" unicode="&#x170;" horiz-adv-x="701" 
d="M605 255c0 -171 -88 -263 -263 -263c-208 0 -246 117 -246 230v453h64v-446c0 -100 34 -185 188 -185c129 0 194 54 194 205v426h63v-420zM579 812l-149 -81l-25 34l141 93zM390 820l-136 -89l-27 33l127 99z" />
    <glyph glyph-name="Uogonek" unicode="&#x172;" horiz-adv-x="701" 
d="M605 255c0 -117 -39 -194 -124 -236c-73 -37 -119 -93 -119 -133c0 -24 13 -35 34 -35c16 0 32 12 46 33l32 -26c-24 -41 -60 -62 -100 -62c-50 0 -79 25 -79 71c0 41 25 88 79 127c-11 -1 -23 -2 -34 -2c-204 0 -244 116 -244 230v453h64v-446c0 -100 34 -185 188 -185
c129 0 194 54 194 205v426h63v-420z" />
    <glyph glyph-name="V" unicode="V" horiz-adv-x="610" 
d="M592 675l-257 -675h-69l-250 675h74l164 -462c15 -40 34 -95 48 -143h1c14 47 32 99 51 149l171 456h67z" />
    <glyph glyph-name="W" unicode="W" horiz-adv-x="953" 
d="M911 675l-181 -675h-81l-149 512c-11 36 -19 71 -26 101h-1c-5 -33 -13 -66 -24 -102l-144 -511h-81l-183 675h69l129 -487c12 -46 21 -83 29 -125h1c8 40 17 81 28 119l140 493h80l147 -501c10 -34 20 -74 27 -111h1c6 34 13 64 22 96l134 516h63z" />
    <glyph glyph-name="Wgrave" unicode="&#x1e80;" horiz-adv-x="953" 
d="M911 675l-181 -675h-81l-149 512c-11 36 -19 71 -26 101h-1c-5 -33 -13 -66 -24 -102l-144 -511h-81l-183 675h69l129 -487c12 -46 21 -83 29 -125h1c8 40 17 81 28 119l140 493h80l147 -501c10 -34 20 -74 27 -111h1c6 34 13 64 22 96l134 516h63zM525 770l-15 -38
l-171 58l23 54z" />
    <glyph glyph-name="Wacute" unicode="&#x1e82;" horiz-adv-x="953" 
d="M911 675l-181 -675h-81l-149 512c-11 36 -19 71 -26 101h-1c-5 -33 -13 -66 -24 -102l-144 -511h-81l-183 675h69l129 -487c12 -46 21 -83 29 -125h1c8 40 17 81 28 119l140 493h80l147 -501c10 -34 20 -74 27 -111h1c6 34 13 64 22 96l134 516h63zM611 790l-172 -58
l-15 38l164 74z" />
    <glyph glyph-name="Wcircumflex" unicode="&#x174;" horiz-adv-x="953" 
d="M911 675l-181 -675h-81l-149 512c-11 36 -19 71 -26 101h-1c-5 -33 -13 -66 -24 -102l-144 -511h-81l-183 675h69l129 -487c12 -46 21 -83 29 -125h1c8 40 17 81 28 119l140 493h80l147 -501c10 -34 20 -74 27 -111h1c6 34 13 64 22 96l134 516h63zM631 772l-24 -42
l-134 64l-129 -64l-20 39l152 83z" />
    <glyph glyph-name="Wdieresis" unicode="&#x1e84;" horiz-adv-x="953" 
d="M911 675l-181 -675h-81l-149 512c-11 36 -19 71 -26 101h-1c-5 -33 -13 -66 -24 -102l-144 -511h-81l-183 675h69l129 -487c12 -46 21 -83 29 -125h1c8 40 17 81 28 119l140 493h80l147 -501c10 -34 20 -74 27 -111h1c6 34 13 64 22 96l134 516h63zM624 777
c0 -24 -18 -42 -42 -42s-43 18 -43 42s19 43 43 43s42 -19 42 -43zM412 777c0 -24 -19 -42 -43 -42s-42 18 -42 42s18 43 42 43s43 -19 43 -43z" />
    <glyph glyph-name="X" unicode="X" horiz-adv-x="578" 
d="M556 0h-80l-191 301l-189 -301h-74l226 349l-212 326h75l175 -275l173 275h73l-209 -320z" />
    <glyph glyph-name="Y" unicode="Y" horiz-adv-x="519" 
d="M505 675l-216 -429v-246h-64v246l-211 429h71l120 -251c20 -41 38 -82 54 -122h1c17 43 39 88 60 132l117 241h68z" />
    <glyph glyph-name="Ygrave" unicode="&#x1ef2;" horiz-adv-x="519" 
d="M505 675l-216 -429v-246h-64v246l-211 429h71l120 -251c20 -41 38 -82 54 -122h1c17 43 39 88 60 132l117 241h68zM264 770l-15 -38l-171 58l23 54z" />
    <glyph glyph-name="Yacute" unicode="&#xdd;" horiz-adv-x="519" 
d="M505 675l-216 -429v-246h-64v246l-211 429h71l120 -251c20 -41 38 -82 54 -122h1c17 43 39 88 60 132l117 241h68zM417 790l-172 -58l-15 38l164 74z" />
    <glyph glyph-name="Ycircumflex" unicode="&#x176;" horiz-adv-x="519" 
d="M505 675l-216 -429v-246h-64v246l-211 429h71l120 -251c20 -41 38 -82 54 -122h1c17 43 39 88 60 132l117 241h68zM412 772l-24 -42l-134 64l-129 -64l-20 39l152 83z" />
    <glyph glyph-name="Ydieresis" unicode="&#x178;" horiz-adv-x="519" 
d="M505 675l-216 -429v-246h-64v246l-211 429h71l120 -251c20 -41 38 -82 54 -122h1c17 43 39 88 60 132l117 241h68zM411 777c0 -24 -18 -42 -42 -42s-43 18 -43 42s19 43 43 43s42 -19 42 -43zM199 777c0 -24 -19 -42 -43 -42s-42 18 -42 42s18 43 42 43s43 -19 43 -43z
" />
    <glyph glyph-name="Z" unicode="Z" horiz-adv-x="540" 
d="M496 0h-449v45l311 481c22 34 41 62 64 94c-39 -1 -94 -2 -166 -2h-198v57h434v-46l-328 -505c-15 -24 -29 -45 -45 -68c24 2 93 2 184 2h193v-58z" />
    <glyph glyph-name="Zacute" unicode="&#x179;" horiz-adv-x="540" 
d="M496 0h-449v45l311 481c22 34 41 62 64 94c-39 -1 -94 -2 -166 -2h-198v57h434v-46l-328 -505c-15 -24 -29 -45 -45 -68c24 2 93 2 184 2h193v-58zM431 790l-172 -58l-15 38l164 74z" />
    <glyph glyph-name="Zcaron" unicode="&#x17d;" horiz-adv-x="540" 
d="M496 0h-449v45l311 481c22 34 41 62 64 94c-39 -1 -94 -2 -166 -2h-198v57h434v-46l-328 -505c-15 -24 -29 -45 -45 -68c24 2 93 2 184 2h193v-58zM427 813l-152 -83l-155 80l23 42l135 -65l129 65z" />
    <glyph glyph-name="Zdotaccent" unicode="&#x17b;" horiz-adv-x="540" 
d="M496 0h-449v45l311 481c22 34 41 62 64 94c-39 -1 -94 -2 -166 -2h-198v57h434v-46l-328 -505c-15 -24 -29 -45 -45 -68c24 2 93 2 184 2h193v-58zM314 778c0 -24 -20 -44 -45 -44c-24 0 -44 19 -44 44c0 24 20 44 44 44c25 0 45 -19 45 -44z" />
    <glyph glyph-name="CyrillicLowercase" unicode="&#xf228;" horiz-adv-x="877" 
d="M856 333h-54l-105 184h-15v-184h-45v402c23 1 50 2 82 2c74 0 117 -33 117 -105c0 -66 -41 -103 -93 -110c9 -13 18 -28 27 -42zM568 735l-108 -257v-145h-45v145l-108 257h51l55 -138c10 -25 20 -54 26 -76h1l26 76l53 138h49zM275 349c-24 -12 -56 -21 -92 -21
c-100 0 -147 73 -147 198c0 121 46 213 157 213c28 0 55 -6 79 -15l-11 -38c-23 11 -46 16 -69 16c-78 0 -108 -76 -108 -170c0 -105 34 -166 108 -166c28 0 52 8 72 18zM513 -164c-25 -12 -57 -21 -93 -21c-99 0 -146 73 -146 198c0 121 45 213 156 213c28 0 55 -6 79 -15
l-11 -38c-23 11 -46 16 -69 16c-78 0 -108 -76 -108 -170c0 -105 35 -166 109 -166c27 0 52 8 71 18zM221 -180h-166v402h45v-365h121v-37zM789 629c0 52 -25 72 -74 72c-11 0 -24 -1 -33 -1v-146c5 0 17 -1 31 -1c55 0 76 30 76 76z" />
    <glyph glyph-name="uni0430" unicode="&#x430;" horiz-adv-x="519" 
d="M424 0h-64c0 40 1 80 6 109h-1c-24 -65 -90 -117 -177 -117c-77 0 -135 49 -135 129c0 102 96 164 291 164h15v31c0 93 -28 138 -117 138c-48 0 -106 -16 -149 -37l-15 52c47 21 110 36 173 36c129 0 171 -68 171 -173v-178c0 -51 1 -109 2 -154zM359 229v8h-24
c-173 0 -218 -49 -218 -106c0 -50 34 -87 87 -87c93 0 155 94 155 185z" />
    <glyph glyph-name="uni0431" unicode="&#x431;" horiz-adv-x="547" 
d="M502 264c0 -153 -80 -272 -227 -272c-122 0 -210 86 -210 293v8c0 156 31 296 92 357c97 97 235 56 304 89v-58c-73 -34 -190 2 -263 -71c-34 -33 -60 -84 -76 -231h1c26 67 87 122 179 122c107 0 200 -60 200 -237zM436 259c0 119 -46 191 -144 191
c-101 0 -159 -105 -159 -187c0 -143 59 -219 153 -219c82 0 150 63 150 215z" />
    <glyph glyph-name="uni0432" unicode="&#x432;" horiz-adv-x="529" 
d="M463 147c0 -80 -63 -154 -218 -154c-50 0 -109 5 -149 11v491c45 5 101 9 157 9c148 0 190 -58 190 -126c0 -51 -27 -91 -87 -111v-1c75 -16 107 -59 107 -119zM380 370c0 45 -30 85 -139 85c-34 0 -62 -2 -83 -5v-165h90c88 0 132 30 132 85zM398 141
c0 71 -65 96 -150 96h-90v-184c27 -7 66 -11 95 -11c105 0 145 46 145 99z" />
    <glyph glyph-name="uni0433" unicode="&#x433;" horiz-adv-x="364" 
d="M334 446h-175v-446h-63v497h238v-51z" />
    <glyph glyph-name="uni0453" unicode="&#x453;" horiz-adv-x="364" 
d="M334 446h-175v-446h-63v497h238v-51zM335 696l-128 -118l-32 33l118 126z" />
    <glyph glyph-name="uni0491" unicode="&#x491;" horiz-adv-x="365" 
d="M335 446h-176v-446h-63v497h182v125h57v-176z" />
    <glyph glyph-name="uni0434" unicode="&#x434;" horiz-adv-x="581" 
d="M543 51v-199h-57v148h-410v-148h-58v199h59c59 79 66 189 66 289v157h331v-446h69zM411 51v395h-208v-92c0 -103 -6 -228 -61 -303h269z" />
    <glyph glyph-name="uni0435" unicode="&#x435;" horiz-adv-x="503" 
d="M452 306c0 -7 0 -26 -2 -44h-337c-5 -150 55 -216 171 -216c48 0 98 10 140 29l12 -53c-47 -19 -104 -30 -166 -30c-145 0 -224 80 -224 255c0 148 80 258 215 258c136 0 191 -93 191 -199zM385 310c2 90 -47 145 -128 145c-74 0 -128 -52 -141 -145h269z" />
    <glyph glyph-name="uni0451" unicode="&#x451;" horiz-adv-x="503" 
d="M452 306c0 -7 0 -26 -2 -44h-337c-5 -150 55 -216 171 -216c48 0 98 10 140 29l12 -53c-47 -19 -104 -30 -166 -30c-145 0 -224 80 -224 255c0 148 80 258 215 258c136 0 191 -93 191 -199zM385 310c2 90 -47 145 -128 145c-74 0 -128 -52 -141 -145h269zM394 658
c0 -24 -19 -43 -43 -43s-43 19 -43 43c0 25 19 43 43 43s43 -18 43 -43zM210 658c0 -24 -19 -43 -43 -43c-25 0 -43 19 -43 43c0 25 18 43 43 43c24 0 43 -18 43 -43z" />
    <glyph glyph-name="uni0450" unicode="&#x450;" horiz-adv-x="503" 
d="M452 306c0 -7 0 -26 -2 -44h-337c-5 -150 55 -216 171 -216c48 0 98 10 140 29l12 -53c-47 -19 -104 -30 -166 -30c-145 0 -224 80 -224 255c0 148 80 258 215 258c136 0 191 -93 191 -199zM385 310c2 90 -47 145 -128 145c-74 0 -128 -52 -141 -145h269zM299 611
l-33 -33l-128 118l42 41z" />
    <glyph glyph-name="uni0436" unicode="&#x436;" horiz-adv-x="671" 
d="M304 264v233h63v-233l187 233h76l-194 -233l206 -264h-83l-192 257v-257h-63v257l-195 -257h-80l205 263l-194 234h78z" />
    <glyph glyph-name="uni0437" unicode="&#x437;" horiz-adv-x="436" 
d="M385 147c0 -80 -64 -155 -204 -155c-51 0 -99 6 -139 16l11 59c42 -17 92 -25 135 -25c92 0 132 45 132 99c0 68 -63 95 -158 95h-68v49h68c93 0 140 30 140 88c0 44 -32 83 -124 83c-33 0 -76 -7 -113 -19l-9 49c41 12 91 19 134 19c131 0 174 -62 174 -125
c0 -49 -29 -98 -88 -113v-1c71 -16 109 -53 109 -119z" />
    <glyph glyph-name="uni0438" unicode="&#x438;" horiz-adv-x="567" 
d="M471 0h-63v344c0 27 1 49 2 74c-7 -22 -18 -46 -57 -109l-196 -309h-61v497h63v-331c0 -26 0 -53 -3 -78c9 21 25 49 62 109l190 300h63v-497z" />
    <glyph glyph-name="uni0439" unicode="&#x439;" horiz-adv-x="567" 
d="M471 0h-63v344c0 27 1 49 2 74c-7 -22 -18 -46 -57 -109l-196 -309h-61v497h63v-331c0 -26 0 -53 -3 -78c9 21 25 49 62 109l190 300h63v-497zM428 715c0 -64 -42 -120 -144 -120c-95 0 -144 47 -144 120h58c0 -49 28 -77 87 -77c57 0 85 31 85 77h58z" />
    <glyph glyph-name="uni045D" unicode="&#x45d;" horiz-adv-x="567" 
d="M471 0h-63v344c0 27 1 49 2 74c-7 -22 -18 -46 -57 -109l-196 -309h-61v497h63v-331c0 -26 0 -53 -3 -78c9 21 25 49 62 109l190 300h63v-497zM331 611l-33 -33l-128 118l42 41z" />
    <glyph glyph-name="uni0456" unicode="&#x456;" horiz-adv-x="255" 
d="M159 0h-63v497h63v-497zM172 658c0 -24 -20 -45 -45 -45s-45 20 -45 45s20 45 45 45s45 -19 45 -45z" />
    <glyph glyph-name="uni0457" unicode="&#x457;" horiz-adv-x="255" 
d="M159 0h-63v497h63v-497zM254 658c0 -24 -19 -43 -43 -43s-43 19 -43 43c0 25 19 43 43 43c25 0 43 -18 43 -43zM87 658c0 -24 -19 -43 -43 -43c-25 0 -43 19 -43 43c0 25 18 43 43 43c24 0 43 -18 43 -43z" />
    <glyph glyph-name="uni0458" unicode="&#x458;" horiz-adv-x="263" 
d="M181 658c0 -24 -20 -45 -45 -45s-45 20 -45 45s20 45 45 45s45 -19 45 -45zM167 -68c0 -132 -37 -190 -156 -190c-22 0 -48 3 -67 9l7 57c19 -7 42 -12 65 -12c71 0 88 28 88 132v569h63v-565z" />
    <glyph glyph-name="uni043A" unicode="&#x43a;" horiz-adv-x="473" 
d="M448 0h-84l-205 259v-259h-63v497h63v-231l196 231h77l-203 -231z" />
    <glyph glyph-name="uni045C" unicode="&#x45c;" horiz-adv-x="473" 
d="M448 0h-84l-205 259v-259h-63v497h63v-231l196 231h77l-203 -231zM373 696l-128 -118l-32 33l118 126z" />
    <glyph glyph-name="uni04A1" unicode="&#x4a1;" horiz-adv-x="483" 
d="M442 497l-203 -231l219 -266h-84l-205 259v-259h-63v447h-105v50h168v-231l197 231h76z" />
    <glyph glyph-name="uni049D" unicode="&#x49d;" horiz-adv-x="579" 
d="M468 0l-178 235h-35v-105h-48v105h-48v-235h-63v497h63v-211h48v100h48v-100h35l169 211h77l-193 -231l208 -266h-83z" />
    <glyph glyph-name="uni043B" unicode="&#x43b;" horiz-adv-x="543" 
d="M447 0h-63v445h-205v-91c0 -253 -43 -356 -166 -362l-6 52c80 7 110 76 110 298v155h330v-497z" />
    <glyph glyph-name="uni0459" unicode="&#x459;" horiz-adv-x="767" 
d="M179 445v-91c0 -253 -43 -356 -166 -362l-6 52c80 7 110 76 110 298v155h321v-193c28 3 67 5 98 5c141 0 197 -63 197 -149c0 -94 -77 -166 -216 -166c-42 0 -101 5 -142 12v439h-196zM667 152c0 59 -34 107 -145 107c-30 0 -65 -3 -84 -6v-197c25 -8 61 -12 94 -12
c89 0 135 46 135 108z" />
    <glyph glyph-name="uni043C" unicode="&#x43c;" horiz-adv-x="722" 
d="M671 0h-65l-53 306c-8 51 -13 86 -17 121h-1c-5 -29 -13 -56 -21 -79l-122 -348h-66l-115 327c-11 33 -23 69 -31 100h-1c-2 -34 -7 -74 -16 -124l-50 -303h-62l88 497h78l117 -336c10 -28 20 -61 26 -93h1c8 32 18 63 31 101l116 328h76z" />
    <glyph glyph-name="uni043D" unicode="&#x43d;" horiz-adv-x="579" 
d="M483 0h-63v231h-261v-231h-63v497h63v-213h261v213h63v-497z" />
    <glyph glyph-name="uni04A3" unicode="&#x4a3;" horiz-adv-x="581" 
d="M483 51h60v-199h-57v148h-66v231h-261v-231h-63v497h63v-213h261v213h63v-446z" />
    <glyph glyph-name="uni045A" unicode="&#x45a;" horiz-adv-x="803" 
d="M474 304c28 3 67 5 98 5c141 0 197 -63 197 -149c0 -94 -77 -166 -216 -166c-42 0 -101 5 -142 12v225h-252v-231h-63v497h63v-213h252v213h63v-193zM703 152c0 59 -34 107 -145 107c-30 0 -65 -3 -84 -6v-197c25 -8 60 -12 94 -12c89 0 135 46 135 108z" />
    <glyph glyph-name="uni043E" unicode="&#x43e;" horiz-adv-x="542" 
d="M494 256c0 -145 -88 -264 -234 -264c-132 0 -216 81 -216 255c0 139 84 258 233 258c116 0 217 -64 217 -249zM429 253c0 125 -54 201 -159 201c-82 0 -160 -63 -160 -202c0 -132 58 -208 161 -208c82 0 158 63 158 209z" />
    <glyph glyph-name="uni0473" unicode="&#x473;" horiz-adv-x="540" 
d="M494 256c0 -145 -88 -264 -234 -264c-132 0 -216 81 -216 255c0 139 84 258 233 258c116 0 217 -64 217 -249zM428 279c-6 110 -60 176 -158 176c-78 0 -151 -54 -160 -176h318zM109 232c5 -120 64 -189 162 -189c78 0 151 56 158 189h-320z" />
    <glyph glyph-name="uni04E9" unicode="&#x4e9;" horiz-adv-x="540" 
d="M494 256c0 -145 -88 -264 -234 -264c-132 0 -216 81 -216 255c0 139 84 258 233 258c116 0 217 -64 217 -249zM428 279c-6 110 -60 176 -158 176c-78 0 -151 -54 -160 -176h318zM109 232c5 -120 64 -189 162 -189c78 0 151 56 158 189h-320z" />
    <glyph glyph-name="uni043F" unicode="&#x43f;" horiz-adv-x="574" 
d="M478 0h-63v445h-256v-445h-63v497h382v-497z" />
    <glyph glyph-name="uni0440" unicode="&#x440;" horiz-adv-x="558" 
d="M510 271c0 -180 -100 -276 -252 -276c-37 0 -63 1 -99 6v-252h-63v748h64c0 -32 -2 -84 -9 -114l2 -1c28 75 93 123 173 123c117 0 184 -79 184 -234zM444 265c0 118 -40 189 -128 189c-107 0 -157 -125 -157 -214v-181c31 -11 64 -15 104 -15c109 0 181 65 181 221z" />
    <glyph glyph-name="uni0441" unicode="&#x441;" horiz-adv-x="452" 
d="M415 30c-43 -23 -102 -37 -158 -37c-103 0 -211 46 -211 238c0 165 77 273 228 273c49 0 99 -12 140 -33l-21 -53c-39 22 -82 36 -129 36c-100 0 -152 -89 -152 -209c0 -108 32 -199 157 -199c43 0 91 13 129 33z" />
    <glyph glyph-name="uni04AB" unicode="&#x4ab;" horiz-adv-x="443" 
d="M286 -6v-142h-58v143c-90 8 -182 59 -182 236c0 165 77 273 228 273c49 0 99 -12 140 -33l-21 -53c-39 22 -82 36 -129 36c-100 0 -151 -89 -151 -209c0 -108 31 -199 156 -199c43 0 91 13 129 33l17 -49c-35 -19 -83 -32 -129 -36z" />
    <glyph glyph-name="uni0455" unicode="&#x455;" horiz-adv-x="431" 
d="M374 146c0 -85 -76 -154 -204 -154c-38 0 -80 4 -111 13l9 60c32 -12 75 -19 113 -19c74 0 128 35 128 91c0 129 -252 47 -252 226c0 82 65 142 188 142c32 0 70 -4 100 -11l-8 -54c-31 9 -66 15 -101 15c-77 0 -115 -33 -115 -85c0 -129 253 -50 253 -224z" />
    <glyph glyph-name="uni0442" unicode="&#x442;" horiz-adv-x="390" 
d="M379 446h-153v-446h-63v446h-151v51h367v-51z" />
    <glyph glyph-name="uni0443" unicode="&#x443;" horiz-adv-x="468" 
d="M454 497l-207 -548c-57 -152 -114 -208 -224 -208c-16 0 -36 3 -50 6l7 58c15 -5 39 -8 57 -8c59 0 101 30 145 142l24 61l-192 497h74l112 -306c16 -47 27 -79 38 -115h1c8 30 29 91 50 151l96 270h69z" />
    <glyph glyph-name="uni045E" unicode="&#x45e;" horiz-adv-x="464" 
d="M452 497l-207 -548c-57 -152 -114 -208 -224 -208c-16 0 -36 3 -50 6l7 58c15 -5 39 -8 57 -8c59 0 101 30 145 142l24 61l-192 497h74l112 -306c16 -47 27 -79 38 -115h1c8 30 29 91 50 151l96 270h69zM379 715c0 -64 -42 -120 -144 -120c-95 0 -144 47 -144 120h58
c0 -49 28 -77 87 -77c57 0 85 31 85 77h58z" />
    <glyph glyph-name="uni04AF" unicode="&#x4af;" horiz-adv-x="469" 
d="M456 497l-192 -497v-251h-63v251l-189 497h73l122 -341c10 -30 19 -56 27 -85h1c8 27 18 57 27 83l124 343h70z" />
    <glyph glyph-name="uni04B1" unicode="&#x4b1;" horiz-adv-x="469" 
d="M266 50h157v-50h-159v-251h-63v251h-160v50h158l-187 447h73l119 -301c12 -29 22 -58 30 -89h2c8 30 20 62 30 87l121 303h70z" />
    <glyph glyph-name="uni0444" unicode="&#x444;" horiz-adv-x="659" 
d="M613 251c0 -128 -87 -245 -252 -257v-245h-63v243c-152 6 -252 89 -252 255c0 128 88 245 252 257v171h63v-170c153 -6 252 -88 252 -254zM550 246c0 122 -68 198 -189 208v-409c103 7 189 73 189 201zM298 45v409c-102 -7 -189 -75 -189 -202c0 -122 68 -198 189 -207z
" />
    <glyph glyph-name="uni0445" unicode="&#x445;" horiz-adv-x="512" 
d="M484 0h-85l-146 208l-146 -208h-80l191 248l-181 249h80l141 -203l145 203h73l-183 -245z" />
    <glyph glyph-name="uni04B3" unicode="&#x4b3;" horiz-adv-x="537" 
d="M451 0h-52l-146 208l-146 -208h-80l191 248l-181 249h80l141 -203l145 203h73l-183 -245l154 -201h61v-199h-57v148z" />
    <glyph glyph-name="uni0446" unicode="&#x446;" horiz-adv-x="585" 
d="M547 51v-199h-57v148h-394v497h63v-446h256v446h63v-446h69z" />
    <glyph glyph-name="uni045F" unicode="&#x45f;" horiz-adv-x="574" 
d="M478 0h-162v-148h-57v148h-163v497h63v-446h256v446h63v-497z" />
    <glyph glyph-name="uni0447" unicode="&#x447;" horiz-adv-x="524" 
d="M428 0h-63v221c-43 -23 -92 -36 -150 -36c-126 0 -162 75 -162 163v149h63v-134c0 -82 22 -128 110 -128c46 0 93 11 139 37v225h63v-497z" />
    <glyph glyph-name="uni04B9" unicode="&#x4b9;" horiz-adv-x="548" 
d="M278 237c39 3 69 12 111 34v226h63v-497h-64v218c-42 -19 -74 -27 -110 -30v-95h-47v92c-137 1 -178 75 -178 165v147h63v-135c0 -81 30 -125 115 -126v111h47v-110z" />
    <glyph glyph-name="uni0448" unicode="&#x448;" horiz-adv-x="810" 
d="M714 0h-618v497h63v-446h217v446h62v-446h213v446h63v-497z" />
    <glyph glyph-name="uni0449" unicode="&#x449;" horiz-adv-x="821" 
d="M783 51v-199h-57v148h-630v497h63v-446h217v446h62v-446h213v446h63v-446h69z" />
    <glyph glyph-name="uni044A" unicode="&#x44a;" 
d="M522 160c0 -94 -76 -166 -216 -166c-42 0 -101 5 -142 12v440h-152v51h215v-193c29 3 67 5 98 5c141 0 197 -63 197 -149zM456 152c0 59 -34 107 -145 107c-30 0 -64 -3 -84 -6v-197c25 -8 61 -12 94 -12c89 0 135 46 135 108z" />
    <glyph glyph-name="uni044B" unicode="&#x44b;" horiz-adv-x="733" 
d="M637 0h-63v497h63v-497zM454 160c0 -94 -77 -166 -216 -166c-42 0 -101 5 -142 12v491h63v-193c28 3 67 5 98 5c141 0 197 -63 197 -149zM388 152c0 59 -34 107 -145 107c-31 0 -65 -3 -84 -6v-197c25 -8 60 -12 94 -12c89 0 135 46 135 108z" />
    <glyph glyph-name="uni044C" unicode="&#x44c;" horiz-adv-x="482" 
d="M454 160c0 -94 -77 -166 -216 -166c-42 0 -101 5 -142 12v491h63v-193c28 3 67 5 98 5c141 0 197 -63 197 -149zM388 152c0 59 -34 107 -145 107c-31 0 -65 -3 -84 -6v-197c25 -8 60 -12 94 -12c89 0 135 46 135 108z" />
    <glyph glyph-name="uni044D" unicode="&#x44d;" horiz-adv-x="460" 
d="M414 249c0 -157 -97 -255 -244 -255c-37 0 -88 7 -127 23l14 53c34 -14 77 -25 118 -25c112 0 172 79 172 187h-254v49h253c-7 115 -73 173 -172 173c-38 0 -78 -8 -109 -19l-13 47c36 14 79 22 130 22c145 0 232 -87 232 -255z" />
    <glyph glyph-name="uni0454" unicode="&#x454;" horiz-adv-x="444" 
d="M416 23c-41 -19 -98 -29 -134 -29c-123 0 -236 45 -236 246c0 153 77 263 237 263c51 0 97 -8 127 -23l-14 -51c-28 14 -76 25 -123 25c-99 0 -152 -75 -160 -173h255v-49h-256c4 -105 43 -187 182 -187c30 0 74 10 109 27z" />
    <glyph glyph-name="uni04D9" unicode="&#x4d9;" horiz-adv-x="503" 
d="M46 218c0 20 1 42 3 62h336c-8 119 -67 175 -171 175c-49 0 -98 -10 -139 -29l-14 49c47 19 105 30 162 30c146 0 229 -81 229 -255c0 -157 -79 -258 -217 -258c-134 0 -189 93 -189 226zM112 232c-1 -10 -1 -14 -1 -20c0 -116 51 -168 132 -168c94 0 143 80 143 188
h-274z" />
    <glyph glyph-name="uni044E" unicode="&#x44e;" horiz-adv-x="759" 
d="M712 256c0 -145 -87 -264 -234 -264c-127 0 -210 77 -214 240h-105v-232h-63v497h63v-215h106c13 123 93 223 231 223c116 0 216 -64 216 -249zM647 253c0 125 -54 201 -158 201c-82 0 -161 -63 -161 -202c0 -132 59 -208 161 -208c82 0 158 63 158 209z" />
    <glyph glyph-name="uni044F" unicode="&#x44f;" horiz-adv-x="490" 
d="M394 0h-63v223h-77l-159 -223h-77l131 180c16 23 27 37 40 49c-75 10 -132 47 -132 128c0 90 65 146 200 146c40 0 89 -2 137 -6v-497zM331 271v179c-28 3 -58 5 -84 5c-90 0 -124 -38 -124 -92c0 -49 26 -92 126 -92h82z" />
    <glyph glyph-name="uni04BB" unicode="&#x4bb;" horiz-adv-x="579" 
d="M483 0h-63v322c0 83 -23 132 -101 132c-94 0 -160 -91 -160 -217v-237h-63v730h63v-251c0 -34 -2 -74 -8 -99l2 -1c29 77 93 126 180 126c115 0 150 -71 150 -159v-346z" />
    <glyph glyph-name="uni0452" unicode="&#x452;" horiz-adv-x="579" 
d="M489 207c0 -244 -21 -300 -68 -346c-27 -27 -64 -43 -117 -57l-14 48c42 11 68 24 86 42c35 35 50 76 50 285v20c0 202 -35 254 -115 254c-86 0 -151 -91 -151 -199v-254h-63v594h-97v50h97v86h63v-86h146v-50h-146v-114c0 -34 -3 -73 -8 -96h1c26 71 92 121 172 121
c117 0 164 -75 164 -283v-15z" />
    <glyph glyph-name="uni045B" unicode="&#x45b;" horiz-adv-x="580" 
d="M484 0h-63v322c0 83 -23 131 -101 131c-95 0 -160 -91 -160 -216v-237h-63v594h-97v50h97v86h63v-86h146v-50h-146v-117c0 -34 -3 -73 -8 -97l1 -1c29 77 93 126 181 126c114 0 150 -71 150 -160v-345z" />
    <glyph glyph-name="CyrillicSmallCaps" unicode="&#xf229;" horiz-adv-x="877" 
d="M856 333h-54l-105 184h-15v-184h-45v402c23 1 50 2 82 2c74 0 117 -33 117 -105c0 -66 -41 -103 -93 -110c9 -13 18 -28 27 -42zM240 -76c0 -58 -43 -109 -125 -109c-27 0 -55 4 -78 13l9 42c23 -10 48 -17 72 -17c51 0 75 28 75 69c0 96 -157 77 -157 198
c0 57 41 106 120 106c21 0 43 -3 66 -9l-9 -39c-21 7 -42 12 -60 12c-48 0 -71 -29 -71 -67c0 -90 158 -74 158 -199zM568 735l-108 -257v-145h-45v145l-108 257h51l55 -138c10 -25 20 -54 26 -76h1l26 76l53 138h49zM275 349c-24 -12 -56 -21 -92 -21
c-100 0 -147 73 -147 198c0 121 46 213 157 213c28 0 55 -6 79 -15l-11 -38c-23 11 -46 16 -69 16c-78 0 -108 -76 -108 -170c0 -105 34 -166 108 -166c28 0 52 8 72 18zM552 -164c-25 -12 -57 -21 -93 -21c-99 0 -147 73 -147 198c0 121 46 213 157 213c28 0 55 -6 79 -15
l-12 -38c-22 11 -45 16 -68 16c-78 0 -108 -76 -108 -170c0 -105 34 -166 108 -166c28 0 53 8 71 18zM789 629c0 52 -25 72 -74 72c-11 0 -24 -1 -33 -1v-146c5 0 17 -1 31 -1c55 0 76 30 76 76z" />
    <glyph glyph-name="uni0410.sc" unicode="&#xf22a;" horiz-adv-x="535" 
d="M510 0h-71l-47 121h-254l-47 -121h-65l207 520h72zM373 170l-75 199c-13 34 -24 63 -32 87h-1c-8 -26 -17 -54 -30 -87l-78 -199h216z" />
    <glyph glyph-name="uni0411.sc" unicode="&#xf22b;" horiz-adv-x="517" 
d="M462 159c0 -87 -69 -162 -216 -162c-78 0 -145 5 -145 5v518h324v-50h-260v-165h93c136 0 204 -56 204 -146zM395 154c0 61 -40 102 -148 102h-82v-205s43 -4 88 -4c94 0 142 41 142 107z" />
    <glyph glyph-name="uni0412.sc" unicode="&#xf22c;" horiz-adv-x="510" 
d="M438 154c0 -56 -32 -156 -206 -156c-32 0 -82 1 -131 2v520c37 0 86 2 155 2c118 0 166 -52 166 -124c0 -57 -32 -99 -93 -122v-1c74 -15 109 -63 109 -121zM356 390c0 47 -26 83 -114 83c-27 0 -54 -1 -77 -1v-179c21 -1 42 -1 50 -1c91 0 141 33 141 98zM373 152
c0 73 -69 93 -157 93c-10 0 -37 0 -51 -1v-192c15 -3 38 -4 72 -4c94 0 136 43 136 104z" />
    <glyph glyph-name="uni0413.sc" unicode="&#xf22d;" horiz-adv-x="395" 
d="M375 469h-210v-469h-64v520h274v-51z" />
    <glyph glyph-name="uni0403.sc" unicode="&#xf22e;" horiz-adv-x="395" 
d="M375 469h-210v-469h-64v520h274v-51zM361 686l-127 -103l-31 34l118 112z" />
    <glyph glyph-name="uni0490.sc" unicode="&#xf22f;" horiz-adv-x="395" 
d="M375 469h-210v-469h-64v520h217v125h57v-176z" />
    <glyph glyph-name="uni0414.sc" unicode="&#xf230;" horiz-adv-x="577" 
d="M528 50v-198h-58v148h-383v-148h-59v198h48c51 108 60 216 60 304v166h337v-470h55zM409 50v419h-211v-104c0 -139 -22 -235 -57 -315h268z" />
    <glyph glyph-name="uni0415.sc" unicode="&#xf231;" horiz-adv-x="449" 
d="M376 0h-275v520h275v-50h-211v-177h201v-49h-201v-193h211v-51z" />
    <glyph glyph-name="uni0401.sc" unicode="&#xf232;" horiz-adv-x="449" 
d="M376 0h-275v520h275v-50h-211v-177h201v-49h-201v-193h211v-51zM373 658c0 -24 -19 -43 -43 -43s-43 19 -43 43c0 25 19 43 43 43s43 -18 43 -43zM189 658c0 -24 -19 -43 -43 -43c-25 0 -43 19 -43 43c0 25 18 43 43 43c24 0 43 -18 43 -43z" />
    <glyph glyph-name="uni0400.sc" unicode="&#xf233;" horiz-adv-x="449" 
d="M376 0h-275v520h275v-50h-211v-177h201v-49h-201v-193h211v-51zM270 617l-31 -34l-127 103l40 43z" />
    <glyph glyph-name="uni0416.sc" unicode="&#xf234;" horiz-adv-x="711" 
d="M324 270v250h63v-250l205 250h76l-212 -251l221 -269h-82l-208 262v-262h-63v262l-208 -262h-82l221 269l-212 251h76z" />
    <glyph glyph-name="uni0417.sc" unicode="&#xf235;" horiz-adv-x="460" 
d="M392 146c0 -59 -42 -153 -214 -153c-51 0 -91 6 -127 18l8 56c40 -17 92 -21 119 -21c91 0 147 37 147 108c0 63 -73 92 -163 92h-39v48h34c97 0 154 33 154 92c0 52 -24 91 -119 91c-38 0 -79 -9 -112 -22l-9 52c37 12 82 21 134 21c122 0 171 -55 171 -134
c0 -50 -38 -100 -100 -117v-1c80 -14 116 -71 116 -130z" />
    <glyph glyph-name="uni0418.sc" unicode="&#xf236;" horiz-adv-x="610" 
d="M509 0h-64v350c0 30 1 60 4 88c-12 -23 -23 -42 -36 -65l-246 -373h-66v520h64v-359c0 -25 -1 -51 -5 -75h1c10 21 22 44 32 60l246 374h70v-520z" />
    <glyph glyph-name="uni0419.sc" unicode="&#xf237;" horiz-adv-x="609" 
d="M509 0h-64v350c0 30 1 60 4 88c-12 -23 -23 -42 -36 -65l-246 -373h-66v520h64v-359c0 -25 -1 -51 -5 -75h1c10 21 22 44 32 60l246 374h70v-520zM435 730c0 -64 -41 -119 -132 -119c-83 0 -132 46 -132 119h55c0 -40 27 -70 78 -70c48 0 75 33 75 70h56z" />
    <glyph glyph-name="uni040D.sc" unicode="&#xf238;" horiz-adv-x="610" 
d="M509 0h-64v350c0 30 1 60 4 88c-12 -23 -23 -42 -36 -65l-246 -373h-66v520h64v-359c0 -25 -1 -51 -5 -75h1c10 21 22 44 32 60l246 374h70v-520zM352 617l-31 -34l-127 103l40 43z" />
    <glyph glyph-name="uni0406.sc" unicode="&#xf239;" horiz-adv-x="266" 
d="M165 0h-64v520h64v-520z" />
    <glyph glyph-name="uni0407.sc" unicode="&#xf23a;" horiz-adv-x="266" 
d="M165 0h-64v520h64v-520zM268 658c0 -24 -19 -43 -43 -43s-43 19 -43 43c0 25 19 43 43 43s43 -18 43 -43zM84 658c0 -24 -19 -43 -43 -43c-25 0 -43 19 -43 43c0 25 18 43 43 43c24 0 43 -18 43 -43z" />
    <glyph glyph-name="uni0408.sc" unicode="&#xf23b;" horiz-adv-x="321" 
d="M220 149c0 -103 -36 -155 -135 -155c-22 0 -39 3 -56 8v58c16 -5 35 -10 58 -10c49 0 69 25 69 102v368h64v-371z" />
    <glyph glyph-name="uni041A.sc" unicode="&#xf23c;" horiz-adv-x="519" 
d="M490 0h-88l-237 262v-262h-64v520h64v-250l234 250h82l-243 -251z" />
    <glyph glyph-name="uni040C.sc" unicode="&#xf23d;" horiz-adv-x="519" 
d="M490 0h-88l-237 262v-262h-64v520h64v-250l234 250h82l-243 -251zM401 686l-127 -103l-31 34l118 112z" />
    <glyph glyph-name="uni041B.sc" unicode="&#xf23e;" horiz-adv-x="558" 
d="M457 0h-64v469h-199v-100c0 -304 -51 -360 -158 -376l-9 52c66 14 105 45 105 312v163h325v-520z" />
    <glyph glyph-name="uni0409.sc" unicode="&#xf23f;" horiz-adv-x="773" 
d="M132 520h325v-220c27 2 59 4 87 4c132 0 187 -63 187 -143c0 -104 -81 -166 -206 -166c-42 0 -100 3 -132 10v464h-199v-100c0 -304 -51 -360 -158 -376l-9 52c66 14 105 45 105 312v163zM664 150c0 59 -30 104 -131 104c-25 0 -56 -3 -76 -6v-194c18 -5 47 -10 83 -10
c81 0 124 44 124 106z" />
    <glyph glyph-name="uni041C.sc" unicode="&#xf240;" horiz-adv-x="777" 
d="M700 0h-66l-45 317c-9 63 -13 105 -16 132h-1c-5 -22 -14 -52 -26 -86l-127 -363h-71l-118 340c-13 38 -24 72 -34 109h-1c-2 -40 -7 -82 -13 -134l-41 -315h-64l77 520h78l123 -351c10 -30 21 -62 30 -99h1c9 30 17 57 27 87l128 363h85z" />
    <glyph glyph-name="uni041D.sc" unicode="&#xf241;" horiz-adv-x="623" 
d="M521 0h-64v242h-292v-242h-64v520h64v-224h292v224h64v-520z" />
    <glyph glyph-name="uni040A.sc" unicode="&#xf242;" horiz-adv-x="818" 
d="M438 5v240h-273v-245h-64v520h64v-224h273v224h64v-220c26 2 59 4 87 4c131 0 187 -63 187 -143c0 -104 -81 -166 -206 -166c-43 0 -100 3 -132 10zM710 150c0 59 -32 104 -133 104c-24 0 -55 -3 -75 -6v-194c18 -5 47 -10 83 -10c80 0 125 44 125 106z" />
    <glyph glyph-name="uni041E.sc" unicode="&#xf243;" horiz-adv-x="601" 
d="M549 268c0 -177 -117 -275 -256 -275c-157 0 -241 98 -241 259c0 177 117 275 256 275c157 0 241 -98 241 -259zM481 260c0 138 -67 215 -178 215c-101 0 -183 -74 -183 -215c0 -138 67 -214 178 -214c101 0 183 73 183 214z" />
    <glyph glyph-name="uni04E8.sc" unicode="&#xf244;" horiz-adv-x="601" 
d="M122 293h357c-8 107 -65 183 -176 183c-101 0 -171 -72 -181 -183zM548 268c0 -177 -116 -275 -255 -275c-157 0 -241 98 -241 259c0 177 117 275 256 275c154 0 240 -96 240 -259zM480 245h-360c5 -124 67 -200 178 -200c100 0 177 72 182 200z" />
    <glyph glyph-name="uni041F.sc" unicode="&#xf245;" horiz-adv-x="593" 
d="M492 0h-64v469h-263v-469h-64v520h391v-520z" />
    <glyph glyph-name="uni0420.sc" unicode="&#xf246;" horiz-adv-x="473" 
d="M431 368c0 -107 -84 -178 -215 -178c-17 0 -36 1 -51 3v-193h-64v520c38 1 84 2 141 2c118 0 189 -60 189 -154zM363 361c0 66 -45 109 -132 109c-30 0 -49 0 -66 -1v-222c15 -3 38 -5 56 -5c90 0 142 40 142 119z" />
    <glyph glyph-name="uni0421.sc" unicode="&#xf247;" horiz-adv-x="498" 
d="M451 23c-42 -17 -95 -28 -152 -28c-161 0 -248 94 -248 256c0 150 80 275 268 275c41 0 89 -6 126 -17l-11 -57c-39 12 -83 21 -125 21c-131 0 -190 -96 -190 -216c0 -133 67 -206 197 -206c43 0 87 9 123 27z" />
    <glyph glyph-name="uni0405.sc" unicode="&#xf248;" horiz-adv-x="461" 
d="M399 154c0 -102 -99 -162 -208 -162c-42 0 -94 7 -127 16l11 61c39 -15 76 -22 124 -22c62 0 132 26 132 101c0 121 -270 65 -270 230c0 90 73 149 194 149c32 0 78 -4 109 -10l-9 -57c-28 9 -72 15 -104 15c-87 0 -124 -35 -124 -89c0 -120 272 -63 272 -232z" />
    <glyph glyph-name="uni0422.sc" unicode="&#xf249;" horiz-adv-x="425" 
d="M405 469h-161v-469h-64v469h-160v51h385v-51z" />
    <glyph glyph-name="uni0423.sc" unicode="&#xf24a;" horiz-adv-x="477" 
d="M458 520l-170 -403c-40 -92 -86 -124 -148 -124c-14 0 -41 5 -56 9l11 52c16 -6 32 -9 45 -9c39 0 61 12 89 73l-187 402h72l109 -247c13 -29 26 -60 35 -90h1c14 33 27 69 41 103l92 234h66z" />
    <glyph glyph-name="uni040E.sc" unicode="&#xf24b;" horiz-adv-x="475" 
d="M458 520l-170 -403c-40 -92 -86 -124 -148 -124c-14 0 -41 5 -56 9l11 52c16 -6 32 -9 45 -9c39 0 61 12 89 73l-187 402h72l109 -247c13 -29 26 -60 35 -90h1c14 33 27 69 41 103l92 234h66zM391 730c0 -64 -41 -119 -132 -119c-83 0 -132 46 -132 119h55
c0 -40 27 -70 78 -70c48 0 75 33 75 70h56z" />
    <glyph glyph-name="uni0424.sc" unicode="&#xf24c;" horiz-adv-x="690" 
d="M376 -34h-62v57c-187 6 -266 98 -266 233c0 143 104 232 266 241v53h62v-53c183 -8 266 -97 266 -232c0 -142 -103 -234 -266 -242v-57zM314 73v374c-129 -3 -200 -77 -200 -184c0 -106 54 -180 200 -190zM376 73c131 4 199 81 199 186c0 108 -56 180 -199 188v-374z" />
    <glyph glyph-name="uni0425.sc" unicode="&#xf24d;" horiz-adv-x="563" 
d="M522 0h-87l-156 218l-158 -218h-81l204 260l-195 260h83l151 -214l155 214h76l-195 -257z" />
    <glyph glyph-name="uni0426.sc" unicode="&#xf24e;" horiz-adv-x="596" 
d="M547 50v-198h-59v148h-387v520h64v-470h263v470h64v-470h55z" />
    <glyph glyph-name="uni040F.sc" unicode="&#xf24f;" horiz-adv-x="593" 
d="M492 0h-166v-148h-58v148h-167v520h64v-470h264v470h63v-520z" />
    <glyph glyph-name="uni0427.sc" unicode="&#xf250;" horiz-adv-x="540" 
d="M375 0v219c-43 -9 -86 -15 -114 -15c-151 0 -184 78 -184 165v151h64v-140c0 -77 21 -124 129 -124c29 0 64 4 105 13v251h64v-520h-64z" />
    <glyph glyph-name="uni0428.sc" unicode="&#xf251;" horiz-adv-x="780" 
d="M679 0h-578v520h64v-470h193v470h64v-470h194v470h63v-520z" />
    <glyph glyph-name="uni0429.sc" unicode="&#xf252;" horiz-adv-x="784" 
d="M735 50v-198h-59v148h-575v520h64v-470h193v470h64v-470h194v470h63v-470h56z" />
    <glyph glyph-name="uni042A.sc" unicode="&#xf253;" horiz-adv-x="584" 
d="M244 520v-206h94c147 0 204 -68 204 -147c0 -105 -81 -170 -219 -170c-75 0 -143 5 -143 5v467h-160v51h224zM476 158c0 56 -31 105 -149 105h-83v-211s43 -5 90 -5c98 0 142 46 142 111z" />
    <glyph glyph-name="uni042B.sc" unicode="&#xf254;" horiz-adv-x="717" 
d="M616 0h-64v520h64v-520zM165 520v-206h91c144 0 197 -68 197 -147c0 -105 -79 -170 -213 -170c-74 0 -139 5 -139 5v518h64zM387 158c0 56 -28 105 -141 105h-81v-211s41 -5 86 -5c94 0 136 46 136 111z" />
    <glyph glyph-name="uni042C.sc" unicode="&#xf255;" horiz-adv-x="505" 
d="M165 520v-206h95c148 0 203 -68 203 -147c0 -105 -81 -170 -219 -170c-76 0 -143 5 -143 5v518h64zM396 158c0 56 -29 105 -146 105h-85v-211s43 -5 90 -5c97 0 141 46 141 111z" />
    <glyph glyph-name="uni042D.sc" unicode="&#xf256;" horiz-adv-x="502" 
d="M449 262c0 -164 -78 -267 -257 -267c-41 0 -95 1 -137 14l11 57c33 -11 80 -18 129 -18c124 0 184 81 185 195h-273v49h272c-9 119 -78 183 -183 183c-46 0 -82 -7 -125 -19l-9 54c47 12 81 16 141 16c155 0 246 -97 246 -264z" />
    <glyph glyph-name="uni0404.sc" unicode="&#xf257;" horiz-adv-x="499" 
d="M448 23c-41 -18 -95 -29 -150 -29c-168 0 -246 100 -246 255s78 275 263 275c41 0 87 -6 126 -17l-10 -55c-40 13 -84 21 -126 21c-118 0 -173 -79 -182 -181h273v-49h-273c3 -123 63 -196 190 -196c41 0 90 12 123 29z" />
    <glyph glyph-name="uni042E.sc" unicode="&#xf258;" horiz-adv-x="802" 
d="M750 266c0 -174 -114 -273 -255 -273c-164 0 -233 108 -238 250h-92v-243h-64v520h64v-228h95c14 150 118 235 250 235c147 0 240 -93 240 -261zM682 257c0 138 -67 217 -179 217c-96 0 -180 -74 -180 -209c0 -130 59 -218 179 -218c93 0 180 72 180 210z" />
    <glyph glyph-name="uni042F.sc" unicode="&#xf259;" horiz-adv-x="521" 
d="M420 0h-64v234h-75l-148 -234h-73l156 240c-72 15 -120 60 -120 132c0 91 72 150 201 150c32 0 69 0 123 -2v-520zM356 282v188c-27 3 -45 3 -68 3c-87 0 -125 -39 -125 -96c0 -62 42 -95 125 -95h68z" />
    <glyph glyph-name="uni0402.sc" unicode="&#xf25a;" horiz-adv-x="595" 
d="M548 166c0 -131 -100 -186 -238 -193v49c102 6 172 38 172 139c0 60 -26 126 -136 126c-35 0 -71 -7 -102 -17v-270h-64v469h-160v51h384v-51h-160v-150c28 8 73 17 115 17c128 0 189 -70 189 -170z" />
    <glyph glyph-name="uni040B.sc" unicode="&#xf25b;" horiz-adv-x="613" 
d="M537 0h-63v156c0 71 -18 131 -126 131c-40 0 -78 -8 -104 -20v-267h-64v469h-160v51h384v-51h-160v-152c29 11 71 19 114 19c154 0 179 -85 179 -172v-164z" />
    <glyph glyph-name="CyrillicCapitals" horiz-adv-x="909" 
d="M856 333h-54l-105 184h-15v-184h-45v402c23 1 50 2 82 2c74 0 117 -33 117 -105c0 -66 -41 -103 -93 -110c9 -13 18 -28 27 -42zM603 -180h-49l-29 99h-146l-28 -99h-45l118 402h59zM880 106c0 -78 -49 -129 -132 -129c-9 0 -19 0 -27 1v-158h-45v402c25 1 54 1 80 1
c85 0 124 -45 124 -117zM568 735l-108 -257v-145h-45v145l-108 257h51l55 -138c10 -25 20 -54 26 -76h1l26 76l53 138h49zM275 -164c-24 -12 -56 -21 -92 -21c-100 0 -147 73 -147 198c0 121 46 213 157 213c28 0 55 -6 79 -15l-11 -38c-23 11 -46 16 -69 16
c-78 0 -108 -76 -108 -170c0 -105 34 -166 108 -166c28 0 52 8 72 18zM275 349c-24 -12 -56 -21 -92 -21c-100 0 -147 73 -147 198c0 121 46 213 157 213c28 0 55 -6 79 -15l-11 -38c-23 11 -46 16 -69 16c-78 0 -108 -76 -108 -170c0 -105 34 -166 108 -166
c28 0 52 8 72 18zM833 101c0 55 -25 86 -82 86h-30v-173c8 -1 19 -2 30 -2c57 0 82 34 82 89zM789 629c0 52 -25 72 -74 72c-11 0 -24 -1 -33 -1v-146c5 0 17 -1 31 -1c55 0 76 30 76 76zM516 -45l-49 166c-6 21 -10 39 -15 60c-3 -19 -8 -38 -14 -58l-49 -168h127z" />
    <glyph glyph-name="uni0410" unicode="&#x410;" horiz-adv-x="608" 
d="M592 0h-74l-61 172h-311l-63 -172h-67l254 675h69zM438 224l-106 291c-12 33 -22 62 -30 90h-1c-9 -28 -19 -57 -30 -88l-107 -293h274z" />
    <glyph glyph-name="uni0411" unicode="&#x411;" horiz-adv-x="562" 
d="M504 202c0 -107 -78 -205 -248 -205c-44 0 -112 1 -160 3v675h361v-52h-297v-235h106c162 0 238 -75 238 -186zM438 196c0 82 -50 141 -182 141h-96v-282c24 -3 64 -6 105 -6c109 0 173 60 173 147z" />
    <glyph glyph-name="uni0412" unicode="&#x412;" horiz-adv-x="563" 
d="M504 198c0 -83 -53 -201 -255 -201c-50 0 -102 2 -153 3v675c43 0 98 2 178 2c144 0 209 -62 209 -158c0 -75 -47 -137 -127 -162v-1c90 -9 148 -70 148 -158zM417 508c0 67 -34 118 -154 118c-35 0 -72 -1 -103 -2v-249c22 -1 41 -1 68 -1c126 0 189 49 189 134z
M438 192c0 99 -85 133 -210 133c-13 0 -50 0 -68 -1v-269c20 -3 65 -6 97 -6c128 0 181 63 181 143z" />
    <glyph glyph-name="uni0413" unicode="&#x413;" horiz-adv-x="425" 
d="M418 623h-258v-623h-64v675h322v-52z" />
    <glyph glyph-name="uni0403" unicode="&#x403;" horiz-adv-x="425" 
d="M418 623h-258v-623h-64v675h322v-52zM386 790l-172 -58l-15 38l164 74z" />
    <glyph glyph-name="uni0490" unicode="&#x490;" horiz-adv-x="425" 
d="M418 623h-258v-623h-64v675h264v129h58v-181z" />
    <glyph glyph-name="uni0492" unicode="&#x492;" horiz-adv-x="476" 
d="M106 373v302h332v-52h-267v-250h206v-52h-206v-321h-65v321h-85v52h85z" />
    <glyph glyph-name="uni0414" unicode="&#x414;" horiz-adv-x="667" 
d="M638 52v-210h-59v158h-516v-158h-58v210h62c54 70 73 158 73 412v211h413v-623h85zM489 52v570h-285v-145c0 -267 -26 -365 -69 -425h354z" />
    <glyph glyph-name="uni0415" unicode="&#x415;" horiz-adv-x="508" 
d="M429 0h-333v675h333v-52h-269v-249h256v-51h-256v-270h269v-53z" />
    <glyph glyph-name="uni0400" unicode="&#x400;" horiz-adv-x="508" 
d="M429 0h-333v675h333v-52h-269v-249h256v-51h-256v-270h269v-53zM316 770l-15 -38l-171 58l23 54z" />
    <glyph glyph-name="uni0401" unicode="&#x401;" horiz-adv-x="508" 
d="M429 0h-333v675h333v-52h-269v-249h256v-51h-256v-270h269v-53zM404 777c0 -24 -18 -42 -42 -42s-43 18 -43 42s19 43 43 43s42 -19 42 -43zM192 777c0 -24 -19 -42 -43 -42s-42 18 -42 42s18 43 42 43s43 -19 43 -43z" />
    <glyph glyph-name="uni0416" unicode="&#x416;" horiz-adv-x="799" 
d="M367 348v327h64v-327l276 327h78l-284 -327l295 -348h-88l-277 342v-342h-64v342l-278 -342h-86l294 346l-283 329h79z" />
    <glyph glyph-name="uni0496" unicode="&#x496;" horiz-adv-x="820" 
d="M367 348v327h64v-327l276 327h78l-284 -327l253 -296h66v-210h-59v158h-53l-277 342v-342h-64v342l-278 -342h-86l294 346l-283 329h79z" />
    <glyph glyph-name="uni0417" unicode="&#x417;" horiz-adv-x="536" 
d="M478 198c0 -70 -45 -205 -269 -205c-59 0 -108 4 -153 18l9 60c40 -13 89 -23 154 -23c147 0 193 66 193 146c0 103 -99 132 -218 132h-46v51h44c126 0 201 45 201 131c0 68 -29 122 -156 122c-50 0 -102 -10 -145 -24l-7 55c44 12 99 22 162 22c150 0 212 -69 212 -163
c0 -76 -51 -141 -130 -161v-1c105 -13 149 -87 149 -160z" />
    <glyph glyph-name="uni0498" unicode="&#x498;" horiz-adv-x="536" 
d="M478 198c0 -67 -38 -178 -204 -201v-155h-59v151c-66 0 -114 4 -159 18l9 60c40 -13 89 -23 154 -23c147 0 193 66 193 146c0 103 -99 132 -218 132h-46v51h44c126 0 201 45 201 131c0 68 -29 122 -156 122c-50 0 -102 -10 -145 -24l-7 55c44 12 99 22 162 22
c150 0 212 -69 212 -163c0 -76 -51 -141 -130 -161v-1c105 -13 149 -87 149 -160z" />
    <glyph glyph-name="uni0418" unicode="&#x418;" horiz-adv-x="679" 
d="M583 0h-64v484c0 37 2 73 7 107h-1c-15 -30 -29 -54 -47 -83l-319 -508h-63v675h64v-498c0 -28 -1 -58 -4 -87h1c12 26 26 55 40 77l319 508h67v-675z" />
    <glyph glyph-name="uni0419" unicode="&#x419;" horiz-adv-x="679" 
d="M583 0h-64v484c0 37 2 73 7 107h-1c-15 -30 -29 -54 -47 -83l-319 -508h-63v675h64v-498c0 -28 -1 -58 -4 -87h1c12 26 26 55 40 77l319 508h67v-675zM499 842c0 -63 -42 -119 -144 -119c-95 0 -144 47 -144 119h58c0 -48 28 -75 87 -75c57 0 85 30 85 75h58z" />
    <glyph glyph-name="uni040D" unicode="&#x40d;" horiz-adv-x="679" 
d="M583 0h-64v484c0 37 2 73 7 107h-1c-15 -30 -29 -54 -47 -83l-319 -508h-63v675h64v-498c0 -28 -1 -58 -4 -87h1c12 26 26 55 40 77l319 508h67v-675zM380 770l-15 -38l-171 58l23 54z" />
    <glyph glyph-name="uni0406" unicode="&#x406;" horiz-adv-x="256" 
d="M160 0h-64v675h64v-675z" />
    <glyph glyph-name="uni0407" unicode="&#x407;" horiz-adv-x="256" 
d="M160 0h-64v675h64v-675zM276 777c0 -24 -18 -42 -42 -42s-43 18 -43 42s19 43 43 43s42 -19 42 -43zM64 777c0 -24 -19 -42 -43 -42s-42 18 -42 42s18 43 42 43s43 -19 43 -43z" />
    <glyph glyph-name="uni0408" unicode="&#x408;" horiz-adv-x="325" 
d="M230 167c0 -113 -46 -173 -160 -173c-24 0 -50 4 -69 8v59c20 -7 49 -13 74 -13c58 0 90 24 90 125v502h65v-508z" />
    <glyph glyph-name="uni041A" unicode="&#x41a;" horiz-adv-x="575" 
d="M555 0h-91l-304 342v-342h-64v675h64v-327l304 327h81l-312 -327z" />
    <glyph glyph-name="uni040C" unicode="&#x40c;" horiz-adv-x="575" 
d="M555 0h-91l-304 342v-342h-64v675h64v-327l304 327h81l-312 -327zM445 790l-172 -58l-15 38l164 74z" />
    <glyph glyph-name="uni04A0" unicode="&#x4a0;" horiz-adv-x="623" 
d="M622 0h-91l-304 342v-342h-64v622h-144v53h208v-327l304 327h81l-312 -327z" />
    <glyph glyph-name="uni049A" unicode="&#x49a;" horiz-adv-x="580" 
d="M576 52v-210h-59v158h-53l-304 342v-342h-64v675h64v-327l304 327h81l-312 -327l277 -296h66z" />
    <glyph glyph-name="uni049C" unicode="&#x49c;" horiz-adv-x="660" 
d="M363 358l294 -358h-88l-258 328h-25v-141h-50v141h-76v-328h-64v675h64v-295h76v135h50v-135h25l258 295h77z" />
    <glyph glyph-name="uni041B" unicode="&#x41b;" horiz-adv-x="626" 
d="M530 0h-64v622h-275v-145c0 -405 -55 -468 -179 -485l-11 54c91 18 126 61 126 418v211h403v-675z" />
    <glyph glyph-name="uni0409" unicode="&#x409;" horiz-adv-x="971" 
d="M127 675h403v-293c35 4 76 6 111 6c165 0 229 -84 229 -183c0 -130 -97 -212 -250 -212c-50 0 -116 5 -154 13v616h-275v-145c0 -405 -55 -468 -179 -485l-11 54c91 18 126 61 126 418v211zM804 191c0 82 -39 144 -175 144c-33 0 -72 -4 -99 -8v-268
c24 -8 61 -14 109 -14c107 0 165 61 165 146z" />
    <glyph glyph-name="uni041C" unicode="&#x41c;" horiz-adv-x="895" 
d="M834 0h-67l-63 438c-11 80 -18 137 -22 171h-2c-6 -24 -16 -61 -32 -107l-170 -502h-77l-161 471c-18 52 -31 98 -42 138h-1c-4 -52 -10 -108 -18 -178l-52 -431h-66l94 675h84l164 -481c11 -32 27 -83 39 -129h1c13 45 23 81 37 121l167 489h88z" />
    <glyph glyph-name="uni041D" unicode="&#x41d;" horiz-adv-x="706" 
d="M610 0h-64v324h-386v-324h-64v675h64v-298h386v298h64v-675z" />
    <glyph glyph-name="uni04A2" unicode="&#x4a2;" horiz-adv-x="713" 
d="M610 52h94v-210h-58v158h-100v324h-386v-324h-64v675h64v-298h386v298h64v-623z" />
    <glyph glyph-name="uni040A" unicode="&#x40a;" horiz-adv-x="1003" 
d="M546 6v318h-386v-324h-64v675h64v-298h386v298h64v-293c35 4 76 6 111 6c165 0 229 -84 229 -183c0 -130 -97 -212 -249 -212c-50 0 -117 5 -155 13zM884 191c0 82 -39 144 -175 144c-33 0 -72 -4 -99 -8v-268c24 -8 61 -14 109 -14c107 0 165 61 165 146z" />
    <glyph glyph-name="uni041E" unicode="&#x41e;" horiz-adv-x="706" 
d="M658 345c0 -228 -142 -353 -314 -353c-200 0 -296 136 -296 338c0 228 142 353 313 353c200 0 297 -136 297 -338zM589 332c0 174 -78 297 -236 297c-127 0 -236 -104 -236 -285c0 -175 77 -297 236 -297c127 0 236 103 236 285z" />
    <glyph glyph-name="uni04E8" unicode="&#x4e8;" horiz-adv-x="706" 
d="M658 344c0 -226 -142 -352 -314 -352c-200 0 -296 136 -296 339c0 227 142 352 313 352c185 0 297 -124 297 -339zM588 375c-12 162 -98 254 -235 254c-119 0 -224 -91 -235 -254h470zM589 324h-472c5 -164 82 -277 235 -277c122 0 233 99 237 277z" />
    <glyph glyph-name="uni041F" unicode="&#x41f;" horiz-adv-x="660" 
d="M564 0h-64v621h-340v-621h-64v675h468v-675z" />
    <glyph glyph-name="uni0420" unicode="&#x420;" horiz-adv-x="519" 
d="M480 489c0 -132 -114 -219 -258 -219c-21 0 -42 1 -62 3v-273h-64v675c46 2 98 3 154 3c149 0 230 -78 230 -189zM413 478c0 96 -57 147 -175 147c-31 0 -55 0 -78 -2v-295c20 -3 43 -5 67 -5c116 1 186 63 186 155z" />
    <glyph glyph-name="uni0421" unicode="&#x421;" horiz-adv-x="595" 
d="M548 32c-53 -23 -121 -39 -194 -39c-202 0 -302 125 -302 331c0 201 94 358 325 358c53 0 111 -8 161 -23l-12 -59c-51 18 -108 28 -163 28c-173 0 -242 -135 -242 -293c0 -181 80 -286 252 -286c55 0 118 16 162 38z" />
    <glyph glyph-name="uni04AA" unicode="&#x4aa;" horiz-adv-x="595" 
d="M370 -7v-151h-59v154c-172 16 -259 135 -259 328c0 201 94 358 325 358c53 0 111 -8 161 -23l-12 -59c-51 18 -108 28 -163 28c-173 0 -242 -135 -242 -293c0 -181 80 -286 252 -286c55 0 118 16 162 38l13 -55c-49 -21 -112 -37 -178 -39z" />
    <glyph glyph-name="uni0405" unicode="&#x405;" horiz-adv-x="504" 
d="M446 191c0 -117 -94 -199 -242 -199c-52 0 -103 7 -143 19l11 63c42 -16 90 -26 137 -26c91 0 170 37 170 135c0 167 -321 107 -321 317c0 105 79 183 223 183c41 0 85 -5 121 -13l-8 -58c-36 11 -78 18 -117 18c-104 0 -154 -49 -154 -123c0 -163 323 -104 323 -316z
" />
    <glyph glyph-name="uni0422" unicode="&#x422;" horiz-adv-x="520" 
d="M501 622h-209v-622h-64v622h-209v53h482v-53z" />
    <glyph glyph-name="uni0423" unicode="&#x423;" horiz-adv-x="552" 
d="M536 675l-216 -529c-46 -114 -97 -154 -173 -154c-17 0 -48 5 -66 11l11 55c19 -7 40 -11 55 -11c52 0 79 16 116 99l-235 529h72l147 -342c16 -39 34 -79 45 -118l1 -1c17 43 35 92 53 136l123 325h67z" />
    <glyph glyph-name="uni040E" unicode="&#x40e;" horiz-adv-x="552" 
d="M536 675l-216 -529c-46 -114 -97 -154 -173 -154c-17 0 -48 5 -66 11l11 55c19 -7 40 -11 55 -11c52 0 79 16 116 99l-235 529h72l147 -342c16 -39 34 -79 45 -118l1 -1c17 43 35 92 53 136l123 325h67zM427 842c0 -63 -42 -119 -144 -119c-95 0 -144 47 -144 119h58
c0 -48 28 -75 87 -75c57 0 85 30 85 75h58z" />
    <glyph glyph-name="uni04AE" unicode="&#x4ae;" horiz-adv-x="519" 
d="M505 675l-216 -429v-246h-64v246l-211 429h71l120 -251c20 -41 38 -82 54 -122h1c17 43 39 88 60 132l117 241h68z" />
    <glyph glyph-name="uni04B0" unicode="&#x4b0;" horiz-adv-x="531" 
d="M510 675l-215 -428h168v-51h-168v-196h-64v196h-168v51h168l-211 428h71l120 -250c20 -41 37 -81 54 -122h1c17 43 38 88 60 132l117 240h67z" />
    <glyph glyph-name="uni0424" unicode="&#x424;" horiz-adv-x="822" 
d="M778 343c0 -188 -131 -308 -335 -319v-75h-64v75c-236 9 -335 129 -335 308c0 188 131 308 335 319v70h64v-70c233 -9 335 -127 335 -308zM709 335c0 147 -73 250 -266 262v-518c172 5 266 110 266 256zM379 78v519c-173 -4 -267 -110 -267 -256c0 -147 73 -250 267 -263
z" />
    <glyph glyph-name="uni0425" unicode="&#x425;" horiz-adv-x="578" 
d="M556 0h-80l-191 301l-189 -301h-74l226 349l-212 326h75l175 -275l173 275h73l-209 -320z" />
    <glyph glyph-name="uni04B2" unicode="&#x4b2;" horiz-adv-x="598" 
d="M522 52h66v-210h-58v158h-54l-191 301l-189 -301h-74l226 349l-212 326h75l175 -275l173 275h73l-209 -320z" />
    <glyph glyph-name="uni0426" unicode="&#x426;" horiz-adv-x="685" 
d="M656 52v-210h-59v158h-501v675h64v-623h338v623h65v-623h93z" />
    <glyph glyph-name="uni040F" unicode="&#x40f;" horiz-adv-x="658" 
d="M562 0h-204v-158h-58v158h-204v675h64v-623h338v623h64v-675z" />
    <glyph glyph-name="uni0427" unicode="&#x427;" horiz-adv-x="617" 
d="M457 304c-36 -21 -100 -37 -172 -37c-188 0 -227 101 -227 211v197h65v-184c0 -100 31 -171 169 -171c67 0 125 15 165 38v317h64v-675h-64v304z" />
    <glyph glyph-name="uni04B8" unicode="&#x4b8;" horiz-adv-x="620" 
d="M318 320c51 3 103 15 142 38v317h64v-675h-64v305c-34 -21 -90 -33 -142 -37v-132h-50v132c-173 5 -210 104 -210 210v197h65v-184c0 -91 25 -162 145 -169v142h50v-144z" />
    <glyph glyph-name="uni0428" unicode="&#x428;" horiz-adv-x="939" 
d="M843 0h-747v675h64v-623h277v623h64v-623h278v623h64v-675z" />
    <glyph glyph-name="uni0429" unicode="&#x429;" horiz-adv-x="965" 
d="M936 52v-210h-58v158h-782v675h64v-623h277v623h64v-623h278v623h64v-623h93z" />
    <glyph glyph-name="uni042A" unicode="&#x42a;" horiz-adv-x="630" 
d="M227 675v-295c27 4 57 8 114 8c162 0 226 -84 226 -189c0 -124 -97 -206 -245 -206c-48 0 -114 4 -159 13v617h-144v52h208zM501 186c0 87 -39 150 -174 150c-38 0 -76 -6 -100 -10v-267c29 -10 67 -14 114 -14c102 0 160 61 160 141z" />
    <glyph glyph-name="uni042B" unicode="&#x42b;" horiz-adv-x="827" 
d="M500 205c0 -130 -97 -212 -249 -212c-50 0 -117 5 -155 13v669h64v-293c35 4 76 6 111 6c165 0 229 -84 229 -183zM434 191c0 82 -39 144 -175 144c-33 0 -72 -4 -99 -8v-268c24 -8 61 -14 109 -14c107 0 165 61 165 146zM713 0h-64v675h64v-675z" />
    <glyph glyph-name="uni042C" unicode="&#x42c;" horiz-adv-x="563" 
d="M500 205c0 -130 -97 -212 -249 -212c-50 0 -117 5 -155 13v669h64v-293c35 4 76 6 111 6c165 0 229 -84 229 -183zM434 191c0 82 -39 144 -175 144c-33 0 -72 -4 -99 -8v-268c24 -8 61 -14 109 -14c107 0 165 61 165 146z" />
    <glyph glyph-name="uni042D" unicode="&#x42d;" horiz-adv-x="594" 
d="M546 338c0 -213 -127 -346 -324 -346c-52 0 -120 10 -173 31l16 58c44 -17 106 -33 162 -33c161 0 248 114 249 274h-359v52h358c-11 166 -102 254 -246 254c-54 0 -112 -12 -155 -29l-13 53c49 18 108 29 176 29c196 0 309 -119 309 -343z" />
    <glyph glyph-name="uni0404" unicode="&#x404;" horiz-adv-x="615" 
d="M548 31c-53 -23 -121 -39 -193 -39c-202 0 -303 124 -303 332c0 200 93 357 325 357c53 0 111 -8 161 -23l-12 -59c-51 18 -109 29 -163 29c-159 0 -230 -114 -240 -254h358v-52h-359c3 -173 82 -274 251 -274c55 0 118 16 162 38z" />
    <glyph glyph-name="uni042E" unicode="&#x42e;" horiz-adv-x="939" 
d="M892 344c0 -226 -142 -352 -314 -352c-207 0 -292 146 -295 331h-123v-323h-64v675h64v-301h125c15 196 146 309 310 309c184 0 297 -124 297 -339zM823 333c0 188 -88 296 -236 296c-126 0 -237 -103 -237 -285c0 -175 78 -297 236 -297c125 0 237 102 237 286z" />
    <glyph glyph-name="uni042F" unicode="&#x42f;" horiz-adv-x="575" 
d="M479 0h-64v312h-99l-195 -312h-75l203 320c-96 11 -156 72 -156 168c0 116 89 190 242 190c47 0 91 -2 144 -5v-673zM415 363v260c-25 2 -59 3 -90 3c-114 0 -165 -54 -165 -131c0 -86 55 -132 165 -132h90z" />
    <glyph glyph-name="uni0402" unicode="&#x402;" horiz-adv-x="688" 
d="M635 216c0 -170 -123 -241 -295 -249v51c135 7 229 52 229 192c0 81 -32 175 -180 175c-46 0 -93 -10 -135 -25v-360h-64v622h-171v53h444v-53h-209v-209c36 12 94 23 148 23c161 0 233 -93 233 -220z" />
    <glyph glyph-name="uni040B" unicode="&#x40b;" horiz-adv-x="717" 
d="M622 0h-64v201c0 99 -22 183 -167 183c-53 0 -103 -11 -137 -27v-357h-64v622h-171v53h444v-53h-209v-210c39 14 91 24 145 24c196 0 223 -115 223 -226v-210z" />
    <glyph glyph-name="GreekLowercase" horiz-adv-x="926" 
d="M221 -180h-166v402h45v-365h121v-37zM513 -164c-25 -12 -57 -21 -93 -21c-99 0 -146 73 -146 198c0 121 45 213 156 213c28 0 55 -6 79 -15l-11 -38c-23 11 -46 16 -69 16c-78 0 -108 -76 -108 -170c0 -105 35 -166 109 -166c27 0 52 8 71 18zM304 721l-14 -38
c-27 12 -57 20 -89 20c-88 0 -118 -74 -118 -171c0 -109 39 -167 116 -167c19 0 42 4 60 10v158h45v-184c-33 -13 -73 -21 -112 -21c-103 0 -156 71 -156 199c0 122 48 212 169 212c35 0 66 -5 99 -18zM631 333h-53l-105 184h-15v-184h-45v402c22 1 49 2 82 2
c74 0 116 -33 116 -105c0 -66 -41 -103 -93 -110c9 -13 19 -28 27 -42zM564 629c0 52 -25 72 -74 72c-11 0 -23 -1 -32 -1v-146c5 0 16 -1 31 -1c55 0 75 30 75 76zM881 333h-174v402h173v-37h-128v-140h122v-36h-122v-153h129v-36z" />
    <glyph glyph-name="alpha" unicode="&#x3b1;" horiz-adv-x="581" 
d="M541 45v-50c-18 -1 -27 -1 -33 -1c-67 0 -96 31 -90 121h-1c-15 -59 -79 -123 -174 -123c-119 0 -196 88 -196 246s90 267 217 267c75 0 139 -45 160 -121c1 39 8 75 19 113h62c-25 -81 -39 -207 -39 -301c0 -138 9 -151 75 -151zM403 246v6c0 120 -55 203 -143 203
c-80 0 -146 -71 -146 -210c0 -131 55 -201 141 -201c87 0 148 82 148 202z" />
    <glyph glyph-name="alphatonos" unicode="&#x3ac;" horiz-adv-x="581" 
d="M541 45v-50c-18 -1 -27 -1 -33 -1c-67 0 -96 31 -90 121h-1c-15 -59 -79 -123 -174 -123c-119 0 -196 88 -196 246s90 267 217 267c75 0 139 -45 160 -121c1 39 8 75 19 113h62c-25 -81 -39 -207 -39 -301c0 -138 9 -151 75 -151zM403 246v6c0 120 -55 203 -143 203
c-80 0 -146 -71 -146 -210c0 -131 55 -201 141 -201c87 0 148 82 148 202zM331 732l-39 -165l-46 6l23 166z" />
    <glyph glyph-name="beta" unicode="&#x3b2;" horiz-adv-x="544" 
d="M159 73c32 -18 72 -29 108 -29c92 0 149 62 149 157c0 84 -42 155 -147 155h-42v49c106 4 160 67 160 160c0 63 -33 120 -108 120c-72 0 -120 -55 -120 -156v-456zM159 -49c0 -67 3 -134 16 -202h-61c-14 66 -18 127 -18 194v583c0 145 89 210 191 210
c115 0 165 -79 165 -161c0 -92 -49 -164 -121 -183v-1c105 -5 151 -90 151 -183c0 -119 -83 -216 -224 -216c-38 0 -72 5 -99 15v-56z" />
    <glyph glyph-name="gamma" unicode="&#x3b3;" horiz-adv-x="464" 
d="M243 -1v-250h-63v157c0 127 -7 172 -164 591h71c126 -356 134 -400 136 -428h1c101 163 145 286 114 428h69c23 -171 -37 -304 -164 -498z" />
    <glyph glyph-name="delta" unicode="&#x3b4;" horiz-adv-x="517" 
d="M271 736c49 0 97 -14 137 -38l-25 -48c-39 24 -75 36 -120 36c-53 0 -70 -23 -70 -45c0 -31 10 -48 123 -133c115 -87 155 -162 155 -271c0 -126 -76 -245 -221 -245c-123 0 -206 81 -206 251c0 135 68 237 182 258c-69 50 -99 86 -99 133c0 40 29 102 144 102zM406 231
c0 102 -38 160 -129 228c-85 -1 -167 -65 -167 -210c0 -128 54 -205 150 -205c73 0 146 60 146 187z" />
    <glyph glyph-name="epsilon" unicode="&#x3b5;" horiz-adv-x="441" 
d="M401 20c-58 -19 -110 -27 -158 -27c-141 0 -195 65 -195 135c0 63 36 111 96 130v1c-47 19 -76 53 -76 103c0 78 57 144 189 144c43 0 90 -7 127 -17l-12 -53c-35 11 -78 20 -121 20c-88 0 -120 -41 -120 -90c0 -48 41 -83 111 -83h109v-48h-118c-82 0 -120 -49 -120 -97
c0 -52 43 -95 140 -95c40 0 90 8 137 26z" />
    <glyph glyph-name="epsilontonos" unicode="&#x3ad;" horiz-adv-x="441" 
d="M401 20c-58 -19 -110 -27 -158 -27c-141 0 -195 65 -195 135c0 63 36 111 96 130v1c-47 19 -76 53 -76 103c0 78 57 144 189 144c43 0 90 -7 127 -17l-12 -53c-35 11 -78 20 -121 20c-88 0 -120 -41 -120 -90c0 -48 41 -83 111 -83h109v-48h-118c-82 0 -120 -49 -120 -97
c0 -52 43 -95 140 -95c40 0 90 8 137 26zM306 732l-39 -165l-46 6l23 166z" />
    <glyph glyph-name="zeta" unicode="&#x3b6;" horiz-adv-x="403" 
d="M397 -46c0 -67 -42 -126 -82 -173l-43 28c37 51 60 93 60 136c0 34 -17 52 -104 59c-139 13 -185 73 -185 190c0 169 139 415 255 486h-243v50h320v-45c-151 -92 -266 -343 -266 -477c0 -98 25 -135 141 -147c108 -12 147 -45 147 -107z" />
    <glyph glyph-name="eta" unicode="&#x3b7;" horiz-adv-x="588" 
d="M67 497h65c10 -38 18 -83 21 -119h1c23 72 85 127 179 127c118 0 160 -74 160 -179v-375c0 -67 3 -134 16 -202h-61c-14 66 -18 127 -18 194v360c0 102 -31 151 -111 151c-85 0 -150 -82 -150 -197v-257h-63v247c0 86 -15 170 -39 250z" />
    <glyph glyph-name="etatonos" unicode="&#x3ae;" horiz-adv-x="588" 
d="M67 497h65c10 -38 18 -83 21 -119h1c23 72 85 127 179 127c118 0 160 -74 160 -179v-375c0 -67 3 -134 16 -202h-61c-14 66 -18 127 -18 194v360c0 102 -31 151 -111 151c-85 0 -150 -82 -150 -197v-257h-63v247c0 86 -15 170 -39 250zM389 732l-39 -165l-46 6l23 166z
" />
    <glyph glyph-name="theta" unicode="&#x3b8;" horiz-adv-x="556" 
d="M492 378c0 -245 -75 -386 -218 -386c-129 0 -210 124 -210 359c0 246 75 387 219 387c129 0 209 -127 209 -360zM427 397c-4 179 -57 289 -151 289c-102 0 -142 -132 -147 -289h298zM427 348h-298c2 -190 55 -303 151 -303c105 0 144 138 147 303z" />
    <glyph glyph-name="iota" unicode="&#x3b9;" horiz-adv-x="265" 
d="M217 -5c-14 -1 -21 -1 -28 -1c-70 0 -93 33 -93 124v379h63v-362c0 -80 12 -88 58 -88v-52z" />
    <glyph glyph-name="iotatonos" unicode="&#x3af;" horiz-adv-x="265" 
d="M217 -5c-14 -1 -21 -1 -28 -1c-70 0 -93 33 -93 124v379h63v-362c0 -80 12 -88 58 -88v-52zM190 732l-39 -165l-46 6l23 166z" />
    <glyph glyph-name="iotadieresis" unicode="&#x3ca;" horiz-adv-x="265" 
d="M217 -5c-14 -1 -21 -1 -28 -1c-70 0 -93 33 -93 124v379h63v-362c0 -80 12 -88 58 -88v-52zM256 658c0 -24 -19 -43 -43 -43s-43 19 -43 43c0 25 19 43 43 43c25 0 43 -18 43 -43zM89 658c0 -24 -19 -43 -43 -43c-25 0 -43 19 -43 43c0 25 18 43 43 43
c24 0 43 -18 43 -43z" />
    <glyph glyph-name="iotadieresistonos" unicode="&#x390;" horiz-adv-x="265" 
d="M217 -5c-14 -1 -21 -1 -28 -1c-70 0 -93 33 -93 124v379h63v-362c0 -80 12 -88 58 -88v-52zM300 658c0 -24 -19 -42 -42 -42c-24 0 -42 18 -42 42s18 42 42 42c23 0 42 -18 42 -42zM176 733l-29 -167l-43 5l13 166zM60 658c0 -24 -18 -42 -42 -42c-23 0 -42 18 -42 42
s19 42 42 42c24 0 42 -18 42 -42z" />
    <glyph glyph-name="kappa" unicode="&#x3ba;" horiz-adv-x="473" 
d="M448 0h-84l-205 259v-259h-63v497h63v-231l196 231h77l-203 -231z" />
    <glyph glyph-name="lambda" unicode="&#x3bb;" horiz-adv-x="462" 
d="M205 496l-33 95c-27 78 -58 92 -89 92c-10 0 -23 -1 -31 -2l-3 50c15 2 36 4 47 4c59 0 100 -25 133 -117l218 -618h-70l-145 422h-1c-9 -29 -31 -94 -51 -149l-102 -273h-70z" />
    <glyph glyph-name="mu" unicode="&#xb5;" horiz-adv-x="589" 
d="M546 -5c-12 -1 -22 -1 -29 -1c-69 0 -96 42 -89 122h-1c-28 -75 -91 -124 -177 -124c-44 0 -79 14 -97 42l8 -285h-65v748h63v-332c0 -82 31 -122 101 -122c95 0 160 91 160 217v237h63v-330c0 -103 13 -120 63 -120v-52z" />
    <glyph glyph-name="mu1" horiz-adv-x="611" 
d="M596 68c-15 -42 -52 -76 -104 -76c-62 0 -77 59 -64 118h-1c-24 -70 -91 -118 -168 -118c-47 0 -82 12 -106 35l9 -278h-66v748h63v-314c0 -84 25 -139 110 -139c86 0 151 90 151 193v260h63v-363c0 -68 9 -85 32 -85c21 0 38 20 45 40z" />
    <glyph glyph-name="nu" unicode="&#x3bd;" horiz-adv-x="471" 
d="M447 497c-31 -167 -94 -331 -194 -497h-58l-181 497h72l118 -346c10 -30 19 -56 27 -86h1c76 142 125 288 145 432h70z" />
    <glyph glyph-name="xi" unicode="&#x3be;" horiz-adv-x="408" 
d="M406 -46c0 -67 -42 -126 -82 -173l-43 28c37 51 60 93 60 136c0 36 -18 52 -110 60c-136 12 -190 71 -190 177c0 105 66 170 138 191c-61 13 -99 65 -99 131c0 76 42 153 116 178c-17 -1 -38 -2 -60 -2h-84v50h315v-50h-25c-148 0 -200 -89 -200 -163
c0 -63 39 -112 124 -112h82v-50h-50c-144 0 -193 -83 -193 -158c0 -87 38 -123 148 -135c114 -12 153 -45 153 -108z" />
    <glyph glyph-name="omicron" unicode="&#x3bf;" horiz-adv-x="540" 
d="M495 256c0 -145 -88 -264 -234 -264c-132 0 -216 81 -216 255c0 139 84 258 233 258c116 0 217 -64 217 -249zM430 253c0 125 -54 201 -159 201c-82 0 -161 -63 -161 -202c0 -132 59 -208 162 -208c82 0 158 63 158 209z" />
    <glyph glyph-name="omicrontonos" unicode="&#x3cc;" horiz-adv-x="540" 
d="M495 256c0 -145 -88 -264 -234 -264c-132 0 -216 81 -216 255c0 139 84 258 233 258c116 0 217 -64 217 -249zM430 253c0 125 -54 201 -159 201c-82 0 -161 -63 -161 -202c0 -132 59 -208 162 -208c82 0 158 63 158 209zM331 732l-39 -165l-46 6l23 166z" />
    <glyph glyph-name="pi" unicode="&#x3c0;" horiz-adv-x="635" 
d="M598 445h-135c0 -146 8 -241 20 -302c14 -73 30 -96 60 -96c16 0 35 3 49 7l10 -52c-17 -5 -42 -8 -65 -8c-66 0 -98 36 -118 138c-13 69 -19 171 -19 313h-191c2 -148 -17 -298 -66 -447l-73 4c53 149 80 296 77 443h-133v52h584v-52z" />
    <glyph glyph-name="rho" unicode="&#x3c1;" horiz-adv-x="538" 
d="M490 257c0 -145 -77 -264 -239 -264c-49 0 -85 7 -112 18c1 -25 1 -59 1 -78v-184h-63v518c0 130 67 238 212 238c110 0 201 -65 201 -248zM425 253c0 122 -44 201 -145 201c-92 0 -140 -73 -140 -184v-198c29 -14 65 -28 121 -28c94 0 164 66 164 209z" />
    <glyph glyph-name="sigma" unicode="&#x3c3;" horiz-adv-x="572" 
d="M535 445c-42 0 -85 2 -110 5c37 -36 67 -106 67 -199c0 -143 -85 -259 -231 -259c-132 0 -216 81 -216 255c0 139 79 258 253 258c65 0 150 -8 237 -8v-52zM428 248c0 88 -24 155 -74 204c-20 1 -42 2 -63 2c-108 0 -181 -63 -181 -202c0 -132 59 -208 162 -208
c82 0 156 63 156 204z" />
    <glyph glyph-name="sigma1" unicode="&#x3c2;" horiz-adv-x="451" 
d="M407 -46c0 -67 -42 -126 -82 -173l-43 28c37 51 60 93 60 136c0 34 -17 52 -104 59c-134 13 -192 99 -192 209c0 184 82 290 231 290c52 0 94 -8 126 -19l-14 -55c-31 12 -74 24 -121 24c-102 0 -155 -91 -155 -227c0 -91 37 -153 147 -165c108 -12 147 -45 147 -107z
" />
    <glyph glyph-name="tau" unicode="&#x3c4;" horiz-adv-x="362" 
d="M330 445h-143v-278c0 -95 13 -118 58 -118c11 0 29 1 40 4l7 -54c-14 -3 -41 -6 -60 -6c-84 0 -108 44 -108 144v308h-123v52h329v-52z" />
    <glyph glyph-name="upsilon" unicode="&#x3c5;" horiz-adv-x="578" 
d="M491 288c0 -202 -89 -296 -213 -296c-137 0 -186 79 -186 228v277h63v-261c0 -129 31 -193 131 -193c84 0 142 67 142 233c0 78 -7 155 -18 221h66c11 -63 15 -137 15 -209z" />
    <glyph glyph-name="upsilontonos" unicode="&#x3cd;" horiz-adv-x="579" 
d="M491 288c0 -202 -89 -296 -213 -296c-137 0 -186 79 -186 228v277h63v-261c0 -129 31 -193 131 -193c84 0 142 67 142 233c0 78 -7 155 -18 221h66c11 -63 15 -137 15 -209zM347 732l-39 -165l-46 6l23 166z" />
    <glyph glyph-name="upsilondieresis" unicode="&#x3cb;" horiz-adv-x="578" 
d="M491 288c0 -202 -89 -296 -213 -296c-137 0 -186 79 -186 228v277h63v-261c0 -129 31 -193 131 -193c84 0 142 67 142 233c0 78 -7 155 -18 221h66c11 -63 15 -137 15 -209zM412 658c0 -24 -19 -43 -43 -43s-43 19 -43 43c0 25 19 43 43 43s43 -18 43 -43zM228 658
c0 -24 -19 -43 -43 -43c-25 0 -43 19 -43 43c0 25 18 43 43 43c24 0 43 -18 43 -43z" />
    <glyph glyph-name="upsilondieresistonos" unicode="&#x3b0;" horiz-adv-x="578" 
d="M491 288c0 -202 -89 -296 -213 -296c-137 0 -186 79 -186 228v277h63v-261c0 -129 31 -193 131 -193c84 0 142 67 142 233c0 78 -7 155 -18 221h66c11 -63 15 -137 15 -209zM449 658c0 -24 -19 -42 -42 -42c-24 0 -42 18 -42 42s18 42 42 42c23 0 42 -18 42 -42zM325 733
l-29 -167l-43 5l13 166zM209 658c0 -24 -18 -42 -42 -42c-23 0 -42 18 -42 42s19 42 42 42c24 0 42 -18 42 -42z" />
    <glyph glyph-name="phi" unicode="&#x3c6;" horiz-adv-x="659" 
d="M612 251c0 -128 -88 -245 -253 -257v-245h-59v243c-153 6 -252 89 -252 255c0 128 88 245 252 257v171h59v-170c153 -6 253 -88 253 -254zM300 45v409c-102 -7 -189 -75 -189 -202c0 -122 68 -198 189 -207zM548 246c0 122 -68 198 -189 208v-409c103 7 189 73 189 201z
" />
    <glyph glyph-name="chi" unicode="&#x3c7;" horiz-adv-x="457" 
d="M463 -252c-9 -2 -24 -3 -34 -3c-66 0 -92 22 -147 172l-59 161l-156 -334l-63 20l192 378l-71 182c-43 112 -60 127 -96 127c-4 0 -10 0 -18 -1l-4 49c9 1 24 3 34 3c66 0 95 -25 140 -147l55 -148l136 290h72l-182 -356l76 -193c52 -137 69 -152 103 -152c4 0 10 0 18 1
z" />
    <glyph glyph-name="psi" unicode="&#x3c8;" horiz-adv-x="766" 
d="M678 280c0 -189 -88 -276 -265 -287v-244h-63v244c-224 9 -258 121 -258 248v256h63v-237c0 -124 31 -207 195 -216v631h63v-631c138 7 202 70 202 229c0 81 -6 157 -16 224h65c10 -64 14 -137 14 -217z" />
    <glyph glyph-name="omega" unicode="&#x3c9;" horiz-adv-x="763" 
d="M713 248c0 -161 -97 -256 -201 -256c-68 0 -121 40 -132 103c-21 -65 -75 -103 -144 -103c-104 0 -185 85 -185 236c0 126 45 215 119 290l49 -31c-67 -68 -102 -150 -102 -245c0 -118 54 -192 132 -192c50 0 102 43 102 138v177h62v-173c0 -97 48 -142 106 -142
c64 0 127 63 127 190c0 107 -37 179 -100 244l53 34c61 -62 114 -139 114 -270z" />
    <glyph glyph-name="omegatonos" unicode="&#x3ce;" horiz-adv-x="763" 
d="M713 248c0 -161 -97 -256 -201 -256c-68 0 -121 40 -132 103c-21 -65 -75 -103 -144 -103c-104 0 -185 85 -185 236c0 126 45 215 119 290l49 -31c-67 -68 -102 -150 -102 -245c0 -118 54 -192 132 -192c50 0 102 43 102 138v177h62v-173c0 -97 48 -142 106 -142
c64 0 127 63 127 190c0 107 -37 179 -100 244l53 34c61 -62 114 -139 114 -270zM438 732l-39 -165l-46 6l23 166z" />
    <glyph glyph-name="GreekSmallCaps" unicode="&#xf126;" horiz-adv-x="926" 
d="M240 -76c0 -58 -43 -109 -125 -109c-27 0 -55 4 -78 13l9 42c23 -10 48 -17 72 -17c51 0 75 28 75 69c0 96 -157 77 -157 198c0 57 41 106 120 106c21 0 43 -3 66 -9l-9 -39c-21 7 -42 12 -60 12c-48 0 -71 -29 -71 -67c0 -90 158 -74 158 -199zM552 -164
c-25 -12 -57 -21 -93 -21c-99 0 -147 73 -147 198c0 121 46 213 157 213c28 0 55 -6 79 -15l-12 -38c-22 11 -45 16 -68 16c-78 0 -108 -76 -108 -170c0 -105 34 -166 108 -166c28 0 53 8 71 18zM304 721l-14 -38c-27 12 -57 20 -89 20c-88 0 -118 -74 -118 -171
c0 -109 39 -167 116 -167c19 0 42 4 60 10v158h45v-184c-33 -13 -73 -21 -112 -21c-103 0 -156 71 -156 199c0 122 48 212 169 212c35 0 66 -5 99 -18zM631 333h-53l-105 184h-15v-184h-45v402c22 1 49 2 82 2c74 0 116 -33 116 -105c0 -66 -41 -103 -93 -110
c9 -13 19 -28 27 -42zM564 629c0 52 -25 72 -74 72c-11 0 -23 -1 -32 -1v-146c5 0 16 -1 31 -1c55 0 75 30 75 76zM881 333h-174v402h173v-37h-128v-140h122v-36h-122v-153h129v-36z" />
    </font>
</defs>
</svg>
