<svg width="48" height="48" viewBox="0 0 48 48" fill="none" xmlns="http://www.w3.org/2000/svg">
<circle cx="24" cy="24" r="24" fill="#DE2822"/>
<path opacity="0.4" d="M23.9993 33.9982C23.2303 33.9982 22.4623 33.7062 21.8753 33.1232L21.1453 32.3932C20.8623 32.1112 20.4833 31.9552 20.0813 31.9542H19.0543C17.3943 31.9542 16.0433 30.6032 16.0433 28.9432V27.9152C16.0423 27.5142 15.8863 27.1352 15.6033 26.8502L14.8853 26.1332C13.7093 24.9642 13.7043 23.0532 14.8743 21.8762L15.6043 21.1452C15.8863 20.8622 16.0423 20.4832 16.0433 20.0812V19.0552C16.0433 17.3942 17.3943 16.0432 19.0543 16.0432H20.0823C20.4833 16.0432 20.8613 15.8872 21.1463 15.6022L21.8653 14.8852C23.0343 13.7092 24.9443 13.7032 26.1223 14.8742L26.8523 15.6042C27.1363 15.8872 27.5143 16.0432 27.9153 16.0432H28.9433C30.6033 16.0432 31.9543 17.3942 31.9543 19.0552V20.0822C31.9553 20.4832 32.1113 20.8622 32.3943 21.1472L33.1123 21.8652C33.6813 22.4312 33.9963 23.1852 33.9993 23.9902C34.0013 24.7902 33.6933 25.5432 33.1323 26.1122C33.1223 26.1222 33.1133 26.1332 33.1033 26.1422L32.3933 26.8522C32.1113 27.1352 31.9553 27.5142 31.9543 27.9162V28.9432C31.9543 30.6032 30.6033 31.9542 28.9433 31.9542H27.9153C27.5143 31.9552 27.1353 32.1112 26.8513 32.3942L26.1323 33.1122C25.5463 33.7022 24.7723 33.9982 23.9993 33.9982Z" fill="#F9F9F9"/>
<path fill-rule="evenodd" clip-rule="evenodd" d="M22.0428 22.0509C21.8778 22.2159 21.6638 22.3049 21.4268 22.3049C21.2048 22.3049 20.9868 22.2139 20.8118 22.0499C20.6458 21.8849 20.5518 21.6589 20.5518 21.4299C20.5518 21.2119 20.6438 20.9879 20.8058 20.8149C20.8948 20.7249 21.0008 20.6569 21.1068 20.6209C21.4088 20.4829 21.8098 20.5639 22.0478 20.8139C22.1328 20.8989 22.1978 20.9919 22.2408 21.0889C22.2878 21.1929 22.3118 21.3109 22.3118 21.4299C22.3118 21.6679 22.2168 21.8889 22.0428 22.0509ZM27.1905 20.8098C26.8495 20.4698 26.2945 20.4698 25.9535 20.8098L20.8135 25.9498C20.4725 26.2908 20.4725 26.8458 20.8135 27.1878C20.9795 27.3528 21.1985 27.4438 21.4325 27.4438C21.6665 27.4438 21.8855 27.3528 22.0505 27.1878L27.1905 22.0478C27.5315 21.7058 27.5315 21.1518 27.1905 20.8098ZM26.9058 25.7639C26.5818 25.6279 26.1978 25.7019 25.9418 25.9579C25.8888 26.0199 25.8138 26.1159 25.7628 26.2289C25.7088 26.3509 25.7018 26.4819 25.7018 26.5699C25.7018 26.6579 25.7088 26.7879 25.7628 26.9099C25.8128 27.0219 25.8728 27.1129 25.9518 27.1919C26.1328 27.3599 26.3428 27.4449 26.5768 27.4449C26.7988 27.4449 27.0168 27.3549 27.1958 27.1879C27.3548 27.0289 27.4418 26.8089 27.4418 26.5699C27.4418 26.3299 27.3548 26.1109 27.1948 25.9509C27.1068 25.8639 27.0008 25.7959 26.9058 25.7639Z" fill="#F9F9F9"/>
</svg>
