<svg width="48" height="48" viewBox="0 0 48 48" fill="none" xmlns="http://www.w3.org/2000/svg">
<circle cx="24" cy="24" r="24" fill="#DE2822"/>
<path opacity="0.4" d="M25.7505 21.703V19.6832C25.354 19.6832 25.0251 19.3637 25.0251 18.9786V16.5735C25.0251 16.2532 24.764 16.0005 24.4352 16.0005H17.7911C15.7021 16.0005 14 17.653 14 19.6832V22.1154C14 22.3043 14.0774 22.4828 14.2128 22.6143C14.3482 22.7449 14.5319 22.82 14.7253 22.82C15.4603 22.82 16.0213 23.3273 16.0213 23.9944C16.0213 24.6905 15.4507 25.2448 14.735 25.2532C14.3385 25.2532 14 25.5257 14 25.9203V28.3262C14 30.3555 15.7021 31.9995 17.7814 31.9995H24.4352C24.764 31.9995 25.0251 31.7449 25.0251 31.4264V29.3963C25.0251 29.0026 25.354 28.6917 25.7505 28.6917V26.87C25.354 26.87 25.0251 26.5497 25.0251 26.1655V22.4076C25.0251 22.0224 25.354 21.703 25.7505 21.703Z" fill="#F9F9F9"/>
<path d="M31.9787 23.9948C31.9787 24.69 32.559 25.2443 33.265 25.2537C33.6615 25.2537 34 25.5262 34 25.9113V28.3258C34 30.3559 32.3075 32 30.2186 32H27.0658C26.7466 32 26.4758 31.7454 26.4758 31.426V29.3967C26.4758 29.0022 26.1567 28.6921 25.7505 28.6921V26.8705C26.1567 26.8705 26.4758 26.5502 26.4758 26.1659V22.4081C26.4758 22.022 26.1567 21.7035 25.7505 21.7035V19.6827C26.1567 19.6827 26.4758 19.3633 26.4758 18.9781V16.574C26.4758 16.2537 26.7466 16 27.0658 16H30.2186C32.3075 16 34 17.6441 34 19.6733V22.0407C34 22.2286 33.9226 22.4081 33.7872 22.5387C33.6518 22.6702 33.4681 22.7453 33.2747 22.7453C32.559 22.7453 31.9787 23.31 31.9787 23.9948Z" fill="#F9F9F9"/>
</svg>
