<svg width="48" height="48" viewBox="0 0 48 48" fill="none" xmlns="http://www.w3.org/2000/svg">
<circle cx="24" cy="24" r="24" fill="#DE2822"/>
<path d="M33.4274 14.5783C32.9274 14.0673 32.1874 13.8783 31.4974 14.0783L15.4074 18.7273C14.6794 18.9293 14.1634 19.5063 14.0244 20.2383C13.8824 20.9843 14.3784 21.9323 15.0264 22.3283L20.0574 25.4003C20.5734 25.7163 21.2394 25.6373 21.6664 25.2093L27.4274 19.4483C27.7174 19.1473 28.1974 19.1473 28.4874 19.4483C28.7774 19.7373 28.7774 20.2083 28.4874 20.5083L22.7164 26.2693C22.2884 26.6973 22.2084 27.3613 22.5234 27.8783L25.5974 32.9283C25.9574 33.5273 26.5774 33.8683 27.2574 33.8683C27.3374 33.8683 27.4274 33.8683 27.5074 33.8573C28.2874 33.7583 28.9074 33.2273 29.1374 32.4773L33.9074 16.5083C34.1174 15.8283 33.9274 15.0883 33.4274 14.5783Z" fill="#F9F9F9"/>
<path opacity="0.4" fill-rule="evenodd" clip-rule="evenodd" d="M15.0105 28.8078C14.8185 28.8078 14.6265 28.7348 14.4805 28.5878C14.1875 28.2948 14.1875 27.8208 14.4805 27.5278L15.8455 26.1618C16.1385 25.8698 16.6135 25.8698 16.9065 26.1618C17.1985 26.4548 17.1985 26.9298 16.9065 27.2228L15.5405 28.5878C15.3945 28.7348 15.2025 28.8078 15.0105 28.8078ZM18.7717 30.0002C18.5797 30.0002 18.3877 29.9272 18.2417 29.7802C17.9487 29.4872 17.9487 29.0132 18.2417 28.7202L19.6067 27.3542C19.8997 27.0622 20.3747 27.0622 20.6677 27.3542C20.9597 27.6472 20.9597 28.1222 20.6677 28.4152L19.3017 29.7802C19.1557 29.9272 18.9637 30.0002 18.7717 30.0002ZM19.0254 33.5682C19.1714 33.7152 19.3634 33.7882 19.5554 33.7882C19.7474 33.7882 19.9394 33.7152 20.0854 33.5682L21.4514 32.2032C21.7434 31.9102 21.7434 31.4352 21.4514 31.1422C21.1584 30.8502 20.6834 30.8502 20.3904 31.1422L19.0254 32.5082C18.7324 32.8012 18.7324 33.2752 19.0254 33.5682Z" fill="#F9F9F9"/>
</svg>
