<svg width="48" height="48" viewBox="0 0 48 48" fill="none" xmlns="http://www.w3.org/2000/svg">
<circle cx="24" cy="24" r="24" fill="#DE2822"/>
<path d="M24.0122 26.8301C22.4077 26.8301 21.1099 25.5801 21.1099 24.0101C21.1099 22.4401 22.4077 21.1801 24.0122 21.1801C25.6167 21.1801 26.8839 22.4401 26.8839 24.0101C26.8839 25.5801 25.6167 26.8301 24.0122 26.8301Z" fill="#F9F9F9"/>
<path opacity="0.4" d="M33.2301 26.3701C33.036 26.0701 32.76 25.7701 32.4023 25.5801C32.1162 25.4401 31.9322 25.2101 31.7687 24.9401C31.2475 24.0801 31.5541 22.9501 32.4228 22.4401C33.4447 21.8701 33.7718 20.6001 33.179 19.6101L32.4943 18.4301C31.9118 17.4401 30.6344 17.0901 29.6226 17.6701C28.7233 18.1501 27.5685 17.8301 27.0473 16.9801C26.8838 16.7001 26.7918 16.4001 26.8122 16.1001C26.8429 15.7101 26.7203 15.3401 26.5363 15.0401C26.1582 14.4201 25.4735 14.0001 24.7172 14.0001H23.2763C22.5302 14.0201 21.8455 14.4201 21.4674 15.0401C21.2732 15.3401 21.1608 15.7101 21.1813 16.1001C21.2017 16.4001 21.1097 16.7001 20.9462 16.9801C20.425 17.8301 19.2702 18.1501 18.3811 17.6701C17.3591 17.0901 16.0919 17.4401 15.4992 18.4301L14.8145 19.6101C14.2319 20.6001 14.559 21.8701 15.5707 22.4401C16.4394 22.9501 16.746 24.0801 16.235 24.9401C16.0612 25.2101 15.8773 25.4401 15.5911 25.5801C15.2437 25.7701 14.9371 26.0701 14.7736 26.3701C14.3955 26.9901 14.4159 27.7701 14.794 28.4201L15.4992 29.6201C15.8773 30.2601 16.5824 30.6601 17.3183 30.6601C17.6657 30.6601 18.0745 30.5601 18.4015 30.3601C18.657 30.1901 18.9636 30.1301 19.3009 30.1301C20.3126 30.1301 21.1608 30.9601 21.1813 31.9501C21.1813 33.1001 22.1215 34.0001 23.3069 34.0001H24.6968C25.872 34.0001 26.8122 33.1001 26.8122 31.9501C26.8429 30.9601 27.6911 30.1301 28.7029 30.1301C29.0299 30.1301 29.3365 30.1901 29.6022 30.3601C29.9292 30.5601 30.3278 30.6601 30.6855 30.6601C31.411 30.6601 32.1162 30.2601 32.4943 29.6201L33.2097 28.4201C33.5776 27.7501 33.6083 26.9901 33.2301 26.3701Z" fill="#F9F9F9"/>
</svg>
